%TF.GenerationSoftware,KiCad,Pcbnew,7.0.11+dfsg-1build4*%
%TF.CreationDate,2026-04-16T21:06:49+02:00*%
%TF.ProjectId,ChannelStrip,4368616e-6e65-46c5-9374-7269702e6b69,rev?*%
%TF.SameCoordinates,Original*%
%TF.FileFunction,Legend,Top*%
%TF.FilePolarity,Positive*%
%FSLAX46Y46*%
G04 Gerber Fmt 4.6, Leading zero omitted, Abs format (unit mm)*
G04 Created by KiCad (PCBNEW 7.0.11+dfsg-1build4) date 2026-04-16 21:06:49*
%MOMM*%
%LPD*%
G01*
G04 APERTURE LIST*
%ADD10C,0.150000*%
%ADD11C,0.120000*%
G04 APERTURE END LIST*
D10*
X151481009Y-94484285D02*
X151481009Y-94817618D01*
X152004819Y-94817618D02*
X151004819Y-94817618D01*
X151004819Y-94817618D02*
X151004819Y-94341428D01*
X151719104Y-94008094D02*
X151719104Y-93531904D01*
X152004819Y-94103332D02*
X151004819Y-93769999D01*
X151004819Y-93769999D02*
X152004819Y-93436666D01*
X152004819Y-93103332D02*
X151004819Y-93103332D01*
X151004819Y-93103332D02*
X151004819Y-92865237D01*
X151004819Y-92865237D02*
X151052438Y-92722380D01*
X151052438Y-92722380D02*
X151147676Y-92627142D01*
X151147676Y-92627142D02*
X151242914Y-92579523D01*
X151242914Y-92579523D02*
X151433390Y-92531904D01*
X151433390Y-92531904D02*
X151576247Y-92531904D01*
X151576247Y-92531904D02*
X151766723Y-92579523D01*
X151766723Y-92579523D02*
X151861961Y-92627142D01*
X151861961Y-92627142D02*
X151957200Y-92722380D01*
X151957200Y-92722380D02*
X152004819Y-92865237D01*
X152004819Y-92865237D02*
X152004819Y-93103332D01*
X151481009Y-92103332D02*
X151481009Y-91769999D01*
X152004819Y-91627142D02*
X152004819Y-92103332D01*
X152004819Y-92103332D02*
X151004819Y-92103332D01*
X151004819Y-92103332D02*
X151004819Y-91627142D01*
X152004819Y-90627142D02*
X151528628Y-90960475D01*
X152004819Y-91198570D02*
X151004819Y-91198570D01*
X151004819Y-91198570D02*
X151004819Y-90817618D01*
X151004819Y-90817618D02*
X151052438Y-90722380D01*
X151052438Y-90722380D02*
X151100057Y-90674761D01*
X151100057Y-90674761D02*
X151195295Y-90627142D01*
X151195295Y-90627142D02*
X151338152Y-90627142D01*
X151338152Y-90627142D02*
X151433390Y-90674761D01*
X151433390Y-90674761D02*
X151481009Y-90722380D01*
X151481009Y-90722380D02*
X151528628Y-90817618D01*
X151528628Y-90817618D02*
X151528628Y-91198570D01*
X152004819Y-89674761D02*
X152004819Y-90246189D01*
X152004819Y-89960475D02*
X151004819Y-89960475D01*
X151004819Y-89960475D02*
X151147676Y-90055713D01*
X151147676Y-90055713D02*
X151242914Y-90150951D01*
X151242914Y-90150951D02*
X151290533Y-90246189D01*
X161538095Y-138154819D02*
X161538095Y-137154819D01*
X161538095Y-137631009D02*
X162109523Y-137631009D01*
X162109523Y-138154819D02*
X162109523Y-137154819D01*
X163109523Y-138154819D02*
X162538095Y-138154819D01*
X162823809Y-138154819D02*
X162823809Y-137154819D01*
X162823809Y-137154819D02*
X162728571Y-137297676D01*
X162728571Y-137297676D02*
X162633333Y-137392914D01*
X162633333Y-137392914D02*
X162538095Y-137440533D01*
X132266666Y-142164819D02*
X132266666Y-142879104D01*
X132266666Y-142879104D02*
X132219047Y-143021961D01*
X132219047Y-143021961D02*
X132123809Y-143117200D01*
X132123809Y-143117200D02*
X131980952Y-143164819D01*
X131980952Y-143164819D02*
X131885714Y-143164819D01*
X133266666Y-143164819D02*
X132695238Y-143164819D01*
X132980952Y-143164819D02*
X132980952Y-142164819D01*
X132980952Y-142164819D02*
X132885714Y-142307676D01*
X132885714Y-142307676D02*
X132790476Y-142402914D01*
X132790476Y-142402914D02*
X132695238Y-142450533D01*
X135957143Y-115104819D02*
X135957143Y-114104819D01*
X135957143Y-114104819D02*
X136338095Y-114104819D01*
X136338095Y-114104819D02*
X136433333Y-114152438D01*
X136433333Y-114152438D02*
X136480952Y-114200057D01*
X136480952Y-114200057D02*
X136528571Y-114295295D01*
X136528571Y-114295295D02*
X136528571Y-114438152D01*
X136528571Y-114438152D02*
X136480952Y-114533390D01*
X136480952Y-114533390D02*
X136433333Y-114581009D01*
X136433333Y-114581009D02*
X136338095Y-114628628D01*
X136338095Y-114628628D02*
X135957143Y-114628628D01*
X137147619Y-114104819D02*
X137338095Y-114104819D01*
X137338095Y-114104819D02*
X137433333Y-114152438D01*
X137433333Y-114152438D02*
X137528571Y-114247676D01*
X137528571Y-114247676D02*
X137576190Y-114438152D01*
X137576190Y-114438152D02*
X137576190Y-114771485D01*
X137576190Y-114771485D02*
X137528571Y-114961961D01*
X137528571Y-114961961D02*
X137433333Y-115057200D01*
X137433333Y-115057200D02*
X137338095Y-115104819D01*
X137338095Y-115104819D02*
X137147619Y-115104819D01*
X137147619Y-115104819D02*
X137052381Y-115057200D01*
X137052381Y-115057200D02*
X136957143Y-114961961D01*
X136957143Y-114961961D02*
X136909524Y-114771485D01*
X136909524Y-114771485D02*
X136909524Y-114438152D01*
X136909524Y-114438152D02*
X136957143Y-114247676D01*
X136957143Y-114247676D02*
X137052381Y-114152438D01*
X137052381Y-114152438D02*
X137147619Y-114104819D01*
X137861905Y-114104819D02*
X138433333Y-114104819D01*
X138147619Y-115104819D02*
X138147619Y-114104819D01*
X139290476Y-115104819D02*
X138719048Y-115104819D01*
X139004762Y-115104819D02*
X139004762Y-114104819D01*
X139004762Y-114104819D02*
X138909524Y-114247676D01*
X138909524Y-114247676D02*
X138814286Y-114342914D01*
X138814286Y-114342914D02*
X138719048Y-114390533D01*
X144533333Y-142224819D02*
X144200000Y-141748628D01*
X143961905Y-142224819D02*
X143961905Y-141224819D01*
X143961905Y-141224819D02*
X144342857Y-141224819D01*
X144342857Y-141224819D02*
X144438095Y-141272438D01*
X144438095Y-141272438D02*
X144485714Y-141320057D01*
X144485714Y-141320057D02*
X144533333Y-141415295D01*
X144533333Y-141415295D02*
X144533333Y-141558152D01*
X144533333Y-141558152D02*
X144485714Y-141653390D01*
X144485714Y-141653390D02*
X144438095Y-141701009D01*
X144438095Y-141701009D02*
X144342857Y-141748628D01*
X144342857Y-141748628D02*
X143961905Y-141748628D01*
X145485714Y-142224819D02*
X144914286Y-142224819D01*
X145200000Y-142224819D02*
X145200000Y-141224819D01*
X145200000Y-141224819D02*
X145104762Y-141367676D01*
X145104762Y-141367676D02*
X145009524Y-141462914D01*
X145009524Y-141462914D02*
X144914286Y-141510533D01*
X135957143Y-98104819D02*
X135957143Y-97104819D01*
X135957143Y-97104819D02*
X136338095Y-97104819D01*
X136338095Y-97104819D02*
X136433333Y-97152438D01*
X136433333Y-97152438D02*
X136480952Y-97200057D01*
X136480952Y-97200057D02*
X136528571Y-97295295D01*
X136528571Y-97295295D02*
X136528571Y-97438152D01*
X136528571Y-97438152D02*
X136480952Y-97533390D01*
X136480952Y-97533390D02*
X136433333Y-97581009D01*
X136433333Y-97581009D02*
X136338095Y-97628628D01*
X136338095Y-97628628D02*
X135957143Y-97628628D01*
X137147619Y-97104819D02*
X137338095Y-97104819D01*
X137338095Y-97104819D02*
X137433333Y-97152438D01*
X137433333Y-97152438D02*
X137528571Y-97247676D01*
X137528571Y-97247676D02*
X137576190Y-97438152D01*
X137576190Y-97438152D02*
X137576190Y-97771485D01*
X137576190Y-97771485D02*
X137528571Y-97961961D01*
X137528571Y-97961961D02*
X137433333Y-98057200D01*
X137433333Y-98057200D02*
X137338095Y-98104819D01*
X137338095Y-98104819D02*
X137147619Y-98104819D01*
X137147619Y-98104819D02*
X137052381Y-98057200D01*
X137052381Y-98057200D02*
X136957143Y-97961961D01*
X136957143Y-97961961D02*
X136909524Y-97771485D01*
X136909524Y-97771485D02*
X136909524Y-97438152D01*
X136909524Y-97438152D02*
X136957143Y-97247676D01*
X136957143Y-97247676D02*
X137052381Y-97152438D01*
X137052381Y-97152438D02*
X137147619Y-97104819D01*
X137861905Y-97104819D02*
X138433333Y-97104819D01*
X138147619Y-98104819D02*
X138147619Y-97104819D01*
X138719048Y-97200057D02*
X138766667Y-97152438D01*
X138766667Y-97152438D02*
X138861905Y-97104819D01*
X138861905Y-97104819D02*
X139100000Y-97104819D01*
X139100000Y-97104819D02*
X139195238Y-97152438D01*
X139195238Y-97152438D02*
X139242857Y-97200057D01*
X139242857Y-97200057D02*
X139290476Y-97295295D01*
X139290476Y-97295295D02*
X139290476Y-97390533D01*
X139290476Y-97390533D02*
X139242857Y-97533390D01*
X139242857Y-97533390D02*
X138671429Y-98104819D01*
X138671429Y-98104819D02*
X139290476Y-98104819D01*
X125738095Y-48254819D02*
X125738095Y-47254819D01*
X125738095Y-47731009D02*
X126309523Y-47731009D01*
X126309523Y-48254819D02*
X126309523Y-47254819D01*
X126738095Y-47350057D02*
X126785714Y-47302438D01*
X126785714Y-47302438D02*
X126880952Y-47254819D01*
X126880952Y-47254819D02*
X127119047Y-47254819D01*
X127119047Y-47254819D02*
X127214285Y-47302438D01*
X127214285Y-47302438D02*
X127261904Y-47350057D01*
X127261904Y-47350057D02*
X127309523Y-47445295D01*
X127309523Y-47445295D02*
X127309523Y-47540533D01*
X127309523Y-47540533D02*
X127261904Y-47683390D01*
X127261904Y-47683390D02*
X126690476Y-48254819D01*
X126690476Y-48254819D02*
X127309523Y-48254819D01*
X142398095Y-115494819D02*
X142398095Y-116304342D01*
X142398095Y-116304342D02*
X142445714Y-116399580D01*
X142445714Y-116399580D02*
X142493333Y-116447200D01*
X142493333Y-116447200D02*
X142588571Y-116494819D01*
X142588571Y-116494819D02*
X142779047Y-116494819D01*
X142779047Y-116494819D02*
X142874285Y-116447200D01*
X142874285Y-116447200D02*
X142921904Y-116399580D01*
X142921904Y-116399580D02*
X142969523Y-116304342D01*
X142969523Y-116304342D02*
X142969523Y-115494819D01*
X143969523Y-116494819D02*
X143398095Y-116494819D01*
X143683809Y-116494819D02*
X143683809Y-115494819D01*
X143683809Y-115494819D02*
X143588571Y-115637676D01*
X143588571Y-115637676D02*
X143493333Y-115732914D01*
X143493333Y-115732914D02*
X143398095Y-115780533D01*
X135957143Y-81104819D02*
X135957143Y-80104819D01*
X135957143Y-80104819D02*
X136338095Y-80104819D01*
X136338095Y-80104819D02*
X136433333Y-80152438D01*
X136433333Y-80152438D02*
X136480952Y-80200057D01*
X136480952Y-80200057D02*
X136528571Y-80295295D01*
X136528571Y-80295295D02*
X136528571Y-80438152D01*
X136528571Y-80438152D02*
X136480952Y-80533390D01*
X136480952Y-80533390D02*
X136433333Y-80581009D01*
X136433333Y-80581009D02*
X136338095Y-80628628D01*
X136338095Y-80628628D02*
X135957143Y-80628628D01*
X137147619Y-80104819D02*
X137338095Y-80104819D01*
X137338095Y-80104819D02*
X137433333Y-80152438D01*
X137433333Y-80152438D02*
X137528571Y-80247676D01*
X137528571Y-80247676D02*
X137576190Y-80438152D01*
X137576190Y-80438152D02*
X137576190Y-80771485D01*
X137576190Y-80771485D02*
X137528571Y-80961961D01*
X137528571Y-80961961D02*
X137433333Y-81057200D01*
X137433333Y-81057200D02*
X137338095Y-81104819D01*
X137338095Y-81104819D02*
X137147619Y-81104819D01*
X137147619Y-81104819D02*
X137052381Y-81057200D01*
X137052381Y-81057200D02*
X136957143Y-80961961D01*
X136957143Y-80961961D02*
X136909524Y-80771485D01*
X136909524Y-80771485D02*
X136909524Y-80438152D01*
X136909524Y-80438152D02*
X136957143Y-80247676D01*
X136957143Y-80247676D02*
X137052381Y-80152438D01*
X137052381Y-80152438D02*
X137147619Y-80104819D01*
X137861905Y-80104819D02*
X138433333Y-80104819D01*
X138147619Y-81104819D02*
X138147619Y-80104819D01*
X138671429Y-80104819D02*
X139290476Y-80104819D01*
X139290476Y-80104819D02*
X138957143Y-80485771D01*
X138957143Y-80485771D02*
X139100000Y-80485771D01*
X139100000Y-80485771D02*
X139195238Y-80533390D01*
X139195238Y-80533390D02*
X139242857Y-80581009D01*
X139242857Y-80581009D02*
X139290476Y-80676247D01*
X139290476Y-80676247D02*
X139290476Y-80914342D01*
X139290476Y-80914342D02*
X139242857Y-81009580D01*
X139242857Y-81009580D02*
X139195238Y-81057200D01*
X139195238Y-81057200D02*
X139100000Y-81104819D01*
X139100000Y-81104819D02*
X138814286Y-81104819D01*
X138814286Y-81104819D02*
X138719048Y-81057200D01*
X138719048Y-81057200D02*
X138671429Y-81009580D01*
X160557200Y-139033332D02*
X160604819Y-138890475D01*
X160604819Y-138890475D02*
X160604819Y-138652380D01*
X160604819Y-138652380D02*
X160557200Y-138557142D01*
X160557200Y-138557142D02*
X160509580Y-138509523D01*
X160509580Y-138509523D02*
X160414342Y-138461904D01*
X160414342Y-138461904D02*
X160319104Y-138461904D01*
X160319104Y-138461904D02*
X160223866Y-138509523D01*
X160223866Y-138509523D02*
X160176247Y-138557142D01*
X160176247Y-138557142D02*
X160128628Y-138652380D01*
X160128628Y-138652380D02*
X160081009Y-138842856D01*
X160081009Y-138842856D02*
X160033390Y-138938094D01*
X160033390Y-138938094D02*
X159985771Y-138985713D01*
X159985771Y-138985713D02*
X159890533Y-139033332D01*
X159890533Y-139033332D02*
X159795295Y-139033332D01*
X159795295Y-139033332D02*
X159700057Y-138985713D01*
X159700057Y-138985713D02*
X159652438Y-138938094D01*
X159652438Y-138938094D02*
X159604819Y-138842856D01*
X159604819Y-138842856D02*
X159604819Y-138604761D01*
X159604819Y-138604761D02*
X159652438Y-138461904D01*
X159604819Y-138128570D02*
X160604819Y-137890475D01*
X160604819Y-137890475D02*
X159890533Y-137699999D01*
X159890533Y-137699999D02*
X160604819Y-137509523D01*
X160604819Y-137509523D02*
X159604819Y-137271428D01*
X160604819Y-136366666D02*
X160604819Y-136938094D01*
X160604819Y-136652380D02*
X159604819Y-136652380D01*
X159604819Y-136652380D02*
X159747676Y-136747618D01*
X159747676Y-136747618D02*
X159842914Y-136842856D01*
X159842914Y-136842856D02*
X159890533Y-136938094D01*
X135957143Y-64104819D02*
X135957143Y-63104819D01*
X135957143Y-63104819D02*
X136338095Y-63104819D01*
X136338095Y-63104819D02*
X136433333Y-63152438D01*
X136433333Y-63152438D02*
X136480952Y-63200057D01*
X136480952Y-63200057D02*
X136528571Y-63295295D01*
X136528571Y-63295295D02*
X136528571Y-63438152D01*
X136528571Y-63438152D02*
X136480952Y-63533390D01*
X136480952Y-63533390D02*
X136433333Y-63581009D01*
X136433333Y-63581009D02*
X136338095Y-63628628D01*
X136338095Y-63628628D02*
X135957143Y-63628628D01*
X137147619Y-63104819D02*
X137338095Y-63104819D01*
X137338095Y-63104819D02*
X137433333Y-63152438D01*
X137433333Y-63152438D02*
X137528571Y-63247676D01*
X137528571Y-63247676D02*
X137576190Y-63438152D01*
X137576190Y-63438152D02*
X137576190Y-63771485D01*
X137576190Y-63771485D02*
X137528571Y-63961961D01*
X137528571Y-63961961D02*
X137433333Y-64057200D01*
X137433333Y-64057200D02*
X137338095Y-64104819D01*
X137338095Y-64104819D02*
X137147619Y-64104819D01*
X137147619Y-64104819D02*
X137052381Y-64057200D01*
X137052381Y-64057200D02*
X136957143Y-63961961D01*
X136957143Y-63961961D02*
X136909524Y-63771485D01*
X136909524Y-63771485D02*
X136909524Y-63438152D01*
X136909524Y-63438152D02*
X136957143Y-63247676D01*
X136957143Y-63247676D02*
X137052381Y-63152438D01*
X137052381Y-63152438D02*
X137147619Y-63104819D01*
X137861905Y-63104819D02*
X138433333Y-63104819D01*
X138147619Y-64104819D02*
X138147619Y-63104819D01*
X139195238Y-63438152D02*
X139195238Y-64104819D01*
X138957143Y-63057200D02*
X138719048Y-63771485D01*
X138719048Y-63771485D02*
X139338095Y-63771485D01*
X161538095Y-48254819D02*
X161538095Y-47254819D01*
X161538095Y-47731009D02*
X162109523Y-47731009D01*
X162109523Y-48254819D02*
X162109523Y-47254819D01*
X163014285Y-47588152D02*
X163014285Y-48254819D01*
X162776190Y-47207200D02*
X162538095Y-47921485D01*
X162538095Y-47921485D02*
X163157142Y-47921485D01*
X125838095Y-138254819D02*
X125838095Y-137254819D01*
X125838095Y-137731009D02*
X126409523Y-137731009D01*
X126409523Y-138254819D02*
X126409523Y-137254819D01*
X126790476Y-137254819D02*
X127409523Y-137254819D01*
X127409523Y-137254819D02*
X127076190Y-137635771D01*
X127076190Y-137635771D02*
X127219047Y-137635771D01*
X127219047Y-137635771D02*
X127314285Y-137683390D01*
X127314285Y-137683390D02*
X127361904Y-137731009D01*
X127361904Y-137731009D02*
X127409523Y-137826247D01*
X127409523Y-137826247D02*
X127409523Y-138064342D01*
X127409523Y-138064342D02*
X127361904Y-138159580D01*
X127361904Y-138159580D02*
X127314285Y-138207200D01*
X127314285Y-138207200D02*
X127219047Y-138254819D01*
X127219047Y-138254819D02*
X126933333Y-138254819D01*
X126933333Y-138254819D02*
X126838095Y-138207200D01*
X126838095Y-138207200D02*
X126790476Y-138159580D01*
D11*
%TO.C,FADER1*%
X155050000Y-130695000D02*
X156050000Y-130695000D01*
X156050000Y-130695000D02*
X155550000Y-130195000D01*
X155550000Y-130195000D02*
X155050000Y-130695000D01*
X152680000Y-129890000D02*
X154375000Y-129890000D01*
X152680000Y-129890000D02*
X152680000Y-125305000D01*
X156725000Y-129890000D02*
X158228000Y-129890000D01*
X159873000Y-129890000D02*
X161920000Y-129890000D01*
X161920000Y-129890000D02*
X161920000Y-126505000D01*
X161920000Y-123234000D02*
X161920000Y-61305000D01*
X155800000Y-122270000D02*
X158800000Y-122270000D01*
X157300000Y-122270000D02*
X158050000Y-121520000D01*
X157300000Y-122270000D02*
X157300000Y-62270000D01*
X152680000Y-122034000D02*
X152680000Y-62505000D01*
X156550000Y-121520000D02*
X157300000Y-122270000D01*
X156550000Y-63020000D02*
X157300000Y-62270000D01*
X155800000Y-62270000D02*
X158800000Y-62270000D01*
X157300000Y-62270000D02*
X158050000Y-63020000D01*
X152680000Y-59234000D02*
X152680000Y-54650000D01*
X161920000Y-58034000D02*
X161920000Y-54650000D01*
X152680000Y-54650000D02*
X154727000Y-54650000D01*
X156373000Y-54650000D02*
X161920000Y-54650000D01*
%TO.C,J1*%
X133930000Y-141710000D02*
X132600000Y-141710000D01*
X133930000Y-140380000D02*
X133930000Y-141710000D01*
X133930000Y-139110000D02*
X133930000Y-116190000D01*
X133930000Y-139110000D02*
X131270000Y-139110000D01*
X133930000Y-116190000D02*
X131270000Y-116190000D01*
X131270000Y-139110000D02*
X131270000Y-116190000D01*
%TO.C,POT1*%
X142770000Y-111970000D02*
X142770000Y-110371000D01*
X142770000Y-111970000D02*
X138905000Y-111970000D01*
X142770000Y-108629000D02*
X142770000Y-107870000D01*
X142770000Y-106129000D02*
X142770000Y-105370000D01*
X142770000Y-103630000D02*
X142770000Y-102030000D01*
X142770000Y-102030000D02*
X138905000Y-102030000D01*
X134395000Y-111970000D02*
X130530000Y-111970000D01*
X134395000Y-102030000D02*
X130530000Y-102030000D01*
X130530000Y-111970000D02*
X130530000Y-102030000D01*
%TO.C,R1*%
X148740000Y-139400000D02*
X147970000Y-139400000D01*
X147970000Y-140770000D02*
X147970000Y-138030000D01*
X147970000Y-138030000D02*
X141430000Y-138030000D01*
X141430000Y-140770000D02*
X147970000Y-140770000D01*
X141430000Y-138030000D02*
X141430000Y-140770000D01*
X140660000Y-139400000D02*
X141430000Y-139400000D01*
%TO.C,POT2*%
X142770000Y-94970000D02*
X142770000Y-93371000D01*
X142770000Y-94970000D02*
X138905000Y-94970000D01*
X142770000Y-91629000D02*
X142770000Y-90870000D01*
X142770000Y-89129000D02*
X142770000Y-88370000D01*
X142770000Y-86630000D02*
X142770000Y-85030000D01*
X142770000Y-85030000D02*
X138905000Y-85030000D01*
X134395000Y-94970000D02*
X130530000Y-94970000D01*
X134395000Y-85030000D02*
X130530000Y-85030000D01*
X130530000Y-94970000D02*
X130530000Y-85030000D01*
%TO.C,U1*%
X139300000Y-116880000D02*
X139300000Y-117145000D01*
X139300000Y-132500000D02*
X139300000Y-132235000D01*
X143160000Y-116880000D02*
X139300000Y-116880000D01*
X143160000Y-116880000D02*
X147020000Y-116880000D01*
X143160000Y-132500000D02*
X139300000Y-132500000D01*
X143160000Y-132500000D02*
X147020000Y-132500000D01*
X147020000Y-116880000D02*
X147020000Y-117145000D01*
X147020000Y-132500000D02*
X147020000Y-132235000D01*
X138447500Y-117145000D02*
X138107500Y-116675000D01*
X138787500Y-116675000D01*
X138447500Y-117145000D01*
G36*
X138447500Y-117145000D02*
G01*
X138107500Y-116675000D01*
X138787500Y-116675000D01*
X138447500Y-117145000D01*
G37*
%TO.C,POT3*%
X142770000Y-77970000D02*
X142770000Y-76371000D01*
X142770000Y-77970000D02*
X138905000Y-77970000D01*
X142770000Y-74629000D02*
X142770000Y-73870000D01*
X142770000Y-72129000D02*
X142770000Y-71370000D01*
X142770000Y-69630000D02*
X142770000Y-68030000D01*
X142770000Y-68030000D02*
X138905000Y-68030000D01*
X134395000Y-77970000D02*
X130530000Y-77970000D01*
X134395000Y-68030000D02*
X130530000Y-68030000D01*
X130530000Y-77970000D02*
X130530000Y-68030000D01*
%TO.C,SW1*%
X156650000Y-134200000D02*
X155150000Y-134200000D01*
X152650000Y-135450000D02*
X152650000Y-139950000D01*
X159150000Y-139950000D02*
X159150000Y-135450000D01*
X155150000Y-141200000D02*
X156650000Y-141200000D01*
%TO.C,POT4*%
X142770000Y-60970000D02*
X142770000Y-59371000D01*
X142770000Y-60970000D02*
X138905000Y-60970000D01*
X142770000Y-57629000D02*
X142770000Y-56870000D01*
X142770000Y-55129000D02*
X142770000Y-54370000D01*
X142770000Y-52630000D02*
X142770000Y-51030000D01*
X142770000Y-51030000D02*
X138905000Y-51030000D01*
X134395000Y-60970000D02*
X130530000Y-60970000D01*
X134395000Y-51030000D02*
X130530000Y-51030000D01*
X130530000Y-60970000D02*
X130530000Y-51030000D01*
%TD*%
M02*
