M48
; DRILL file {KiCad 7.0.11+dfsg-1build4} date jue 16 abr 2026 21:06:44
; FORMAT={-:-/ absolute / inch / decimal}
; #@! TF.CreationDate,2026-04-16T21:06:44+02:00
; #@! TF.GenerationSoftware,Kicad,Pcbnew,7.0.11+dfsg-1build4
; #@! TF.FileFunction,Plated,1,2,PTH
FMAT,2
INCH
; #@! TA.AperFunction,Plated,PTH,ViaDrill
T1C0.0118
; #@! TA.AperFunction,Plated,PTH,ComponentDrill
T2C0.0157
; #@! TA.AperFunction,Plated,PTH,ComponentDrill
T3C0.0315
; #@! TA.AperFunction,Plated,PTH,ComponentDrill
T4C0.0394
; #@! TA.AperFunction,Plated,PTH,ComponentDrill
T5C0.0433
; #@! TA.AperFunction,Plated,PTH,ComponentDrill
T6C0.0472
; #@! TA.AperFunction,Plated,PTH,ComponentDrill
T7C0.0669
; #@! TA.AperFunction,Plated,PTH,ComponentDrill
T8C0.0866
%
G90
G05
T1
X5.2795Y-5.122
X5.4531Y-4.7841
X5.4531Y-5.0841
X5.4567Y-5.185
X5.5079Y-5.0276
X5.5236Y-5.1496
X5.6614Y-5.0841
X5.8193Y-5.1841
X5.8268Y-5.0827
T2
X4.9154Y-2.0079
X4.9193Y-5.5512
X4.9344Y-1.9619
X4.9344Y-2.0538
X4.9383Y-5.5052
X4.9383Y-5.5971
X4.9803Y-1.9429
X4.9803Y-2.0728
X4.9843Y-5.4862
X4.9843Y-5.6161
X5.0262Y-1.9619
X5.0262Y-2.0538
X5.0302Y-5.5052
X5.0302Y-5.5971
X5.0453Y-2.0079
X5.0492Y-5.5512
X6.3248Y-2.0079
X6.3248Y-5.5472
X6.3438Y-1.9619
X6.3438Y-2.0538
X6.3438Y-5.5013
X6.3438Y-5.5932
X6.3898Y-1.9429
X6.3898Y-2.0728
X6.3898Y-5.4823
X6.3898Y-5.6122
X6.4357Y-1.9619
X6.4357Y-2.0538
X6.4357Y-5.5013
X6.4357Y-5.5932
X6.4547Y-2.0079
X6.4547Y-5.5472
T3
X5.4969Y-5.4882
X5.8969Y-5.4882
T4
X5.2205Y-4.6268
X5.2205Y-4.7268
X5.2205Y-4.8268
X5.2205Y-4.9268
X5.2205Y-5.0268
X5.2205Y-5.1268
X5.2205Y-5.2268
X5.2205Y-5.3268
X5.2205Y-5.4268
X5.2205Y-5.5268
X5.6555Y-2.1063
X5.6555Y-2.2047
X5.6555Y-2.3031
X5.6555Y-2.7756
X5.6555Y-2.874
X5.6555Y-2.9724
X5.6555Y-3.4449
X5.6555Y-3.5433
X5.6555Y-3.6417
X5.6555Y-4.1142
X5.6555Y-4.2126
X5.6555Y-4.311
T5
X6.0492Y-5.2933
X6.0492Y-5.5492
X6.2264Y-5.2933
X6.2264Y-5.5492
T6
X6.124Y-2.1858
X6.124Y-5.0795
X6.2618Y-5.0795
T7
X6.0276Y-2.3965
X6.0276Y-4.8689
X6.3583Y-2.3492
X6.3583Y-4.9161
T8
X4.9803Y-2.0079
X4.9843Y-5.5512
X6.3898Y-2.0079
X6.3898Y-5.5472
M30
