%TF.GenerationSoftware,KiCad,Pcbnew,7.0.11+dfsg-1build4*%
%TF.CreationDate,2026-04-16T21:06:49+02:00*%
%TF.ProjectId,ChannelStrip,4368616e-6e65-46c5-9374-7269702e6b69,rev?*%
%TF.SameCoordinates,Original*%
%TF.FileFunction,Copper,L1,Top*%
%TF.FilePolarity,Positive*%
%FSLAX46Y46*%
G04 Gerber Fmt 4.6, Leading zero omitted, Abs format (unit mm)*
G04 Created by KiCad (PCBNEW 7.0.11+dfsg-1build4) date 2026-04-16 21:06:49*
%MOMM*%
%LPD*%
G01*
G04 APERTURE LIST*
G04 Aperture macros list*
%AMRoundRect*
0 Rectangle with rounded corners*
0 $1 Rounding radius*
0 $2 $3 $4 $5 $6 $7 $8 $9 X,Y pos of 4 corners*
0 Add a 4 corners polygon primitive as box body*
4,1,4,$2,$3,$4,$5,$6,$7,$8,$9,$2,$3,0*
0 Add four circle primitives for the rounded corners*
1,1,$1+$1,$2,$3*
1,1,$1+$1,$4,$5*
1,1,$1+$1,$6,$7*
1,1,$1+$1,$8,$9*
0 Add four rect primitives between the rounded corners*
20,1,$1+$1,$2,$3,$4,$5,0*
20,1,$1+$1,$4,$5,$6,$7,0*
20,1,$1+$1,$6,$7,$8,$9,0*
20,1,$1+$1,$8,$9,$2,$3,0*%
G04 Aperture macros list end*
%TA.AperFunction,ComponentPad*%
%ADD10R,1.750000X1.750000*%
%TD*%
%TA.AperFunction,ComponentPad*%
%ADD11C,1.750000*%
%TD*%
%TA.AperFunction,ComponentPad*%
%ADD12C,2.700000*%
%TD*%
%TA.AperFunction,ComponentPad*%
%ADD13C,0.700000*%
%TD*%
%TA.AperFunction,ComponentPad*%
%ADD14C,4.400000*%
%TD*%
%TA.AperFunction,ComponentPad*%
%ADD15R,1.700000X1.700000*%
%TD*%
%TA.AperFunction,ComponentPad*%
%ADD16O,1.700000X1.700000*%
%TD*%
%TA.AperFunction,WasherPad*%
%ADD17C,4.000000*%
%TD*%
%TA.AperFunction,ComponentPad*%
%ADD18C,1.800000*%
%TD*%
%TA.AperFunction,ComponentPad*%
%ADD19C,1.600000*%
%TD*%
%TA.AperFunction,ComponentPad*%
%ADD20O,1.600000X1.600000*%
%TD*%
%TA.AperFunction,SMDPad,CuDef*%
%ADD21RoundRect,0.150000X-0.875000X-0.150000X0.875000X-0.150000X0.875000X0.150000X-0.875000X0.150000X0*%
%TD*%
%TA.AperFunction,ComponentPad*%
%ADD22C,2.000000*%
%TD*%
%TA.AperFunction,ViaPad*%
%ADD23C,0.600000*%
%TD*%
%TA.AperFunction,Conductor*%
%ADD24C,0.500000*%
%TD*%
%TA.AperFunction,Conductor*%
%ADD25C,0.250000*%
%TD*%
G04 APERTURE END LIST*
D10*
%TO.P,FADER1,1,1*%
%TO.N,+3V3*%
X155550000Y-129020000D03*
D11*
%TO.P,FADER1,2,2*%
%TO.N,/C0*%
X159050000Y-129020000D03*
%TO.P,FADER1,3,3*%
%TO.N,GND*%
X155550000Y-55520000D03*
D12*
%TO.P,FADER1,MP*%
%TO.N,N/C*%
X161500000Y-124870000D03*
X153100000Y-123670000D03*
X153100000Y-60870000D03*
X161500000Y-59670000D03*
%TD*%
D13*
%TO.P,H1,1,1*%
%TO.N,unconnected-(H1-Pad1)*%
X160650000Y-140900000D03*
X161133274Y-139733274D03*
X161133274Y-142066726D03*
X162300000Y-139250000D03*
D14*
X162300000Y-140900000D03*
D13*
X162300000Y-142550000D03*
X163466726Y-139733274D03*
X163466726Y-142066726D03*
X163950000Y-140900000D03*
%TD*%
D15*
%TO.P,J1,1,Pin_1*%
%TO.N,+3V3*%
X132600000Y-140380000D03*
D16*
%TO.P,J1,2,Pin_2*%
%TO.N,GND*%
X132600000Y-137840000D03*
%TO.P,J1,3,Pin_3*%
%TO.N,unconnected-(J1-Pin_3-Pad3)*%
X132600000Y-135300000D03*
%TO.P,J1,4,Pin_4*%
%TO.N,unconnected-(J1-Pin_4-Pad4)*%
X132600000Y-132760000D03*
%TO.P,J1,5,Pin_5*%
%TO.N,/S0*%
X132600000Y-130220000D03*
%TO.P,J1,6,Pin_6*%
%TO.N,/S1*%
X132600000Y-127680000D03*
%TO.P,J1,7,Pin_7*%
%TO.N,/S2*%
X132600000Y-125140000D03*
%TO.P,J1,8,Pin_8*%
%TO.N,/S3*%
X132600000Y-122600000D03*
%TO.P,J1,9,Pin_9*%
%TO.N,/SIG*%
X132600000Y-120060000D03*
%TO.P,J1,10,Pin_10*%
%TO.N,GND*%
X132600000Y-117520000D03*
%TD*%
D17*
%TO.P,POT1,*%
%TO.N,*%
X136650000Y-111400000D03*
X136650000Y-102600000D03*
D18*
%TO.P,POT1,1,1*%
%TO.N,+3V3*%
X143650000Y-104500000D03*
%TO.P,POT1,2,2*%
%TO.N,/C1*%
X143650000Y-107000000D03*
%TO.P,POT1,3,3*%
%TO.N,GND*%
X143650000Y-109500000D03*
%TD*%
D19*
%TO.P,R1,1*%
%TO.N,Net-(R1-Pad1)*%
X149780000Y-139400000D03*
D20*
%TO.P,R1,2*%
%TO.N,Net-(U1-I5)*%
X139620000Y-139400000D03*
%TD*%
D17*
%TO.P,POT2,*%
%TO.N,*%
X136650000Y-94400000D03*
X136650000Y-85600000D03*
D18*
%TO.P,POT2,1,1*%
%TO.N,+3V3*%
X143650000Y-87500000D03*
%TO.P,POT2,2,2*%
%TO.N,/C2*%
X143650000Y-90000000D03*
%TO.P,POT2,3,3*%
%TO.N,GND*%
X143650000Y-92500000D03*
%TD*%
D13*
%TO.P,H2,1,1*%
%TO.N,unconnected-(H2-Pad1)*%
X124850000Y-51000000D03*
X125333274Y-49833274D03*
X125333274Y-52166726D03*
X126500000Y-49350000D03*
D14*
X126500000Y-51000000D03*
D13*
X126500000Y-52650000D03*
X127666726Y-49833274D03*
X127666726Y-52166726D03*
X128150000Y-51000000D03*
%TD*%
D21*
%TO.P,U1,1,COM*%
%TO.N,/SIG*%
X138510000Y-117705000D03*
%TO.P,U1,2,I7*%
%TO.N,unconnected-(U1-I7-Pad2)*%
X138510000Y-118975000D03*
%TO.P,U1,3,I6*%
%TO.N,unconnected-(U1-I6-Pad3)*%
X138510000Y-120245000D03*
%TO.P,U1,4,I5*%
%TO.N,Net-(U1-I5)*%
X138510000Y-121515000D03*
%TO.P,U1,5,I4*%
%TO.N,/C4*%
X138510000Y-122785000D03*
%TO.P,U1,6,I3*%
%TO.N,/C3*%
X138510000Y-124055000D03*
%TO.P,U1,7,I2*%
%TO.N,/C2*%
X138510000Y-125325000D03*
%TO.P,U1,8,I1*%
%TO.N,/C1*%
X138510000Y-126595000D03*
%TO.P,U1,9,I0*%
%TO.N,/C0*%
X138510000Y-127865000D03*
%TO.P,U1,10,S0*%
%TO.N,/S0*%
X138510000Y-129135000D03*
%TO.P,U1,11,S1*%
%TO.N,/S1*%
X138510000Y-130405000D03*
%TO.P,U1,12,GND*%
%TO.N,GND*%
X138510000Y-131675000D03*
%TO.P,U1,13,S3*%
%TO.N,/S3*%
X147810000Y-131675000D03*
%TO.P,U1,14,S2*%
%TO.N,/S2*%
X147810000Y-130405000D03*
%TO.P,U1,15,~{E}*%
%TO.N,GND*%
X147810000Y-129135000D03*
%TO.P,U1,16,I15*%
%TO.N,unconnected-(U1-I15-Pad16)*%
X147810000Y-127865000D03*
%TO.P,U1,17,I14*%
%TO.N,unconnected-(U1-I14-Pad17)*%
X147810000Y-126595000D03*
%TO.P,U1,18,I13*%
%TO.N,unconnected-(U1-I13-Pad18)*%
X147810000Y-125325000D03*
%TO.P,U1,19,I12*%
%TO.N,unconnected-(U1-I12-Pad19)*%
X147810000Y-124055000D03*
%TO.P,U1,20,I11*%
%TO.N,unconnected-(U1-I11-Pad20)*%
X147810000Y-122785000D03*
%TO.P,U1,21,I10*%
%TO.N,unconnected-(U1-I10-Pad21)*%
X147810000Y-121515000D03*
%TO.P,U1,22,I9*%
%TO.N,unconnected-(U1-I9-Pad22)*%
X147810000Y-120245000D03*
%TO.P,U1,23,I8*%
%TO.N,unconnected-(U1-I8-Pad23)*%
X147810000Y-118975000D03*
%TO.P,U1,24,VCC*%
%TO.N,+3V3*%
X147810000Y-117705000D03*
%TD*%
D17*
%TO.P,POT3,*%
%TO.N,*%
X136650000Y-77400000D03*
X136650000Y-68600000D03*
D18*
%TO.P,POT3,1,1*%
%TO.N,+3V3*%
X143650000Y-70500000D03*
%TO.P,POT3,2,2*%
%TO.N,/C3*%
X143650000Y-73000000D03*
%TO.P,POT3,3,3*%
%TO.N,GND*%
X143650000Y-75500000D03*
%TD*%
D22*
%TO.P,SW1,1,1*%
%TO.N,GND*%
X158150000Y-134450000D03*
X158150000Y-140950000D03*
%TO.P,SW1,2,2*%
%TO.N,Net-(R1-Pad1)*%
X153650000Y-134450000D03*
X153650000Y-140950000D03*
%TD*%
D17*
%TO.P,POT4,*%
%TO.N,*%
X136650000Y-60400000D03*
X136650000Y-51600000D03*
D18*
%TO.P,POT4,1,1*%
%TO.N,+3V3*%
X143650000Y-53500000D03*
%TO.P,POT4,2,2*%
%TO.N,/C4*%
X143650000Y-56000000D03*
%TO.P,POT4,3,3*%
%TO.N,GND*%
X143650000Y-58500000D03*
%TD*%
D13*
%TO.P,H4,1,1*%
%TO.N,unconnected-(H4-Pad1)*%
X160650000Y-51000000D03*
X161133274Y-49833274D03*
X161133274Y-52166726D03*
X162300000Y-49350000D03*
D14*
X162300000Y-51000000D03*
D13*
X162300000Y-52650000D03*
X163466726Y-49833274D03*
X163466726Y-52166726D03*
X163950000Y-51000000D03*
%TD*%
%TO.P,H3,1,1*%
%TO.N,unconnected-(H3-Pad1)*%
X124950000Y-141000000D03*
X125433274Y-139833274D03*
X125433274Y-142166726D03*
X126600000Y-139350000D03*
D14*
X126600000Y-141000000D03*
D13*
X126600000Y-142650000D03*
X127766726Y-139833274D03*
X127766726Y-142166726D03*
X128250000Y-141000000D03*
%TD*%
D23*
%TO.N,/C0*%
X139900000Y-127700000D03*
%TO.N,GND*%
X138600000Y-131700000D03*
X148000000Y-129100000D03*
%TO.N,/S0*%
X138510000Y-129135000D03*
X134100000Y-130100000D03*
%TO.N,/S3*%
X143800000Y-129135000D03*
X147810000Y-131675000D03*
%TO.N,Net-(U1-I5)*%
X140300000Y-130800000D03*
X138510000Y-121515000D03*
%TD*%
D24*
%TO.N,+3V3*%
X143650000Y-70500000D02*
X145000000Y-69150000D01*
X155550000Y-129020000D02*
X151300000Y-124770000D01*
X145000000Y-69150000D02*
X145000000Y-54850000D01*
X143650000Y-104500000D02*
X145000000Y-103150000D01*
X143650000Y-87500000D02*
X145000000Y-86150000D01*
X151300000Y-124770000D02*
X151300000Y-120105000D01*
X149315000Y-117705000D02*
X147810000Y-117705000D01*
X145000000Y-103150000D02*
X145000000Y-88850000D01*
X147810000Y-108660000D02*
X143650000Y-104500000D01*
X148900000Y-117705000D02*
X147810000Y-117705000D01*
X145000000Y-88850000D02*
X143650000Y-87500000D01*
X145000000Y-71850000D02*
X143650000Y-70500000D01*
X145000000Y-54850000D02*
X143650000Y-53500000D01*
X151300000Y-120105000D02*
X148900000Y-117705000D01*
X147810000Y-117705000D02*
X147810000Y-108660000D01*
X145000000Y-86150000D02*
X145000000Y-71850000D01*
D25*
%TO.N,/C0*%
X139900000Y-127700000D02*
X138675000Y-127700000D01*
X138675000Y-127700000D02*
X138510000Y-127865000D01*
D24*
%TO.N,GND*%
X147965000Y-129135000D02*
X148000000Y-129100000D01*
X138575000Y-131675000D02*
X138600000Y-131700000D01*
X147810000Y-129135000D02*
X147965000Y-129135000D01*
X138510000Y-131675000D02*
X138575000Y-131675000D01*
D25*
%TO.N,/S0*%
X132600000Y-130220000D02*
X133980000Y-130220000D01*
X133980000Y-130220000D02*
X134100000Y-130100000D01*
%TO.N,/S1*%
X135325000Y-130405000D02*
X138510000Y-130405000D01*
X132600000Y-127680000D02*
X135325000Y-130405000D01*
%TO.N,/S2*%
X132600000Y-125140000D02*
X137220000Y-129760000D01*
X147165000Y-129760000D02*
X147810000Y-130405000D01*
X137220000Y-129760000D02*
X147165000Y-129760000D01*
%TO.N,/S3*%
X137160000Y-128215908D02*
X137454092Y-128510000D01*
X143175000Y-128510000D02*
X143800000Y-129135000D01*
X132600000Y-122600000D02*
X137160000Y-127160000D01*
X137160000Y-127160000D02*
X137160000Y-128215908D01*
X137454092Y-128510000D02*
X143175000Y-128510000D01*
%TO.N,/SIG*%
X132600000Y-120060000D02*
X134955000Y-117705000D01*
X134955000Y-117705000D02*
X138510000Y-117705000D01*
%TO.N,/C1*%
X144875000Y-108992588D02*
X144875000Y-121254999D01*
X144875000Y-121254999D02*
X139534999Y-126595000D01*
X143650000Y-107767588D02*
X144875000Y-108992588D01*
X143650000Y-107000000D02*
X143650000Y-107767588D01*
X139534999Y-126595000D02*
X138510000Y-126595000D01*
%TO.N,/C2*%
X142425000Y-110007412D02*
X142500000Y-110082412D01*
X139534999Y-125325000D02*
X138510000Y-125325000D01*
X142500000Y-110082412D02*
X142500000Y-122359999D01*
X143650000Y-90000000D02*
X142425000Y-91225000D01*
X142425000Y-91225000D02*
X142425000Y-110007412D01*
X142500000Y-122359999D02*
X139534999Y-125325000D01*
%TO.N,/C3*%
X141975000Y-121055001D02*
X138975001Y-124055000D01*
X141975000Y-74675000D02*
X141975000Y-121055001D01*
X138975001Y-124055000D02*
X138510000Y-124055000D01*
X143650000Y-73000000D02*
X141975000Y-74675000D01*
%TO.N,/C4*%
X139534999Y-122785000D02*
X138510000Y-122785000D01*
X141525000Y-58125000D02*
X141525000Y-120794999D01*
X141525000Y-120794999D02*
X139534999Y-122785000D01*
X143650000Y-56000000D02*
X141525000Y-58125000D01*
%TO.N,Net-(U1-I5)*%
X139620000Y-139400000D02*
X140300000Y-138720000D01*
X140300000Y-138720000D02*
X140300000Y-130800000D01*
%TD*%
M02*
