%TF.GenerationSoftware,KiCad,Pcbnew,7.0.11+dfsg-1build4*%
%TF.CreationDate,2026-04-12T03:17:05+02:00*%
%TF.ProjectId,Motherboard,4d6f7468-6572-4626-9f61-72642e6b6963,v1.0*%
%TF.SameCoordinates,Original*%
%TF.FileFunction,Copper,L1,Top*%
%TF.FilePolarity,Positive*%
%FSLAX46Y46*%
G04 Gerber Fmt 4.6, Leading zero omitted, Abs format (unit mm)*
G04 Created by KiCad (PCBNEW 7.0.11+dfsg-1build4) date 2026-04-12 03:17:05*
%MOMM*%
%LPD*%
G01*
G04 APERTURE LIST*
G04 Aperture macros list*
%AMRoundRect*
0 Rectangle with rounded corners*
0 $1 Rounding radius*
0 $2 $3 $4 $5 $6 $7 $8 $9 X,Y pos of 4 corners*
0 Add a 4 corners polygon primitive as box body*
4,1,4,$2,$3,$4,$5,$6,$7,$8,$9,$2,$3,0*
0 Add four circle primitives for the rounded corners*
1,1,$1+$1,$2,$3*
1,1,$1+$1,$4,$5*
1,1,$1+$1,$6,$7*
1,1,$1+$1,$8,$9*
0 Add four rect primitives between the rounded corners*
20,1,$1+$1,$2,$3,$4,$5,0*
20,1,$1+$1,$4,$5,$6,$7,0*
20,1,$1+$1,$6,$7,$8,$9,0*
20,1,$1+$1,$8,$9,$2,$3,0*%
G04 Aperture macros list end*
%TA.AperFunction,SMDPad,CuDef*%
%ADD10R,0.300000X1.300000*%
%TD*%
%TA.AperFunction,SMDPad,CuDef*%
%ADD11R,1.800000X2.200000*%
%TD*%
%TA.AperFunction,SMDPad,CuDef*%
%ADD12RoundRect,0.200000X0.275000X-0.200000X0.275000X0.200000X-0.275000X0.200000X-0.275000X-0.200000X0*%
%TD*%
%TA.AperFunction,ComponentPad*%
%ADD13R,1.700000X1.700000*%
%TD*%
%TA.AperFunction,ComponentPad*%
%ADD14O,1.700000X1.700000*%
%TD*%
%TA.AperFunction,SMDPad,CuDef*%
%ADD15RoundRect,0.062500X0.375000X0.062500X-0.375000X0.062500X-0.375000X-0.062500X0.375000X-0.062500X0*%
%TD*%
%TA.AperFunction,SMDPad,CuDef*%
%ADD16RoundRect,0.062500X0.062500X0.375000X-0.062500X0.375000X-0.062500X-0.375000X0.062500X-0.375000X0*%
%TD*%
%TA.AperFunction,HeatsinkPad*%
%ADD17R,5.600000X5.600000*%
%TD*%
%TA.AperFunction,SMDPad,CuDef*%
%ADD18R,1.200000X1.400000*%
%TD*%
%TA.AperFunction,SMDPad,CuDef*%
%ADD19RoundRect,0.225000X0.250000X-0.225000X0.250000X0.225000X-0.250000X0.225000X-0.250000X-0.225000X0*%
%TD*%
%TA.AperFunction,SMDPad,CuDef*%
%ADD20RoundRect,0.225000X-0.250000X0.225000X-0.250000X-0.225000X0.250000X-0.225000X0.250000X0.225000X0*%
%TD*%
%TA.AperFunction,SMDPad,CuDef*%
%ADD21RoundRect,0.225000X-0.225000X-0.250000X0.225000X-0.250000X0.225000X0.250000X-0.225000X0.250000X0*%
%TD*%
%TA.AperFunction,SMDPad,CuDef*%
%ADD22RoundRect,0.225000X0.225000X0.250000X-0.225000X0.250000X-0.225000X-0.250000X0.225000X-0.250000X0*%
%TD*%
%TA.AperFunction,SMDPad,CuDef*%
%ADD23RoundRect,0.200000X-0.275000X0.200000X-0.275000X-0.200000X0.275000X-0.200000X0.275000X0.200000X0*%
%TD*%
%TA.AperFunction,SMDPad,CuDef*%
%ADD24R,0.600000X1.450000*%
%TD*%
%TA.AperFunction,SMDPad,CuDef*%
%ADD25R,0.300000X1.450000*%
%TD*%
%TA.AperFunction,ComponentPad*%
%ADD26O,1.000000X2.100000*%
%TD*%
%TA.AperFunction,ComponentPad*%
%ADD27O,1.000000X1.600000*%
%TD*%
%TA.AperFunction,SMDPad,CuDef*%
%ADD28RoundRect,0.150000X-0.150000X0.512500X-0.150000X-0.512500X0.150000X-0.512500X0.150000X0.512500X0*%
%TD*%
%TA.AperFunction,ViaPad*%
%ADD29C,0.600000*%
%TD*%
%TA.AperFunction,Conductor*%
%ADD30C,0.500000*%
%TD*%
%TA.AperFunction,Conductor*%
%ADD31C,0.200000*%
%TD*%
G04 APERTURE END LIST*
D10*
%TO.P,J_CH4,1,Pin_1*%
%TO.N,+3V3*%
X125800000Y-113962500D03*
%TO.P,J_CH4,2,Pin_2*%
%TO.N,GND*%
X126300000Y-113962500D03*
%TO.P,J_CH4,3,Pin_3*%
%TO.N,I2C_SCL*%
X126800000Y-113962500D03*
%TO.P,J_CH4,4,Pin_4*%
%TO.N,I2C_SDA*%
X127300000Y-113962500D03*
%TO.P,J_CH4,5,Pin_5*%
%TO.N,MUX_S0*%
X127800000Y-113962500D03*
%TO.P,J_CH4,6,Pin_6*%
%TO.N,MUX_S1*%
X128300000Y-113962500D03*
%TO.P,J_CH4,7,Pin_7*%
%TO.N,MUX_S2*%
X128800000Y-113962500D03*
%TO.P,J_CH4,8,Pin_8*%
%TO.N,MUX_S3*%
X129300000Y-113962500D03*
%TO.P,J_CH4,9,Pin_9*%
%TO.N,CH4_ANALOG*%
X129800000Y-113962500D03*
%TO.P,J_CH4,10,Pin_10*%
%TO.N,GND*%
X130300000Y-113962500D03*
D11*
%TO.P,J_CH4,MP*%
%TO.N,N/C*%
X123900000Y-117212500D03*
X132200000Y-117212500D03*
%TD*%
D12*
%TO.P,R3,1*%
%TO.N,GND*%
X150350000Y-106987500D03*
%TO.P,R3,2*%
%TO.N,Net-(U1-BOOT0)*%
X150350000Y-105337500D03*
%TD*%
D10*
%TO.P,J_CH3,1,Pin_1*%
%TO.N,+3V3*%
X141700000Y-113962500D03*
%TO.P,J_CH3,2,Pin_2*%
%TO.N,GND*%
X142200000Y-113962500D03*
%TO.P,J_CH3,3,Pin_3*%
%TO.N,I2C_SCL*%
X142700000Y-113962500D03*
%TO.P,J_CH3,4,Pin_4*%
%TO.N,I2C_SDA*%
X143200000Y-113962500D03*
%TO.P,J_CH3,5,Pin_5*%
%TO.N,MUX_S0*%
X143700000Y-113962500D03*
%TO.P,J_CH3,6,Pin_6*%
%TO.N,MUX_S1*%
X144200000Y-113962500D03*
%TO.P,J_CH3,7,Pin_7*%
%TO.N,MUX_S2*%
X144700000Y-113962500D03*
%TO.P,J_CH3,8,Pin_8*%
%TO.N,MUX_S3*%
X145200000Y-113962500D03*
%TO.P,J_CH3,9,Pin_9*%
%TO.N,CH3_ANALOG*%
X145700000Y-113962500D03*
%TO.P,J_CH3,10,Pin_10*%
%TO.N,GND*%
X146200000Y-113962500D03*
D11*
%TO.P,J_CH3,MP*%
%TO.N,N/C*%
X139800000Y-117212500D03*
X148100000Y-117212500D03*
%TD*%
D13*
%TO.P,J2,1,Pin_1*%
%TO.N,+3V3*%
X133090000Y-105142500D03*
D14*
%TO.P,J2,2,Pin_2*%
%TO.N,GND*%
X133090000Y-102602500D03*
%TO.P,J2,3,Pin_3*%
%TO.N,/SWDIO*%
X133090000Y-100062500D03*
%TO.P,J2,4,Pin_4*%
%TO.N,/SWCLK*%
X133090000Y-97522500D03*
%TD*%
D15*
%TO.P,U1,1,VBAT*%
%TO.N,+3V3*%
X152987500Y-102112500D03*
%TO.P,U1,2,PC13*%
%TO.N,unconnected-(U1-PC13-Pad2)*%
X152987500Y-101612500D03*
%TO.P,U1,3,PC14*%
%TO.N,unconnected-(U1-PC14-Pad3)*%
X152987500Y-101112500D03*
%TO.P,U1,4,PC15*%
%TO.N,unconnected-(U1-PC15-Pad4)*%
X152987500Y-100612500D03*
%TO.P,U1,5,PH0*%
%TO.N,Net-(U1-PH0)*%
X152987500Y-100112500D03*
%TO.P,U1,6,PH1*%
%TO.N,Net-(U1-PH1)*%
X152987500Y-99612500D03*
%TO.P,U1,7,NRST*%
%TO.N,unconnected-(U1-NRST-Pad7)*%
X152987500Y-99112500D03*
%TO.P,U1,8,VSSA*%
%TO.N,unconnected-(U1-VSSA-Pad8)*%
X152987500Y-98612500D03*
%TO.P,U1,9,VDDA*%
%TO.N,+3V3*%
X152987500Y-98112500D03*
%TO.P,U1,10,PA0*%
%TO.N,CH1_ANALOG*%
X152987500Y-97612500D03*
%TO.P,U1,11,PA1*%
%TO.N,CH2_ANALOG*%
X152987500Y-97112500D03*
%TO.P,U1,12,PA2*%
%TO.N,CH3_ANALOG*%
X152987500Y-96612500D03*
D16*
%TO.P,U1,13,PA3*%
%TO.N,CH4_ANALOG*%
X152300000Y-95925000D03*
%TO.P,U1,14,PA4*%
%TO.N,unconnected-(U1-PA4-Pad14)*%
X151800000Y-95925000D03*
%TO.P,U1,15,PA5*%
%TO.N,unconnected-(U1-PA5-Pad15)*%
X151300000Y-95925000D03*
%TO.P,U1,16,PA6*%
%TO.N,unconnected-(U1-PA6-Pad16)*%
X150800000Y-95925000D03*
%TO.P,U1,17,PA7*%
%TO.N,unconnected-(U1-PA7-Pad17)*%
X150300000Y-95925000D03*
%TO.P,U1,18,PB0*%
%TO.N,unconnected-(U1-PB0-Pad18)*%
X149800000Y-95925000D03*
%TO.P,U1,19,PB1*%
%TO.N,unconnected-(U1-PB1-Pad19)*%
X149300000Y-95925000D03*
%TO.P,U1,20,PB2*%
%TO.N,unconnected-(U1-PB2-Pad20)*%
X148800000Y-95925000D03*
%TO.P,U1,21,PB10*%
%TO.N,unconnected-(U1-PB10-Pad21)*%
X148300000Y-95925000D03*
%TO.P,U1,22,VCAP1*%
%TO.N,Net-(U1-VCAP1)*%
X147800000Y-95925000D03*
%TO.P,U1,23,VSS*%
%TO.N,unconnected-(U1-VSS-Pad23)*%
X147300000Y-95925000D03*
%TO.P,U1,24,VDD*%
%TO.N,+3V3*%
X146800000Y-95925000D03*
D15*
%TO.P,U1,25,PB12*%
%TO.N,MUX_S0*%
X146112500Y-96612500D03*
%TO.P,U1,26,PB13*%
%TO.N,MUX_S1*%
X146112500Y-97112500D03*
%TO.P,U1,27,PB14*%
%TO.N,MUX_S2*%
X146112500Y-97612500D03*
%TO.P,U1,28,PB15*%
%TO.N,MUX_S3*%
X146112500Y-98112500D03*
%TO.P,U1,29,PA8*%
%TO.N,unconnected-(U1-PA8-Pad29)*%
X146112500Y-98612500D03*
%TO.P,U1,30,PA9*%
%TO.N,unconnected-(U1-PA9-Pad30)*%
X146112500Y-99112500D03*
%TO.P,U1,31,PA10*%
%TO.N,unconnected-(U1-PA10-Pad31)*%
X146112500Y-99612500D03*
%TO.P,U1,32,PA11*%
%TO.N,/USB_D-*%
X146112500Y-100112500D03*
%TO.P,U1,33,PA12*%
%TO.N,/USB_D+*%
X146112500Y-100612500D03*
%TO.P,U1,34,PA13*%
%TO.N,/SWDIO*%
X146112500Y-101112500D03*
%TO.P,U1,35,VSS*%
%TO.N,unconnected-(U1-VSS-Pad23)*%
X146112500Y-101612500D03*
%TO.P,U1,36,VDD*%
%TO.N,+3V3*%
X146112500Y-102112500D03*
D16*
%TO.P,U1,37,PA14*%
%TO.N,/SWCLK*%
X146800000Y-102800000D03*
%TO.P,U1,38,PA15*%
%TO.N,unconnected-(U1-PA15-Pad38)*%
X147300000Y-102800000D03*
%TO.P,U1,39,PB3*%
%TO.N,unconnected-(U1-PB3-Pad39)*%
X147800000Y-102800000D03*
%TO.P,U1,40,PB4*%
%TO.N,unconnected-(U1-PB4-Pad40)*%
X148300000Y-102800000D03*
%TO.P,U1,41,PB5*%
%TO.N,unconnected-(U1-PB5-Pad41)*%
X148800000Y-102800000D03*
%TO.P,U1,42,PB6*%
%TO.N,I2C_SCL*%
X149300000Y-102800000D03*
%TO.P,U1,43,PB7*%
%TO.N,I2C_SDA*%
X149800000Y-102800000D03*
%TO.P,U1,44,BOOT0*%
%TO.N,Net-(U1-BOOT0)*%
X150300000Y-102800000D03*
%TO.P,U1,45,PB8*%
%TO.N,unconnected-(U1-PB8-Pad45)*%
X150800000Y-102800000D03*
%TO.P,U1,46,PB9*%
%TO.N,unconnected-(U1-PB9-Pad46)*%
X151300000Y-102800000D03*
%TO.P,U1,47,VSS*%
%TO.N,unconnected-(U1-VSS-Pad23)*%
X151800000Y-102800000D03*
%TO.P,U1,48,VDD*%
%TO.N,+3V3*%
X152300000Y-102800000D03*
D17*
%TO.P,U1,49,VSS*%
%TO.N,unconnected-(U1-VSS-Pad23)*%
X149550000Y-99362500D03*
%TD*%
D10*
%TO.P,J_CH1,1,Pin_1*%
%TO.N,+3V3*%
X174800000Y-113962500D03*
%TO.P,J_CH1,2,Pin_2*%
%TO.N,GND*%
X175300000Y-113962500D03*
%TO.P,J_CH1,3,Pin_3*%
%TO.N,I2C_SCL*%
X175800000Y-113962500D03*
%TO.P,J_CH1,4,Pin_4*%
%TO.N,I2C_SDA*%
X176300000Y-113962500D03*
%TO.P,J_CH1,5,Pin_5*%
%TO.N,MUX_S0*%
X176800000Y-113962500D03*
%TO.P,J_CH1,6,Pin_6*%
%TO.N,MUX_S1*%
X177300000Y-113962500D03*
%TO.P,J_CH1,7,Pin_7*%
%TO.N,MUX_S2*%
X177800000Y-113962500D03*
%TO.P,J_CH1,8,Pin_8*%
%TO.N,MUX_S3*%
X178300000Y-113962500D03*
%TO.P,J_CH1,9,Pin_9*%
%TO.N,CH1_ANALOG*%
X178800000Y-113962500D03*
%TO.P,J_CH1,10,Pin_10*%
%TO.N,GND*%
X179300000Y-113962500D03*
D11*
%TO.P,J_CH1,MP*%
%TO.N,N/C*%
X172900000Y-117212500D03*
X181200000Y-117212500D03*
%TD*%
D18*
%TO.P,Y1,4,4*%
%TO.N,GND*%
X158400000Y-101762500D03*
%TO.P,Y1,3,3*%
%TO.N,Net-(C1-Pad1)*%
X158400000Y-99562500D03*
%TO.P,Y1,2,2*%
%TO.N,GND*%
X160100000Y-99562500D03*
%TO.P,Y1,1,1*%
%TO.N,Net-(C2-Pad1)*%
X160100000Y-101762500D03*
%TD*%
D19*
%TO.P,C9,1*%
%TO.N,Net-(U1-VCAP1)*%
X147850000Y-94437500D03*
%TO.P,C9,2*%
%TO.N,GND*%
X147850000Y-92887500D03*
%TD*%
%TO.P,C7,1*%
%TO.N,+3V3*%
X146050000Y-94437500D03*
%TO.P,C7,2*%
%TO.N,GND*%
X146050000Y-92887500D03*
%TD*%
D20*
%TO.P,C8,1*%
%TO.N,+3V3*%
X152550000Y-104287500D03*
%TO.P,C8,2*%
%TO.N,GND*%
X152550000Y-105837500D03*
%TD*%
%TO.P,C4,1*%
%TO.N,+3V3*%
X133650000Y-86987500D03*
%TO.P,C4,2*%
%TO.N,GND*%
X133650000Y-88537500D03*
%TD*%
D21*
%TO.P,C5,1*%
%TO.N,+3V3*%
X154475000Y-98462500D03*
%TO.P,C5,2*%
%TO.N,GND*%
X156025000Y-98462500D03*
%TD*%
D20*
%TO.P,C3,1*%
%TO.N,+5V*%
X124950000Y-83787500D03*
%TO.P,C3,2*%
%TO.N,GND*%
X124950000Y-85337500D03*
%TD*%
D10*
%TO.P,J_CH2,1,Pin_1*%
%TO.N,+3V3*%
X158800000Y-113962500D03*
%TO.P,J_CH2,2,Pin_2*%
%TO.N,GND*%
X159300000Y-113962500D03*
%TO.P,J_CH2,3,Pin_3*%
%TO.N,I2C_SCL*%
X159800000Y-113962500D03*
%TO.P,J_CH2,4,Pin_4*%
%TO.N,I2C_SDA*%
X160300000Y-113962500D03*
%TO.P,J_CH2,5,Pin_5*%
%TO.N,MUX_S0*%
X160800000Y-113962500D03*
%TO.P,J_CH2,6,Pin_6*%
%TO.N,MUX_S1*%
X161300000Y-113962500D03*
%TO.P,J_CH2,7,Pin_7*%
%TO.N,MUX_S2*%
X161800000Y-113962500D03*
%TO.P,J_CH2,8,Pin_8*%
%TO.N,MUX_S3*%
X162300000Y-113962500D03*
%TO.P,J_CH2,9,Pin_9*%
%TO.N,CH2_ANALOG*%
X162800000Y-113962500D03*
%TO.P,J_CH2,10,Pin_10*%
%TO.N,GND*%
X163300000Y-113962500D03*
D11*
%TO.P,J_CH2,MP*%
%TO.N,N/C*%
X156900000Y-117212500D03*
X165200000Y-117212500D03*
%TD*%
D22*
%TO.P,C2,1*%
%TO.N,Net-(C2-Pad1)*%
X156025000Y-101462500D03*
%TO.P,C2,2*%
%TO.N,Net-(U1-PH0)*%
X154475000Y-101462500D03*
%TD*%
%TO.P,C1,1*%
%TO.N,Net-(C1-Pad1)*%
X156025000Y-99962500D03*
%TO.P,C1,2*%
%TO.N,Net-(U1-PH1)*%
X154475000Y-99962500D03*
%TD*%
D23*
%TO.P,R2,1*%
%TO.N,Net-(J1-CC2)*%
X116915000Y-85277500D03*
%TO.P,R2,2*%
%TO.N,GND*%
X116915000Y-86927500D03*
%TD*%
D22*
%TO.P,C6,1*%
%TO.N,+3V3*%
X144625000Y-102162500D03*
%TO.P,C6,2*%
%TO.N,GND*%
X143075000Y-102162500D03*
%TD*%
D24*
%TO.P,J1,A1,GND*%
%TO.N,GND*%
X122300000Y-81447500D03*
%TO.P,J1,A4,VBUS*%
%TO.N,+5V*%
X121500000Y-81447500D03*
D25*
%TO.P,J1,A5,CC1*%
%TO.N,Net-(J1-CC1)*%
X120300000Y-81447500D03*
%TO.P,J1,A6,D+*%
%TO.N,/USB_D+*%
X119300000Y-81447500D03*
%TO.P,J1,A7,D-*%
%TO.N,unconnected-(J1-D--PadA7)*%
X118800000Y-81447500D03*
%TO.P,J1,A8,SBU1*%
%TO.N,unconnected-(J1-SBU1-PadA8)*%
X117800000Y-81447500D03*
D24*
%TO.P,J1,A9,VBUS*%
%TO.N,+5V*%
X116600000Y-81447500D03*
%TO.P,J1,A12,GND*%
%TO.N,GND*%
X115800000Y-81447500D03*
%TO.P,J1,B1,GND*%
X115800000Y-81447500D03*
%TO.P,J1,B4,VBUS*%
%TO.N,+5V*%
X116600000Y-81447500D03*
D25*
%TO.P,J1,B5,CC2*%
%TO.N,Net-(J1-CC2)*%
X117300000Y-81447500D03*
%TO.P,J1,B6,D+*%
%TO.N,unconnected-(J1-D+-PadB6)*%
X118300000Y-81447500D03*
%TO.P,J1,B7,D-*%
%TO.N,/USB_D-*%
X119800000Y-81447500D03*
%TO.P,J1,B8,SBU2*%
%TO.N,unconnected-(J1-SBU2-PadB8)*%
X120800000Y-81447500D03*
D24*
%TO.P,J1,B9,VBUS*%
%TO.N,+5V*%
X121500000Y-81447500D03*
%TO.P,J1,B12,GND*%
%TO.N,GND*%
X122300000Y-81447500D03*
D26*
%TO.P,J1,S1,SHIELD*%
%TO.N,unconnected-(J1-SHIELD-PadS1)*%
X123370000Y-80532500D03*
D27*
X123370000Y-76352500D03*
D26*
X114730000Y-80532500D03*
D27*
X114730000Y-76352500D03*
%TD*%
D28*
%TO.P,U2,1,VIN*%
%TO.N,+5V*%
X130800000Y-84725000D03*
%TO.P,U2,2,GND*%
%TO.N,GND*%
X129850000Y-84725000D03*
%TO.P,U2,3,EN*%
%TO.N,+5V*%
X128900000Y-84725000D03*
%TO.P,U2,4,NC*%
%TO.N,unconnected-(U2-NC-Pad4)*%
X128900000Y-87000000D03*
%TO.P,U2,5,VOUT*%
%TO.N,+3V3*%
X130800000Y-87000000D03*
%TD*%
D23*
%TO.P,R1,1*%
%TO.N,Net-(J1-CC1)*%
X121660000Y-85277500D03*
%TO.P,R1,2*%
%TO.N,GND*%
X121660000Y-86927500D03*
%TD*%
D29*
%TO.N,+5V*%
X120390000Y-83562500D03*
X118725000Y-83562500D03*
%TO.N,GND*%
X158490000Y-103882500D03*
X141980000Y-120392500D03*
X122930000Y-82292500D03*
X115310000Y-82292500D03*
X136900000Y-100072500D03*
X157220000Y-97532500D03*
X129396331Y-85937161D03*
X130550000Y-114042500D03*
X166110000Y-120392500D03*
X180080000Y-114042500D03*
X125470000Y-86102500D03*
X153410000Y-106422500D03*
X148330000Y-92737500D03*
X159760000Y-120392500D03*
X126740000Y-115312500D03*
X162300000Y-100072500D03*
X152140000Y-107692500D03*
X116365000Y-87357500D03*
X149600000Y-120392500D03*
X175000000Y-120392500D03*
X121580000Y-87232500D03*
X134360000Y-88642500D03*
%TO.N,+3V3*%
X143700000Y-101237500D03*
X140710000Y-114042500D03*
X173730000Y-114042500D03*
X157220000Y-114042500D03*
X140710000Y-105152500D03*
X145001684Y-99537500D03*
%TO.N,Net-(J1-CC1)*%
X121660000Y-84832500D03*
X120390000Y-82762497D03*
%TO.N,Net-(J1-CC2)*%
X116915000Y-85277500D03*
X117850000Y-82672502D03*
%TO.N,/SWDIO*%
X145142862Y-101187500D03*
X140710000Y-103882500D03*
%TO.N,/SWCLK*%
X146259530Y-102737499D03*
X143658171Y-103087406D03*
%TO.N,I2C_SCL*%
X149116597Y-103707169D03*
X143150312Y-112013659D03*
%TO.N,I2C_SDA*%
X149916545Y-103715172D03*
X143385630Y-112778270D03*
X177540000Y-112772500D03*
X161030000Y-112772500D03*
X141980000Y-112772500D03*
%TO.N,MUX_S0*%
X163570000Y-119122500D03*
X178810000Y-119122500D03*
X145790000Y-119122500D03*
X145790000Y-96262500D03*
X129280000Y-116582500D03*
%TO.N,MUX_S1*%
X163570000Y-117852500D03*
X136900000Y-117852500D03*
X145790000Y-117852500D03*
X178810000Y-117852500D03*
X145031204Y-96515940D03*
%TO.N,MUX_S2*%
X145790000Y-116582500D03*
X145000000Y-97532500D03*
X163570000Y-116582500D03*
X136900000Y-116582500D03*
X178810000Y-116582500D03*
%TO.N,MUX_S3*%
X178810000Y-115312500D03*
X145790000Y-115312500D03*
X136900000Y-115312500D03*
X163570000Y-115312500D03*
X145006610Y-98374420D03*
%TO.N,CH1_ANALOG*%
X154908958Y-96491458D03*
X164840000Y-98802500D03*
%TO.N,CH2_ANALOG*%
X163570000Y-110232500D03*
X163570000Y-96262500D03*
X163570000Y-112172500D03*
X154680000Y-94992500D03*
%TO.N,CH3_ANALOG*%
X153410000Y-94992500D03*
X145790000Y-112313350D03*
%TO.N,CH4_ANALOG*%
X129280000Y-112772500D03*
X152140000Y-94992500D03*
%TO.N,Net-(U1-BOOT0)*%
X151550000Y-103715172D03*
X151277646Y-105362500D03*
%TD*%
D30*
%TO.N,+5V*%
X121500000Y-81447500D02*
X121500000Y-82387500D01*
X116600000Y-82672500D02*
X116600000Y-81447500D01*
X120390000Y-83562500D02*
X121050000Y-83562500D01*
X121500000Y-82387500D02*
X121862500Y-82750000D01*
X121862500Y-82750000D02*
X122912500Y-83800000D01*
X130349999Y-83612500D02*
X129350001Y-83612500D01*
X128900000Y-84062501D02*
X128900000Y-84725000D01*
X122950000Y-83837500D02*
X122912500Y-83800000D01*
X129350001Y-83612500D02*
X128900000Y-84062501D01*
X130800000Y-84062501D02*
X130349999Y-83612500D01*
X130800000Y-84725000D02*
X130800000Y-84062501D01*
X121050000Y-83562500D02*
X121862500Y-82750000D01*
X128900000Y-84725000D02*
X128012500Y-83837500D01*
X128012500Y-83837500D02*
X122950000Y-83837500D01*
X117490000Y-83562500D02*
X116600000Y-82672500D01*
X118725000Y-83562500D02*
X117490000Y-83562500D01*
D31*
%TO.N,GND*%
X156290000Y-98462500D02*
X157220000Y-97532500D01*
X116915000Y-86927500D02*
X116795000Y-86927500D01*
X164550000Y-113962500D02*
X167380000Y-116792500D01*
X116795000Y-86927500D02*
X116365000Y-87357500D01*
X151435000Y-106987500D02*
X152140000Y-107692500D01*
X159300000Y-113962500D02*
X159300000Y-119932500D01*
X134255000Y-88537500D02*
X134360000Y-88642500D01*
X159300000Y-119932500D02*
X159760000Y-120392500D01*
X162300000Y-100072500D02*
X161790000Y-99562500D01*
X147450000Y-113962500D02*
X149600000Y-116112500D01*
X121660000Y-86927500D02*
X121660000Y-87152500D01*
X142200000Y-120172500D02*
X141980000Y-120392500D01*
X148180000Y-92887500D02*
X148330000Y-92737500D01*
X158400000Y-103792500D02*
X158400000Y-101762500D01*
X158490000Y-103882500D02*
X158400000Y-103792500D01*
X149600000Y-116112500D02*
X149600000Y-120392500D01*
X115800000Y-81802500D02*
X115310000Y-82292500D01*
X122300000Y-81662500D02*
X122930000Y-82292500D01*
X161790000Y-99562500D02*
X160100000Y-99562500D01*
X142200000Y-113962500D02*
X142200000Y-120172500D01*
X147850000Y-92887500D02*
X148180000Y-92887500D01*
X121660000Y-87152500D02*
X121580000Y-87232500D01*
X146050000Y-92887500D02*
X146400000Y-92537500D01*
X152825000Y-105837500D02*
X153410000Y-106422500D01*
X126740000Y-115312500D02*
X126300000Y-114872500D01*
X156125000Y-98462500D02*
X156290000Y-98462500D01*
X126300000Y-114872500D02*
X126300000Y-113962500D01*
X130300000Y-113962500D02*
X130470000Y-113962500D01*
X124950000Y-85582500D02*
X125470000Y-86102500D01*
X146200000Y-113962500D02*
X147450000Y-113962500D01*
X167380000Y-116792500D02*
X167380000Y-119122500D01*
X152550000Y-105837500D02*
X152825000Y-105837500D01*
X124950000Y-85337500D02*
X124950000Y-85582500D01*
X115800000Y-81447500D02*
X115800000Y-81802500D01*
X180000000Y-113962500D02*
X180080000Y-114042500D01*
X138990000Y-102162500D02*
X136900000Y-100072500D01*
X143075000Y-102162500D02*
X138990000Y-102162500D01*
X175300000Y-114862500D02*
X175000000Y-115162500D01*
X175300000Y-113962500D02*
X175300000Y-114862500D01*
X129850000Y-84725000D02*
X129850000Y-85483492D01*
X147500000Y-92537500D02*
X147850000Y-92887500D01*
X129850000Y-85483492D02*
X129396331Y-85937161D01*
X150350000Y-106987500D02*
X151435000Y-106987500D01*
X146400000Y-92537500D02*
X147500000Y-92537500D01*
X133650000Y-88537500D02*
X134255000Y-88537500D01*
X175000000Y-115162500D02*
X175000000Y-120392500D01*
X167380000Y-119122500D02*
X166110000Y-120392500D01*
X179300000Y-113962500D02*
X180000000Y-113962500D01*
X122300000Y-81447500D02*
X122300000Y-81662500D01*
X130470000Y-113962500D02*
X130550000Y-114042500D01*
X163300000Y-113962500D02*
X164550000Y-113962500D01*
D30*
%TO.N,+3V3*%
X155950000Y-94992500D02*
X155950000Y-97532500D01*
X145035000Y-105152500D02*
X133410000Y-105152500D01*
D31*
X152300000Y-102800000D02*
X152987500Y-102112500D01*
D30*
X145514172Y-91987500D02*
X152945000Y-91987500D01*
X141600000Y-114042500D02*
X141600000Y-113962500D01*
X148211266Y-103862500D02*
X148813938Y-104465172D01*
X133637500Y-87000000D02*
X133650000Y-86987500D01*
X174700000Y-114042500D02*
X174700000Y-113962500D01*
X145512500Y-93900000D02*
X145125000Y-93512500D01*
X145001684Y-99537500D02*
X145001684Y-99430156D01*
X144250000Y-95962500D02*
X145775000Y-94437500D01*
X145512500Y-93900000D02*
X146050000Y-94437500D01*
X145775000Y-94437500D02*
X146050000Y-94437500D01*
X157220000Y-114042500D02*
X158700000Y-114042500D01*
X144250000Y-98678472D02*
X144250000Y-95962500D01*
D31*
X146800000Y-95925000D02*
X146800000Y-95187500D01*
X154225000Y-98112500D02*
X152987500Y-98112500D01*
D30*
X173730000Y-114042500D02*
X174700000Y-114042500D01*
X140710000Y-114042500D02*
X141600000Y-114042500D01*
X139427500Y-87815000D02*
X145512500Y-93900000D01*
X143700000Y-101237500D02*
X144625000Y-102162500D01*
X139427500Y-86987500D02*
X139427500Y-87815000D01*
X148813938Y-104465172D02*
X152372328Y-104465172D01*
D31*
X152300000Y-102800000D02*
X152300000Y-104037500D01*
D30*
X130800000Y-87000000D02*
X133637500Y-87000000D01*
X144625000Y-102162500D02*
X144625000Y-102837500D01*
X155505000Y-97532500D02*
X154575000Y-98462500D01*
X152945000Y-91987500D02*
X155950000Y-94992500D01*
X146325000Y-103862500D02*
X145035000Y-105152500D01*
X144625000Y-102837500D02*
X145650000Y-103862500D01*
X145650000Y-103862500D02*
X146325000Y-103862500D01*
X133650000Y-86987500D02*
X139427500Y-86987500D01*
X125700000Y-112862500D02*
X125700000Y-113962500D01*
D31*
X144675000Y-102112500D02*
X144625000Y-102162500D01*
D30*
X146325000Y-103862500D02*
X148211266Y-103862500D01*
X145001684Y-99430156D02*
X144250000Y-98678472D01*
X133410000Y-105152500D02*
X125700000Y-112862500D01*
X152372328Y-104465172D02*
X152550000Y-104287500D01*
D31*
X146800000Y-95187500D02*
X146050000Y-94437500D01*
X152300000Y-104037500D02*
X152550000Y-104287500D01*
D30*
X145125000Y-92376672D02*
X145514172Y-91987500D01*
D31*
X146112500Y-102112500D02*
X144675000Y-102112500D01*
D30*
X155950000Y-97532500D02*
X155505000Y-97532500D01*
X158700000Y-114042500D02*
X158700000Y-113962500D01*
X145125000Y-93512500D02*
X145125000Y-92376672D01*
D31*
X154575000Y-98462500D02*
X154225000Y-98112500D01*
%TO.N,Net-(U1-VCAP1)*%
X147800000Y-95925000D02*
X147800000Y-94487500D01*
X147800000Y-94487500D02*
X147850000Y-94437500D01*
%TO.N,Net-(J1-CC1)*%
X120300000Y-82672497D02*
X120390000Y-82762497D01*
X120300000Y-81447500D02*
X120300000Y-82672497D01*
X121660000Y-84832500D02*
X121660000Y-85277500D01*
%TO.N,/USB_D+*%
X123456800Y-90987500D02*
X133456800Y-90987500D01*
X119325000Y-82560001D02*
X119325000Y-86855700D01*
X119300000Y-81447500D02*
X119300000Y-82535001D01*
X145431249Y-100587500D02*
X145456249Y-100612500D01*
X119300000Y-82535001D02*
X119325000Y-82560001D01*
X119325000Y-86855700D02*
X123456800Y-90987500D01*
X145456249Y-100612500D02*
X146112500Y-100612500D01*
X133456800Y-90987500D02*
X143056800Y-100587500D01*
X143056800Y-100587500D02*
X145431249Y-100587500D01*
%TO.N,Net-(J1-CC2)*%
X117300000Y-82422500D02*
X117350000Y-82472500D01*
X117300000Y-81447500D02*
X117300000Y-82422500D01*
X117350000Y-82472500D02*
X117649998Y-82472500D01*
X117649998Y-82472500D02*
X117850000Y-82672502D01*
%TO.N,/USB_D-*%
X123643200Y-90537500D02*
X133643200Y-90537500D01*
X145456249Y-100112500D02*
X146112500Y-100112500D01*
X143243200Y-100137500D02*
X145431249Y-100137500D01*
X133643200Y-90537500D02*
X143243200Y-100137500D01*
X119800000Y-82535001D02*
X119775000Y-82560001D01*
X119775000Y-86669300D02*
X123643200Y-90537500D01*
X119775000Y-82560001D02*
X119775000Y-86669300D01*
X145431249Y-100137500D02*
X145456249Y-100112500D01*
X119800000Y-81447500D02*
X119800000Y-82535001D01*
%TO.N,unconnected-(J1-SHIELD-PadS1)*%
X123370000Y-80532500D02*
X123370000Y-76352500D01*
X114730000Y-76352500D02*
X123370000Y-76352500D01*
X114730000Y-80532500D02*
X114730000Y-76352500D01*
%TO.N,/SWDIO*%
X140710000Y-103882500D02*
X136910000Y-103882500D01*
X145217862Y-101112500D02*
X146112500Y-101112500D01*
X145142862Y-101187500D02*
X145217862Y-101112500D01*
X136910000Y-103882500D02*
X133090000Y-100062500D01*
%TO.N,/SWCLK*%
X146322031Y-102800000D02*
X146259530Y-102737499D01*
X143658171Y-103087406D02*
X138654906Y-103087406D01*
X138654906Y-103087406D02*
X133090000Y-97522500D01*
X146800000Y-102800000D02*
X146322031Y-102800000D01*
%TO.N,I2C_SCL*%
X142650000Y-113912500D02*
X142700000Y-113962500D01*
X174240000Y-111502500D02*
X175800000Y-113062500D01*
X159800000Y-113062500D02*
X159800000Y-112996815D01*
X143150312Y-112013659D02*
X142639153Y-111502500D01*
X159800000Y-113062500D02*
X159800000Y-113962500D01*
X158240000Y-111502500D02*
X159800000Y-113062500D01*
X149116597Y-103707169D02*
X149300000Y-103523766D01*
X142650000Y-112513971D02*
X142650000Y-113912500D01*
X159800000Y-112996815D02*
X161294315Y-111502500D01*
X149300000Y-103523766D02*
X149300000Y-102800000D01*
X126800000Y-112996814D02*
X126800000Y-113962500D01*
X143150312Y-112013659D02*
X142650000Y-112513971D01*
X142639153Y-111502500D02*
X128294314Y-111502500D01*
X128294314Y-111502500D02*
X126800000Y-112996814D01*
X144008841Y-112013659D02*
X144520000Y-111502500D01*
X143150312Y-112013659D02*
X144008841Y-112013659D01*
X144520000Y-111502500D02*
X158240000Y-111502500D01*
X175800000Y-113062500D02*
X175800000Y-113962500D01*
X161294315Y-111502500D02*
X174240000Y-111502500D01*
%TO.N,I2C_SDA*%
X143250000Y-112913900D02*
X143250000Y-113912500D01*
X149875000Y-102875000D02*
X149800000Y-102800000D01*
X176590000Y-112772500D02*
X176300000Y-113062500D01*
X141980000Y-112772500D02*
X141110000Y-111902500D01*
X149875000Y-103326886D02*
X149875000Y-102875000D01*
X176300000Y-113062500D02*
X176300000Y-113962500D01*
X143385630Y-112778270D02*
X143250000Y-112913900D01*
X128460000Y-111902500D02*
X127300000Y-113062500D01*
X149916545Y-103715172D02*
X149916545Y-103368431D01*
X141110000Y-111902500D02*
X128460000Y-111902500D01*
X127300000Y-113062500D02*
X127300000Y-113962500D01*
X161030000Y-112772500D02*
X160590000Y-112772500D01*
X160300000Y-113062500D02*
X160300000Y-113962500D01*
X149916545Y-103368431D02*
X149875000Y-103326886D01*
X160590000Y-112772500D02*
X160300000Y-113062500D01*
X177540000Y-112772500D02*
X176590000Y-112772500D01*
X143250000Y-113912500D02*
X143200000Y-113962500D01*
%TO.N,MUX_S0*%
X176800000Y-117112500D02*
X176800000Y-113962500D01*
X145790000Y-119122500D02*
X143700000Y-117032500D01*
X160800000Y-116352500D02*
X160800000Y-113962500D01*
X143700000Y-117032500D02*
X143700000Y-113962500D01*
X178810000Y-119122500D02*
X176800000Y-117112500D01*
X127800000Y-115102500D02*
X127800000Y-113962500D01*
X129280000Y-116582500D02*
X127800000Y-115102500D01*
X145790000Y-96290000D02*
X146112500Y-96612500D01*
X163570000Y-119122500D02*
X160800000Y-116352500D01*
X145790000Y-96262500D02*
X145790000Y-96290000D01*
%TO.N,MUX_S1*%
X161300000Y-115582500D02*
X161300000Y-113962500D01*
X136900000Y-117852500D02*
X134760000Y-115712500D01*
X145790000Y-117852500D02*
X144200000Y-116262500D01*
X134760000Y-115712500D02*
X129018628Y-115712500D01*
X177300000Y-116342500D02*
X177300000Y-113962500D01*
X128300000Y-114993872D02*
X128300000Y-113962500D01*
X129018628Y-115712500D02*
X128300000Y-114993872D01*
X144200000Y-116262500D02*
X144200000Y-113962500D01*
X145031204Y-96515940D02*
X145627764Y-97112500D01*
X178810000Y-117852500D02*
X177300000Y-116342500D01*
X145627764Y-97112500D02*
X146112500Y-97112500D01*
X163570000Y-117852500D02*
X161300000Y-115582500D01*
%TO.N,MUX_S2*%
X129184314Y-115312500D02*
X128800000Y-114928186D01*
X178810000Y-116582500D02*
X177800000Y-115572500D01*
X128800000Y-114928186D02*
X128800000Y-113962500D01*
X177800000Y-115572500D02*
X177800000Y-113962500D01*
X145000000Y-97532500D02*
X145080000Y-97612500D01*
X145790000Y-116582500D02*
X144700000Y-115492500D01*
X136900000Y-116582500D02*
X135630000Y-115312500D01*
X163454314Y-116582500D02*
X161800000Y-114928186D01*
X163570000Y-116582500D02*
X163454314Y-116582500D01*
X161800000Y-114928186D02*
X161800000Y-113962500D01*
X145080000Y-97612500D02*
X146112500Y-97612500D01*
X135630000Y-115312500D02*
X129184314Y-115312500D01*
X144700000Y-115492500D02*
X144700000Y-113962500D01*
%TO.N,MUX_S3*%
X162300000Y-114862500D02*
X162300000Y-113962500D01*
X136500000Y-114912500D02*
X129350000Y-114912500D01*
X129350000Y-114912500D02*
X129300000Y-114862500D01*
X145790000Y-115312500D02*
X145650000Y-115312500D01*
X145200000Y-114862500D02*
X145200000Y-113962500D01*
X145268530Y-98112500D02*
X146112500Y-98112500D01*
X162750000Y-115312500D02*
X162300000Y-114862500D01*
X136900000Y-115312500D02*
X136500000Y-114912500D01*
X145650000Y-115312500D02*
X145200000Y-114862500D01*
X178810000Y-115312500D02*
X178300000Y-114802500D01*
X163570000Y-115312500D02*
X162750000Y-115312500D01*
X129300000Y-114862500D02*
X129300000Y-113962500D01*
X178300000Y-114802500D02*
X178300000Y-113962500D01*
X145006610Y-98374420D02*
X145268530Y-98112500D01*
%TO.N,CH1_ANALOG*%
X178800000Y-112762500D02*
X178800000Y-113962500D01*
X153787916Y-97612500D02*
X152987500Y-97612500D01*
X154908958Y-96491458D02*
X153787916Y-97612500D01*
X164840000Y-98802500D02*
X178800000Y-112762500D01*
X178810000Y-113952500D02*
X178800000Y-113962500D01*
%TO.N,CH2_ANALOG*%
X154680000Y-94992500D02*
X154680000Y-95871886D01*
X162800000Y-112942500D02*
X162800000Y-113962500D01*
X163570000Y-112172500D02*
X162800000Y-112942500D01*
X154680000Y-95871886D02*
X153439386Y-97112500D01*
X153439386Y-97112500D02*
X152987500Y-97112500D01*
X163570000Y-96262500D02*
X163570000Y-110232500D01*
%TO.N,CH3_ANALOG*%
X145700000Y-112403350D02*
X145700000Y-113962500D01*
X153410000Y-96190000D02*
X152987500Y-96612500D01*
X153410000Y-94992500D02*
X153410000Y-96190000D01*
X145790000Y-112313350D02*
X145700000Y-112403350D01*
%TO.N,CH4_ANALOG*%
X152300000Y-95152500D02*
X152300000Y-95925000D01*
X129510000Y-112772500D02*
X129800000Y-113062500D01*
X129800000Y-113062500D02*
X129800000Y-113962500D01*
X152140000Y-94992500D02*
X152300000Y-95152500D01*
X129280000Y-112772500D02*
X129510000Y-112772500D01*
%TO.N,Net-(U1-BOOT0)*%
X150763286Y-103715172D02*
X151550000Y-103715172D01*
X151277646Y-105362500D02*
X150375000Y-105362500D01*
X150300000Y-102800000D02*
X150375000Y-102875000D01*
X150375000Y-105362500D02*
X150350000Y-105337500D01*
X150375000Y-103326886D02*
X150763286Y-103715172D01*
X150375000Y-102875000D02*
X150375000Y-103326886D01*
%TO.N,unconnected-(U1-VSS-Pad23)*%
X147300000Y-97112500D02*
X149550000Y-99362500D01*
X147300000Y-95925000D02*
X147300000Y-97112500D01*
X146112500Y-101612500D02*
X147300000Y-101612500D01*
X147300000Y-101612500D02*
X149550000Y-99362500D01*
X151800000Y-102800000D02*
X151800000Y-101612500D01*
X151800000Y-101612500D02*
X149550000Y-99362500D01*
%TO.N,Net-(C1-Pad1)*%
X158000000Y-99962500D02*
X158400000Y-99562500D01*
X156025000Y-99962500D02*
X158000000Y-99962500D01*
%TO.N,Net-(U1-PH1)*%
X152987500Y-99612500D02*
X154125000Y-99612500D01*
X154125000Y-99612500D02*
X154475000Y-99962500D01*
%TO.N,Net-(C2-Pad1)*%
X156725000Y-100762500D02*
X159200000Y-100762500D01*
X156025000Y-101462500D02*
X156725000Y-100762500D01*
X159200000Y-100762500D02*
X160100000Y-101662500D01*
X160100000Y-101662500D02*
X160100000Y-101762500D01*
%TO.N,Net-(U1-PH0)*%
X153439386Y-100112500D02*
X153725000Y-100398114D01*
X152987500Y-100112500D02*
X153439386Y-100112500D01*
X153725000Y-100398114D02*
X153725000Y-100712500D01*
X153725000Y-100712500D02*
X154475000Y-101462500D01*
%TD*%
%TA.AperFunction,Conductor*%
%TO.N,GND*%
G36*
X114001750Y-75152685D02*
G01*
X114047505Y-75205489D01*
X114057449Y-75274647D01*
X114028424Y-75338203D01*
X114020143Y-75346874D01*
X113966949Y-75397438D01*
X113966948Y-75397440D01*
X113850705Y-75564449D01*
X113770459Y-75751443D01*
X113729500Y-75950758D01*
X113729500Y-76703243D01*
X113744925Y-76854939D01*
X113805837Y-77049079D01*
X113805844Y-77049094D01*
X113904589Y-77226999D01*
X113904592Y-77227004D01*
X113973747Y-77307559D01*
X114037134Y-77381395D01*
X114081401Y-77415660D01*
X114122365Y-77472260D01*
X114129500Y-77513716D01*
X114129500Y-79119709D01*
X114109815Y-79186748D01*
X114090933Y-79209581D01*
X113966947Y-79327441D01*
X113928199Y-79383111D01*
X113850705Y-79494449D01*
X113770459Y-79681443D01*
X113729500Y-79880758D01*
X113729500Y-81133243D01*
X113744925Y-81284939D01*
X113805837Y-81479079D01*
X113805844Y-81479094D01*
X113904589Y-81656999D01*
X113904592Y-81657004D01*
X114037132Y-81811393D01*
X114037134Y-81811395D01*
X114198037Y-81935945D01*
X114198038Y-81935945D01*
X114198042Y-81935948D01*
X114380729Y-82025560D01*
X114577715Y-82076563D01*
X114780936Y-82086869D01*
X114982071Y-82056056D01*
X115172887Y-81985386D01*
X115345571Y-81877752D01*
X115493053Y-81737559D01*
X115573728Y-81621649D01*
X115628179Y-81577874D01*
X115697657Y-81570485D01*
X115760100Y-81601831D01*
X115795683Y-81661961D01*
X115799500Y-81692489D01*
X115799500Y-82220370D01*
X115799501Y-82220376D01*
X115805908Y-82279983D01*
X115841682Y-82375895D01*
X115849500Y-82419228D01*
X115849500Y-82608794D01*
X115848191Y-82626763D01*
X115844710Y-82650525D01*
X115849028Y-82699868D01*
X115849500Y-82710676D01*
X115849500Y-82716211D01*
X115853098Y-82746995D01*
X115853464Y-82750583D01*
X115860000Y-82825291D01*
X115861461Y-82832367D01*
X115861403Y-82832378D01*
X115863034Y-82839737D01*
X115863092Y-82839724D01*
X115864757Y-82846749D01*
X115864758Y-82846754D01*
X115864759Y-82846755D01*
X115884318Y-82900496D01*
X115890400Y-82917205D01*
X115891582Y-82920607D01*
X115915182Y-82991826D01*
X115918236Y-82998374D01*
X115918182Y-82998398D01*
X115921470Y-83005188D01*
X115921521Y-83005163D01*
X115924761Y-83011614D01*
X115965979Y-83074284D01*
X115967889Y-83077282D01*
X115995790Y-83122515D01*
X116007289Y-83141158D01*
X116011766Y-83146819D01*
X116011719Y-83146856D01*
X116016482Y-83152702D01*
X116016528Y-83152664D01*
X116021173Y-83158199D01*
X116075707Y-83209649D01*
X116078295Y-83212163D01*
X116914270Y-84048138D01*
X116926051Y-84061770D01*
X116940388Y-84081028D01*
X116978337Y-84112872D01*
X116986310Y-84120179D01*
X116990217Y-84124086D01*
X116990223Y-84124091D01*
X117014537Y-84143316D01*
X117017334Y-84145594D01*
X117032131Y-84158010D01*
X117070834Y-84216181D01*
X117071943Y-84286042D01*
X117035106Y-84345412D01*
X116972019Y-84375442D01*
X116952426Y-84377000D01*
X116583384Y-84377000D01*
X116564145Y-84378748D01*
X116512807Y-84383413D01*
X116350393Y-84434022D01*
X116204811Y-84522030D01*
X116084530Y-84642311D01*
X115996522Y-84787893D01*
X115945913Y-84950307D01*
X115939500Y-85020886D01*
X115939500Y-85534113D01*
X115945913Y-85604692D01*
X115996522Y-85767106D01*
X116084530Y-85912688D01*
X116204811Y-86032969D01*
X116204813Y-86032970D01*
X116204815Y-86032972D01*
X116350394Y-86120978D01*
X116512804Y-86171586D01*
X116583384Y-86178000D01*
X116583387Y-86178000D01*
X117246613Y-86178000D01*
X117246616Y-86178000D01*
X117317196Y-86171586D01*
X117479606Y-86120978D01*
X117625185Y-86032972D01*
X117745472Y-85912685D01*
X117833478Y-85767106D01*
X117884086Y-85604696D01*
X117890500Y-85534116D01*
X117890500Y-85020884D01*
X117884086Y-84950304D01*
X117833478Y-84787894D01*
X117745472Y-84642315D01*
X117745470Y-84642313D01*
X117745469Y-84642311D01*
X117627839Y-84524681D01*
X117594354Y-84463358D01*
X117599338Y-84393666D01*
X117641210Y-84337733D01*
X117706674Y-84313316D01*
X117715520Y-84313000D01*
X118425028Y-84313000D01*
X118465982Y-84319957D01*
X118545745Y-84347868D01*
X118614384Y-84355601D01*
X118678796Y-84382666D01*
X118718352Y-84440260D01*
X118724500Y-84478821D01*
X118724500Y-86808212D01*
X118723439Y-86824397D01*
X118719318Y-86855698D01*
X118719318Y-86855700D01*
X118724500Y-86895060D01*
X118724500Y-86895061D01*
X118739955Y-87012460D01*
X118739956Y-87012462D01*
X118800464Y-87158541D01*
X118896718Y-87283982D01*
X118896719Y-87283983D01*
X118921769Y-87303204D01*
X118933964Y-87313899D01*
X122998599Y-91378534D01*
X123009293Y-91390728D01*
X123028515Y-91415779D01*
X123028516Y-91415780D01*
X123028518Y-91415782D01*
X123097834Y-91468970D01*
X123153957Y-91512035D01*
X123153958Y-91512035D01*
X123153959Y-91512036D01*
X123300038Y-91572544D01*
X123378419Y-91582863D01*
X123456799Y-91593182D01*
X123456800Y-91593182D01*
X123488102Y-91589060D01*
X123504287Y-91588000D01*
X133156703Y-91588000D01*
X133223742Y-91607685D01*
X133244384Y-91624319D01*
X142598599Y-100978534D01*
X142609293Y-100990728D01*
X142628517Y-101015781D01*
X142713097Y-101080681D01*
X142713098Y-101080683D01*
X142739570Y-101100995D01*
X142753959Y-101112036D01*
X142753961Y-101112036D01*
X142753963Y-101112038D01*
X142818905Y-101138938D01*
X142873309Y-101182779D01*
X142894673Y-101239616D01*
X142914630Y-101416749D01*
X142914631Y-101416754D01*
X142974211Y-101587023D01*
X143070184Y-101739762D01*
X143197738Y-101867316D01*
X143350478Y-101963289D01*
X143350483Y-101963292D01*
X143356753Y-101966312D01*
X143355866Y-101968152D01*
X143391939Y-101990807D01*
X143505496Y-102104364D01*
X143538981Y-102165687D01*
X143533997Y-102235379D01*
X143492125Y-102291312D01*
X143458770Y-102309086D01*
X143308651Y-102361615D01*
X143155907Y-102457591D01*
X143153074Y-102459851D01*
X143150895Y-102460740D01*
X143150013Y-102461295D01*
X143149915Y-102461140D01*
X143088388Y-102486261D01*
X143075759Y-102486906D01*
X138955003Y-102486906D01*
X138887964Y-102467221D01*
X138867322Y-102450587D01*
X134422766Y-98006031D01*
X134389281Y-97944708D01*
X134390672Y-97886257D01*
X134391863Y-97881809D01*
X134425063Y-97757908D01*
X134445659Y-97522500D01*
X134425063Y-97287092D01*
X134363903Y-97058837D01*
X134264035Y-96844671D01*
X134211593Y-96769775D01*
X134128494Y-96651097D01*
X133961402Y-96484006D01*
X133961395Y-96484001D01*
X133767834Y-96348467D01*
X133767830Y-96348465D01*
X133767828Y-96348464D01*
X133553663Y-96248597D01*
X133553659Y-96248596D01*
X133553655Y-96248594D01*
X133325413Y-96187438D01*
X133325403Y-96187436D01*
X133090001Y-96166841D01*
X133089999Y-96166841D01*
X132854596Y-96187436D01*
X132854586Y-96187438D01*
X132626344Y-96248594D01*
X132626335Y-96248598D01*
X132412171Y-96348464D01*
X132412169Y-96348465D01*
X132218597Y-96484005D01*
X132051505Y-96651097D01*
X131915965Y-96844669D01*
X131915964Y-96844671D01*
X131816098Y-97058835D01*
X131816094Y-97058844D01*
X131754938Y-97287086D01*
X131754936Y-97287096D01*
X131734341Y-97522499D01*
X131734341Y-97522500D01*
X131754936Y-97757903D01*
X131754938Y-97757913D01*
X131816094Y-97986155D01*
X131816096Y-97986159D01*
X131816097Y-97986163D01*
X131874464Y-98111331D01*
X131915965Y-98200330D01*
X131915967Y-98200334D01*
X132051501Y-98393895D01*
X132051506Y-98393902D01*
X132218597Y-98560993D01*
X132218603Y-98560998D01*
X132404158Y-98690925D01*
X132447783Y-98745502D01*
X132454977Y-98815000D01*
X132423454Y-98877355D01*
X132404158Y-98894075D01*
X132218597Y-99024005D01*
X132051505Y-99191097D01*
X131915965Y-99384669D01*
X131915964Y-99384671D01*
X131816098Y-99598835D01*
X131816094Y-99598844D01*
X131754938Y-99827086D01*
X131754936Y-99827096D01*
X131734341Y-100062499D01*
X131734341Y-100062500D01*
X131754936Y-100297903D01*
X131754938Y-100297913D01*
X131816094Y-100526155D01*
X131816096Y-100526159D01*
X131816097Y-100526163D01*
X131835797Y-100568409D01*
X131915965Y-100740330D01*
X131915967Y-100740334D01*
X131971865Y-100820164D01*
X132051505Y-100933901D01*
X132218599Y-101100995D01*
X132272787Y-101138938D01*
X132412165Y-101236532D01*
X132412167Y-101236533D01*
X132412170Y-101236535D01*
X132626337Y-101336403D01*
X132854592Y-101397563D01*
X133042918Y-101414039D01*
X133089999Y-101418159D01*
X133090000Y-101418159D01*
X133090001Y-101418159D01*
X133129234Y-101414726D01*
X133325408Y-101397563D01*
X133453757Y-101363172D01*
X133523606Y-101364835D01*
X133573531Y-101395266D01*
X136368584Y-104190319D01*
X136402069Y-104251642D01*
X136397085Y-104321334D01*
X136355213Y-104377267D01*
X136289749Y-104401684D01*
X136280903Y-104402000D01*
X134564499Y-104402000D01*
X134497460Y-104382315D01*
X134451705Y-104329511D01*
X134440499Y-104278000D01*
X134440499Y-104244629D01*
X134440498Y-104244623D01*
X134440497Y-104244616D01*
X134434091Y-104185017D01*
X134429848Y-104173642D01*
X134383797Y-104050171D01*
X134383793Y-104050164D01*
X134297547Y-103934955D01*
X134297544Y-103934952D01*
X134182335Y-103848706D01*
X134182328Y-103848702D01*
X134047482Y-103798408D01*
X134047483Y-103798408D01*
X133987883Y-103792001D01*
X133987881Y-103792000D01*
X133987873Y-103792000D01*
X133987864Y-103792000D01*
X132192129Y-103792000D01*
X132192123Y-103792001D01*
X132132516Y-103798408D01*
X131997671Y-103848702D01*
X131997664Y-103848706D01*
X131882455Y-103934952D01*
X131882452Y-103934955D01*
X131796206Y-104050164D01*
X131796202Y-104050171D01*
X131745908Y-104185017D01*
X131740855Y-104232022D01*
X131739501Y-104244623D01*
X131739500Y-104244635D01*
X131739500Y-105710269D01*
X131719815Y-105777308D01*
X131703181Y-105797950D01*
X125214358Y-112286772D01*
X125200729Y-112298551D01*
X125181469Y-112312890D01*
X125149632Y-112350831D01*
X125142346Y-112358784D01*
X125138407Y-112362724D01*
X125119176Y-112387045D01*
X125116902Y-112389837D01*
X125068697Y-112447287D01*
X125064729Y-112453319D01*
X125064682Y-112453288D01*
X125060630Y-112459647D01*
X125060679Y-112459677D01*
X125056889Y-112465821D01*
X125025192Y-112533794D01*
X125023623Y-112537036D01*
X124989957Y-112604072D01*
X124987488Y-112610857D01*
X124987432Y-112610836D01*
X124984960Y-112617950D01*
X124985015Y-112617969D01*
X124982743Y-112624825D01*
X124967573Y-112698288D01*
X124966793Y-112701804D01*
X124949499Y-112774779D01*
X124948661Y-112781954D01*
X124948601Y-112781947D01*
X124947835Y-112789445D01*
X124947895Y-112789451D01*
X124947265Y-112796640D01*
X124949448Y-112871628D01*
X124949500Y-112875235D01*
X124949500Y-114006209D01*
X124963063Y-114122249D01*
X124964759Y-114136756D01*
X124964760Y-114136759D01*
X125024762Y-114301615D01*
X125024764Y-114301619D01*
X125125138Y-114454230D01*
X125123852Y-114455075D01*
X125148501Y-114511383D01*
X125149500Y-114527089D01*
X125149500Y-114660369D01*
X125149501Y-114660376D01*
X125155908Y-114719983D01*
X125206202Y-114854828D01*
X125206206Y-114854835D01*
X125292452Y-114970044D01*
X125292455Y-114970047D01*
X125407664Y-115056293D01*
X125407671Y-115056297D01*
X125452618Y-115073061D01*
X125542517Y-115106591D01*
X125602127Y-115113000D01*
X125997872Y-115112999D01*
X126057483Y-115106591D01*
X126057488Y-115106589D01*
X126192329Y-115056297D01*
X126192329Y-115056296D01*
X126192331Y-115056296D01*
X126225689Y-115031323D01*
X126291151Y-115006906D01*
X126359425Y-115021757D01*
X126374305Y-115031320D01*
X126407669Y-115056296D01*
X126407670Y-115056296D01*
X126407670Y-115056297D01*
X126482155Y-115084077D01*
X126542517Y-115106591D01*
X126602127Y-115113000D01*
X126997872Y-115112999D01*
X126997873Y-115112998D01*
X126997885Y-115112998D01*
X127036744Y-115108820D01*
X127063252Y-115108820D01*
X127100090Y-115112781D01*
X127164640Y-115139518D01*
X127204488Y-115196910D01*
X127209772Y-115219884D01*
X127214955Y-115259260D01*
X127214956Y-115259262D01*
X127275464Y-115405341D01*
X127328238Y-115474117D01*
X127371719Y-115530783D01*
X127396769Y-115550004D01*
X127408964Y-115560699D01*
X128449298Y-116601033D01*
X128482783Y-116662356D01*
X128484837Y-116674830D01*
X128494630Y-116761749D01*
X128554210Y-116932021D01*
X128618233Y-117033913D01*
X128650184Y-117084762D01*
X128777738Y-117212316D01*
X128794239Y-117222684D01*
X128925531Y-117305181D01*
X128930478Y-117308289D01*
X129092374Y-117364939D01*
X129100745Y-117367868D01*
X129100750Y-117367869D01*
X129279996Y-117388065D01*
X129280000Y-117388065D01*
X129280004Y-117388065D01*
X129459249Y-117367869D01*
X129459252Y-117367868D01*
X129459255Y-117367868D01*
X129629522Y-117308289D01*
X129782262Y-117212316D01*
X129909816Y-117084762D01*
X130005789Y-116932022D01*
X130065368Y-116761755D01*
X130075162Y-116674830D01*
X130085565Y-116582503D01*
X130085565Y-116582496D01*
X130070736Y-116450883D01*
X130082791Y-116382061D01*
X130130140Y-116330682D01*
X130193956Y-116313000D01*
X130675500Y-116313000D01*
X130742539Y-116332685D01*
X130788294Y-116385489D01*
X130799500Y-116437000D01*
X130799500Y-118360370D01*
X130799501Y-118360376D01*
X130805908Y-118419983D01*
X130856202Y-118554828D01*
X130856206Y-118554835D01*
X130942452Y-118670044D01*
X130942455Y-118670047D01*
X131057664Y-118756293D01*
X131057671Y-118756297D01*
X131192517Y-118806591D01*
X131192516Y-118806591D01*
X131199444Y-118807335D01*
X131252127Y-118813000D01*
X133147872Y-118812999D01*
X133207483Y-118806591D01*
X133342331Y-118756296D01*
X133457546Y-118670046D01*
X133543796Y-118554831D01*
X133594091Y-118419983D01*
X133600500Y-118360373D01*
X133600499Y-116436999D01*
X133620184Y-116369961D01*
X133672987Y-116324206D01*
X133724499Y-116313000D01*
X134459903Y-116313000D01*
X134526942Y-116332685D01*
X134547584Y-116349319D01*
X136069298Y-117871033D01*
X136102783Y-117932356D01*
X136104837Y-117944830D01*
X136114630Y-118031749D01*
X136174210Y-118202021D01*
X136190406Y-118227796D01*
X136270184Y-118354762D01*
X136397738Y-118482316D01*
X136414239Y-118492684D01*
X136545531Y-118575181D01*
X136550478Y-118578289D01*
X136720745Y-118637868D01*
X136720750Y-118637869D01*
X136899996Y-118658065D01*
X136900000Y-118658065D01*
X136900004Y-118658065D01*
X137079249Y-118637869D01*
X137079252Y-118637868D01*
X137079255Y-118637868D01*
X137249522Y-118578289D01*
X137402262Y-118482316D01*
X137524208Y-118360370D01*
X138399500Y-118360370D01*
X138399501Y-118360376D01*
X138405908Y-118419983D01*
X138456202Y-118554828D01*
X138456206Y-118554835D01*
X138542452Y-118670044D01*
X138542455Y-118670047D01*
X138657664Y-118756293D01*
X138657671Y-118756297D01*
X138792517Y-118806591D01*
X138792516Y-118806591D01*
X138799444Y-118807335D01*
X138852127Y-118813000D01*
X140747872Y-118812999D01*
X140807483Y-118806591D01*
X140942331Y-118756296D01*
X141057546Y-118670046D01*
X141143796Y-118554831D01*
X141194091Y-118419983D01*
X141200500Y-118360373D01*
X141200499Y-116064628D01*
X141194091Y-116005017D01*
X141182469Y-115973858D01*
X141143797Y-115870171D01*
X141143793Y-115870164D01*
X141057547Y-115754955D01*
X141057544Y-115754952D01*
X140942335Y-115668706D01*
X140942328Y-115668702D01*
X140807482Y-115618408D01*
X140807483Y-115618408D01*
X140747883Y-115612001D01*
X140747881Y-115612000D01*
X140747873Y-115612000D01*
X140747864Y-115612000D01*
X138852129Y-115612000D01*
X138852123Y-115612001D01*
X138792516Y-115618408D01*
X138657671Y-115668702D01*
X138657664Y-115668706D01*
X138542455Y-115754952D01*
X138542452Y-115754955D01*
X138456206Y-115870164D01*
X138456202Y-115870171D01*
X138405908Y-116005017D01*
X138399501Y-116064616D01*
X138399501Y-116064623D01*
X138399500Y-116064635D01*
X138399500Y-118360370D01*
X137524208Y-118360370D01*
X137529816Y-118354762D01*
X137625789Y-118202022D01*
X137685368Y-118031755D01*
X137695162Y-117944830D01*
X137705565Y-117852503D01*
X137705565Y-117852496D01*
X137685369Y-117673250D01*
X137685368Y-117673245D01*
X137657586Y-117593848D01*
X137625789Y-117502978D01*
X137611353Y-117480004D01*
X137540894Y-117367869D01*
X137529816Y-117350238D01*
X137484759Y-117305181D01*
X137451274Y-117243858D01*
X137456258Y-117174166D01*
X137484759Y-117129819D01*
X137502080Y-117112498D01*
X137529816Y-117084762D01*
X137625789Y-116932022D01*
X137685368Y-116761755D01*
X137695162Y-116674830D01*
X137705565Y-116582503D01*
X137705565Y-116582496D01*
X137685369Y-116403250D01*
X137685368Y-116403245D01*
X137673595Y-116369601D01*
X137625789Y-116232978D01*
X137597936Y-116188651D01*
X137580506Y-116160911D01*
X137529816Y-116080238D01*
X137484759Y-116035181D01*
X137451274Y-115973858D01*
X137456258Y-115904166D01*
X137484759Y-115859819D01*
X137529816Y-115814762D01*
X137625789Y-115662022D01*
X137685368Y-115491755D01*
X137685369Y-115491749D01*
X137705565Y-115312503D01*
X137705565Y-115312496D01*
X137685369Y-115133250D01*
X137685368Y-115133245D01*
X137649704Y-115031324D01*
X137625789Y-114962978D01*
X137529816Y-114810238D01*
X137402262Y-114682684D01*
X137388620Y-114674112D01*
X137249523Y-114586711D01*
X137079254Y-114527131D01*
X137079250Y-114527130D01*
X137000591Y-114518268D01*
X136936177Y-114491201D01*
X136929351Y-114485038D01*
X136802842Y-114387964D01*
X136656762Y-114327456D01*
X136656760Y-114327455D01*
X136500001Y-114306818D01*
X136500000Y-114306818D01*
X136468697Y-114310939D01*
X136452513Y-114312000D01*
X130574500Y-114312000D01*
X130507461Y-114292315D01*
X130461706Y-114239511D01*
X130450500Y-114188000D01*
X130450499Y-113264629D01*
X130450498Y-113264623D01*
X130450277Y-113262570D01*
X130444091Y-113205017D01*
X130412619Y-113120639D01*
X130406945Y-113070630D01*
X130405682Y-113070630D01*
X130405682Y-113062499D01*
X130391907Y-112957867D01*
X130385044Y-112905738D01*
X130351322Y-112824327D01*
X130324538Y-112759663D01*
X130324535Y-112759658D01*
X130296515Y-112723141D01*
X130296513Y-112723139D01*
X130280666Y-112702487D01*
X130255471Y-112637318D01*
X130269509Y-112568873D01*
X130318323Y-112518883D01*
X130379041Y-112503000D01*
X140809903Y-112503000D01*
X140876942Y-112522685D01*
X140897584Y-112539319D01*
X141149298Y-112791033D01*
X141182783Y-112852356D01*
X141184837Y-112864830D01*
X141189156Y-112903160D01*
X141177102Y-112971982D01*
X141165203Y-112991354D01*
X141106206Y-113070164D01*
X141106202Y-113070171D01*
X141061934Y-113188861D01*
X141020063Y-113244795D01*
X140954598Y-113269212D01*
X140904799Y-113262570D01*
X140889261Y-113257133D01*
X140889249Y-113257130D01*
X140710004Y-113236935D01*
X140709996Y-113236935D01*
X140530750Y-113257130D01*
X140530745Y-113257131D01*
X140360476Y-113316711D01*
X140207737Y-113412684D01*
X140080184Y-113540237D01*
X139984211Y-113692976D01*
X139924631Y-113863245D01*
X139924630Y-113863250D01*
X139904435Y-114042496D01*
X139904435Y-114042503D01*
X139924630Y-114221749D01*
X139924631Y-114221754D01*
X139984211Y-114392023D01*
X140059958Y-114512573D01*
X140080184Y-114544762D01*
X140207738Y-114672316D01*
X140360478Y-114768289D01*
X140530742Y-114827867D01*
X140530745Y-114827868D01*
X140530750Y-114827869D01*
X140709996Y-114848065D01*
X140710000Y-114848065D01*
X140710004Y-114848065D01*
X140889249Y-114827869D01*
X140889252Y-114827868D01*
X140889255Y-114827868D01*
X140889256Y-114827867D01*
X140889259Y-114827867D01*
X140928202Y-114814239D01*
X140959695Y-114803219D01*
X141029473Y-114799657D01*
X141090101Y-114834386D01*
X141100235Y-114848219D01*
X141100888Y-114847731D01*
X141192452Y-114970044D01*
X141192455Y-114970047D01*
X141307664Y-115056293D01*
X141307671Y-115056297D01*
X141352618Y-115073061D01*
X141442517Y-115106591D01*
X141502127Y-115113000D01*
X141897872Y-115112999D01*
X141957483Y-115106591D01*
X141957488Y-115106589D01*
X142092329Y-115056297D01*
X142092329Y-115056296D01*
X142092331Y-115056296D01*
X142125689Y-115031323D01*
X142191151Y-115006906D01*
X142259425Y-115021757D01*
X142274305Y-115031320D01*
X142307669Y-115056296D01*
X142307670Y-115056296D01*
X142307670Y-115056297D01*
X142382155Y-115084077D01*
X142442517Y-115106591D01*
X142502127Y-115113000D01*
X142897872Y-115112999D01*
X142897873Y-115112998D01*
X142897885Y-115112998D01*
X142936744Y-115108820D01*
X142963252Y-115108820D01*
X142988759Y-115111562D01*
X143053308Y-115138301D01*
X143093155Y-115195694D01*
X143099500Y-115234851D01*
X143099500Y-116985012D01*
X143098439Y-117001197D01*
X143094318Y-117032498D01*
X143094318Y-117032500D01*
X143099500Y-117071860D01*
X143099500Y-117071861D01*
X143114955Y-117189260D01*
X143114956Y-117189262D01*
X143175464Y-117335341D01*
X143249616Y-117431978D01*
X143271719Y-117460783D01*
X143296769Y-117480004D01*
X143308964Y-117490699D01*
X144959298Y-119141033D01*
X144992783Y-119202356D01*
X144994837Y-119214830D01*
X145004630Y-119301749D01*
X145064210Y-119472021D01*
X145160184Y-119624762D01*
X145287738Y-119752316D01*
X145440478Y-119848289D01*
X145610745Y-119907868D01*
X145610750Y-119907869D01*
X145789996Y-119928065D01*
X145790000Y-119928065D01*
X145790004Y-119928065D01*
X145969249Y-119907869D01*
X145969252Y-119907868D01*
X145969255Y-119907868D01*
X146139522Y-119848289D01*
X146292262Y-119752316D01*
X146419816Y-119624762D01*
X146515789Y-119472022D01*
X146575368Y-119301755D01*
X146585162Y-119214830D01*
X146595565Y-119122503D01*
X146595565Y-119122496D01*
X146575369Y-118943250D01*
X146575368Y-118943245D01*
X146529793Y-118812999D01*
X146515789Y-118772978D01*
X146419816Y-118620238D01*
X146374759Y-118575181D01*
X146341274Y-118513858D01*
X146346258Y-118444166D01*
X146374759Y-118399819D01*
X146419816Y-118354762D01*
X146470507Y-118274086D01*
X146522840Y-118227796D01*
X146591893Y-118217147D01*
X146655742Y-118245522D01*
X146694114Y-118303911D01*
X146699500Y-118340054D01*
X146699500Y-118360368D01*
X146699501Y-118360376D01*
X146705908Y-118419983D01*
X146756202Y-118554828D01*
X146756206Y-118554835D01*
X146842452Y-118670044D01*
X146842455Y-118670047D01*
X146957664Y-118756293D01*
X146957671Y-118756297D01*
X147092517Y-118806591D01*
X147092516Y-118806591D01*
X147099444Y-118807335D01*
X147152127Y-118813000D01*
X149047872Y-118812999D01*
X149107483Y-118806591D01*
X149242331Y-118756296D01*
X149357546Y-118670046D01*
X149443796Y-118554831D01*
X149494091Y-118419983D01*
X149500500Y-118360373D01*
X149500500Y-118360370D01*
X155499500Y-118360370D01*
X155499501Y-118360376D01*
X155505908Y-118419983D01*
X155556202Y-118554828D01*
X155556206Y-118554835D01*
X155642452Y-118670044D01*
X155642455Y-118670047D01*
X155757664Y-118756293D01*
X155757671Y-118756297D01*
X155892517Y-118806591D01*
X155892516Y-118806591D01*
X155899444Y-118807335D01*
X155952127Y-118813000D01*
X157847872Y-118812999D01*
X157907483Y-118806591D01*
X158042331Y-118756296D01*
X158157546Y-118670046D01*
X158243796Y-118554831D01*
X158294091Y-118419983D01*
X158300500Y-118360373D01*
X158300499Y-116064628D01*
X158294091Y-116005017D01*
X158282469Y-115973858D01*
X158243797Y-115870171D01*
X158243793Y-115870164D01*
X158157547Y-115754955D01*
X158157544Y-115754952D01*
X158042335Y-115668706D01*
X158042328Y-115668702D01*
X157907482Y-115618408D01*
X157907483Y-115618408D01*
X157847883Y-115612001D01*
X157847881Y-115612000D01*
X157847873Y-115612000D01*
X157847864Y-115612000D01*
X155952129Y-115612000D01*
X155952123Y-115612001D01*
X155892516Y-115618408D01*
X155757671Y-115668702D01*
X155757664Y-115668706D01*
X155642455Y-115754952D01*
X155642452Y-115754955D01*
X155556206Y-115870164D01*
X155556202Y-115870171D01*
X155505908Y-116005017D01*
X155499501Y-116064616D01*
X155499501Y-116064623D01*
X155499500Y-116064635D01*
X155499500Y-118360370D01*
X149500500Y-118360370D01*
X149500499Y-116064628D01*
X149494091Y-116005017D01*
X149482469Y-115973858D01*
X149443797Y-115870171D01*
X149443793Y-115870164D01*
X149357547Y-115754955D01*
X149357544Y-115754952D01*
X149242335Y-115668706D01*
X149242328Y-115668702D01*
X149107482Y-115618408D01*
X149107483Y-115618408D01*
X149047883Y-115612001D01*
X149047881Y-115612000D01*
X149047873Y-115612000D01*
X149047864Y-115612000D01*
X147152129Y-115612000D01*
X147152123Y-115612001D01*
X147092516Y-115618408D01*
X146957671Y-115668702D01*
X146957664Y-115668706D01*
X146842455Y-115754952D01*
X146842452Y-115754955D01*
X146756206Y-115870164D01*
X146756202Y-115870171D01*
X146705908Y-116005017D01*
X146699501Y-116064616D01*
X146699501Y-116064623D01*
X146699500Y-116064635D01*
X146699500Y-116094938D01*
X146679815Y-116161977D01*
X146627011Y-116207732D01*
X146557853Y-116217676D01*
X146494297Y-116188651D01*
X146470507Y-116160911D01*
X146419817Y-116080239D01*
X146374759Y-116035181D01*
X146341274Y-115973858D01*
X146346258Y-115904166D01*
X146374759Y-115859819D01*
X146419816Y-115814762D01*
X146515789Y-115662022D01*
X146575368Y-115491755D01*
X146575369Y-115491749D01*
X146595565Y-115312503D01*
X146595565Y-115312496D01*
X146575369Y-115133250D01*
X146575368Y-115133245D01*
X146539704Y-115031324D01*
X146515789Y-114962978D01*
X146419816Y-114810238D01*
X146384630Y-114775052D01*
X146351145Y-114713729D01*
X146349022Y-114674117D01*
X146350500Y-114660373D01*
X146350499Y-113264628D01*
X146344091Y-113205017D01*
X146338065Y-113188861D01*
X146308318Y-113109104D01*
X146300500Y-113065771D01*
X146300500Y-112986290D01*
X146320185Y-112919251D01*
X146336819Y-112898609D01*
X146370598Y-112864830D01*
X146419816Y-112815612D01*
X146515789Y-112662872D01*
X146575368Y-112492605D01*
X146579080Y-112459659D01*
X146595565Y-112313353D01*
X146595565Y-112313345D01*
X146587401Y-112240883D01*
X146599456Y-112172061D01*
X146646805Y-112120682D01*
X146710621Y-112103000D01*
X157939903Y-112103000D01*
X158006942Y-112122685D01*
X158027584Y-112139319D01*
X158525644Y-112637379D01*
X158559129Y-112698702D01*
X158554145Y-112768394D01*
X158512273Y-112824327D01*
X158481297Y-112841242D01*
X158407669Y-112868703D01*
X158407664Y-112868706D01*
X158292455Y-112954952D01*
X158292452Y-112954955D01*
X158206206Y-113070164D01*
X158206202Y-113070171D01*
X158153553Y-113211333D01*
X158111682Y-113267267D01*
X158046218Y-113291684D01*
X158037371Y-113292000D01*
X157519972Y-113292000D01*
X157479017Y-113285042D01*
X157399254Y-113257131D01*
X157399249Y-113257130D01*
X157220004Y-113236935D01*
X157219996Y-113236935D01*
X157040750Y-113257130D01*
X157040745Y-113257131D01*
X156870476Y-113316711D01*
X156717737Y-113412684D01*
X156590184Y-113540237D01*
X156494211Y-113692976D01*
X156434631Y-113863245D01*
X156434630Y-113863250D01*
X156414435Y-114042496D01*
X156414435Y-114042503D01*
X156434630Y-114221749D01*
X156434631Y-114221754D01*
X156494211Y-114392023D01*
X156569958Y-114512573D01*
X156590184Y-114544762D01*
X156717738Y-114672316D01*
X156870478Y-114768289D01*
X157040742Y-114827867D01*
X157040745Y-114827868D01*
X157040750Y-114827869D01*
X157219996Y-114848065D01*
X157220000Y-114848065D01*
X157220004Y-114848065D01*
X157399249Y-114827869D01*
X157399252Y-114827868D01*
X157399255Y-114827868D01*
X157479017Y-114799957D01*
X157519972Y-114793000D01*
X158098869Y-114793000D01*
X158165908Y-114812685D01*
X158199502Y-114848768D01*
X158200888Y-114847731D01*
X158292452Y-114970044D01*
X158292455Y-114970047D01*
X158407664Y-115056293D01*
X158407671Y-115056297D01*
X158452618Y-115073061D01*
X158542517Y-115106591D01*
X158602127Y-115113000D01*
X158997872Y-115112999D01*
X159057483Y-115106591D01*
X159057488Y-115106589D01*
X159192329Y-115056297D01*
X159192329Y-115056296D01*
X159192331Y-115056296D01*
X159225689Y-115031323D01*
X159291151Y-115006906D01*
X159359425Y-115021757D01*
X159374305Y-115031320D01*
X159407669Y-115056296D01*
X159407670Y-115056296D01*
X159407670Y-115056297D01*
X159482155Y-115084077D01*
X159542517Y-115106591D01*
X159602127Y-115113000D01*
X159997872Y-115112999D01*
X159997873Y-115112998D01*
X159997885Y-115112998D01*
X160036744Y-115108820D01*
X160063252Y-115108820D01*
X160088759Y-115111562D01*
X160153308Y-115138301D01*
X160193155Y-115195694D01*
X160199500Y-115234851D01*
X160199500Y-116305012D01*
X160198439Y-116321197D01*
X160194318Y-116352498D01*
X160194318Y-116352500D01*
X160199500Y-116391860D01*
X160199500Y-116391861D01*
X160214955Y-116509260D01*
X160214956Y-116509262D01*
X160245290Y-116582496D01*
X160275464Y-116655341D01*
X160371718Y-116780782D01*
X160394377Y-116798169D01*
X160396769Y-116800004D01*
X160408964Y-116810699D01*
X162739298Y-119141033D01*
X162772783Y-119202356D01*
X162774837Y-119214830D01*
X162784630Y-119301749D01*
X162844210Y-119472021D01*
X162940184Y-119624762D01*
X163067738Y-119752316D01*
X163220478Y-119848289D01*
X163390745Y-119907868D01*
X163390750Y-119907869D01*
X163569996Y-119928065D01*
X163570000Y-119928065D01*
X163570004Y-119928065D01*
X163749249Y-119907869D01*
X163749252Y-119907868D01*
X163749255Y-119907868D01*
X163919522Y-119848289D01*
X164072262Y-119752316D01*
X164199816Y-119624762D01*
X164295789Y-119472022D01*
X164355368Y-119301755D01*
X164365162Y-119214830D01*
X164375565Y-119122503D01*
X164375565Y-119122496D01*
X164356229Y-118950882D01*
X164368284Y-118882061D01*
X164415633Y-118830681D01*
X164479449Y-118812999D01*
X166147871Y-118812999D01*
X166147872Y-118812999D01*
X166207483Y-118806591D01*
X166342331Y-118756296D01*
X166457546Y-118670046D01*
X166543796Y-118554831D01*
X166594091Y-118419983D01*
X166600500Y-118360373D01*
X166600500Y-118360370D01*
X171499500Y-118360370D01*
X171499501Y-118360376D01*
X171505908Y-118419983D01*
X171556202Y-118554828D01*
X171556206Y-118554835D01*
X171642452Y-118670044D01*
X171642455Y-118670047D01*
X171757664Y-118756293D01*
X171757671Y-118756297D01*
X171892517Y-118806591D01*
X171892516Y-118806591D01*
X171899444Y-118807335D01*
X171952127Y-118813000D01*
X173847872Y-118812999D01*
X173907483Y-118806591D01*
X174042331Y-118756296D01*
X174157546Y-118670046D01*
X174243796Y-118554831D01*
X174294091Y-118419983D01*
X174300500Y-118360373D01*
X174300499Y-116064628D01*
X174294091Y-116005017D01*
X174282469Y-115973858D01*
X174243797Y-115870171D01*
X174243793Y-115870164D01*
X174157547Y-115754955D01*
X174157544Y-115754952D01*
X174042335Y-115668706D01*
X174042328Y-115668702D01*
X173907482Y-115618408D01*
X173907483Y-115618408D01*
X173847883Y-115612001D01*
X173847881Y-115612000D01*
X173847873Y-115612000D01*
X173847864Y-115612000D01*
X171952129Y-115612000D01*
X171952123Y-115612001D01*
X171892516Y-115618408D01*
X171757671Y-115668702D01*
X171757664Y-115668706D01*
X171642455Y-115754952D01*
X171642452Y-115754955D01*
X171556206Y-115870164D01*
X171556202Y-115870171D01*
X171505908Y-116005017D01*
X171499501Y-116064616D01*
X171499501Y-116064623D01*
X171499500Y-116064635D01*
X171499500Y-118360370D01*
X166600500Y-118360370D01*
X166600499Y-116064628D01*
X166594091Y-116005017D01*
X166582469Y-115973858D01*
X166543797Y-115870171D01*
X166543793Y-115870164D01*
X166457547Y-115754955D01*
X166457544Y-115754952D01*
X166342335Y-115668706D01*
X166342328Y-115668702D01*
X166207482Y-115618408D01*
X166207483Y-115618408D01*
X166147883Y-115612001D01*
X166147881Y-115612000D01*
X166147873Y-115612000D01*
X166147865Y-115612000D01*
X164480576Y-115612000D01*
X164413537Y-115592315D01*
X164367782Y-115539511D01*
X164357356Y-115474117D01*
X164375565Y-115312503D01*
X164375565Y-115312496D01*
X164355369Y-115133250D01*
X164355368Y-115133245D01*
X164319704Y-115031324D01*
X164295789Y-114962978D01*
X164199816Y-114810238D01*
X164072262Y-114682684D01*
X164058620Y-114674112D01*
X163919523Y-114586711D01*
X163749254Y-114527131D01*
X163749249Y-114527130D01*
X163563081Y-114506155D01*
X163563361Y-114503664D01*
X163507460Y-114487250D01*
X163461705Y-114434446D01*
X163450499Y-114382935D01*
X163450499Y-113264629D01*
X163450497Y-113264610D01*
X163444863Y-113212198D01*
X163457268Y-113143439D01*
X163480468Y-113111265D01*
X163588535Y-113003198D01*
X163649856Y-112969715D01*
X163662311Y-112967663D01*
X163749255Y-112957868D01*
X163919522Y-112898289D01*
X164072262Y-112802316D01*
X164199816Y-112674762D01*
X164295789Y-112522022D01*
X164355368Y-112351755D01*
X164356217Y-112344221D01*
X164370989Y-112213117D01*
X164398055Y-112148703D01*
X164455650Y-112109148D01*
X164494209Y-112103000D01*
X173939903Y-112103000D01*
X174006942Y-112122685D01*
X174027584Y-112139319D01*
X174525644Y-112637379D01*
X174559129Y-112698702D01*
X174554145Y-112768394D01*
X174512273Y-112824327D01*
X174481297Y-112841242D01*
X174407669Y-112868703D01*
X174407664Y-112868706D01*
X174292455Y-112954952D01*
X174292452Y-112954955D01*
X174206206Y-113070164D01*
X174206202Y-113070171D01*
X174153553Y-113211333D01*
X174111682Y-113267267D01*
X174046218Y-113291684D01*
X174037371Y-113292000D01*
X174029972Y-113292000D01*
X173989017Y-113285042D01*
X173909254Y-113257131D01*
X173909249Y-113257130D01*
X173730004Y-113236935D01*
X173729996Y-113236935D01*
X173550750Y-113257130D01*
X173550745Y-113257131D01*
X173380476Y-113316711D01*
X173227737Y-113412684D01*
X173100184Y-113540237D01*
X173004211Y-113692976D01*
X172944631Y-113863245D01*
X172944630Y-113863250D01*
X172924435Y-114042496D01*
X172924435Y-114042503D01*
X172944630Y-114221749D01*
X172944631Y-114221754D01*
X173004211Y-114392023D01*
X173079958Y-114512573D01*
X173100184Y-114544762D01*
X173227738Y-114672316D01*
X173380478Y-114768289D01*
X173550742Y-114827867D01*
X173550745Y-114827868D01*
X173550750Y-114827869D01*
X173729996Y-114848065D01*
X173730000Y-114848065D01*
X173730004Y-114848065D01*
X173909249Y-114827869D01*
X173909252Y-114827868D01*
X173909255Y-114827868D01*
X173989017Y-114799957D01*
X174029972Y-114793000D01*
X174098869Y-114793000D01*
X174165908Y-114812685D01*
X174199502Y-114848768D01*
X174200888Y-114847731D01*
X174292452Y-114970044D01*
X174292455Y-114970047D01*
X174407664Y-115056293D01*
X174407671Y-115056297D01*
X174452618Y-115073061D01*
X174542517Y-115106591D01*
X174602127Y-115113000D01*
X174997872Y-115112999D01*
X175057483Y-115106591D01*
X175057488Y-115106589D01*
X175192329Y-115056297D01*
X175192329Y-115056296D01*
X175192331Y-115056296D01*
X175225689Y-115031323D01*
X175291151Y-115006906D01*
X175359425Y-115021757D01*
X175374305Y-115031320D01*
X175407669Y-115056296D01*
X175407670Y-115056296D01*
X175407670Y-115056297D01*
X175482155Y-115084077D01*
X175542517Y-115106591D01*
X175602127Y-115113000D01*
X175997872Y-115112999D01*
X175997873Y-115112998D01*
X175997885Y-115112998D01*
X176036744Y-115108820D01*
X176063252Y-115108820D01*
X176088759Y-115111562D01*
X176153308Y-115138301D01*
X176193155Y-115195694D01*
X176199500Y-115234851D01*
X176199500Y-117065012D01*
X176198439Y-117081197D01*
X176194318Y-117112498D01*
X176194318Y-117112500D01*
X176199500Y-117151860D01*
X176199500Y-117151861D01*
X176214955Y-117269260D01*
X176214956Y-117269262D01*
X176231121Y-117308289D01*
X176275464Y-117415341D01*
X176333288Y-117490699D01*
X176371719Y-117540783D01*
X176396769Y-117560004D01*
X176408964Y-117570699D01*
X177979298Y-119141033D01*
X178012783Y-119202356D01*
X178014837Y-119214830D01*
X178024630Y-119301749D01*
X178084210Y-119472021D01*
X178180184Y-119624762D01*
X178307738Y-119752316D01*
X178460478Y-119848289D01*
X178630745Y-119907868D01*
X178630750Y-119907869D01*
X178809996Y-119928065D01*
X178810000Y-119928065D01*
X178810004Y-119928065D01*
X178989249Y-119907869D01*
X178989252Y-119907868D01*
X178989255Y-119907868D01*
X179159522Y-119848289D01*
X179312262Y-119752316D01*
X179439816Y-119624762D01*
X179535789Y-119472022D01*
X179595368Y-119301755D01*
X179605162Y-119214830D01*
X179615565Y-119122503D01*
X179615565Y-119122496D01*
X179595369Y-118943250D01*
X179595368Y-118943245D01*
X179549793Y-118812999D01*
X179535789Y-118772978D01*
X179439816Y-118620238D01*
X179394759Y-118575181D01*
X179361274Y-118513858D01*
X179366258Y-118444166D01*
X179394759Y-118399819D01*
X179439816Y-118354762D01*
X179535789Y-118202022D01*
X179558458Y-118137236D01*
X179599179Y-118080460D01*
X179664131Y-118054712D01*
X179732693Y-118068168D01*
X179783097Y-118116554D01*
X179799500Y-118178189D01*
X179799500Y-118360370D01*
X179799501Y-118360376D01*
X179805908Y-118419983D01*
X179856202Y-118554828D01*
X179856206Y-118554835D01*
X179942452Y-118670044D01*
X179942455Y-118670047D01*
X180057664Y-118756293D01*
X180057671Y-118756297D01*
X180192517Y-118806591D01*
X180192516Y-118806591D01*
X180199444Y-118807335D01*
X180252127Y-118813000D01*
X182147872Y-118812999D01*
X182207483Y-118806591D01*
X182342331Y-118756296D01*
X182457546Y-118670046D01*
X182543796Y-118554831D01*
X182594091Y-118419983D01*
X182600500Y-118360373D01*
X182600499Y-116064628D01*
X182594091Y-116005017D01*
X182582469Y-115973858D01*
X182543797Y-115870171D01*
X182543793Y-115870164D01*
X182457547Y-115754955D01*
X182457544Y-115754952D01*
X182342335Y-115668706D01*
X182342328Y-115668702D01*
X182207482Y-115618408D01*
X182207483Y-115618408D01*
X182147883Y-115612001D01*
X182147881Y-115612000D01*
X182147873Y-115612000D01*
X182147864Y-115612000D01*
X180252129Y-115612000D01*
X180252123Y-115612001D01*
X180192516Y-115618408D01*
X180057671Y-115668702D01*
X180057664Y-115668706D01*
X179942455Y-115754952D01*
X179942452Y-115754955D01*
X179856206Y-115870164D01*
X179856202Y-115870171D01*
X179805908Y-116005017D01*
X179799501Y-116064616D01*
X179799501Y-116064623D01*
X179799500Y-116064635D01*
X179799500Y-116256807D01*
X179779815Y-116323846D01*
X179727011Y-116369601D01*
X179657853Y-116379545D01*
X179594297Y-116350520D01*
X179558459Y-116297762D01*
X179535790Y-116232980D01*
X179535789Y-116232978D01*
X179439816Y-116080238D01*
X179394759Y-116035181D01*
X179361274Y-115973858D01*
X179366258Y-115904166D01*
X179394759Y-115859819D01*
X179439816Y-115814762D01*
X179535789Y-115662022D01*
X179595368Y-115491755D01*
X179595369Y-115491749D01*
X179615565Y-115312503D01*
X179615565Y-115312496D01*
X179595369Y-115133250D01*
X179595368Y-115133245D01*
X179535788Y-114962975D01*
X179453978Y-114832777D01*
X179434977Y-114765540D01*
X179442789Y-114723471D01*
X179444091Y-114719983D01*
X179450500Y-114660373D01*
X179450499Y-113264628D01*
X179444091Y-113205017D01*
X179438065Y-113188861D01*
X179408318Y-113109104D01*
X179400500Y-113065771D01*
X179400500Y-112809987D01*
X179401561Y-112793801D01*
X179401757Y-112792315D01*
X179405682Y-112762500D01*
X179402655Y-112739511D01*
X179385044Y-112605739D01*
X179385044Y-112605738D01*
X179324536Y-112459659D01*
X179324535Y-112459658D01*
X179324535Y-112459657D01*
X179315043Y-112447287D01*
X179315042Y-112447286D01*
X179270960Y-112389837D01*
X179228282Y-112334218D01*
X179228281Y-112334217D01*
X179203228Y-112314993D01*
X179191034Y-112304299D01*
X165670700Y-98783965D01*
X165637215Y-98722642D01*
X165635163Y-98710186D01*
X165625368Y-98623245D01*
X165565789Y-98452978D01*
X165469816Y-98300238D01*
X165342262Y-98172684D01*
X165319528Y-98158399D01*
X165189523Y-98076711D01*
X165019254Y-98017131D01*
X165019249Y-98017130D01*
X164840004Y-97996935D01*
X164839996Y-97996935D01*
X164660750Y-98017130D01*
X164660745Y-98017131D01*
X164490476Y-98076711D01*
X164360472Y-98158399D01*
X164293235Y-98177399D01*
X164226400Y-98157031D01*
X164181186Y-98103763D01*
X164170500Y-98053405D01*
X164170500Y-96844912D01*
X164190185Y-96777873D01*
X164197555Y-96767597D01*
X164199810Y-96764767D01*
X164199816Y-96764762D01*
X164295789Y-96612022D01*
X164355368Y-96441755D01*
X164365879Y-96348465D01*
X164375565Y-96262503D01*
X164375565Y-96262496D01*
X164355369Y-96083250D01*
X164355368Y-96083245D01*
X164295789Y-95912978D01*
X164199816Y-95760238D01*
X164072262Y-95632684D01*
X164057090Y-95623151D01*
X163919523Y-95536711D01*
X163749254Y-95477131D01*
X163749249Y-95477130D01*
X163570004Y-95456935D01*
X163569996Y-95456935D01*
X163390750Y-95477130D01*
X163390745Y-95477131D01*
X163220476Y-95536711D01*
X163067737Y-95632684D01*
X162940184Y-95760237D01*
X162844211Y-95912976D01*
X162784631Y-96083245D01*
X162784630Y-96083250D01*
X162764435Y-96262496D01*
X162764435Y-96262503D01*
X162784630Y-96441749D01*
X162784631Y-96441754D01*
X162844211Y-96612023D01*
X162940185Y-96764763D01*
X162942445Y-96767597D01*
X162943334Y-96769775D01*
X162943889Y-96770658D01*
X162943734Y-96770755D01*
X162968855Y-96832283D01*
X162969500Y-96844912D01*
X162969500Y-109650087D01*
X162949815Y-109717126D01*
X162942450Y-109727396D01*
X162940186Y-109730234D01*
X162844211Y-109882976D01*
X162784631Y-110053245D01*
X162784630Y-110053250D01*
X162764435Y-110232496D01*
X162764435Y-110232503D01*
X162784630Y-110411749D01*
X162784631Y-110411754D01*
X162844211Y-110582023D01*
X162925899Y-110712028D01*
X162944899Y-110779265D01*
X162924531Y-110846100D01*
X162871263Y-110891314D01*
X162820905Y-110902000D01*
X161341809Y-110902000D01*
X161325623Y-110900939D01*
X161294316Y-110896817D01*
X161294314Y-110896817D01*
X161137553Y-110917455D01*
X160991472Y-110977964D01*
X160866033Y-111074216D01*
X160846804Y-111099275D01*
X160836113Y-111111465D01*
X159854838Y-112092741D01*
X159793515Y-112126226D01*
X159723824Y-112121242D01*
X159679476Y-112092741D01*
X158698199Y-111111464D01*
X158687504Y-111099269D01*
X158668283Y-111074219D01*
X158668279Y-111074216D01*
X158542841Y-110977964D01*
X158396762Y-110917456D01*
X158396760Y-110917455D01*
X158279361Y-110902000D01*
X158240000Y-110896818D01*
X158208697Y-110900939D01*
X158192513Y-110902000D01*
X144567487Y-110902000D01*
X144551302Y-110900939D01*
X144520000Y-110896818D01*
X144480639Y-110902000D01*
X144363239Y-110917455D01*
X144363237Y-110917456D01*
X144217157Y-110977964D01*
X144091718Y-111074216D01*
X144072489Y-111099275D01*
X144061798Y-111111465D01*
X143806538Y-111366726D01*
X143745215Y-111400211D01*
X143675524Y-111395227D01*
X143652885Y-111384039D01*
X143652575Y-111383844D01*
X143652574Y-111383843D01*
X143559258Y-111325209D01*
X143499833Y-111287869D01*
X143329561Y-111228289D01*
X143242642Y-111218496D01*
X143178228Y-111191429D01*
X143168845Y-111182957D01*
X143097352Y-111111464D01*
X143086657Y-111099269D01*
X143067436Y-111074219D01*
X143067432Y-111074216D01*
X142941994Y-110977964D01*
X142795915Y-110917456D01*
X142795913Y-110917455D01*
X142678514Y-110902000D01*
X142639153Y-110896818D01*
X142607850Y-110900939D01*
X142591666Y-110902000D01*
X129021230Y-110902000D01*
X128954191Y-110882315D01*
X128908436Y-110829511D01*
X128898492Y-110760353D01*
X128927517Y-110696797D01*
X128933549Y-110690319D01*
X133094548Y-106529318D01*
X133155871Y-106495833D01*
X133182229Y-106492999D01*
X133987871Y-106492999D01*
X133987872Y-106492999D01*
X134047483Y-106486591D01*
X134182331Y-106436296D01*
X134297546Y-106350046D01*
X134383796Y-106234831D01*
X134434091Y-106099983D01*
X134440500Y-106040373D01*
X134440500Y-106027000D01*
X134460185Y-105959961D01*
X134512989Y-105914206D01*
X134564500Y-105903000D01*
X140410028Y-105903000D01*
X140450983Y-105909958D01*
X140530745Y-105937868D01*
X140530750Y-105937869D01*
X140709996Y-105958065D01*
X140710000Y-105958065D01*
X140710004Y-105958065D01*
X140889249Y-105937869D01*
X140889252Y-105937868D01*
X140889255Y-105937868D01*
X140969017Y-105909957D01*
X141009972Y-105903000D01*
X144971295Y-105903000D01*
X144989265Y-105904309D01*
X145013023Y-105907789D01*
X145062369Y-105903471D01*
X145073176Y-105903000D01*
X145078704Y-105903000D01*
X145078709Y-105903000D01*
X145109556Y-105899393D01*
X145113030Y-105899039D01*
X145187797Y-105892499D01*
X145187805Y-105892496D01*
X145194866Y-105891039D01*
X145194878Y-105891098D01*
X145202243Y-105889465D01*
X145202229Y-105889406D01*
X145209249Y-105887741D01*
X145209255Y-105887741D01*
X145279779Y-105862072D01*
X145283117Y-105860912D01*
X145354334Y-105837314D01*
X145354342Y-105837308D01*
X145360882Y-105834260D01*
X145360908Y-105834316D01*
X145367690Y-105831032D01*
X145367663Y-105830978D01*
X145374113Y-105827738D01*
X145374117Y-105827737D01*
X145436837Y-105786484D01*
X145439732Y-105784640D01*
X145503656Y-105745212D01*
X145503662Y-105745205D01*
X145509325Y-105740729D01*
X145509362Y-105740777D01*
X145515204Y-105736018D01*
X145515164Y-105735971D01*
X145520686Y-105731335D01*
X145520696Y-105731330D01*
X145572185Y-105676753D01*
X145574632Y-105674234D01*
X146599548Y-104649319D01*
X146660871Y-104615834D01*
X146687229Y-104613000D01*
X147849036Y-104613000D01*
X147916075Y-104632685D01*
X147936717Y-104649319D01*
X148238208Y-104950810D01*
X148249989Y-104964442D01*
X148264326Y-104983700D01*
X148302275Y-105015544D01*
X148310248Y-105022851D01*
X148314155Y-105026758D01*
X148314161Y-105026763D01*
X148338475Y-105045988D01*
X148341256Y-105048252D01*
X148368894Y-105071443D01*
X148398727Y-105096477D01*
X148404756Y-105100442D01*
X148404723Y-105100491D01*
X148411085Y-105104544D01*
X148411117Y-105104493D01*
X148417257Y-105108280D01*
X148417261Y-105108283D01*
X148455915Y-105126307D01*
X148485258Y-105139991D01*
X148488504Y-105141563D01*
X148555500Y-105175210D01*
X148562295Y-105177683D01*
X148562274Y-105177739D01*
X148569395Y-105180215D01*
X148569414Y-105180158D01*
X148576257Y-105182425D01*
X148576265Y-105182429D01*
X148649833Y-105197619D01*
X148653166Y-105198358D01*
X148726217Y-105215672D01*
X148726219Y-105215672D01*
X148726223Y-105215673D01*
X148733391Y-105216511D01*
X148733384Y-105216570D01*
X148740882Y-105217336D01*
X148740888Y-105217277D01*
X148748077Y-105217906D01*
X148748081Y-105217905D01*
X148748082Y-105217906D01*
X148823068Y-105215724D01*
X148826675Y-105215672D01*
X149250500Y-105215672D01*
X149317539Y-105235357D01*
X149363294Y-105288161D01*
X149374500Y-105339672D01*
X149374500Y-105594113D01*
X149380913Y-105664692D01*
X149380913Y-105664694D01*
X149380914Y-105664696D01*
X149431522Y-105827106D01*
X149452669Y-105862088D01*
X149519530Y-105972688D01*
X149639811Y-106092969D01*
X149639813Y-106092970D01*
X149639815Y-106092972D01*
X149785394Y-106180978D01*
X149947804Y-106231586D01*
X150018384Y-106238000D01*
X150018387Y-106238000D01*
X150681613Y-106238000D01*
X150681616Y-106238000D01*
X150752196Y-106231586D01*
X150914606Y-106180978D01*
X150966697Y-106149487D01*
X151034248Y-106131651D01*
X151071794Y-106138561D01*
X151098391Y-106147868D01*
X151098395Y-106147868D01*
X151098397Y-106147869D01*
X151277642Y-106168065D01*
X151277646Y-106168065D01*
X151277650Y-106168065D01*
X151456895Y-106147869D01*
X151456898Y-106147868D01*
X151456901Y-106147868D01*
X151627168Y-106088289D01*
X151779908Y-105992316D01*
X151907462Y-105864762D01*
X152003435Y-105712022D01*
X152063014Y-105541755D01*
X152083211Y-105362500D01*
X152083211Y-105358105D01*
X152102896Y-105291066D01*
X152155700Y-105245311D01*
X152219813Y-105234747D01*
X152251655Y-105238000D01*
X152848344Y-105237999D01*
X152848352Y-105237998D01*
X152848355Y-105237998D01*
X152902760Y-105232440D01*
X152947708Y-105227849D01*
X153108697Y-105174503D01*
X153253044Y-105085468D01*
X153372968Y-104965544D01*
X153462003Y-104821197D01*
X153515349Y-104660208D01*
X153525500Y-104560845D01*
X153525499Y-104014156D01*
X153515349Y-103914792D01*
X153462003Y-103753803D01*
X153461999Y-103753797D01*
X153461998Y-103753794D01*
X153372970Y-103609459D01*
X153372967Y-103609455D01*
X153253044Y-103489532D01*
X153253040Y-103489529D01*
X153108705Y-103400501D01*
X153108699Y-103400498D01*
X153108697Y-103400497D01*
X153108694Y-103400496D01*
X153006683Y-103366693D01*
X152949238Y-103326920D01*
X152922415Y-103262404D01*
X152922747Y-103232805D01*
X152925500Y-103211901D01*
X152925499Y-103075096D01*
X152945183Y-103008057D01*
X152961813Y-102987420D01*
X153174916Y-102774318D01*
X153236239Y-102740833D01*
X153262597Y-102737999D01*
X153399403Y-102737999D01*
X153509463Y-102723511D01*
X153509467Y-102723509D01*
X153509472Y-102723509D01*
X153646429Y-102666779D01*
X153764036Y-102576536D01*
X153854279Y-102458929D01*
X153854279Y-102458926D01*
X153854282Y-102458924D01*
X153858342Y-102451892D01*
X153861301Y-102453600D01*
X153895178Y-102411501D01*
X153961457Y-102389389D01*
X154004970Y-102395600D01*
X154102292Y-102427849D01*
X154201655Y-102438000D01*
X154748344Y-102437999D01*
X154748352Y-102437998D01*
X154748355Y-102437998D01*
X154802760Y-102432440D01*
X154847708Y-102427849D01*
X155008697Y-102374503D01*
X155153044Y-102285468D01*
X155162319Y-102276193D01*
X155223642Y-102242708D01*
X155293334Y-102247692D01*
X155337681Y-102276193D01*
X155346955Y-102285467D01*
X155346959Y-102285470D01*
X155491294Y-102374498D01*
X155491297Y-102374499D01*
X155491303Y-102374503D01*
X155652292Y-102427849D01*
X155751655Y-102438000D01*
X156298344Y-102437999D01*
X156298352Y-102437998D01*
X156298355Y-102437998D01*
X156352760Y-102432440D01*
X156397708Y-102427849D01*
X156558697Y-102374503D01*
X156703044Y-102285468D01*
X156822968Y-102165544D01*
X156912003Y-102021197D01*
X156965349Y-101860208D01*
X156975500Y-101760845D01*
X156975499Y-101486998D01*
X156995183Y-101419961D01*
X157047987Y-101374206D01*
X157099499Y-101363000D01*
X158875500Y-101363000D01*
X158942539Y-101382685D01*
X158988294Y-101435489D01*
X158999500Y-101487000D01*
X158999500Y-102510370D01*
X158999501Y-102510376D01*
X159005908Y-102569983D01*
X159056202Y-102704828D01*
X159056206Y-102704835D01*
X159142452Y-102820044D01*
X159142455Y-102820047D01*
X159257664Y-102906293D01*
X159257671Y-102906297D01*
X159392517Y-102956591D01*
X159392516Y-102956591D01*
X159399444Y-102957335D01*
X159452127Y-102963000D01*
X160747872Y-102962999D01*
X160807483Y-102956591D01*
X160942331Y-102906296D01*
X161057546Y-102820046D01*
X161143796Y-102704831D01*
X161194091Y-102569983D01*
X161200500Y-102510373D01*
X161200499Y-101014628D01*
X161194091Y-100955017D01*
X161186215Y-100933901D01*
X161143797Y-100820171D01*
X161143793Y-100820164D01*
X161057547Y-100704955D01*
X161057544Y-100704952D01*
X160942335Y-100618706D01*
X160942328Y-100618702D01*
X160807482Y-100568408D01*
X160807483Y-100568408D01*
X160747883Y-100562001D01*
X160747881Y-100562000D01*
X160747873Y-100562000D01*
X160747865Y-100562000D01*
X159900097Y-100562000D01*
X159833058Y-100542315D01*
X159812416Y-100525681D01*
X159658199Y-100371464D01*
X159647504Y-100359269D01*
X159628281Y-100334217D01*
X159549012Y-100273391D01*
X159507809Y-100216963D01*
X159500499Y-100175016D01*
X159500499Y-98814629D01*
X159500498Y-98814623D01*
X159500497Y-98814616D01*
X159494718Y-98760851D01*
X159494091Y-98755016D01*
X159443797Y-98620171D01*
X159443793Y-98620164D01*
X159357547Y-98504955D01*
X159357544Y-98504952D01*
X159242335Y-98418706D01*
X159242328Y-98418702D01*
X159107482Y-98368408D01*
X159107483Y-98368408D01*
X159047883Y-98362001D01*
X159047881Y-98362000D01*
X159047873Y-98362000D01*
X159047864Y-98362000D01*
X157752129Y-98362000D01*
X157752123Y-98362001D01*
X157692516Y-98368408D01*
X157557671Y-98418702D01*
X157557664Y-98418706D01*
X157442455Y-98504952D01*
X157442452Y-98504955D01*
X157356206Y-98620164D01*
X157356202Y-98620171D01*
X157305908Y-98755017D01*
X157301879Y-98792500D01*
X157299501Y-98814623D01*
X157299500Y-98814635D01*
X157299500Y-99238000D01*
X157279815Y-99305039D01*
X157227011Y-99350794D01*
X157175500Y-99362000D01*
X156955425Y-99362000D01*
X156888386Y-99342315D01*
X156849887Y-99303098D01*
X156822968Y-99259456D01*
X156703044Y-99139532D01*
X156703040Y-99139529D01*
X156558705Y-99050501D01*
X156558699Y-99050498D01*
X156558697Y-99050497D01*
X156470275Y-99021197D01*
X156397709Y-98997151D01*
X156298346Y-98987000D01*
X155751662Y-98987000D01*
X155751644Y-98987001D01*
X155652292Y-98997150D01*
X155652285Y-98997152D01*
X155569519Y-99024578D01*
X155499691Y-99026979D01*
X155439649Y-98991247D01*
X155408457Y-98928727D01*
X155412813Y-98867860D01*
X155415349Y-98860208D01*
X155425500Y-98760845D01*
X155425499Y-98724729D01*
X155445182Y-98657691D01*
X155461809Y-98637056D01*
X155779549Y-98319316D01*
X155840871Y-98285834D01*
X155867229Y-98283000D01*
X155924555Y-98283000D01*
X155931764Y-98283209D01*
X155993935Y-98286831D01*
X156055304Y-98276008D01*
X156062384Y-98274971D01*
X156124255Y-98267741D01*
X156134782Y-98263908D01*
X156155672Y-98258311D01*
X156166711Y-98256365D01*
X156182961Y-98249355D01*
X156223898Y-98231697D01*
X156230580Y-98229041D01*
X156289117Y-98207737D01*
X156298488Y-98201572D01*
X156317506Y-98191318D01*
X156327804Y-98186877D01*
X156377786Y-98149665D01*
X156383648Y-98145561D01*
X156435696Y-98111330D01*
X156443391Y-98103172D01*
X156459534Y-98088806D01*
X156468530Y-98082110D01*
X156508584Y-98034374D01*
X156513333Y-98029038D01*
X156556092Y-97983718D01*
X156561700Y-97974002D01*
X156574093Y-97956303D01*
X156581302Y-97947714D01*
X156609262Y-97892038D01*
X156612653Y-97885748D01*
X156643812Y-97831781D01*
X156647029Y-97821033D01*
X156655006Y-97800955D01*
X156660040Y-97790933D01*
X156674405Y-97730320D01*
X156676265Y-97723377D01*
X156694130Y-97663710D01*
X156694781Y-97652518D01*
X156697917Y-97631117D01*
X156700499Y-97620225D01*
X156700500Y-97620221D01*
X156700500Y-97557944D01*
X156700710Y-97550734D01*
X156702354Y-97522500D01*
X156704331Y-97488565D01*
X156702384Y-97477521D01*
X156700500Y-97455990D01*
X156700500Y-95056205D01*
X156701809Y-95038235D01*
X156704732Y-95018278D01*
X156705289Y-95014477D01*
X156704553Y-95006067D01*
X156700972Y-94965130D01*
X156700500Y-94954322D01*
X156700500Y-94948796D01*
X156700500Y-94948791D01*
X156696901Y-94918009D01*
X156696536Y-94914429D01*
X156689999Y-94839701D01*
X156688539Y-94832629D01*
X156688597Y-94832616D01*
X156686965Y-94825257D01*
X156686906Y-94825272D01*
X156685241Y-94818251D01*
X156685241Y-94818245D01*
X156659569Y-94747712D01*
X156658421Y-94744409D01*
X156634814Y-94673166D01*
X156634810Y-94673159D01*
X156631760Y-94666618D01*
X156631815Y-94666591D01*
X156628533Y-94659813D01*
X156628480Y-94659840D01*
X156625235Y-94653380D01*
X156584025Y-94590723D01*
X156582086Y-94587681D01*
X156542710Y-94523842D01*
X156538234Y-94518182D01*
X156538281Y-94518144D01*
X156533519Y-94512299D01*
X156533474Y-94512338D01*
X156528831Y-94506805D01*
X156474272Y-94455331D01*
X156471685Y-94452818D01*
X153520729Y-91501861D01*
X153508949Y-91488230D01*
X153494610Y-91468970D01*
X153456651Y-91437119D01*
X153448686Y-91429818D01*
X153444780Y-91425911D01*
X153420443Y-91406668D01*
X153417647Y-91404390D01*
X153360214Y-91356198D01*
X153354180Y-91352229D01*
X153354212Y-91352180D01*
X153347853Y-91348128D01*
X153347822Y-91348179D01*
X153341680Y-91344391D01*
X153341678Y-91344390D01*
X153341677Y-91344389D01*
X153273688Y-91312684D01*
X153270447Y-91311115D01*
X153239530Y-91295588D01*
X153203433Y-91277460D01*
X153203431Y-91277459D01*
X153203430Y-91277459D01*
X153196645Y-91274989D01*
X153196665Y-91274933D01*
X153189549Y-91272459D01*
X153189531Y-91272515D01*
X153182674Y-91270243D01*
X153109210Y-91255073D01*
X153105693Y-91254293D01*
X153032718Y-91236999D01*
X153025547Y-91236161D01*
X153025553Y-91236101D01*
X153018055Y-91235335D01*
X153018050Y-91235395D01*
X153010860Y-91234765D01*
X152935870Y-91236948D01*
X152932263Y-91237000D01*
X145577877Y-91237000D01*
X145559907Y-91235691D01*
X145536144Y-91232210D01*
X145489814Y-91236264D01*
X145486804Y-91236528D01*
X145475998Y-91237000D01*
X145470456Y-91237000D01*
X145439656Y-91240600D01*
X145436071Y-91240966D01*
X145361372Y-91247501D01*
X145354305Y-91248961D01*
X145354293Y-91248904D01*
X145346926Y-91250538D01*
X145346940Y-91250594D01*
X145339917Y-91252258D01*
X145269442Y-91277907D01*
X145266042Y-91279089D01*
X145194838Y-91302685D01*
X145188291Y-91305738D01*
X145188266Y-91305686D01*
X145181482Y-91308970D01*
X145181508Y-91309021D01*
X145175056Y-91312261D01*
X145112408Y-91353465D01*
X145109368Y-91355402D01*
X145045519Y-91394785D01*
X145039854Y-91399265D01*
X145039818Y-91399219D01*
X145033970Y-91403984D01*
X145034007Y-91404028D01*
X145028482Y-91408664D01*
X145028476Y-91408669D01*
X145028476Y-91408670D01*
X145004905Y-91433653D01*
X144977020Y-91463209D01*
X144974508Y-91465794D01*
X144644766Y-91795536D01*
X144583443Y-91829021D01*
X144513751Y-91824037D01*
X144469404Y-91795536D01*
X140214319Y-87540451D01*
X140180834Y-87479128D01*
X140178000Y-87452770D01*
X140178000Y-87012944D01*
X140178210Y-87005734D01*
X140181831Y-86943565D01*
X140171015Y-86882231D01*
X140169969Y-86875092D01*
X140162741Y-86813245D01*
X140158908Y-86802715D01*
X140153311Y-86781830D01*
X140151365Y-86770789D01*
X140126693Y-86713594D01*
X140124045Y-86706929D01*
X140102737Y-86648383D01*
X140096572Y-86639010D01*
X140086318Y-86619991D01*
X140081879Y-86609700D01*
X140081873Y-86609690D01*
X140044692Y-86559748D01*
X140040555Y-86553840D01*
X140023368Y-86527710D01*
X140006330Y-86501804D01*
X139998172Y-86494107D01*
X139983804Y-86477962D01*
X139977109Y-86468969D01*
X139929406Y-86428941D01*
X139924028Y-86424156D01*
X139878718Y-86381408D01*
X139869003Y-86375799D01*
X139851304Y-86363406D01*
X139842714Y-86356198D01*
X139842712Y-86356197D01*
X139842711Y-86356196D01*
X139787052Y-86328243D01*
X139780713Y-86324825D01*
X139758653Y-86312089D01*
X139726782Y-86293688D01*
X139722176Y-86292309D01*
X139716034Y-86290470D01*
X139695960Y-86282495D01*
X139685933Y-86277460D01*
X139685932Y-86277459D01*
X139685931Y-86277459D01*
X139625341Y-86263098D01*
X139618378Y-86261232D01*
X139558711Y-86243370D01*
X139547510Y-86242717D01*
X139526138Y-86239586D01*
X139515224Y-86237000D01*
X139515221Y-86237000D01*
X139452945Y-86237000D01*
X139445735Y-86236790D01*
X139383565Y-86233169D01*
X139383564Y-86233169D01*
X139372523Y-86235116D01*
X139350991Y-86237000D01*
X134451874Y-86237000D01*
X134384835Y-86217315D01*
X134364193Y-86200681D01*
X134353044Y-86189532D01*
X134353040Y-86189529D01*
X134208705Y-86100501D01*
X134208699Y-86100498D01*
X134208697Y-86100497D01*
X134163828Y-86085629D01*
X134047709Y-86047151D01*
X133948346Y-86037000D01*
X133351662Y-86037000D01*
X133351644Y-86037001D01*
X133252292Y-86047150D01*
X133252289Y-86047151D01*
X133091305Y-86100496D01*
X133091294Y-86100501D01*
X132946959Y-86189529D01*
X132946955Y-86189532D01*
X132923307Y-86213181D01*
X132861984Y-86246666D01*
X132835626Y-86249500D01*
X131635718Y-86249500D01*
X131568679Y-86229815D01*
X131528986Y-86188620D01*
X131468085Y-86085641D01*
X131468076Y-86085629D01*
X131351870Y-85969423D01*
X131351867Y-85969421D01*
X131351865Y-85969419D01*
X131351549Y-85969232D01*
X131351353Y-85969022D01*
X131345702Y-85964639D01*
X131346409Y-85963727D01*
X131303866Y-85918164D01*
X131291362Y-85849423D01*
X131318006Y-85784833D01*
X131345921Y-85760644D01*
X131345702Y-85760361D01*
X131350911Y-85756320D01*
X131351550Y-85755767D01*
X131351865Y-85755581D01*
X131468081Y-85639365D01*
X131551744Y-85497898D01*
X131597598Y-85340069D01*
X131600500Y-85303194D01*
X131600500Y-84146806D01*
X131597598Y-84109931D01*
X131597597Y-84109926D01*
X131551746Y-83952106D01*
X131549652Y-83947269D01*
X131541913Y-83916683D01*
X131541460Y-83916777D01*
X131538539Y-83902630D01*
X131538597Y-83902617D01*
X131536965Y-83895258D01*
X131536906Y-83895273D01*
X131535241Y-83888252D01*
X131535241Y-83888246D01*
X131509569Y-83817713D01*
X131508421Y-83814410D01*
X131484814Y-83743167D01*
X131484810Y-83743160D01*
X131481760Y-83736619D01*
X131481815Y-83736592D01*
X131478533Y-83729814D01*
X131478480Y-83729841D01*
X131475235Y-83723381D01*
X131434025Y-83660724D01*
X131432086Y-83657682D01*
X131392710Y-83593843D01*
X131388234Y-83588183D01*
X131388281Y-83588145D01*
X131383519Y-83582300D01*
X131383474Y-83582339D01*
X131378831Y-83576806D01*
X131324274Y-83525334D01*
X131321687Y-83522821D01*
X130925728Y-83126861D01*
X130913948Y-83113230D01*
X130899609Y-83093970D01*
X130861650Y-83062119D01*
X130853685Y-83054818D01*
X130849779Y-83050911D01*
X130825442Y-83031668D01*
X130822646Y-83029390D01*
X130765213Y-82981198D01*
X130759179Y-82977229D01*
X130759211Y-82977180D01*
X130752852Y-82973128D01*
X130752821Y-82973179D01*
X130746679Y-82969391D01*
X130746677Y-82969390D01*
X130746676Y-82969389D01*
X130678687Y-82937684D01*
X130675446Y-82936115D01*
X130611705Y-82904104D01*
X130608432Y-82902460D01*
X130608430Y-82902459D01*
X130608429Y-82902459D01*
X130601644Y-82899989D01*
X130601664Y-82899933D01*
X130594548Y-82897459D01*
X130594530Y-82897515D01*
X130587673Y-82895243D01*
X130514209Y-82880073D01*
X130510692Y-82879293D01*
X130437717Y-82861999D01*
X130430546Y-82861161D01*
X130430552Y-82861101D01*
X130423054Y-82860335D01*
X130423049Y-82860395D01*
X130415859Y-82859765D01*
X130340869Y-82861948D01*
X130337262Y-82862000D01*
X129413709Y-82862000D01*
X129395738Y-82860691D01*
X129371980Y-82857211D01*
X129371974Y-82857210D01*
X129326827Y-82861161D01*
X129322631Y-82861528D01*
X129311825Y-82862000D01*
X129306285Y-82862000D01*
X129275502Y-82865598D01*
X129271917Y-82865964D01*
X129197200Y-82872501D01*
X129190133Y-82873960D01*
X129190121Y-82873904D01*
X129182764Y-82875535D01*
X129182778Y-82875592D01*
X129175741Y-82877260D01*
X129105232Y-82902921D01*
X129101855Y-82904095D01*
X129062849Y-82917021D01*
X129030669Y-82927685D01*
X129024127Y-82930736D01*
X129024102Y-82930683D01*
X129017309Y-82933971D01*
X129017335Y-82934023D01*
X129010881Y-82937264D01*
X128948222Y-82978475D01*
X128945182Y-82980412D01*
X128881349Y-83019785D01*
X128875684Y-83024265D01*
X128875648Y-83024219D01*
X128869799Y-83028984D01*
X128869836Y-83029028D01*
X128864305Y-83033668D01*
X128812816Y-83088242D01*
X128810305Y-83090827D01*
X128653381Y-83247751D01*
X128592058Y-83281236D01*
X128522366Y-83276252D01*
X128488842Y-83257378D01*
X128487995Y-83256709D01*
X128485147Y-83254390D01*
X128427714Y-83206198D01*
X128421680Y-83202229D01*
X128421712Y-83202180D01*
X128415353Y-83198128D01*
X128415322Y-83198179D01*
X128409180Y-83194391D01*
X128409178Y-83194390D01*
X128409177Y-83194389D01*
X128341188Y-83162684D01*
X128337947Y-83161115D01*
X128298204Y-83141156D01*
X128270933Y-83127460D01*
X128270931Y-83127459D01*
X128270930Y-83127459D01*
X128264145Y-83124989D01*
X128264165Y-83124933D01*
X128257049Y-83122459D01*
X128257031Y-83122515D01*
X128250174Y-83120243D01*
X128176710Y-83105073D01*
X128173193Y-83104293D01*
X128100218Y-83086999D01*
X128093047Y-83086161D01*
X128093053Y-83086101D01*
X128085555Y-83085335D01*
X128085550Y-83085395D01*
X128078360Y-83084765D01*
X128003370Y-83086948D01*
X127999763Y-83087000D01*
X125801874Y-83087000D01*
X125734835Y-83067315D01*
X125714193Y-83050681D01*
X125653044Y-82989532D01*
X125653040Y-82989529D01*
X125508705Y-82900501D01*
X125508699Y-82900498D01*
X125508697Y-82900497D01*
X125447061Y-82880073D01*
X125347709Y-82847151D01*
X125248346Y-82837000D01*
X124651662Y-82837000D01*
X124651644Y-82837001D01*
X124552292Y-82847150D01*
X124552289Y-82847151D01*
X124391305Y-82900496D01*
X124391294Y-82900501D01*
X124246959Y-82989529D01*
X124246955Y-82989532D01*
X124185807Y-83050681D01*
X124124484Y-83084166D01*
X124098126Y-83087000D01*
X123312230Y-83087000D01*
X123245191Y-83067315D01*
X123224549Y-83050681D01*
X122411176Y-82237308D01*
X122406225Y-82232060D01*
X122364830Y-82185543D01*
X122364825Y-82185539D01*
X122355632Y-82179102D01*
X122339076Y-82165209D01*
X122336818Y-82162951D01*
X122303333Y-82101628D01*
X122300499Y-82075270D01*
X122300499Y-81696148D01*
X122320184Y-81629109D01*
X122372988Y-81583354D01*
X122442146Y-81573410D01*
X122505702Y-81602435D01*
X122532917Y-81635969D01*
X122544591Y-81657002D01*
X122544592Y-81657003D01*
X122544592Y-81657004D01*
X122677132Y-81811393D01*
X122677134Y-81811395D01*
X122838037Y-81935945D01*
X122838038Y-81935945D01*
X122838042Y-81935948D01*
X123020729Y-82025560D01*
X123217715Y-82076563D01*
X123420936Y-82086869D01*
X123622071Y-82056056D01*
X123812887Y-81985386D01*
X123985571Y-81877752D01*
X124133053Y-81737559D01*
X124249295Y-81570549D01*
X124329540Y-81383558D01*
X124370500Y-81184241D01*
X124370500Y-79931758D01*
X124362417Y-79852265D01*
X124355074Y-79780060D01*
X124294162Y-79585920D01*
X124294160Y-79585916D01*
X124294159Y-79585912D01*
X124195409Y-79407998D01*
X124195408Y-79407997D01*
X124195407Y-79407995D01*
X124062872Y-79253611D01*
X124062868Y-79253608D01*
X124062866Y-79253605D01*
X124018596Y-79219337D01*
X123977634Y-79162737D01*
X123970500Y-79121283D01*
X123970500Y-77515290D01*
X123990185Y-77448251D01*
X124009068Y-77425416D01*
X124133053Y-77307559D01*
X124249295Y-77140549D01*
X124329540Y-76953558D01*
X124370500Y-76754241D01*
X124370500Y-76001758D01*
X124355074Y-75850062D01*
X124355074Y-75850060D01*
X124294162Y-75655920D01*
X124294160Y-75655916D01*
X124294159Y-75655912D01*
X124195409Y-75477998D01*
X124195408Y-75477997D01*
X124195407Y-75477995D01*
X124075027Y-75337770D01*
X124046295Y-75274082D01*
X124056557Y-75204970D01*
X124102555Y-75152377D01*
X124169113Y-75133000D01*
X191825500Y-75133000D01*
X191892539Y-75152685D01*
X191938294Y-75205489D01*
X191949500Y-75257000D01*
X191949500Y-124038000D01*
X191929815Y-124105039D01*
X191877011Y-124150794D01*
X191825500Y-124162000D01*
X113074500Y-124162000D01*
X113007461Y-124142315D01*
X112961706Y-124089511D01*
X112950500Y-124038000D01*
X112950500Y-118360370D01*
X122499500Y-118360370D01*
X122499501Y-118360376D01*
X122505908Y-118419983D01*
X122556202Y-118554828D01*
X122556206Y-118554835D01*
X122642452Y-118670044D01*
X122642455Y-118670047D01*
X122757664Y-118756293D01*
X122757671Y-118756297D01*
X122892517Y-118806591D01*
X122892516Y-118806591D01*
X122899444Y-118807335D01*
X122952127Y-118813000D01*
X124847872Y-118812999D01*
X124907483Y-118806591D01*
X125042331Y-118756296D01*
X125157546Y-118670046D01*
X125243796Y-118554831D01*
X125294091Y-118419983D01*
X125300500Y-118360373D01*
X125300499Y-116064628D01*
X125294091Y-116005017D01*
X125282469Y-115973858D01*
X125243797Y-115870171D01*
X125243793Y-115870164D01*
X125157547Y-115754955D01*
X125157544Y-115754952D01*
X125042335Y-115668706D01*
X125042328Y-115668702D01*
X124907482Y-115618408D01*
X124907483Y-115618408D01*
X124847883Y-115612001D01*
X124847881Y-115612000D01*
X124847873Y-115612000D01*
X124847864Y-115612000D01*
X122952129Y-115612000D01*
X122952123Y-115612001D01*
X122892516Y-115618408D01*
X122757671Y-115668702D01*
X122757664Y-115668706D01*
X122642455Y-115754952D01*
X122642452Y-115754955D01*
X122556206Y-115870164D01*
X122556202Y-115870171D01*
X122505908Y-116005017D01*
X122499501Y-116064616D01*
X122499501Y-116064623D01*
X122499500Y-116064635D01*
X122499500Y-118360370D01*
X112950500Y-118360370D01*
X112950500Y-75257000D01*
X112970185Y-75189961D01*
X113022989Y-75144206D01*
X113074500Y-75133000D01*
X113934711Y-75133000D01*
X114001750Y-75152685D01*
G37*
%TD.AperFunction*%
%TA.AperFunction,Conductor*%
G36*
X120885967Y-84332685D02*
G01*
X120931722Y-84385489D01*
X120941666Y-84454647D01*
X120935968Y-84477958D01*
X120914138Y-84540338D01*
X120884781Y-84587059D01*
X120829528Y-84642314D01*
X120829526Y-84642316D01*
X120741522Y-84787893D01*
X120690913Y-84950307D01*
X120684500Y-85020886D01*
X120684500Y-85534113D01*
X120690913Y-85604692D01*
X120741522Y-85767106D01*
X120829530Y-85912688D01*
X120949811Y-86032969D01*
X120949813Y-86032970D01*
X120949815Y-86032972D01*
X121095394Y-86120978D01*
X121257804Y-86171586D01*
X121328384Y-86178000D01*
X121328387Y-86178000D01*
X121991613Y-86178000D01*
X121991616Y-86178000D01*
X122062196Y-86171586D01*
X122224606Y-86120978D01*
X122370185Y-86032972D01*
X122490472Y-85912685D01*
X122578478Y-85767106D01*
X122629086Y-85604696D01*
X122635500Y-85534116D01*
X122635500Y-85020884D01*
X122629086Y-84950304D01*
X122578478Y-84787894D01*
X122542216Y-84727910D01*
X122524381Y-84660357D01*
X122545899Y-84593884D01*
X122599939Y-84549596D01*
X122669344Y-84541555D01*
X122690751Y-84547242D01*
X122691560Y-84547536D01*
X122691567Y-84547540D01*
X122691574Y-84547541D01*
X122698363Y-84550013D01*
X122698342Y-84550069D01*
X122705457Y-84552543D01*
X122705476Y-84552486D01*
X122712319Y-84554753D01*
X122712327Y-84554757D01*
X122785895Y-84569947D01*
X122789228Y-84570686D01*
X122862279Y-84588000D01*
X122862281Y-84588000D01*
X122862285Y-84588001D01*
X122869453Y-84588839D01*
X122869446Y-84588898D01*
X122876944Y-84589664D01*
X122876950Y-84589605D01*
X122884139Y-84590234D01*
X122884143Y-84590233D01*
X122884144Y-84590234D01*
X122959130Y-84588052D01*
X122962737Y-84588000D01*
X124215895Y-84588000D01*
X124280991Y-84606461D01*
X124391303Y-84674503D01*
X124552292Y-84727849D01*
X124651655Y-84738000D01*
X125248344Y-84737999D01*
X125248352Y-84737998D01*
X125248355Y-84737998D01*
X125302760Y-84732440D01*
X125347708Y-84727849D01*
X125508697Y-84674503D01*
X125619008Y-84606461D01*
X125684105Y-84588000D01*
X127650270Y-84588000D01*
X127717309Y-84607685D01*
X127737951Y-84624319D01*
X128063181Y-84949548D01*
X128096666Y-85010871D01*
X128099500Y-85037229D01*
X128099500Y-85303201D01*
X128102401Y-85340067D01*
X128102402Y-85340073D01*
X128148254Y-85497893D01*
X128148255Y-85497896D01*
X128231917Y-85639362D01*
X128231923Y-85639370D01*
X128348129Y-85755576D01*
X128348140Y-85755585D01*
X128348455Y-85755771D01*
X128348650Y-85755980D01*
X128354298Y-85760361D01*
X128353591Y-85761272D01*
X128396136Y-85806843D01*
X128408637Y-85875585D01*
X128381988Y-85940173D01*
X128354078Y-85964356D01*
X128354298Y-85964639D01*
X128349092Y-85968676D01*
X128348455Y-85969229D01*
X128348140Y-85969414D01*
X128348129Y-85969423D01*
X128231923Y-86085629D01*
X128231917Y-86085637D01*
X128148255Y-86227103D01*
X128148254Y-86227106D01*
X128102402Y-86384926D01*
X128102401Y-86384932D01*
X128099500Y-86421798D01*
X128099500Y-87578201D01*
X128102401Y-87615067D01*
X128102402Y-87615073D01*
X128148254Y-87772893D01*
X128148255Y-87772896D01*
X128148256Y-87772898D01*
X128155689Y-87785467D01*
X128231917Y-87914362D01*
X128231923Y-87914370D01*
X128348129Y-88030576D01*
X128348133Y-88030579D01*
X128348135Y-88030581D01*
X128489602Y-88114244D01*
X128531224Y-88126336D01*
X128647426Y-88160097D01*
X128647429Y-88160097D01*
X128647431Y-88160098D01*
X128684306Y-88163000D01*
X128684314Y-88163000D01*
X129115686Y-88163000D01*
X129115694Y-88163000D01*
X129152569Y-88160098D01*
X129152571Y-88160097D01*
X129152573Y-88160097D01*
X129218655Y-88140898D01*
X129310398Y-88114244D01*
X129451865Y-88030581D01*
X129568081Y-87914365D01*
X129651744Y-87772898D01*
X129697598Y-87615069D01*
X129700500Y-87578194D01*
X129700500Y-86421806D01*
X129697598Y-86384931D01*
X129696574Y-86381408D01*
X129656281Y-86242717D01*
X129651744Y-86227102D01*
X129568081Y-86085635D01*
X129568079Y-86085633D01*
X129568076Y-86085629D01*
X129451870Y-85969423D01*
X129451867Y-85969421D01*
X129451865Y-85969419D01*
X129451549Y-85969232D01*
X129451353Y-85969022D01*
X129445702Y-85964639D01*
X129446409Y-85963727D01*
X129403866Y-85918164D01*
X129391362Y-85849423D01*
X129418006Y-85784833D01*
X129445921Y-85760644D01*
X129445702Y-85760361D01*
X129450911Y-85756320D01*
X129451550Y-85755767D01*
X129451865Y-85755581D01*
X129568081Y-85639365D01*
X129651744Y-85497898D01*
X129697598Y-85340069D01*
X129700500Y-85303194D01*
X129700500Y-84487000D01*
X129720185Y-84419961D01*
X129772989Y-84374206D01*
X129824500Y-84363000D01*
X129875500Y-84363000D01*
X129942539Y-84382685D01*
X129988294Y-84435489D01*
X129999500Y-84487000D01*
X129999500Y-85303201D01*
X130002401Y-85340067D01*
X130002402Y-85340073D01*
X130048254Y-85497893D01*
X130048255Y-85497896D01*
X130131917Y-85639362D01*
X130131923Y-85639370D01*
X130248129Y-85755576D01*
X130248140Y-85755585D01*
X130248455Y-85755771D01*
X130248650Y-85755980D01*
X130254298Y-85760361D01*
X130253591Y-85761272D01*
X130296136Y-85806843D01*
X130308637Y-85875585D01*
X130281988Y-85940173D01*
X130254078Y-85964356D01*
X130254298Y-85964639D01*
X130249092Y-85968676D01*
X130248455Y-85969229D01*
X130248140Y-85969414D01*
X130248129Y-85969423D01*
X130131923Y-86085629D01*
X130131917Y-86085637D01*
X130048255Y-86227103D01*
X130048254Y-86227106D01*
X130002402Y-86384926D01*
X130002401Y-86384932D01*
X129999500Y-86421798D01*
X129999500Y-87578201D01*
X130002401Y-87615067D01*
X130002402Y-87615073D01*
X130048254Y-87772893D01*
X130048255Y-87772896D01*
X130048256Y-87772898D01*
X130055689Y-87785467D01*
X130131917Y-87914362D01*
X130131923Y-87914370D01*
X130248129Y-88030576D01*
X130248133Y-88030579D01*
X130248135Y-88030581D01*
X130389602Y-88114244D01*
X130431224Y-88126336D01*
X130547426Y-88160097D01*
X130547429Y-88160097D01*
X130547431Y-88160098D01*
X130584306Y-88163000D01*
X130584314Y-88163000D01*
X131015686Y-88163000D01*
X131015694Y-88163000D01*
X131052569Y-88160098D01*
X131052571Y-88160097D01*
X131052573Y-88160097D01*
X131118655Y-88140898D01*
X131210398Y-88114244D01*
X131351865Y-88030581D01*
X131468081Y-87914365D01*
X131528986Y-87811380D01*
X131580054Y-87763696D01*
X131635718Y-87750500D01*
X132860626Y-87750500D01*
X132927665Y-87770185D01*
X132941207Y-87781098D01*
X132941293Y-87780990D01*
X132946959Y-87785470D01*
X133091294Y-87874498D01*
X133091297Y-87874499D01*
X133091303Y-87874503D01*
X133252292Y-87927849D01*
X133351655Y-87938000D01*
X133948344Y-87937999D01*
X133948352Y-87937998D01*
X133948355Y-87937998D01*
X134002760Y-87932440D01*
X134047708Y-87927849D01*
X134208697Y-87874503D01*
X134353044Y-87785468D01*
X134364193Y-87774319D01*
X134425516Y-87740834D01*
X134451874Y-87738000D01*
X138553000Y-87738000D01*
X138620039Y-87757685D01*
X138665794Y-87810489D01*
X138675518Y-87855190D01*
X138676526Y-87855131D01*
X138676581Y-87855125D01*
X138676581Y-87855128D01*
X138676791Y-87855116D01*
X138677000Y-87858711D01*
X138680598Y-87889495D01*
X138680964Y-87893083D01*
X138687500Y-87967791D01*
X138688961Y-87974867D01*
X138688903Y-87974878D01*
X138690534Y-87982237D01*
X138690592Y-87982224D01*
X138692257Y-87989249D01*
X138717900Y-88059705D01*
X138719082Y-88063107D01*
X138742682Y-88134326D01*
X138745736Y-88140874D01*
X138745682Y-88140898D01*
X138748970Y-88147688D01*
X138749021Y-88147663D01*
X138752261Y-88154114D01*
X138793479Y-88216784D01*
X138795389Y-88219782D01*
X138826472Y-88270174D01*
X138834789Y-88283658D01*
X138839266Y-88289319D01*
X138839219Y-88289356D01*
X138843982Y-88295202D01*
X138844028Y-88295164D01*
X138848673Y-88300699D01*
X138903208Y-88352150D01*
X138905796Y-88354664D01*
X144527947Y-93976814D01*
X144527968Y-93976837D01*
X144531142Y-93980011D01*
X144533419Y-93982806D01*
X144535525Y-93985112D01*
X144535535Y-93985124D01*
X144535399Y-93985236D01*
X144541482Y-93992702D01*
X144541528Y-93992664D01*
X144546173Y-93998199D01*
X144600707Y-94049649D01*
X144603295Y-94052163D01*
X144763450Y-94212318D01*
X144796935Y-94273641D01*
X144791951Y-94343333D01*
X144763450Y-94387680D01*
X143764358Y-95386772D01*
X143750729Y-95398551D01*
X143731469Y-95412890D01*
X143699632Y-95450831D01*
X143692346Y-95458784D01*
X143688407Y-95462724D01*
X143669176Y-95487045D01*
X143666902Y-95489837D01*
X143618694Y-95547290D01*
X143614729Y-95553319D01*
X143614682Y-95553288D01*
X143610630Y-95559647D01*
X143610679Y-95559677D01*
X143606889Y-95565821D01*
X143575192Y-95633794D01*
X143573623Y-95637036D01*
X143539957Y-95704072D01*
X143537488Y-95710857D01*
X143537432Y-95710836D01*
X143534960Y-95717950D01*
X143535015Y-95717969D01*
X143532743Y-95724825D01*
X143517573Y-95798288D01*
X143516793Y-95801804D01*
X143499499Y-95874779D01*
X143498661Y-95881954D01*
X143498601Y-95881947D01*
X143497835Y-95889445D01*
X143497895Y-95889451D01*
X143497265Y-95896640D01*
X143499448Y-95971628D01*
X143499500Y-95975235D01*
X143499500Y-98614766D01*
X143498191Y-98632735D01*
X143494710Y-98656497D01*
X143499028Y-98705840D01*
X143499500Y-98716648D01*
X143499500Y-98722183D01*
X143503098Y-98752967D01*
X143503464Y-98756555D01*
X143510000Y-98831263D01*
X143511461Y-98838339D01*
X143511403Y-98838350D01*
X143513034Y-98845709D01*
X143513092Y-98845696D01*
X143514757Y-98852721D01*
X143540400Y-98923177D01*
X143541582Y-98926579D01*
X143565182Y-98997798D01*
X143568236Y-99004346D01*
X143568182Y-99004370D01*
X143571470Y-99011160D01*
X143571521Y-99011135D01*
X143574761Y-99017586D01*
X143615979Y-99080256D01*
X143617889Y-99083254D01*
X143648972Y-99133646D01*
X143657289Y-99147130D01*
X143661766Y-99152791D01*
X143661719Y-99152828D01*
X143666482Y-99158674D01*
X143666528Y-99158636D01*
X143671173Y-99164171D01*
X143725707Y-99215621D01*
X143728295Y-99218135D01*
X143835479Y-99325319D01*
X143868964Y-99386642D01*
X143863980Y-99456334D01*
X143822108Y-99512267D01*
X143756644Y-99536684D01*
X143747798Y-99537000D01*
X143543297Y-99537000D01*
X143476258Y-99517315D01*
X143455616Y-99500681D01*
X134101399Y-90146464D01*
X134090703Y-90134267D01*
X134071486Y-90109222D01*
X134071483Y-90109220D01*
X134071482Y-90109218D01*
X133946041Y-90012964D01*
X133799962Y-89952456D01*
X133799960Y-89952455D01*
X133682561Y-89937000D01*
X133643200Y-89931818D01*
X133611897Y-89935939D01*
X133595713Y-89937000D01*
X123943297Y-89937000D01*
X123876258Y-89917315D01*
X123855616Y-89900681D01*
X120411819Y-86456884D01*
X120378334Y-86395561D01*
X120375500Y-86369203D01*
X120375500Y-84480512D01*
X120395185Y-84413473D01*
X120447989Y-84367718D01*
X120485617Y-84357292D01*
X120569249Y-84347869D01*
X120569252Y-84347868D01*
X120569255Y-84347868D01*
X120649017Y-84319957D01*
X120689972Y-84313000D01*
X120818928Y-84313000D01*
X120885967Y-84332685D01*
G37*
%TD.AperFunction*%
%TA.AperFunction,Conductor*%
G36*
X152649809Y-92757685D02*
G01*
X152670451Y-92774319D01*
X154066523Y-94170391D01*
X154100008Y-94231714D01*
X154095024Y-94301406D01*
X154053152Y-94357339D01*
X153987688Y-94381756D01*
X153919415Y-94366904D01*
X153912870Y-94363066D01*
X153759523Y-94266711D01*
X153589254Y-94207131D01*
X153589249Y-94207130D01*
X153410004Y-94186935D01*
X153409996Y-94186935D01*
X153230750Y-94207130D01*
X153230745Y-94207131D01*
X153060476Y-94266711D01*
X152907737Y-94362684D01*
X152862680Y-94407741D01*
X152801357Y-94441225D01*
X152731665Y-94436240D01*
X152687320Y-94407741D01*
X152642263Y-94362685D01*
X152642262Y-94362684D01*
X152489523Y-94266711D01*
X152319254Y-94207131D01*
X152319249Y-94207130D01*
X152140004Y-94186935D01*
X152139996Y-94186935D01*
X151960750Y-94207130D01*
X151960745Y-94207131D01*
X151790476Y-94266711D01*
X151637737Y-94362684D01*
X151510184Y-94490237D01*
X151414210Y-94642978D01*
X151354630Y-94813250D01*
X151347460Y-94876885D01*
X151320392Y-94941299D01*
X151262797Y-94980853D01*
X151224244Y-94987000D01*
X151200597Y-94987000D01*
X151090531Y-95001489D01*
X151082678Y-95003594D01*
X151081802Y-95000324D01*
X151027853Y-95006067D01*
X151017477Y-95003018D01*
X151017323Y-95003595D01*
X151009470Y-95001490D01*
X150899401Y-94987000D01*
X150700596Y-94987000D01*
X150590531Y-95001489D01*
X150582678Y-95003594D01*
X150581802Y-95000324D01*
X150527853Y-95006067D01*
X150517477Y-95003018D01*
X150517323Y-95003595D01*
X150509470Y-95001490D01*
X150399401Y-94987000D01*
X150200596Y-94987000D01*
X150090531Y-95001489D01*
X150082678Y-95003594D01*
X150081802Y-95000324D01*
X150027853Y-95006067D01*
X150017477Y-95003018D01*
X150017323Y-95003595D01*
X150009470Y-95001490D01*
X149899401Y-94987000D01*
X149700596Y-94987000D01*
X149590531Y-95001489D01*
X149582678Y-95003594D01*
X149581802Y-95000324D01*
X149527853Y-95006067D01*
X149517477Y-95003018D01*
X149517323Y-95003595D01*
X149509470Y-95001490D01*
X149399401Y-94987000D01*
X149200596Y-94987000D01*
X149090531Y-95001489D01*
X149082678Y-95003594D01*
X149081802Y-95000324D01*
X149027853Y-95006067D01*
X149017477Y-95003018D01*
X149017323Y-95003595D01*
X149009475Y-95001492D01*
X149009472Y-95001491D01*
X148986169Y-94998423D01*
X148911424Y-94988582D01*
X148847527Y-94960315D01*
X148809057Y-94901990D01*
X148808226Y-94832125D01*
X148809905Y-94826636D01*
X148810362Y-94825257D01*
X148815349Y-94810208D01*
X148825500Y-94710845D01*
X148825499Y-94164156D01*
X148815349Y-94064792D01*
X148762003Y-93903803D01*
X148761999Y-93903797D01*
X148761998Y-93903794D01*
X148672970Y-93759459D01*
X148672967Y-93759455D01*
X148553044Y-93639532D01*
X148553040Y-93639529D01*
X148408705Y-93550501D01*
X148408699Y-93550498D01*
X148408697Y-93550497D01*
X148408694Y-93550496D01*
X148247709Y-93497151D01*
X148148346Y-93487000D01*
X147551662Y-93487000D01*
X147551644Y-93487001D01*
X147452292Y-93497150D01*
X147452289Y-93497151D01*
X147291305Y-93550496D01*
X147291294Y-93550501D01*
X147146959Y-93639529D01*
X147146955Y-93639532D01*
X147037681Y-93748807D01*
X146976358Y-93782292D01*
X146906666Y-93777308D01*
X146862319Y-93748807D01*
X146753044Y-93639532D01*
X146753040Y-93639529D01*
X146608705Y-93550501D01*
X146608699Y-93550498D01*
X146608697Y-93550497D01*
X146608694Y-93550496D01*
X146447709Y-93497151D01*
X146348352Y-93487000D01*
X146348345Y-93487000D01*
X146212230Y-93487000D01*
X146145191Y-93467315D01*
X146124553Y-93450685D01*
X146012277Y-93338409D01*
X146012276Y-93338408D01*
X146009859Y-93335991D01*
X146009840Y-93335973D01*
X145911818Y-93237950D01*
X145878334Y-93176626D01*
X145875500Y-93150269D01*
X145875500Y-92862000D01*
X145895185Y-92794961D01*
X145947989Y-92749206D01*
X145999500Y-92738000D01*
X152582770Y-92738000D01*
X152649809Y-92757685D01*
G37*
%TD.AperFunction*%
%TD*%
M02*
