%TF.GenerationSoftware,KiCad,Pcbnew,7.0.11+dfsg-1build4*%
%TF.CreationDate,2026-04-12T03:17:05+02:00*%
%TF.ProjectId,Motherboard,4d6f7468-6572-4626-9f61-72642e6b6963,v1.0*%
%TF.SameCoordinates,Original*%
%TF.FileFunction,Legend,Top*%
%TF.FilePolarity,Positive*%
%FSLAX46Y46*%
G04 Gerber Fmt 4.6, Leading zero omitted, Abs format (unit mm)*
G04 Created by KiCad (PCBNEW 7.0.11+dfsg-1build4) date 2026-04-12 03:17:05*
%MOMM*%
%LPD*%
G01*
G04 APERTURE LIST*
%ADD10C,0.150000*%
%ADD11C,0.125000*%
%ADD12C,0.120000*%
G04 APERTURE END LIST*
D10*
X166708207Y-79869819D02*
X166374874Y-79393628D01*
X166136779Y-79869819D02*
X166136779Y-78869819D01*
X166136779Y-78869819D02*
X166517731Y-78869819D01*
X166517731Y-78869819D02*
X166612969Y-78917438D01*
X166612969Y-78917438D02*
X166660588Y-78965057D01*
X166660588Y-78965057D02*
X166708207Y-79060295D01*
X166708207Y-79060295D02*
X166708207Y-79203152D01*
X166708207Y-79203152D02*
X166660588Y-79298390D01*
X166660588Y-79298390D02*
X166612969Y-79346009D01*
X166612969Y-79346009D02*
X166517731Y-79393628D01*
X166517731Y-79393628D02*
X166136779Y-79393628D01*
X167279636Y-79869819D02*
X167184398Y-79822200D01*
X167184398Y-79822200D02*
X167136779Y-79774580D01*
X167136779Y-79774580D02*
X167089160Y-79679342D01*
X167089160Y-79679342D02*
X167089160Y-79393628D01*
X167089160Y-79393628D02*
X167136779Y-79298390D01*
X167136779Y-79298390D02*
X167184398Y-79250771D01*
X167184398Y-79250771D02*
X167279636Y-79203152D01*
X167279636Y-79203152D02*
X167422493Y-79203152D01*
X167422493Y-79203152D02*
X167517731Y-79250771D01*
X167517731Y-79250771D02*
X167565350Y-79298390D01*
X167565350Y-79298390D02*
X167612969Y-79393628D01*
X167612969Y-79393628D02*
X167612969Y-79679342D01*
X167612969Y-79679342D02*
X167565350Y-79774580D01*
X167565350Y-79774580D02*
X167517731Y-79822200D01*
X167517731Y-79822200D02*
X167422493Y-79869819D01*
X167422493Y-79869819D02*
X167279636Y-79869819D01*
X168184398Y-79869819D02*
X168089160Y-79822200D01*
X168089160Y-79822200D02*
X168041541Y-79774580D01*
X168041541Y-79774580D02*
X167993922Y-79679342D01*
X167993922Y-79679342D02*
X167993922Y-79393628D01*
X167993922Y-79393628D02*
X168041541Y-79298390D01*
X168041541Y-79298390D02*
X168089160Y-79250771D01*
X168089160Y-79250771D02*
X168184398Y-79203152D01*
X168184398Y-79203152D02*
X168327255Y-79203152D01*
X168327255Y-79203152D02*
X168422493Y-79250771D01*
X168422493Y-79250771D02*
X168470112Y-79298390D01*
X168470112Y-79298390D02*
X168517731Y-79393628D01*
X168517731Y-79393628D02*
X168517731Y-79679342D01*
X168517731Y-79679342D02*
X168470112Y-79774580D01*
X168470112Y-79774580D02*
X168422493Y-79822200D01*
X168422493Y-79822200D02*
X168327255Y-79869819D01*
X168327255Y-79869819D02*
X168184398Y-79869819D01*
X168803446Y-79203152D02*
X169184398Y-79203152D01*
X168946303Y-78869819D02*
X168946303Y-79726961D01*
X168946303Y-79726961D02*
X168993922Y-79822200D01*
X168993922Y-79822200D02*
X169089160Y-79869819D01*
X169089160Y-79869819D02*
X169184398Y-79869819D01*
X169517732Y-79869819D02*
X169517732Y-78869819D01*
X169517732Y-78869819D02*
X169851065Y-79584104D01*
X169851065Y-79584104D02*
X170184398Y-78869819D01*
X170184398Y-78869819D02*
X170184398Y-79869819D01*
X170660589Y-79869819D02*
X170660589Y-79203152D01*
X170660589Y-78869819D02*
X170612970Y-78917438D01*
X170612970Y-78917438D02*
X170660589Y-78965057D01*
X170660589Y-78965057D02*
X170708208Y-78917438D01*
X170708208Y-78917438D02*
X170660589Y-78869819D01*
X170660589Y-78869819D02*
X170660589Y-78965057D01*
X171041541Y-79869819D02*
X171565350Y-79203152D01*
X171041541Y-79203152D02*
X171565350Y-79869819D01*
X172327255Y-79822200D02*
X172232017Y-79869819D01*
X172232017Y-79869819D02*
X172041541Y-79869819D01*
X172041541Y-79869819D02*
X171946303Y-79822200D01*
X171946303Y-79822200D02*
X171898684Y-79726961D01*
X171898684Y-79726961D02*
X171898684Y-79346009D01*
X171898684Y-79346009D02*
X171946303Y-79250771D01*
X171946303Y-79250771D02*
X172041541Y-79203152D01*
X172041541Y-79203152D02*
X172232017Y-79203152D01*
X172232017Y-79203152D02*
X172327255Y-79250771D01*
X172327255Y-79250771D02*
X172374874Y-79346009D01*
X172374874Y-79346009D02*
X172374874Y-79441247D01*
X172374874Y-79441247D02*
X171898684Y-79536485D01*
X172803446Y-79869819D02*
X172803446Y-79203152D01*
X172803446Y-79393628D02*
X172851065Y-79298390D01*
X172851065Y-79298390D02*
X172898684Y-79250771D01*
X172898684Y-79250771D02*
X172993922Y-79203152D01*
X172993922Y-79203152D02*
X173089160Y-79203152D01*
X174184399Y-79869819D02*
X174184399Y-78869819D01*
X174184399Y-78869819D02*
X174517732Y-79584104D01*
X174517732Y-79584104D02*
X174851065Y-78869819D01*
X174851065Y-78869819D02*
X174851065Y-79869819D01*
X175470113Y-79869819D02*
X175374875Y-79822200D01*
X175374875Y-79822200D02*
X175327256Y-79774580D01*
X175327256Y-79774580D02*
X175279637Y-79679342D01*
X175279637Y-79679342D02*
X175279637Y-79393628D01*
X175279637Y-79393628D02*
X175327256Y-79298390D01*
X175327256Y-79298390D02*
X175374875Y-79250771D01*
X175374875Y-79250771D02*
X175470113Y-79203152D01*
X175470113Y-79203152D02*
X175612970Y-79203152D01*
X175612970Y-79203152D02*
X175708208Y-79250771D01*
X175708208Y-79250771D02*
X175755827Y-79298390D01*
X175755827Y-79298390D02*
X175803446Y-79393628D01*
X175803446Y-79393628D02*
X175803446Y-79679342D01*
X175803446Y-79679342D02*
X175755827Y-79774580D01*
X175755827Y-79774580D02*
X175708208Y-79822200D01*
X175708208Y-79822200D02*
X175612970Y-79869819D01*
X175612970Y-79869819D02*
X175470113Y-79869819D01*
X176089161Y-79203152D02*
X176470113Y-79203152D01*
X176232018Y-78869819D02*
X176232018Y-79726961D01*
X176232018Y-79726961D02*
X176279637Y-79822200D01*
X176279637Y-79822200D02*
X176374875Y-79869819D01*
X176374875Y-79869819D02*
X176470113Y-79869819D01*
X176803447Y-79869819D02*
X176803447Y-78869819D01*
X177232018Y-79869819D02*
X177232018Y-79346009D01*
X177232018Y-79346009D02*
X177184399Y-79250771D01*
X177184399Y-79250771D02*
X177089161Y-79203152D01*
X177089161Y-79203152D02*
X176946304Y-79203152D01*
X176946304Y-79203152D02*
X176851066Y-79250771D01*
X176851066Y-79250771D02*
X176803447Y-79298390D01*
X178089161Y-79822200D02*
X177993923Y-79869819D01*
X177993923Y-79869819D02*
X177803447Y-79869819D01*
X177803447Y-79869819D02*
X177708209Y-79822200D01*
X177708209Y-79822200D02*
X177660590Y-79726961D01*
X177660590Y-79726961D02*
X177660590Y-79346009D01*
X177660590Y-79346009D02*
X177708209Y-79250771D01*
X177708209Y-79250771D02*
X177803447Y-79203152D01*
X177803447Y-79203152D02*
X177993923Y-79203152D01*
X177993923Y-79203152D02*
X178089161Y-79250771D01*
X178089161Y-79250771D02*
X178136780Y-79346009D01*
X178136780Y-79346009D02*
X178136780Y-79441247D01*
X178136780Y-79441247D02*
X177660590Y-79536485D01*
X178565352Y-79869819D02*
X178565352Y-79203152D01*
X178565352Y-79393628D02*
X178612971Y-79298390D01*
X178612971Y-79298390D02*
X178660590Y-79250771D01*
X178660590Y-79250771D02*
X178755828Y-79203152D01*
X178755828Y-79203152D02*
X178851066Y-79203152D01*
X179184400Y-79869819D02*
X179184400Y-78869819D01*
X179184400Y-79250771D02*
X179279638Y-79203152D01*
X179279638Y-79203152D02*
X179470114Y-79203152D01*
X179470114Y-79203152D02*
X179565352Y-79250771D01*
X179565352Y-79250771D02*
X179612971Y-79298390D01*
X179612971Y-79298390D02*
X179660590Y-79393628D01*
X179660590Y-79393628D02*
X179660590Y-79679342D01*
X179660590Y-79679342D02*
X179612971Y-79774580D01*
X179612971Y-79774580D02*
X179565352Y-79822200D01*
X179565352Y-79822200D02*
X179470114Y-79869819D01*
X179470114Y-79869819D02*
X179279638Y-79869819D01*
X179279638Y-79869819D02*
X179184400Y-79822200D01*
X180232019Y-79869819D02*
X180136781Y-79822200D01*
X180136781Y-79822200D02*
X180089162Y-79774580D01*
X180089162Y-79774580D02*
X180041543Y-79679342D01*
X180041543Y-79679342D02*
X180041543Y-79393628D01*
X180041543Y-79393628D02*
X180089162Y-79298390D01*
X180089162Y-79298390D02*
X180136781Y-79250771D01*
X180136781Y-79250771D02*
X180232019Y-79203152D01*
X180232019Y-79203152D02*
X180374876Y-79203152D01*
X180374876Y-79203152D02*
X180470114Y-79250771D01*
X180470114Y-79250771D02*
X180517733Y-79298390D01*
X180517733Y-79298390D02*
X180565352Y-79393628D01*
X180565352Y-79393628D02*
X180565352Y-79679342D01*
X180565352Y-79679342D02*
X180517733Y-79774580D01*
X180517733Y-79774580D02*
X180470114Y-79822200D01*
X180470114Y-79822200D02*
X180374876Y-79869819D01*
X180374876Y-79869819D02*
X180232019Y-79869819D01*
X181422495Y-79869819D02*
X181422495Y-79346009D01*
X181422495Y-79346009D02*
X181374876Y-79250771D01*
X181374876Y-79250771D02*
X181279638Y-79203152D01*
X181279638Y-79203152D02*
X181089162Y-79203152D01*
X181089162Y-79203152D02*
X180993924Y-79250771D01*
X181422495Y-79822200D02*
X181327257Y-79869819D01*
X181327257Y-79869819D02*
X181089162Y-79869819D01*
X181089162Y-79869819D02*
X180993924Y-79822200D01*
X180993924Y-79822200D02*
X180946305Y-79726961D01*
X180946305Y-79726961D02*
X180946305Y-79631723D01*
X180946305Y-79631723D02*
X180993924Y-79536485D01*
X180993924Y-79536485D02*
X181089162Y-79488866D01*
X181089162Y-79488866D02*
X181327257Y-79488866D01*
X181327257Y-79488866D02*
X181422495Y-79441247D01*
X181898686Y-79869819D02*
X181898686Y-79203152D01*
X181898686Y-79393628D02*
X181946305Y-79298390D01*
X181946305Y-79298390D02*
X181993924Y-79250771D01*
X181993924Y-79250771D02*
X182089162Y-79203152D01*
X182089162Y-79203152D02*
X182184400Y-79203152D01*
X182946305Y-79869819D02*
X182946305Y-78869819D01*
X182946305Y-79822200D02*
X182851067Y-79869819D01*
X182851067Y-79869819D02*
X182660591Y-79869819D01*
X182660591Y-79869819D02*
X182565353Y-79822200D01*
X182565353Y-79822200D02*
X182517734Y-79774580D01*
X182517734Y-79774580D02*
X182470115Y-79679342D01*
X182470115Y-79679342D02*
X182470115Y-79393628D01*
X182470115Y-79393628D02*
X182517734Y-79298390D01*
X182517734Y-79298390D02*
X182565353Y-79250771D01*
X182565353Y-79250771D02*
X182660591Y-79203152D01*
X182660591Y-79203152D02*
X182851067Y-79203152D01*
X182851067Y-79203152D02*
X182946305Y-79250771D01*
X184089163Y-79203152D02*
X184327258Y-79869819D01*
X184327258Y-79869819D02*
X184565353Y-79203152D01*
X185470115Y-79869819D02*
X184898687Y-79869819D01*
X185184401Y-79869819D02*
X185184401Y-78869819D01*
X185184401Y-78869819D02*
X185089163Y-79012676D01*
X185089163Y-79012676D02*
X184993925Y-79107914D01*
X184993925Y-79107914D02*
X184898687Y-79155533D01*
X185898687Y-79774580D02*
X185946306Y-79822200D01*
X185946306Y-79822200D02*
X185898687Y-79869819D01*
X185898687Y-79869819D02*
X185851068Y-79822200D01*
X185851068Y-79822200D02*
X185898687Y-79774580D01*
X185898687Y-79774580D02*
X185898687Y-79869819D01*
X186565353Y-78869819D02*
X186660591Y-78869819D01*
X186660591Y-78869819D02*
X186755829Y-78917438D01*
X186755829Y-78917438D02*
X186803448Y-78965057D01*
X186803448Y-78965057D02*
X186851067Y-79060295D01*
X186851067Y-79060295D02*
X186898686Y-79250771D01*
X186898686Y-79250771D02*
X186898686Y-79488866D01*
X186898686Y-79488866D02*
X186851067Y-79679342D01*
X186851067Y-79679342D02*
X186803448Y-79774580D01*
X186803448Y-79774580D02*
X186755829Y-79822200D01*
X186755829Y-79822200D02*
X186660591Y-79869819D01*
X186660591Y-79869819D02*
X186565353Y-79869819D01*
X186565353Y-79869819D02*
X186470115Y-79822200D01*
X186470115Y-79822200D02*
X186422496Y-79774580D01*
X186422496Y-79774580D02*
X186374877Y-79679342D01*
X186374877Y-79679342D02*
X186327258Y-79488866D01*
X186327258Y-79488866D02*
X186327258Y-79250771D01*
X186327258Y-79250771D02*
X186374877Y-79060295D01*
X186374877Y-79060295D02*
X186422496Y-78965057D01*
X186422496Y-78965057D02*
X186470115Y-78917438D01*
X186470115Y-78917438D02*
X186565353Y-78869819D01*
X126311904Y-111567319D02*
X126311904Y-112281604D01*
X126311904Y-112281604D02*
X126264285Y-112424461D01*
X126264285Y-112424461D02*
X126169047Y-112519700D01*
X126169047Y-112519700D02*
X126026190Y-112567319D01*
X126026190Y-112567319D02*
X125930952Y-112567319D01*
X126550000Y-112662557D02*
X127311904Y-112662557D01*
X128121428Y-112472080D02*
X128073809Y-112519700D01*
X128073809Y-112519700D02*
X127930952Y-112567319D01*
X127930952Y-112567319D02*
X127835714Y-112567319D01*
X127835714Y-112567319D02*
X127692857Y-112519700D01*
X127692857Y-112519700D02*
X127597619Y-112424461D01*
X127597619Y-112424461D02*
X127550000Y-112329223D01*
X127550000Y-112329223D02*
X127502381Y-112138747D01*
X127502381Y-112138747D02*
X127502381Y-111995890D01*
X127502381Y-111995890D02*
X127550000Y-111805414D01*
X127550000Y-111805414D02*
X127597619Y-111710176D01*
X127597619Y-111710176D02*
X127692857Y-111614938D01*
X127692857Y-111614938D02*
X127835714Y-111567319D01*
X127835714Y-111567319D02*
X127930952Y-111567319D01*
X127930952Y-111567319D02*
X128073809Y-111614938D01*
X128073809Y-111614938D02*
X128121428Y-111662557D01*
X128550000Y-112567319D02*
X128550000Y-111567319D01*
X128550000Y-112043509D02*
X129121428Y-112043509D01*
X129121428Y-112567319D02*
X129121428Y-111567319D01*
X130026190Y-111900652D02*
X130026190Y-112567319D01*
X129788095Y-111519700D02*
X129550000Y-112233985D01*
X129550000Y-112233985D02*
X130169047Y-112233985D01*
X148383333Y-106617319D02*
X148050000Y-106141128D01*
X147811905Y-106617319D02*
X147811905Y-105617319D01*
X147811905Y-105617319D02*
X148192857Y-105617319D01*
X148192857Y-105617319D02*
X148288095Y-105664938D01*
X148288095Y-105664938D02*
X148335714Y-105712557D01*
X148335714Y-105712557D02*
X148383333Y-105807795D01*
X148383333Y-105807795D02*
X148383333Y-105950652D01*
X148383333Y-105950652D02*
X148335714Y-106045890D01*
X148335714Y-106045890D02*
X148288095Y-106093509D01*
X148288095Y-106093509D02*
X148192857Y-106141128D01*
X148192857Y-106141128D02*
X147811905Y-106141128D01*
X148716667Y-105617319D02*
X149335714Y-105617319D01*
X149335714Y-105617319D02*
X149002381Y-105998271D01*
X149002381Y-105998271D02*
X149145238Y-105998271D01*
X149145238Y-105998271D02*
X149240476Y-106045890D01*
X149240476Y-106045890D02*
X149288095Y-106093509D01*
X149288095Y-106093509D02*
X149335714Y-106188747D01*
X149335714Y-106188747D02*
X149335714Y-106426842D01*
X149335714Y-106426842D02*
X149288095Y-106522080D01*
X149288095Y-106522080D02*
X149240476Y-106569700D01*
X149240476Y-106569700D02*
X149145238Y-106617319D01*
X149145238Y-106617319D02*
X148859524Y-106617319D01*
X148859524Y-106617319D02*
X148764286Y-106569700D01*
X148764286Y-106569700D02*
X148716667Y-106522080D01*
X142211904Y-111567319D02*
X142211904Y-112281604D01*
X142211904Y-112281604D02*
X142164285Y-112424461D01*
X142164285Y-112424461D02*
X142069047Y-112519700D01*
X142069047Y-112519700D02*
X141926190Y-112567319D01*
X141926190Y-112567319D02*
X141830952Y-112567319D01*
X142450000Y-112662557D02*
X143211904Y-112662557D01*
X144021428Y-112472080D02*
X143973809Y-112519700D01*
X143973809Y-112519700D02*
X143830952Y-112567319D01*
X143830952Y-112567319D02*
X143735714Y-112567319D01*
X143735714Y-112567319D02*
X143592857Y-112519700D01*
X143592857Y-112519700D02*
X143497619Y-112424461D01*
X143497619Y-112424461D02*
X143450000Y-112329223D01*
X143450000Y-112329223D02*
X143402381Y-112138747D01*
X143402381Y-112138747D02*
X143402381Y-111995890D01*
X143402381Y-111995890D02*
X143450000Y-111805414D01*
X143450000Y-111805414D02*
X143497619Y-111710176D01*
X143497619Y-111710176D02*
X143592857Y-111614938D01*
X143592857Y-111614938D02*
X143735714Y-111567319D01*
X143735714Y-111567319D02*
X143830952Y-111567319D01*
X143830952Y-111567319D02*
X143973809Y-111614938D01*
X143973809Y-111614938D02*
X144021428Y-111662557D01*
X144450000Y-112567319D02*
X144450000Y-111567319D01*
X144450000Y-112043509D02*
X145021428Y-112043509D01*
X145021428Y-112567319D02*
X145021428Y-111567319D01*
X145402381Y-111567319D02*
X146021428Y-111567319D01*
X146021428Y-111567319D02*
X145688095Y-111948271D01*
X145688095Y-111948271D02*
X145830952Y-111948271D01*
X145830952Y-111948271D02*
X145926190Y-111995890D01*
X145926190Y-111995890D02*
X145973809Y-112043509D01*
X145973809Y-112043509D02*
X146021428Y-112138747D01*
X146021428Y-112138747D02*
X146021428Y-112376842D01*
X146021428Y-112376842D02*
X145973809Y-112472080D01*
X145973809Y-112472080D02*
X145926190Y-112519700D01*
X145926190Y-112519700D02*
X145830952Y-112567319D01*
X145830952Y-112567319D02*
X145545238Y-112567319D01*
X145545238Y-112567319D02*
X145450000Y-112519700D01*
X145450000Y-112519700D02*
X145402381Y-112472080D01*
X132756666Y-106927319D02*
X132756666Y-107641604D01*
X132756666Y-107641604D02*
X132709047Y-107784461D01*
X132709047Y-107784461D02*
X132613809Y-107879700D01*
X132613809Y-107879700D02*
X132470952Y-107927319D01*
X132470952Y-107927319D02*
X132375714Y-107927319D01*
X133185238Y-107022557D02*
X133232857Y-106974938D01*
X133232857Y-106974938D02*
X133328095Y-106927319D01*
X133328095Y-106927319D02*
X133566190Y-106927319D01*
X133566190Y-106927319D02*
X133661428Y-106974938D01*
X133661428Y-106974938D02*
X133709047Y-107022557D01*
X133709047Y-107022557D02*
X133756666Y-107117795D01*
X133756666Y-107117795D02*
X133756666Y-107213033D01*
X133756666Y-107213033D02*
X133709047Y-107355890D01*
X133709047Y-107355890D02*
X133137619Y-107927319D01*
X133137619Y-107927319D02*
X133756666Y-107927319D01*
X149938095Y-94154819D02*
X149938095Y-94964342D01*
X149938095Y-94964342D02*
X149985714Y-95059580D01*
X149985714Y-95059580D02*
X150033333Y-95107200D01*
X150033333Y-95107200D02*
X150128571Y-95154819D01*
X150128571Y-95154819D02*
X150319047Y-95154819D01*
X150319047Y-95154819D02*
X150414285Y-95107200D01*
X150414285Y-95107200D02*
X150461904Y-95059580D01*
X150461904Y-95059580D02*
X150509523Y-94964342D01*
X150509523Y-94964342D02*
X150509523Y-94154819D01*
X151509523Y-95154819D02*
X150938095Y-95154819D01*
X151223809Y-95154819D02*
X151223809Y-94154819D01*
X151223809Y-94154819D02*
X151128571Y-94297676D01*
X151128571Y-94297676D02*
X151033333Y-94392914D01*
X151033333Y-94392914D02*
X150938095Y-94440533D01*
X175311904Y-111567319D02*
X175311904Y-112281604D01*
X175311904Y-112281604D02*
X175264285Y-112424461D01*
X175264285Y-112424461D02*
X175169047Y-112519700D01*
X175169047Y-112519700D02*
X175026190Y-112567319D01*
X175026190Y-112567319D02*
X174930952Y-112567319D01*
X175550000Y-112662557D02*
X176311904Y-112662557D01*
X177121428Y-112472080D02*
X177073809Y-112519700D01*
X177073809Y-112519700D02*
X176930952Y-112567319D01*
X176930952Y-112567319D02*
X176835714Y-112567319D01*
X176835714Y-112567319D02*
X176692857Y-112519700D01*
X176692857Y-112519700D02*
X176597619Y-112424461D01*
X176597619Y-112424461D02*
X176550000Y-112329223D01*
X176550000Y-112329223D02*
X176502381Y-112138747D01*
X176502381Y-112138747D02*
X176502381Y-111995890D01*
X176502381Y-111995890D02*
X176550000Y-111805414D01*
X176550000Y-111805414D02*
X176597619Y-111710176D01*
X176597619Y-111710176D02*
X176692857Y-111614938D01*
X176692857Y-111614938D02*
X176835714Y-111567319D01*
X176835714Y-111567319D02*
X176930952Y-111567319D01*
X176930952Y-111567319D02*
X177073809Y-111614938D01*
X177073809Y-111614938D02*
X177121428Y-111662557D01*
X177550000Y-112567319D02*
X177550000Y-111567319D01*
X177550000Y-112043509D02*
X178121428Y-112043509D01*
X178121428Y-112567319D02*
X178121428Y-111567319D01*
X179121428Y-112567319D02*
X178550000Y-112567319D01*
X178835714Y-112567319D02*
X178835714Y-111567319D01*
X178835714Y-111567319D02*
X178740476Y-111710176D01*
X178740476Y-111710176D02*
X178645238Y-111805414D01*
X178645238Y-111805414D02*
X178550000Y-111853033D01*
X159723809Y-97978628D02*
X159723809Y-98454819D01*
X159390476Y-97454819D02*
X159723809Y-97978628D01*
X159723809Y-97978628D02*
X160057142Y-97454819D01*
X160914285Y-98454819D02*
X160342857Y-98454819D01*
X160628571Y-98454819D02*
X160628571Y-97454819D01*
X160628571Y-97454819D02*
X160533333Y-97597676D01*
X160533333Y-97597676D02*
X160438095Y-97692914D01*
X160438095Y-97692914D02*
X160342857Y-97740533D01*
D11*
X149016666Y-93877190D02*
X148992857Y-93901000D01*
X148992857Y-93901000D02*
X148921428Y-93924809D01*
X148921428Y-93924809D02*
X148873809Y-93924809D01*
X148873809Y-93924809D02*
X148802381Y-93901000D01*
X148802381Y-93901000D02*
X148754762Y-93853380D01*
X148754762Y-93853380D02*
X148730952Y-93805761D01*
X148730952Y-93805761D02*
X148707143Y-93710523D01*
X148707143Y-93710523D02*
X148707143Y-93639095D01*
X148707143Y-93639095D02*
X148730952Y-93543857D01*
X148730952Y-93543857D02*
X148754762Y-93496238D01*
X148754762Y-93496238D02*
X148802381Y-93448619D01*
X148802381Y-93448619D02*
X148873809Y-93424809D01*
X148873809Y-93424809D02*
X148921428Y-93424809D01*
X148921428Y-93424809D02*
X148992857Y-93448619D01*
X148992857Y-93448619D02*
X149016666Y-93472428D01*
X149254762Y-93924809D02*
X149350000Y-93924809D01*
X149350000Y-93924809D02*
X149397619Y-93901000D01*
X149397619Y-93901000D02*
X149421428Y-93877190D01*
X149421428Y-93877190D02*
X149469047Y-93805761D01*
X149469047Y-93805761D02*
X149492857Y-93710523D01*
X149492857Y-93710523D02*
X149492857Y-93520047D01*
X149492857Y-93520047D02*
X149469047Y-93472428D01*
X149469047Y-93472428D02*
X149445238Y-93448619D01*
X149445238Y-93448619D02*
X149397619Y-93424809D01*
X149397619Y-93424809D02*
X149302381Y-93424809D01*
X149302381Y-93424809D02*
X149254762Y-93448619D01*
X149254762Y-93448619D02*
X149230952Y-93472428D01*
X149230952Y-93472428D02*
X149207143Y-93520047D01*
X149207143Y-93520047D02*
X149207143Y-93639095D01*
X149207143Y-93639095D02*
X149230952Y-93686714D01*
X149230952Y-93686714D02*
X149254762Y-93710523D01*
X149254762Y-93710523D02*
X149302381Y-93734333D01*
X149302381Y-93734333D02*
X149397619Y-93734333D01*
X149397619Y-93734333D02*
X149445238Y-93710523D01*
X149445238Y-93710523D02*
X149469047Y-93686714D01*
X149469047Y-93686714D02*
X149492857Y-93639095D01*
X144716666Y-93877190D02*
X144692857Y-93901000D01*
X144692857Y-93901000D02*
X144621428Y-93924809D01*
X144621428Y-93924809D02*
X144573809Y-93924809D01*
X144573809Y-93924809D02*
X144502381Y-93901000D01*
X144502381Y-93901000D02*
X144454762Y-93853380D01*
X144454762Y-93853380D02*
X144430952Y-93805761D01*
X144430952Y-93805761D02*
X144407143Y-93710523D01*
X144407143Y-93710523D02*
X144407143Y-93639095D01*
X144407143Y-93639095D02*
X144430952Y-93543857D01*
X144430952Y-93543857D02*
X144454762Y-93496238D01*
X144454762Y-93496238D02*
X144502381Y-93448619D01*
X144502381Y-93448619D02*
X144573809Y-93424809D01*
X144573809Y-93424809D02*
X144621428Y-93424809D01*
X144621428Y-93424809D02*
X144692857Y-93448619D01*
X144692857Y-93448619D02*
X144716666Y-93472428D01*
X144883333Y-93424809D02*
X145216666Y-93424809D01*
X145216666Y-93424809D02*
X145002381Y-93924809D01*
X154066666Y-105239690D02*
X154042857Y-105263500D01*
X154042857Y-105263500D02*
X153971428Y-105287309D01*
X153971428Y-105287309D02*
X153923809Y-105287309D01*
X153923809Y-105287309D02*
X153852381Y-105263500D01*
X153852381Y-105263500D02*
X153804762Y-105215880D01*
X153804762Y-105215880D02*
X153780952Y-105168261D01*
X153780952Y-105168261D02*
X153757143Y-105073023D01*
X153757143Y-105073023D02*
X153757143Y-105001595D01*
X153757143Y-105001595D02*
X153780952Y-104906357D01*
X153780952Y-104906357D02*
X153804762Y-104858738D01*
X153804762Y-104858738D02*
X153852381Y-104811119D01*
X153852381Y-104811119D02*
X153923809Y-104787309D01*
X153923809Y-104787309D02*
X153971428Y-104787309D01*
X153971428Y-104787309D02*
X154042857Y-104811119D01*
X154042857Y-104811119D02*
X154066666Y-104834928D01*
X154352381Y-105001595D02*
X154304762Y-104977785D01*
X154304762Y-104977785D02*
X154280952Y-104953976D01*
X154280952Y-104953976D02*
X154257143Y-104906357D01*
X154257143Y-104906357D02*
X154257143Y-104882547D01*
X154257143Y-104882547D02*
X154280952Y-104834928D01*
X154280952Y-104834928D02*
X154304762Y-104811119D01*
X154304762Y-104811119D02*
X154352381Y-104787309D01*
X154352381Y-104787309D02*
X154447619Y-104787309D01*
X154447619Y-104787309D02*
X154495238Y-104811119D01*
X154495238Y-104811119D02*
X154519047Y-104834928D01*
X154519047Y-104834928D02*
X154542857Y-104882547D01*
X154542857Y-104882547D02*
X154542857Y-104906357D01*
X154542857Y-104906357D02*
X154519047Y-104953976D01*
X154519047Y-104953976D02*
X154495238Y-104977785D01*
X154495238Y-104977785D02*
X154447619Y-105001595D01*
X154447619Y-105001595D02*
X154352381Y-105001595D01*
X154352381Y-105001595D02*
X154304762Y-105025404D01*
X154304762Y-105025404D02*
X154280952Y-105049214D01*
X154280952Y-105049214D02*
X154257143Y-105096833D01*
X154257143Y-105096833D02*
X154257143Y-105192071D01*
X154257143Y-105192071D02*
X154280952Y-105239690D01*
X154280952Y-105239690D02*
X154304762Y-105263500D01*
X154304762Y-105263500D02*
X154352381Y-105287309D01*
X154352381Y-105287309D02*
X154447619Y-105287309D01*
X154447619Y-105287309D02*
X154495238Y-105263500D01*
X154495238Y-105263500D02*
X154519047Y-105239690D01*
X154519047Y-105239690D02*
X154542857Y-105192071D01*
X154542857Y-105192071D02*
X154542857Y-105096833D01*
X154542857Y-105096833D02*
X154519047Y-105049214D01*
X154519047Y-105049214D02*
X154495238Y-105025404D01*
X154495238Y-105025404D02*
X154447619Y-105001595D01*
X134916666Y-87977190D02*
X134892857Y-88001000D01*
X134892857Y-88001000D02*
X134821428Y-88024809D01*
X134821428Y-88024809D02*
X134773809Y-88024809D01*
X134773809Y-88024809D02*
X134702381Y-88001000D01*
X134702381Y-88001000D02*
X134654762Y-87953380D01*
X134654762Y-87953380D02*
X134630952Y-87905761D01*
X134630952Y-87905761D02*
X134607143Y-87810523D01*
X134607143Y-87810523D02*
X134607143Y-87739095D01*
X134607143Y-87739095D02*
X134630952Y-87643857D01*
X134630952Y-87643857D02*
X134654762Y-87596238D01*
X134654762Y-87596238D02*
X134702381Y-87548619D01*
X134702381Y-87548619D02*
X134773809Y-87524809D01*
X134773809Y-87524809D02*
X134821428Y-87524809D01*
X134821428Y-87524809D02*
X134892857Y-87548619D01*
X134892857Y-87548619D02*
X134916666Y-87572428D01*
X135345238Y-87691476D02*
X135345238Y-88024809D01*
X135226190Y-87501000D02*
X135107143Y-87858142D01*
X135107143Y-87858142D02*
X135416666Y-87858142D01*
X157016666Y-98677190D02*
X156992857Y-98701000D01*
X156992857Y-98701000D02*
X156921428Y-98724809D01*
X156921428Y-98724809D02*
X156873809Y-98724809D01*
X156873809Y-98724809D02*
X156802381Y-98701000D01*
X156802381Y-98701000D02*
X156754762Y-98653380D01*
X156754762Y-98653380D02*
X156730952Y-98605761D01*
X156730952Y-98605761D02*
X156707143Y-98510523D01*
X156707143Y-98510523D02*
X156707143Y-98439095D01*
X156707143Y-98439095D02*
X156730952Y-98343857D01*
X156730952Y-98343857D02*
X156754762Y-98296238D01*
X156754762Y-98296238D02*
X156802381Y-98248619D01*
X156802381Y-98248619D02*
X156873809Y-98224809D01*
X156873809Y-98224809D02*
X156921428Y-98224809D01*
X156921428Y-98224809D02*
X156992857Y-98248619D01*
X156992857Y-98248619D02*
X157016666Y-98272428D01*
X157469047Y-98224809D02*
X157230952Y-98224809D01*
X157230952Y-98224809D02*
X157207143Y-98462904D01*
X157207143Y-98462904D02*
X157230952Y-98439095D01*
X157230952Y-98439095D02*
X157278571Y-98415285D01*
X157278571Y-98415285D02*
X157397619Y-98415285D01*
X157397619Y-98415285D02*
X157445238Y-98439095D01*
X157445238Y-98439095D02*
X157469047Y-98462904D01*
X157469047Y-98462904D02*
X157492857Y-98510523D01*
X157492857Y-98510523D02*
X157492857Y-98629571D01*
X157492857Y-98629571D02*
X157469047Y-98677190D01*
X157469047Y-98677190D02*
X157445238Y-98701000D01*
X157445238Y-98701000D02*
X157397619Y-98724809D01*
X157397619Y-98724809D02*
X157278571Y-98724809D01*
X157278571Y-98724809D02*
X157230952Y-98701000D01*
X157230952Y-98701000D02*
X157207143Y-98677190D01*
X126216666Y-84777190D02*
X126192857Y-84801000D01*
X126192857Y-84801000D02*
X126121428Y-84824809D01*
X126121428Y-84824809D02*
X126073809Y-84824809D01*
X126073809Y-84824809D02*
X126002381Y-84801000D01*
X126002381Y-84801000D02*
X125954762Y-84753380D01*
X125954762Y-84753380D02*
X125930952Y-84705761D01*
X125930952Y-84705761D02*
X125907143Y-84610523D01*
X125907143Y-84610523D02*
X125907143Y-84539095D01*
X125907143Y-84539095D02*
X125930952Y-84443857D01*
X125930952Y-84443857D02*
X125954762Y-84396238D01*
X125954762Y-84396238D02*
X126002381Y-84348619D01*
X126002381Y-84348619D02*
X126073809Y-84324809D01*
X126073809Y-84324809D02*
X126121428Y-84324809D01*
X126121428Y-84324809D02*
X126192857Y-84348619D01*
X126192857Y-84348619D02*
X126216666Y-84372428D01*
X126383333Y-84324809D02*
X126692857Y-84324809D01*
X126692857Y-84324809D02*
X126526190Y-84515285D01*
X126526190Y-84515285D02*
X126597619Y-84515285D01*
X126597619Y-84515285D02*
X126645238Y-84539095D01*
X126645238Y-84539095D02*
X126669047Y-84562904D01*
X126669047Y-84562904D02*
X126692857Y-84610523D01*
X126692857Y-84610523D02*
X126692857Y-84729571D01*
X126692857Y-84729571D02*
X126669047Y-84777190D01*
X126669047Y-84777190D02*
X126645238Y-84801000D01*
X126645238Y-84801000D02*
X126597619Y-84824809D01*
X126597619Y-84824809D02*
X126454762Y-84824809D01*
X126454762Y-84824809D02*
X126407143Y-84801000D01*
X126407143Y-84801000D02*
X126383333Y-84777190D01*
D10*
X159311904Y-111567319D02*
X159311904Y-112281604D01*
X159311904Y-112281604D02*
X159264285Y-112424461D01*
X159264285Y-112424461D02*
X159169047Y-112519700D01*
X159169047Y-112519700D02*
X159026190Y-112567319D01*
X159026190Y-112567319D02*
X158930952Y-112567319D01*
X159550000Y-112662557D02*
X160311904Y-112662557D01*
X161121428Y-112472080D02*
X161073809Y-112519700D01*
X161073809Y-112519700D02*
X160930952Y-112567319D01*
X160930952Y-112567319D02*
X160835714Y-112567319D01*
X160835714Y-112567319D02*
X160692857Y-112519700D01*
X160692857Y-112519700D02*
X160597619Y-112424461D01*
X160597619Y-112424461D02*
X160550000Y-112329223D01*
X160550000Y-112329223D02*
X160502381Y-112138747D01*
X160502381Y-112138747D02*
X160502381Y-111995890D01*
X160502381Y-111995890D02*
X160550000Y-111805414D01*
X160550000Y-111805414D02*
X160597619Y-111710176D01*
X160597619Y-111710176D02*
X160692857Y-111614938D01*
X160692857Y-111614938D02*
X160835714Y-111567319D01*
X160835714Y-111567319D02*
X160930952Y-111567319D01*
X160930952Y-111567319D02*
X161073809Y-111614938D01*
X161073809Y-111614938D02*
X161121428Y-111662557D01*
X161550000Y-112567319D02*
X161550000Y-111567319D01*
X161550000Y-112043509D02*
X162121428Y-112043509D01*
X162121428Y-112567319D02*
X162121428Y-111567319D01*
X162550000Y-111662557D02*
X162597619Y-111614938D01*
X162597619Y-111614938D02*
X162692857Y-111567319D01*
X162692857Y-111567319D02*
X162930952Y-111567319D01*
X162930952Y-111567319D02*
X163026190Y-111614938D01*
X163026190Y-111614938D02*
X163073809Y-111662557D01*
X163073809Y-111662557D02*
X163121428Y-111757795D01*
X163121428Y-111757795D02*
X163121428Y-111853033D01*
X163121428Y-111853033D02*
X163073809Y-111995890D01*
X163073809Y-111995890D02*
X162502381Y-112567319D01*
X162502381Y-112567319D02*
X163121428Y-112567319D01*
D11*
X157016666Y-101677190D02*
X156992857Y-101701000D01*
X156992857Y-101701000D02*
X156921428Y-101724809D01*
X156921428Y-101724809D02*
X156873809Y-101724809D01*
X156873809Y-101724809D02*
X156802381Y-101701000D01*
X156802381Y-101701000D02*
X156754762Y-101653380D01*
X156754762Y-101653380D02*
X156730952Y-101605761D01*
X156730952Y-101605761D02*
X156707143Y-101510523D01*
X156707143Y-101510523D02*
X156707143Y-101439095D01*
X156707143Y-101439095D02*
X156730952Y-101343857D01*
X156730952Y-101343857D02*
X156754762Y-101296238D01*
X156754762Y-101296238D02*
X156802381Y-101248619D01*
X156802381Y-101248619D02*
X156873809Y-101224809D01*
X156873809Y-101224809D02*
X156921428Y-101224809D01*
X156921428Y-101224809D02*
X156992857Y-101248619D01*
X156992857Y-101248619D02*
X157016666Y-101272428D01*
X157207143Y-101272428D02*
X157230952Y-101248619D01*
X157230952Y-101248619D02*
X157278571Y-101224809D01*
X157278571Y-101224809D02*
X157397619Y-101224809D01*
X157397619Y-101224809D02*
X157445238Y-101248619D01*
X157445238Y-101248619D02*
X157469047Y-101272428D01*
X157469047Y-101272428D02*
X157492857Y-101320047D01*
X157492857Y-101320047D02*
X157492857Y-101367666D01*
X157492857Y-101367666D02*
X157469047Y-101439095D01*
X157469047Y-101439095D02*
X157183333Y-101724809D01*
X157183333Y-101724809D02*
X157492857Y-101724809D01*
X157016666Y-100177190D02*
X156992857Y-100201000D01*
X156992857Y-100201000D02*
X156921428Y-100224809D01*
X156921428Y-100224809D02*
X156873809Y-100224809D01*
X156873809Y-100224809D02*
X156802381Y-100201000D01*
X156802381Y-100201000D02*
X156754762Y-100153380D01*
X156754762Y-100153380D02*
X156730952Y-100105761D01*
X156730952Y-100105761D02*
X156707143Y-100010523D01*
X156707143Y-100010523D02*
X156707143Y-99939095D01*
X156707143Y-99939095D02*
X156730952Y-99843857D01*
X156730952Y-99843857D02*
X156754762Y-99796238D01*
X156754762Y-99796238D02*
X156802381Y-99748619D01*
X156802381Y-99748619D02*
X156873809Y-99724809D01*
X156873809Y-99724809D02*
X156921428Y-99724809D01*
X156921428Y-99724809D02*
X156992857Y-99748619D01*
X156992857Y-99748619D02*
X157016666Y-99772428D01*
X157492857Y-100224809D02*
X157207143Y-100224809D01*
X157350000Y-100224809D02*
X157350000Y-99724809D01*
X157350000Y-99724809D02*
X157302381Y-99796238D01*
X157302381Y-99796238D02*
X157254762Y-99843857D01*
X157254762Y-99843857D02*
X157207143Y-99867666D01*
D10*
X114933333Y-86554819D02*
X114600000Y-86078628D01*
X114361905Y-86554819D02*
X114361905Y-85554819D01*
X114361905Y-85554819D02*
X114742857Y-85554819D01*
X114742857Y-85554819D02*
X114838095Y-85602438D01*
X114838095Y-85602438D02*
X114885714Y-85650057D01*
X114885714Y-85650057D02*
X114933333Y-85745295D01*
X114933333Y-85745295D02*
X114933333Y-85888152D01*
X114933333Y-85888152D02*
X114885714Y-85983390D01*
X114885714Y-85983390D02*
X114838095Y-86031009D01*
X114838095Y-86031009D02*
X114742857Y-86078628D01*
X114742857Y-86078628D02*
X114361905Y-86078628D01*
X115314286Y-85650057D02*
X115361905Y-85602438D01*
X115361905Y-85602438D02*
X115457143Y-85554819D01*
X115457143Y-85554819D02*
X115695238Y-85554819D01*
X115695238Y-85554819D02*
X115790476Y-85602438D01*
X115790476Y-85602438D02*
X115838095Y-85650057D01*
X115838095Y-85650057D02*
X115885714Y-85745295D01*
X115885714Y-85745295D02*
X115885714Y-85840533D01*
X115885714Y-85840533D02*
X115838095Y-85983390D01*
X115838095Y-85983390D02*
X115266667Y-86554819D01*
X115266667Y-86554819D02*
X115885714Y-86554819D01*
D11*
X141716666Y-102339690D02*
X141692857Y-102363500D01*
X141692857Y-102363500D02*
X141621428Y-102387309D01*
X141621428Y-102387309D02*
X141573809Y-102387309D01*
X141573809Y-102387309D02*
X141502381Y-102363500D01*
X141502381Y-102363500D02*
X141454762Y-102315880D01*
X141454762Y-102315880D02*
X141430952Y-102268261D01*
X141430952Y-102268261D02*
X141407143Y-102173023D01*
X141407143Y-102173023D02*
X141407143Y-102101595D01*
X141407143Y-102101595D02*
X141430952Y-102006357D01*
X141430952Y-102006357D02*
X141454762Y-101958738D01*
X141454762Y-101958738D02*
X141502381Y-101911119D01*
X141502381Y-101911119D02*
X141573809Y-101887309D01*
X141573809Y-101887309D02*
X141621428Y-101887309D01*
X141621428Y-101887309D02*
X141692857Y-101911119D01*
X141692857Y-101911119D02*
X141716666Y-101934928D01*
X142145238Y-101887309D02*
X142050000Y-101887309D01*
X142050000Y-101887309D02*
X142002381Y-101911119D01*
X142002381Y-101911119D02*
X141978571Y-101934928D01*
X141978571Y-101934928D02*
X141930952Y-102006357D01*
X141930952Y-102006357D02*
X141907143Y-102101595D01*
X141907143Y-102101595D02*
X141907143Y-102292071D01*
X141907143Y-102292071D02*
X141930952Y-102339690D01*
X141930952Y-102339690D02*
X141954762Y-102363500D01*
X141954762Y-102363500D02*
X142002381Y-102387309D01*
X142002381Y-102387309D02*
X142097619Y-102387309D01*
X142097619Y-102387309D02*
X142145238Y-102363500D01*
X142145238Y-102363500D02*
X142169047Y-102339690D01*
X142169047Y-102339690D02*
X142192857Y-102292071D01*
X142192857Y-102292071D02*
X142192857Y-102173023D01*
X142192857Y-102173023D02*
X142169047Y-102125404D01*
X142169047Y-102125404D02*
X142145238Y-102101595D01*
X142145238Y-102101595D02*
X142097619Y-102077785D01*
X142097619Y-102077785D02*
X142002381Y-102077785D01*
X142002381Y-102077785D02*
X141954762Y-102101595D01*
X141954762Y-102101595D02*
X141930952Y-102125404D01*
X141930952Y-102125404D02*
X141907143Y-102173023D01*
D10*
X118716666Y-82502319D02*
X118716666Y-83216604D01*
X118716666Y-83216604D02*
X118669047Y-83359461D01*
X118669047Y-83359461D02*
X118573809Y-83454700D01*
X118573809Y-83454700D02*
X118430952Y-83502319D01*
X118430952Y-83502319D02*
X118335714Y-83502319D01*
X119716666Y-83502319D02*
X119145238Y-83502319D01*
X119430952Y-83502319D02*
X119430952Y-82502319D01*
X119430952Y-82502319D02*
X119335714Y-82645176D01*
X119335714Y-82645176D02*
X119240476Y-82740414D01*
X119240476Y-82740414D02*
X119145238Y-82788033D01*
X129088095Y-82517319D02*
X129088095Y-83326842D01*
X129088095Y-83326842D02*
X129135714Y-83422080D01*
X129135714Y-83422080D02*
X129183333Y-83469700D01*
X129183333Y-83469700D02*
X129278571Y-83517319D01*
X129278571Y-83517319D02*
X129469047Y-83517319D01*
X129469047Y-83517319D02*
X129564285Y-83469700D01*
X129564285Y-83469700D02*
X129611904Y-83422080D01*
X129611904Y-83422080D02*
X129659523Y-83326842D01*
X129659523Y-83326842D02*
X129659523Y-82517319D01*
X130088095Y-82612557D02*
X130135714Y-82564938D01*
X130135714Y-82564938D02*
X130230952Y-82517319D01*
X130230952Y-82517319D02*
X130469047Y-82517319D01*
X130469047Y-82517319D02*
X130564285Y-82564938D01*
X130564285Y-82564938D02*
X130611904Y-82612557D01*
X130611904Y-82612557D02*
X130659523Y-82707795D01*
X130659523Y-82707795D02*
X130659523Y-82803033D01*
X130659523Y-82803033D02*
X130611904Y-82945890D01*
X130611904Y-82945890D02*
X130040476Y-83517319D01*
X130040476Y-83517319D02*
X130659523Y-83517319D01*
X119833333Y-86554819D02*
X119500000Y-86078628D01*
X119261905Y-86554819D02*
X119261905Y-85554819D01*
X119261905Y-85554819D02*
X119642857Y-85554819D01*
X119642857Y-85554819D02*
X119738095Y-85602438D01*
X119738095Y-85602438D02*
X119785714Y-85650057D01*
X119785714Y-85650057D02*
X119833333Y-85745295D01*
X119833333Y-85745295D02*
X119833333Y-85888152D01*
X119833333Y-85888152D02*
X119785714Y-85983390D01*
X119785714Y-85983390D02*
X119738095Y-86031009D01*
X119738095Y-86031009D02*
X119642857Y-86078628D01*
X119642857Y-86078628D02*
X119261905Y-86078628D01*
X120785714Y-86554819D02*
X120214286Y-86554819D01*
X120500000Y-86554819D02*
X120500000Y-85554819D01*
X120500000Y-85554819D02*
X120404762Y-85697676D01*
X120404762Y-85697676D02*
X120309524Y-85792914D01*
X120309524Y-85792914D02*
X120214286Y-85840533D01*
D12*
%TO.C,J_CH4*%
X123900000Y-114512500D02*
X123900000Y-115852500D01*
X123900000Y-118572500D02*
X123900000Y-120312500D01*
X123900000Y-120312500D02*
X132200000Y-120312500D01*
X125390000Y-114512500D02*
X123900000Y-114512500D01*
X125390000Y-114512500D02*
X125390000Y-113312500D01*
X130710000Y-114512500D02*
X132200000Y-114512500D01*
X132200000Y-114512500D02*
X132200000Y-115852500D01*
X132200000Y-120312500D02*
X132200000Y-118572500D01*
%TO.C,R3*%
X149827500Y-106399758D02*
X149827500Y-105925242D01*
X150872500Y-106399758D02*
X150872500Y-105925242D01*
%TO.C,J_CH3*%
X139800000Y-114512500D02*
X139800000Y-115852500D01*
X139800000Y-118572500D02*
X139800000Y-120312500D01*
X139800000Y-120312500D02*
X148100000Y-120312500D01*
X141290000Y-114512500D02*
X139800000Y-114512500D01*
X141290000Y-114512500D02*
X141290000Y-113312500D01*
X146610000Y-114512500D02*
X148100000Y-114512500D01*
X148100000Y-114512500D02*
X148100000Y-115852500D01*
X148100000Y-120312500D02*
X148100000Y-118572500D01*
%TO.C,J2*%
X134420000Y-106472500D02*
X133090000Y-106472500D01*
X134420000Y-105142500D02*
X134420000Y-106472500D01*
X134420000Y-103872500D02*
X134420000Y-96192500D01*
X134420000Y-103872500D02*
X131760000Y-103872500D01*
X134420000Y-96192500D02*
X131760000Y-96192500D01*
X131760000Y-103872500D02*
X131760000Y-96192500D01*
%TO.C,U1*%
X153160000Y-102497500D02*
X153160000Y-102732500D01*
X153160000Y-95752500D02*
X153160000Y-96227500D01*
X152685000Y-102972500D02*
X152860000Y-102972500D01*
X152685000Y-95752500D02*
X153160000Y-95752500D01*
X146415000Y-102972500D02*
X145940000Y-102972500D01*
X146415000Y-95752500D02*
X145940000Y-95752500D01*
X145940000Y-102972500D02*
X145940000Y-102497500D01*
X145940000Y-95752500D02*
X145940000Y-96227500D01*
X153400000Y-103302500D02*
X152920000Y-103302500D01*
X153160000Y-102972500D01*
X153400000Y-103302500D01*
G36*
X153400000Y-103302500D02*
G01*
X152920000Y-103302500D01*
X153160000Y-102972500D01*
X153400000Y-103302500D01*
G37*
%TO.C,J_CH1*%
X172900000Y-114512500D02*
X172900000Y-115852500D01*
X172900000Y-118572500D02*
X172900000Y-120312500D01*
X172900000Y-120312500D02*
X181200000Y-120312500D01*
X174390000Y-114512500D02*
X172900000Y-114512500D01*
X174390000Y-114512500D02*
X174390000Y-113312500D01*
X179710000Y-114512500D02*
X181200000Y-114512500D01*
X181200000Y-114512500D02*
X181200000Y-115852500D01*
X181200000Y-120312500D02*
X181200000Y-118572500D01*
%TO.C,Y1*%
X160900000Y-102662500D02*
X160900000Y-98662500D01*
X157600000Y-102662500D02*
X160900000Y-102662500D01*
%TO.C,C9*%
X147340000Y-93803080D02*
X147340000Y-93521920D01*
X148360000Y-93803080D02*
X148360000Y-93521920D01*
%TO.C,C7*%
X145540000Y-93803080D02*
X145540000Y-93521920D01*
X146560000Y-93803080D02*
X146560000Y-93521920D01*
%TO.C,C8*%
X153060000Y-104921920D02*
X153060000Y-105203080D01*
X152040000Y-104921920D02*
X152040000Y-105203080D01*
%TO.C,C4*%
X134160000Y-87621920D02*
X134160000Y-87903080D01*
X133140000Y-87621920D02*
X133140000Y-87903080D01*
%TO.C,C5*%
X155109420Y-97952500D02*
X155390580Y-97952500D01*
X155109420Y-98972500D02*
X155390580Y-98972500D01*
%TO.C,C3*%
X125460000Y-84421920D02*
X125460000Y-84703080D01*
X124440000Y-84421920D02*
X124440000Y-84703080D01*
%TO.C,J_CH2*%
X156900000Y-114512500D02*
X156900000Y-115852500D01*
X156900000Y-118572500D02*
X156900000Y-120312500D01*
X156900000Y-120312500D02*
X165200000Y-120312500D01*
X158390000Y-114512500D02*
X156900000Y-114512500D01*
X158390000Y-114512500D02*
X158390000Y-113312500D01*
X163710000Y-114512500D02*
X165200000Y-114512500D01*
X165200000Y-114512500D02*
X165200000Y-115852500D01*
X165200000Y-120312500D02*
X165200000Y-118572500D01*
%TO.C,C2*%
X155390580Y-101972500D02*
X155109420Y-101972500D01*
X155390580Y-100952500D02*
X155109420Y-100952500D01*
%TO.C,C1*%
X155390580Y-100472500D02*
X155109420Y-100472500D01*
X155390580Y-99452500D02*
X155109420Y-99452500D01*
%TO.C,R2*%
X117437500Y-85865242D02*
X117437500Y-86339758D01*
X116392500Y-85865242D02*
X116392500Y-86339758D01*
%TO.C,C6*%
X143990580Y-102672500D02*
X143709420Y-102672500D01*
X143990580Y-101652500D02*
X143709420Y-101652500D01*
%TO.C,J1*%
X123750000Y-79302500D02*
X123750000Y-77302500D01*
X123750000Y-75402500D02*
X123750000Y-73502500D01*
X123750000Y-73502500D02*
X114350000Y-73502500D01*
X114350000Y-79302500D02*
X114350000Y-77302500D01*
X114350000Y-75402500D02*
X114350000Y-73502500D01*
%TO.C,U2*%
X131410000Y-85862500D02*
X131410000Y-85062500D01*
X131410000Y-85862500D02*
X131410000Y-86662500D01*
X128290000Y-85862500D02*
X128290000Y-85062500D01*
X128290000Y-85862500D02*
X128290000Y-86662500D01*
X131690000Y-84802500D02*
X131360000Y-84562500D01*
X131690000Y-84322500D01*
X131690000Y-84802500D01*
G36*
X131690000Y-84802500D02*
G01*
X131360000Y-84562500D01*
X131690000Y-84322500D01*
X131690000Y-84802500D01*
G37*
%TO.C,R1*%
X122182500Y-85865242D02*
X122182500Y-86339758D01*
X121137500Y-85865242D02*
X121137500Y-86339758D01*
%TD*%
M02*
