%TF.GenerationSoftware,KiCad,Pcbnew,7.0.11+dfsg-1build4*%
%TF.CreationDate,2026-04-12T03:17:05+02:00*%
%TF.ProjectId,Motherboard,4d6f7468-6572-4626-9f61-72642e6b6963,v1.0*%
%TF.SameCoordinates,Original*%
%TF.FileFunction,Legend,Bot*%
%TF.FilePolarity,Positive*%
%FSLAX46Y46*%
G04 Gerber Fmt 4.6, Leading zero omitted, Abs format (unit mm)*
G04 Created by KiCad (PCBNEW 7.0.11+dfsg-1build4) date 2026-04-12 03:17:05*
%MOMM*%
%LPD*%
G01*
G04 APERTURE LIST*
%ADD10C,0.125000*%
G04 APERTURE END LIST*
D10*
X136802287Y-120004452D02*
X136885621Y-120671119D01*
X136814192Y-120099690D02*
X136760621Y-120052071D01*
X136760621Y-120052071D02*
X136659430Y-120004452D01*
X136659430Y-120004452D02*
X136516573Y-120004452D01*
X136516573Y-120004452D02*
X136427287Y-120052071D01*
X136427287Y-120052071D02*
X136391573Y-120147309D01*
X136391573Y-120147309D02*
X136457049Y-120671119D01*
X135980859Y-120671119D02*
X135897525Y-120004452D01*
X135855859Y-119671119D02*
X135909430Y-119718738D01*
X135909430Y-119718738D02*
X135867763Y-119766357D01*
X135867763Y-119766357D02*
X135814192Y-119718738D01*
X135814192Y-119718738D02*
X135855859Y-119671119D01*
X135855859Y-119671119D02*
X135867763Y-119766357D01*
X135421335Y-120004452D02*
X135504669Y-120671119D01*
X135433240Y-120099690D02*
X135379669Y-120052071D01*
X135379669Y-120052071D02*
X135278478Y-120004452D01*
X135278478Y-120004452D02*
X135135621Y-120004452D01*
X135135621Y-120004452D02*
X135046335Y-120052071D01*
X135046335Y-120052071D02*
X135010621Y-120147309D01*
X135010621Y-120147309D02*
X135076097Y-120671119D01*
X135439192Y-119766357D02*
X135385621Y-119718738D01*
X135385621Y-119718738D02*
X135284431Y-119671119D01*
X135284431Y-119671119D02*
X135105859Y-119766357D01*
X135105859Y-119766357D02*
X135004669Y-119718738D01*
X135004669Y-119718738D02*
X134951097Y-119671119D01*
X134457050Y-120671119D02*
X134546335Y-120623500D01*
X134546335Y-120623500D02*
X134588002Y-120575880D01*
X134588002Y-120575880D02*
X134623716Y-120480642D01*
X134623716Y-120480642D02*
X134588002Y-120194928D01*
X134588002Y-120194928D02*
X134528478Y-120099690D01*
X134528478Y-120099690D02*
X134474907Y-120052071D01*
X134474907Y-120052071D02*
X134373716Y-120004452D01*
X134373716Y-120004452D02*
X134230859Y-120004452D01*
X134230859Y-120004452D02*
X134141573Y-120052071D01*
X134141573Y-120052071D02*
X134099907Y-120099690D01*
X134099907Y-120099690D02*
X134064192Y-120194928D01*
X134064192Y-120194928D02*
X134099907Y-120480642D01*
X134099907Y-120480642D02*
X134159430Y-120575880D01*
X134159430Y-120575880D02*
X134213002Y-120623500D01*
X134213002Y-120623500D02*
X134314192Y-120671119D01*
X134314192Y-120671119D02*
X134457050Y-120671119D01*
X133736811Y-120623500D02*
X133647526Y-120671119D01*
X133647526Y-120671119D02*
X133457049Y-120671119D01*
X133457049Y-120671119D02*
X133355859Y-120623500D01*
X133355859Y-120623500D02*
X133296335Y-120528261D01*
X133296335Y-120528261D02*
X133290383Y-120480642D01*
X133290383Y-120480642D02*
X133326097Y-120385404D01*
X133326097Y-120385404D02*
X133415383Y-120337785D01*
X133415383Y-120337785D02*
X133558240Y-120337785D01*
X133558240Y-120337785D02*
X133647526Y-120290166D01*
X133647526Y-120290166D02*
X133683240Y-120194928D01*
X133683240Y-120194928D02*
X133677288Y-120147309D01*
X133677288Y-120147309D02*
X133617764Y-120052071D01*
X133617764Y-120052071D02*
X133516573Y-120004452D01*
X133516573Y-120004452D02*
X133373716Y-120004452D01*
X133373716Y-120004452D02*
X133284430Y-120052071D01*
X131689192Y-120623500D02*
X131790382Y-120671119D01*
X131790382Y-120671119D02*
X131980859Y-120671119D01*
X131980859Y-120671119D02*
X132070144Y-120623500D01*
X132070144Y-120623500D02*
X132111811Y-120575880D01*
X132111811Y-120575880D02*
X132147525Y-120480642D01*
X132147525Y-120480642D02*
X132111811Y-120194928D01*
X132111811Y-120194928D02*
X132052287Y-120099690D01*
X132052287Y-120099690D02*
X131998716Y-120052071D01*
X131998716Y-120052071D02*
X131897525Y-120004452D01*
X131897525Y-120004452D02*
X131707049Y-120004452D01*
X131707049Y-120004452D02*
X131617763Y-120052071D01*
X131123716Y-120671119D02*
X131213001Y-120623500D01*
X131213001Y-120623500D02*
X131254668Y-120575880D01*
X131254668Y-120575880D02*
X131290382Y-120480642D01*
X131290382Y-120480642D02*
X131254668Y-120194928D01*
X131254668Y-120194928D02*
X131195144Y-120099690D01*
X131195144Y-120099690D02*
X131141573Y-120052071D01*
X131141573Y-120052071D02*
X131040382Y-120004452D01*
X131040382Y-120004452D02*
X130897525Y-120004452D01*
X130897525Y-120004452D02*
X130808239Y-120052071D01*
X130808239Y-120052071D02*
X130766573Y-120099690D01*
X130766573Y-120099690D02*
X130730858Y-120194928D01*
X130730858Y-120194928D02*
X130766573Y-120480642D01*
X130766573Y-120480642D02*
X130826096Y-120575880D01*
X130826096Y-120575880D02*
X130879668Y-120623500D01*
X130879668Y-120623500D02*
X130980858Y-120671119D01*
X130980858Y-120671119D02*
X131123716Y-120671119D01*
X130278477Y-120004452D02*
X130361811Y-120671119D01*
X130290382Y-120099690D02*
X130236811Y-120052071D01*
X130236811Y-120052071D02*
X130135620Y-120004452D01*
X130135620Y-120004452D02*
X129992763Y-120004452D01*
X129992763Y-120004452D02*
X129903477Y-120052071D01*
X129903477Y-120052071D02*
X129867763Y-120147309D01*
X129867763Y-120147309D02*
X129933239Y-120671119D01*
X128552287Y-120671119D02*
X128641572Y-120623500D01*
X128641572Y-120623500D02*
X128677287Y-120528261D01*
X128677287Y-120528261D02*
X128570144Y-119671119D01*
X128028477Y-120671119D02*
X128117762Y-120623500D01*
X128117762Y-120623500D02*
X128159429Y-120575880D01*
X128159429Y-120575880D02*
X128195143Y-120480642D01*
X128195143Y-120480642D02*
X128159429Y-120194928D01*
X128159429Y-120194928D02*
X128099905Y-120099690D01*
X128099905Y-120099690D02*
X128046334Y-120052071D01*
X128046334Y-120052071D02*
X127945143Y-120004452D01*
X127945143Y-120004452D02*
X127802286Y-120004452D01*
X127802286Y-120004452D02*
X127713000Y-120052071D01*
X127713000Y-120052071D02*
X127671334Y-120099690D01*
X127671334Y-120099690D02*
X127635619Y-120194928D01*
X127635619Y-120194928D02*
X127671334Y-120480642D01*
X127671334Y-120480642D02*
X127730857Y-120575880D01*
X127730857Y-120575880D02*
X127784429Y-120623500D01*
X127784429Y-120623500D02*
X127885619Y-120671119D01*
X127885619Y-120671119D02*
X128028477Y-120671119D01*
X127308238Y-120623500D02*
X127218953Y-120671119D01*
X127218953Y-120671119D02*
X127028476Y-120671119D01*
X127028476Y-120671119D02*
X126927286Y-120623500D01*
X126927286Y-120623500D02*
X126867762Y-120528261D01*
X126867762Y-120528261D02*
X126861810Y-120480642D01*
X126861810Y-120480642D02*
X126897524Y-120385404D01*
X126897524Y-120385404D02*
X126986810Y-120337785D01*
X126986810Y-120337785D02*
X127129667Y-120337785D01*
X127129667Y-120337785D02*
X127218953Y-120290166D01*
X127218953Y-120290166D02*
X127254667Y-120194928D01*
X127254667Y-120194928D02*
X127248715Y-120147309D01*
X127248715Y-120147309D02*
X127189191Y-120052071D01*
X127189191Y-120052071D02*
X127088000Y-120004452D01*
X127088000Y-120004452D02*
X126945143Y-120004452D01*
X126945143Y-120004452D02*
X126855857Y-120052071D01*
X125736809Y-120623500D02*
X125647524Y-120671119D01*
X125647524Y-120671119D02*
X125457047Y-120671119D01*
X125457047Y-120671119D02*
X125355857Y-120623500D01*
X125355857Y-120623500D02*
X125296333Y-120528261D01*
X125296333Y-120528261D02*
X125290381Y-120480642D01*
X125290381Y-120480642D02*
X125326095Y-120385404D01*
X125326095Y-120385404D02*
X125415381Y-120337785D01*
X125415381Y-120337785D02*
X125558238Y-120337785D01*
X125558238Y-120337785D02*
X125647524Y-120290166D01*
X125647524Y-120290166D02*
X125683238Y-120194928D01*
X125683238Y-120194928D02*
X125677286Y-120147309D01*
X125677286Y-120147309D02*
X125617762Y-120052071D01*
X125617762Y-120052071D02*
X125516571Y-120004452D01*
X125516571Y-120004452D02*
X125373714Y-120004452D01*
X125373714Y-120004452D02*
X125284428Y-120052071D01*
X124373714Y-120004452D02*
X124457047Y-120671119D01*
X124802285Y-120004452D02*
X124867762Y-120528261D01*
X124867762Y-120528261D02*
X124832047Y-120623500D01*
X124832047Y-120623500D02*
X124742762Y-120671119D01*
X124742762Y-120671119D02*
X124599904Y-120671119D01*
X124599904Y-120671119D02*
X124498714Y-120623500D01*
X124498714Y-120623500D02*
X124445142Y-120575880D01*
X123593952Y-120623500D02*
X123695142Y-120671119D01*
X123695142Y-120671119D02*
X123885619Y-120671119D01*
X123885619Y-120671119D02*
X123974904Y-120623500D01*
X123974904Y-120623500D02*
X124010619Y-120528261D01*
X124010619Y-120528261D02*
X123963000Y-120147309D01*
X123963000Y-120147309D02*
X123903476Y-120052071D01*
X123903476Y-120052071D02*
X123802285Y-120004452D01*
X123802285Y-120004452D02*
X123611809Y-120004452D01*
X123611809Y-120004452D02*
X123522523Y-120052071D01*
X123522523Y-120052071D02*
X123486809Y-120147309D01*
X123486809Y-120147309D02*
X123498714Y-120242547D01*
X123498714Y-120242547D02*
X123986809Y-120337785D01*
X123040380Y-120004452D02*
X123123714Y-120671119D01*
X123052285Y-120099690D02*
X122998714Y-120052071D01*
X122998714Y-120052071D02*
X122897523Y-120004452D01*
X122897523Y-120004452D02*
X122754666Y-120004452D01*
X122754666Y-120004452D02*
X122665380Y-120052071D01*
X122665380Y-120052071D02*
X122629666Y-120147309D01*
X122629666Y-120147309D02*
X122695142Y-120671119D01*
X123058237Y-119766357D02*
X123004666Y-119718738D01*
X123004666Y-119718738D02*
X122903476Y-119671119D01*
X122903476Y-119671119D02*
X122724904Y-119766357D01*
X122724904Y-119766357D02*
X122623714Y-119718738D01*
X122623714Y-119718738D02*
X122570142Y-119671119D01*
X122076095Y-120671119D02*
X122165380Y-120623500D01*
X122165380Y-120623500D02*
X122207047Y-120575880D01*
X122207047Y-120575880D02*
X122242761Y-120480642D01*
X122242761Y-120480642D02*
X122207047Y-120194928D01*
X122207047Y-120194928D02*
X122147523Y-120099690D01*
X122147523Y-120099690D02*
X122093952Y-120052071D01*
X122093952Y-120052071D02*
X121992761Y-120004452D01*
X121992761Y-120004452D02*
X121849904Y-120004452D01*
X121849904Y-120004452D02*
X121760618Y-120052071D01*
X121760618Y-120052071D02*
X121718952Y-120099690D01*
X121718952Y-120099690D02*
X121683237Y-120194928D01*
X121683237Y-120194928D02*
X121718952Y-120480642D01*
X121718952Y-120480642D02*
X121778475Y-120575880D01*
X121778475Y-120575880D02*
X121832047Y-120623500D01*
X121832047Y-120623500D02*
X121933237Y-120671119D01*
X121933237Y-120671119D02*
X122076095Y-120671119D01*
X121355856Y-120623500D02*
X121266571Y-120671119D01*
X121266571Y-120671119D02*
X121076094Y-120671119D01*
X121076094Y-120671119D02*
X120974904Y-120623500D01*
X120974904Y-120623500D02*
X120915380Y-120528261D01*
X120915380Y-120528261D02*
X120909428Y-120480642D01*
X120909428Y-120480642D02*
X120945142Y-120385404D01*
X120945142Y-120385404D02*
X121034428Y-120337785D01*
X121034428Y-120337785D02*
X121177285Y-120337785D01*
X121177285Y-120337785D02*
X121266571Y-120290166D01*
X121266571Y-120290166D02*
X121302285Y-120194928D01*
X121302285Y-120194928D02*
X121296333Y-120147309D01*
X121296333Y-120147309D02*
X121236809Y-120052071D01*
X121236809Y-120052071D02*
X121135618Y-120004452D01*
X121135618Y-120004452D02*
X120992761Y-120004452D01*
X120992761Y-120004452D02*
X120903475Y-120052071D01*
X119742761Y-120671119D02*
X119659427Y-120004452D01*
X119683237Y-120194928D02*
X119623713Y-120099690D01*
X119623713Y-120099690D02*
X119570142Y-120052071D01*
X119570142Y-120052071D02*
X119468951Y-120004452D01*
X119468951Y-120004452D02*
X119373713Y-120004452D01*
X118980856Y-120671119D02*
X119070141Y-120623500D01*
X119070141Y-120623500D02*
X119111808Y-120575880D01*
X119111808Y-120575880D02*
X119147522Y-120480642D01*
X119147522Y-120480642D02*
X119111808Y-120194928D01*
X119111808Y-120194928D02*
X119052284Y-120099690D01*
X119052284Y-120099690D02*
X118998713Y-120052071D01*
X118998713Y-120052071D02*
X118897522Y-120004452D01*
X118897522Y-120004452D02*
X118754665Y-120004452D01*
X118754665Y-120004452D02*
X118665379Y-120052071D01*
X118665379Y-120052071D02*
X118623713Y-120099690D01*
X118623713Y-120099690D02*
X118587998Y-120194928D01*
X118587998Y-120194928D02*
X118623713Y-120480642D01*
X118623713Y-120480642D02*
X118683236Y-120575880D01*
X118683236Y-120575880D02*
X118736808Y-120623500D01*
X118736808Y-120623500D02*
X118837998Y-120671119D01*
X118837998Y-120671119D02*
X118980856Y-120671119D01*
X118278474Y-120004452D02*
X117897522Y-120004452D01*
X118093951Y-119671119D02*
X118201094Y-120528261D01*
X118201094Y-120528261D02*
X118165379Y-120623500D01*
X118165379Y-120623500D02*
X118076094Y-120671119D01*
X118076094Y-120671119D02*
X117980855Y-120671119D01*
X117504665Y-120671119D02*
X117593950Y-120623500D01*
X117593950Y-120623500D02*
X117635617Y-120575880D01*
X117635617Y-120575880D02*
X117671331Y-120480642D01*
X117671331Y-120480642D02*
X117635617Y-120194928D01*
X117635617Y-120194928D02*
X117576093Y-120099690D01*
X117576093Y-120099690D02*
X117522522Y-120052071D01*
X117522522Y-120052071D02*
X117421331Y-120004452D01*
X117421331Y-120004452D02*
X117278474Y-120004452D01*
X117278474Y-120004452D02*
X117189188Y-120052071D01*
X117189188Y-120052071D02*
X117147522Y-120099690D01*
X117147522Y-120099690D02*
X117111807Y-120194928D01*
X117111807Y-120194928D02*
X117147522Y-120480642D01*
X117147522Y-120480642D02*
X117207045Y-120575880D01*
X117207045Y-120575880D02*
X117260617Y-120623500D01*
X117260617Y-120623500D02*
X117361807Y-120671119D01*
X117361807Y-120671119D02*
X117504665Y-120671119D01*
X116784426Y-120623500D02*
X116695141Y-120671119D01*
X116695141Y-120671119D02*
X116504664Y-120671119D01*
X116504664Y-120671119D02*
X116403474Y-120623500D01*
X116403474Y-120623500D02*
X116343950Y-120528261D01*
X116343950Y-120528261D02*
X116337998Y-120480642D01*
X116337998Y-120480642D02*
X116373712Y-120385404D01*
X116373712Y-120385404D02*
X116462998Y-120337785D01*
X116462998Y-120337785D02*
X116605855Y-120337785D01*
X116605855Y-120337785D02*
X116695141Y-120290166D01*
X116695141Y-120290166D02*
X116730855Y-120194928D01*
X116730855Y-120194928D02*
X116724903Y-120147309D01*
X116724903Y-120147309D02*
X116665379Y-120052071D01*
X116665379Y-120052071D02*
X116564188Y-120004452D01*
X116564188Y-120004452D02*
X116421331Y-120004452D01*
X116421331Y-120004452D02*
X116332045Y-120052071D01*
M02*
