%TF.GenerationSoftware,KiCad,Pcbnew,7.0.11+dfsg-1build4*%
%TF.CreationDate,2026-04-16T21:05:03+02:00*%
%TF.ProjectId,Motherboard,4d6f7468-6572-4626-9f61-72642e6b6963,v1.0*%
%TF.SameCoordinates,Original*%
%TF.FileFunction,Legend,Top*%
%TF.FilePolarity,Positive*%
%FSLAX46Y46*%
G04 Gerber Fmt 4.6, Leading zero omitted, Abs format (unit mm)*
G04 Created by KiCad (PCBNEW 7.0.11+dfsg-1build4) date 2026-04-16 21:05:03*
%MOMM*%
%LPD*%
G01*
G04 APERTURE LIST*
%ADD10C,0.150000*%
%ADD11C,0.125000*%
%ADD12C,0.120000*%
G04 APERTURE END LIST*
D10*
X161848207Y-80009819D02*
X161514874Y-79533628D01*
X161276779Y-80009819D02*
X161276779Y-79009819D01*
X161276779Y-79009819D02*
X161657731Y-79009819D01*
X161657731Y-79009819D02*
X161752969Y-79057438D01*
X161752969Y-79057438D02*
X161800588Y-79105057D01*
X161800588Y-79105057D02*
X161848207Y-79200295D01*
X161848207Y-79200295D02*
X161848207Y-79343152D01*
X161848207Y-79343152D02*
X161800588Y-79438390D01*
X161800588Y-79438390D02*
X161752969Y-79486009D01*
X161752969Y-79486009D02*
X161657731Y-79533628D01*
X161657731Y-79533628D02*
X161276779Y-79533628D01*
X162419636Y-80009819D02*
X162324398Y-79962200D01*
X162324398Y-79962200D02*
X162276779Y-79914580D01*
X162276779Y-79914580D02*
X162229160Y-79819342D01*
X162229160Y-79819342D02*
X162229160Y-79533628D01*
X162229160Y-79533628D02*
X162276779Y-79438390D01*
X162276779Y-79438390D02*
X162324398Y-79390771D01*
X162324398Y-79390771D02*
X162419636Y-79343152D01*
X162419636Y-79343152D02*
X162562493Y-79343152D01*
X162562493Y-79343152D02*
X162657731Y-79390771D01*
X162657731Y-79390771D02*
X162705350Y-79438390D01*
X162705350Y-79438390D02*
X162752969Y-79533628D01*
X162752969Y-79533628D02*
X162752969Y-79819342D01*
X162752969Y-79819342D02*
X162705350Y-79914580D01*
X162705350Y-79914580D02*
X162657731Y-79962200D01*
X162657731Y-79962200D02*
X162562493Y-80009819D01*
X162562493Y-80009819D02*
X162419636Y-80009819D01*
X163324398Y-80009819D02*
X163229160Y-79962200D01*
X163229160Y-79962200D02*
X163181541Y-79914580D01*
X163181541Y-79914580D02*
X163133922Y-79819342D01*
X163133922Y-79819342D02*
X163133922Y-79533628D01*
X163133922Y-79533628D02*
X163181541Y-79438390D01*
X163181541Y-79438390D02*
X163229160Y-79390771D01*
X163229160Y-79390771D02*
X163324398Y-79343152D01*
X163324398Y-79343152D02*
X163467255Y-79343152D01*
X163467255Y-79343152D02*
X163562493Y-79390771D01*
X163562493Y-79390771D02*
X163610112Y-79438390D01*
X163610112Y-79438390D02*
X163657731Y-79533628D01*
X163657731Y-79533628D02*
X163657731Y-79819342D01*
X163657731Y-79819342D02*
X163610112Y-79914580D01*
X163610112Y-79914580D02*
X163562493Y-79962200D01*
X163562493Y-79962200D02*
X163467255Y-80009819D01*
X163467255Y-80009819D02*
X163324398Y-80009819D01*
X163943446Y-79343152D02*
X164324398Y-79343152D01*
X164086303Y-79009819D02*
X164086303Y-79866961D01*
X164086303Y-79866961D02*
X164133922Y-79962200D01*
X164133922Y-79962200D02*
X164229160Y-80009819D01*
X164229160Y-80009819D02*
X164324398Y-80009819D01*
X164657732Y-80009819D02*
X164657732Y-79009819D01*
X164657732Y-79009819D02*
X164991065Y-79724104D01*
X164991065Y-79724104D02*
X165324398Y-79009819D01*
X165324398Y-79009819D02*
X165324398Y-80009819D01*
X165800589Y-80009819D02*
X165800589Y-79343152D01*
X165800589Y-79009819D02*
X165752970Y-79057438D01*
X165752970Y-79057438D02*
X165800589Y-79105057D01*
X165800589Y-79105057D02*
X165848208Y-79057438D01*
X165848208Y-79057438D02*
X165800589Y-79009819D01*
X165800589Y-79009819D02*
X165800589Y-79105057D01*
X166181541Y-80009819D02*
X166705350Y-79343152D01*
X166181541Y-79343152D02*
X166705350Y-80009819D01*
X167467255Y-79962200D02*
X167372017Y-80009819D01*
X167372017Y-80009819D02*
X167181541Y-80009819D01*
X167181541Y-80009819D02*
X167086303Y-79962200D01*
X167086303Y-79962200D02*
X167038684Y-79866961D01*
X167038684Y-79866961D02*
X167038684Y-79486009D01*
X167038684Y-79486009D02*
X167086303Y-79390771D01*
X167086303Y-79390771D02*
X167181541Y-79343152D01*
X167181541Y-79343152D02*
X167372017Y-79343152D01*
X167372017Y-79343152D02*
X167467255Y-79390771D01*
X167467255Y-79390771D02*
X167514874Y-79486009D01*
X167514874Y-79486009D02*
X167514874Y-79581247D01*
X167514874Y-79581247D02*
X167038684Y-79676485D01*
X167943446Y-80009819D02*
X167943446Y-79343152D01*
X167943446Y-79533628D02*
X167991065Y-79438390D01*
X167991065Y-79438390D02*
X168038684Y-79390771D01*
X168038684Y-79390771D02*
X168133922Y-79343152D01*
X168133922Y-79343152D02*
X168229160Y-79343152D01*
X169324399Y-80009819D02*
X169324399Y-79009819D01*
X169324399Y-79009819D02*
X169657732Y-79724104D01*
X169657732Y-79724104D02*
X169991065Y-79009819D01*
X169991065Y-79009819D02*
X169991065Y-80009819D01*
X170610113Y-80009819D02*
X170514875Y-79962200D01*
X170514875Y-79962200D02*
X170467256Y-79914580D01*
X170467256Y-79914580D02*
X170419637Y-79819342D01*
X170419637Y-79819342D02*
X170419637Y-79533628D01*
X170419637Y-79533628D02*
X170467256Y-79438390D01*
X170467256Y-79438390D02*
X170514875Y-79390771D01*
X170514875Y-79390771D02*
X170610113Y-79343152D01*
X170610113Y-79343152D02*
X170752970Y-79343152D01*
X170752970Y-79343152D02*
X170848208Y-79390771D01*
X170848208Y-79390771D02*
X170895827Y-79438390D01*
X170895827Y-79438390D02*
X170943446Y-79533628D01*
X170943446Y-79533628D02*
X170943446Y-79819342D01*
X170943446Y-79819342D02*
X170895827Y-79914580D01*
X170895827Y-79914580D02*
X170848208Y-79962200D01*
X170848208Y-79962200D02*
X170752970Y-80009819D01*
X170752970Y-80009819D02*
X170610113Y-80009819D01*
X171229161Y-79343152D02*
X171610113Y-79343152D01*
X171372018Y-79009819D02*
X171372018Y-79866961D01*
X171372018Y-79866961D02*
X171419637Y-79962200D01*
X171419637Y-79962200D02*
X171514875Y-80009819D01*
X171514875Y-80009819D02*
X171610113Y-80009819D01*
X171943447Y-80009819D02*
X171943447Y-79009819D01*
X172372018Y-80009819D02*
X172372018Y-79486009D01*
X172372018Y-79486009D02*
X172324399Y-79390771D01*
X172324399Y-79390771D02*
X172229161Y-79343152D01*
X172229161Y-79343152D02*
X172086304Y-79343152D01*
X172086304Y-79343152D02*
X171991066Y-79390771D01*
X171991066Y-79390771D02*
X171943447Y-79438390D01*
X173229161Y-79962200D02*
X173133923Y-80009819D01*
X173133923Y-80009819D02*
X172943447Y-80009819D01*
X172943447Y-80009819D02*
X172848209Y-79962200D01*
X172848209Y-79962200D02*
X172800590Y-79866961D01*
X172800590Y-79866961D02*
X172800590Y-79486009D01*
X172800590Y-79486009D02*
X172848209Y-79390771D01*
X172848209Y-79390771D02*
X172943447Y-79343152D01*
X172943447Y-79343152D02*
X173133923Y-79343152D01*
X173133923Y-79343152D02*
X173229161Y-79390771D01*
X173229161Y-79390771D02*
X173276780Y-79486009D01*
X173276780Y-79486009D02*
X173276780Y-79581247D01*
X173276780Y-79581247D02*
X172800590Y-79676485D01*
X173705352Y-80009819D02*
X173705352Y-79343152D01*
X173705352Y-79533628D02*
X173752971Y-79438390D01*
X173752971Y-79438390D02*
X173800590Y-79390771D01*
X173800590Y-79390771D02*
X173895828Y-79343152D01*
X173895828Y-79343152D02*
X173991066Y-79343152D01*
X174324400Y-80009819D02*
X174324400Y-79009819D01*
X174324400Y-79390771D02*
X174419638Y-79343152D01*
X174419638Y-79343152D02*
X174610114Y-79343152D01*
X174610114Y-79343152D02*
X174705352Y-79390771D01*
X174705352Y-79390771D02*
X174752971Y-79438390D01*
X174752971Y-79438390D02*
X174800590Y-79533628D01*
X174800590Y-79533628D02*
X174800590Y-79819342D01*
X174800590Y-79819342D02*
X174752971Y-79914580D01*
X174752971Y-79914580D02*
X174705352Y-79962200D01*
X174705352Y-79962200D02*
X174610114Y-80009819D01*
X174610114Y-80009819D02*
X174419638Y-80009819D01*
X174419638Y-80009819D02*
X174324400Y-79962200D01*
X175372019Y-80009819D02*
X175276781Y-79962200D01*
X175276781Y-79962200D02*
X175229162Y-79914580D01*
X175229162Y-79914580D02*
X175181543Y-79819342D01*
X175181543Y-79819342D02*
X175181543Y-79533628D01*
X175181543Y-79533628D02*
X175229162Y-79438390D01*
X175229162Y-79438390D02*
X175276781Y-79390771D01*
X175276781Y-79390771D02*
X175372019Y-79343152D01*
X175372019Y-79343152D02*
X175514876Y-79343152D01*
X175514876Y-79343152D02*
X175610114Y-79390771D01*
X175610114Y-79390771D02*
X175657733Y-79438390D01*
X175657733Y-79438390D02*
X175705352Y-79533628D01*
X175705352Y-79533628D02*
X175705352Y-79819342D01*
X175705352Y-79819342D02*
X175657733Y-79914580D01*
X175657733Y-79914580D02*
X175610114Y-79962200D01*
X175610114Y-79962200D02*
X175514876Y-80009819D01*
X175514876Y-80009819D02*
X175372019Y-80009819D01*
X176562495Y-80009819D02*
X176562495Y-79486009D01*
X176562495Y-79486009D02*
X176514876Y-79390771D01*
X176514876Y-79390771D02*
X176419638Y-79343152D01*
X176419638Y-79343152D02*
X176229162Y-79343152D01*
X176229162Y-79343152D02*
X176133924Y-79390771D01*
X176562495Y-79962200D02*
X176467257Y-80009819D01*
X176467257Y-80009819D02*
X176229162Y-80009819D01*
X176229162Y-80009819D02*
X176133924Y-79962200D01*
X176133924Y-79962200D02*
X176086305Y-79866961D01*
X176086305Y-79866961D02*
X176086305Y-79771723D01*
X176086305Y-79771723D02*
X176133924Y-79676485D01*
X176133924Y-79676485D02*
X176229162Y-79628866D01*
X176229162Y-79628866D02*
X176467257Y-79628866D01*
X176467257Y-79628866D02*
X176562495Y-79581247D01*
X177038686Y-80009819D02*
X177038686Y-79343152D01*
X177038686Y-79533628D02*
X177086305Y-79438390D01*
X177086305Y-79438390D02*
X177133924Y-79390771D01*
X177133924Y-79390771D02*
X177229162Y-79343152D01*
X177229162Y-79343152D02*
X177324400Y-79343152D01*
X178086305Y-80009819D02*
X178086305Y-79009819D01*
X178086305Y-79962200D02*
X177991067Y-80009819D01*
X177991067Y-80009819D02*
X177800591Y-80009819D01*
X177800591Y-80009819D02*
X177705353Y-79962200D01*
X177705353Y-79962200D02*
X177657734Y-79914580D01*
X177657734Y-79914580D02*
X177610115Y-79819342D01*
X177610115Y-79819342D02*
X177610115Y-79533628D01*
X177610115Y-79533628D02*
X177657734Y-79438390D01*
X177657734Y-79438390D02*
X177705353Y-79390771D01*
X177705353Y-79390771D02*
X177800591Y-79343152D01*
X177800591Y-79343152D02*
X177991067Y-79343152D01*
X177991067Y-79343152D02*
X178086305Y-79390771D01*
X179229163Y-79343152D02*
X179467258Y-80009819D01*
X179467258Y-80009819D02*
X179705353Y-79343152D01*
X180610115Y-80009819D02*
X180038687Y-80009819D01*
X180324401Y-80009819D02*
X180324401Y-79009819D01*
X180324401Y-79009819D02*
X180229163Y-79152676D01*
X180229163Y-79152676D02*
X180133925Y-79247914D01*
X180133925Y-79247914D02*
X180038687Y-79295533D01*
X181038687Y-79914580D02*
X181086306Y-79962200D01*
X181086306Y-79962200D02*
X181038687Y-80009819D01*
X181038687Y-80009819D02*
X180991068Y-79962200D01*
X180991068Y-79962200D02*
X181038687Y-79914580D01*
X181038687Y-79914580D02*
X181038687Y-80009819D01*
X181705353Y-79009819D02*
X181800591Y-79009819D01*
X181800591Y-79009819D02*
X181895829Y-79057438D01*
X181895829Y-79057438D02*
X181943448Y-79105057D01*
X181943448Y-79105057D02*
X181991067Y-79200295D01*
X181991067Y-79200295D02*
X182038686Y-79390771D01*
X182038686Y-79390771D02*
X182038686Y-79628866D01*
X182038686Y-79628866D02*
X181991067Y-79819342D01*
X181991067Y-79819342D02*
X181943448Y-79914580D01*
X181943448Y-79914580D02*
X181895829Y-79962200D01*
X181895829Y-79962200D02*
X181800591Y-80009819D01*
X181800591Y-80009819D02*
X181705353Y-80009819D01*
X181705353Y-80009819D02*
X181610115Y-79962200D01*
X181610115Y-79962200D02*
X181562496Y-79914580D01*
X181562496Y-79914580D02*
X181514877Y-79819342D01*
X181514877Y-79819342D02*
X181467258Y-79628866D01*
X181467258Y-79628866D02*
X181467258Y-79390771D01*
X181467258Y-79390771D02*
X181514877Y-79200295D01*
X181514877Y-79200295D02*
X181562496Y-79105057D01*
X181562496Y-79105057D02*
X181610115Y-79057438D01*
X181610115Y-79057438D02*
X181705353Y-79009819D01*
X126311904Y-111567319D02*
X126311904Y-112281604D01*
X126311904Y-112281604D02*
X126264285Y-112424461D01*
X126264285Y-112424461D02*
X126169047Y-112519700D01*
X126169047Y-112519700D02*
X126026190Y-112567319D01*
X126026190Y-112567319D02*
X125930952Y-112567319D01*
X126550000Y-112662557D02*
X127311904Y-112662557D01*
X128121428Y-112472080D02*
X128073809Y-112519700D01*
X128073809Y-112519700D02*
X127930952Y-112567319D01*
X127930952Y-112567319D02*
X127835714Y-112567319D01*
X127835714Y-112567319D02*
X127692857Y-112519700D01*
X127692857Y-112519700D02*
X127597619Y-112424461D01*
X127597619Y-112424461D02*
X127550000Y-112329223D01*
X127550000Y-112329223D02*
X127502381Y-112138747D01*
X127502381Y-112138747D02*
X127502381Y-111995890D01*
X127502381Y-111995890D02*
X127550000Y-111805414D01*
X127550000Y-111805414D02*
X127597619Y-111710176D01*
X127597619Y-111710176D02*
X127692857Y-111614938D01*
X127692857Y-111614938D02*
X127835714Y-111567319D01*
X127835714Y-111567319D02*
X127930952Y-111567319D01*
X127930952Y-111567319D02*
X128073809Y-111614938D01*
X128073809Y-111614938D02*
X128121428Y-111662557D01*
X128550000Y-112567319D02*
X128550000Y-111567319D01*
X128550000Y-112043509D02*
X129121428Y-112043509D01*
X129121428Y-112567319D02*
X129121428Y-111567319D01*
X130026190Y-111900652D02*
X130026190Y-112567319D01*
X129788095Y-111519700D02*
X129550000Y-112233985D01*
X129550000Y-112233985D02*
X130169047Y-112233985D01*
X148383333Y-106617319D02*
X148050000Y-106141128D01*
X147811905Y-106617319D02*
X147811905Y-105617319D01*
X147811905Y-105617319D02*
X148192857Y-105617319D01*
X148192857Y-105617319D02*
X148288095Y-105664938D01*
X148288095Y-105664938D02*
X148335714Y-105712557D01*
X148335714Y-105712557D02*
X148383333Y-105807795D01*
X148383333Y-105807795D02*
X148383333Y-105950652D01*
X148383333Y-105950652D02*
X148335714Y-106045890D01*
X148335714Y-106045890D02*
X148288095Y-106093509D01*
X148288095Y-106093509D02*
X148192857Y-106141128D01*
X148192857Y-106141128D02*
X147811905Y-106141128D01*
X148716667Y-105617319D02*
X149335714Y-105617319D01*
X149335714Y-105617319D02*
X149002381Y-105998271D01*
X149002381Y-105998271D02*
X149145238Y-105998271D01*
X149145238Y-105998271D02*
X149240476Y-106045890D01*
X149240476Y-106045890D02*
X149288095Y-106093509D01*
X149288095Y-106093509D02*
X149335714Y-106188747D01*
X149335714Y-106188747D02*
X149335714Y-106426842D01*
X149335714Y-106426842D02*
X149288095Y-106522080D01*
X149288095Y-106522080D02*
X149240476Y-106569700D01*
X149240476Y-106569700D02*
X149145238Y-106617319D01*
X149145238Y-106617319D02*
X148859524Y-106617319D01*
X148859524Y-106617319D02*
X148764286Y-106569700D01*
X148764286Y-106569700D02*
X148716667Y-106522080D01*
X142211904Y-111567319D02*
X142211904Y-112281604D01*
X142211904Y-112281604D02*
X142164285Y-112424461D01*
X142164285Y-112424461D02*
X142069047Y-112519700D01*
X142069047Y-112519700D02*
X141926190Y-112567319D01*
X141926190Y-112567319D02*
X141830952Y-112567319D01*
X142450000Y-112662557D02*
X143211904Y-112662557D01*
X144021428Y-112472080D02*
X143973809Y-112519700D01*
X143973809Y-112519700D02*
X143830952Y-112567319D01*
X143830952Y-112567319D02*
X143735714Y-112567319D01*
X143735714Y-112567319D02*
X143592857Y-112519700D01*
X143592857Y-112519700D02*
X143497619Y-112424461D01*
X143497619Y-112424461D02*
X143450000Y-112329223D01*
X143450000Y-112329223D02*
X143402381Y-112138747D01*
X143402381Y-112138747D02*
X143402381Y-111995890D01*
X143402381Y-111995890D02*
X143450000Y-111805414D01*
X143450000Y-111805414D02*
X143497619Y-111710176D01*
X143497619Y-111710176D02*
X143592857Y-111614938D01*
X143592857Y-111614938D02*
X143735714Y-111567319D01*
X143735714Y-111567319D02*
X143830952Y-111567319D01*
X143830952Y-111567319D02*
X143973809Y-111614938D01*
X143973809Y-111614938D02*
X144021428Y-111662557D01*
X144450000Y-112567319D02*
X144450000Y-111567319D01*
X144450000Y-112043509D02*
X145021428Y-112043509D01*
X145021428Y-112567319D02*
X145021428Y-111567319D01*
X145402381Y-111567319D02*
X146021428Y-111567319D01*
X146021428Y-111567319D02*
X145688095Y-111948271D01*
X145688095Y-111948271D02*
X145830952Y-111948271D01*
X145830952Y-111948271D02*
X145926190Y-111995890D01*
X145926190Y-111995890D02*
X145973809Y-112043509D01*
X145973809Y-112043509D02*
X146021428Y-112138747D01*
X146021428Y-112138747D02*
X146021428Y-112376842D01*
X146021428Y-112376842D02*
X145973809Y-112472080D01*
X145973809Y-112472080D02*
X145926190Y-112519700D01*
X145926190Y-112519700D02*
X145830952Y-112567319D01*
X145830952Y-112567319D02*
X145545238Y-112567319D01*
X145545238Y-112567319D02*
X145450000Y-112519700D01*
X145450000Y-112519700D02*
X145402381Y-112472080D01*
X132756666Y-106927319D02*
X132756666Y-107641604D01*
X132756666Y-107641604D02*
X132709047Y-107784461D01*
X132709047Y-107784461D02*
X132613809Y-107879700D01*
X132613809Y-107879700D02*
X132470952Y-107927319D01*
X132470952Y-107927319D02*
X132375714Y-107927319D01*
X133185238Y-107022557D02*
X133232857Y-106974938D01*
X133232857Y-106974938D02*
X133328095Y-106927319D01*
X133328095Y-106927319D02*
X133566190Y-106927319D01*
X133566190Y-106927319D02*
X133661428Y-106974938D01*
X133661428Y-106974938D02*
X133709047Y-107022557D01*
X133709047Y-107022557D02*
X133756666Y-107117795D01*
X133756666Y-107117795D02*
X133756666Y-107213033D01*
X133756666Y-107213033D02*
X133709047Y-107355890D01*
X133709047Y-107355890D02*
X133137619Y-107927319D01*
X133137619Y-107927319D02*
X133756666Y-107927319D01*
X149938095Y-94154819D02*
X149938095Y-94964342D01*
X149938095Y-94964342D02*
X149985714Y-95059580D01*
X149985714Y-95059580D02*
X150033333Y-95107200D01*
X150033333Y-95107200D02*
X150128571Y-95154819D01*
X150128571Y-95154819D02*
X150319047Y-95154819D01*
X150319047Y-95154819D02*
X150414285Y-95107200D01*
X150414285Y-95107200D02*
X150461904Y-95059580D01*
X150461904Y-95059580D02*
X150509523Y-94964342D01*
X150509523Y-94964342D02*
X150509523Y-94154819D01*
X151509523Y-95154819D02*
X150938095Y-95154819D01*
X151223809Y-95154819D02*
X151223809Y-94154819D01*
X151223809Y-94154819D02*
X151128571Y-94297676D01*
X151128571Y-94297676D02*
X151033333Y-94392914D01*
X151033333Y-94392914D02*
X150938095Y-94440533D01*
X175311904Y-111567319D02*
X175311904Y-112281604D01*
X175311904Y-112281604D02*
X175264285Y-112424461D01*
X175264285Y-112424461D02*
X175169047Y-112519700D01*
X175169047Y-112519700D02*
X175026190Y-112567319D01*
X175026190Y-112567319D02*
X174930952Y-112567319D01*
X175550000Y-112662557D02*
X176311904Y-112662557D01*
X177121428Y-112472080D02*
X177073809Y-112519700D01*
X177073809Y-112519700D02*
X176930952Y-112567319D01*
X176930952Y-112567319D02*
X176835714Y-112567319D01*
X176835714Y-112567319D02*
X176692857Y-112519700D01*
X176692857Y-112519700D02*
X176597619Y-112424461D01*
X176597619Y-112424461D02*
X176550000Y-112329223D01*
X176550000Y-112329223D02*
X176502381Y-112138747D01*
X176502381Y-112138747D02*
X176502381Y-111995890D01*
X176502381Y-111995890D02*
X176550000Y-111805414D01*
X176550000Y-111805414D02*
X176597619Y-111710176D01*
X176597619Y-111710176D02*
X176692857Y-111614938D01*
X176692857Y-111614938D02*
X176835714Y-111567319D01*
X176835714Y-111567319D02*
X176930952Y-111567319D01*
X176930952Y-111567319D02*
X177073809Y-111614938D01*
X177073809Y-111614938D02*
X177121428Y-111662557D01*
X177550000Y-112567319D02*
X177550000Y-111567319D01*
X177550000Y-112043509D02*
X178121428Y-112043509D01*
X178121428Y-112567319D02*
X178121428Y-111567319D01*
X179121428Y-112567319D02*
X178550000Y-112567319D01*
X178835714Y-112567319D02*
X178835714Y-111567319D01*
X178835714Y-111567319D02*
X178740476Y-111710176D01*
X178740476Y-111710176D02*
X178645238Y-111805414D01*
X178645238Y-111805414D02*
X178550000Y-111853033D01*
X159723809Y-97978628D02*
X159723809Y-98454819D01*
X159390476Y-97454819D02*
X159723809Y-97978628D01*
X159723809Y-97978628D02*
X160057142Y-97454819D01*
X160914285Y-98454819D02*
X160342857Y-98454819D01*
X160628571Y-98454819D02*
X160628571Y-97454819D01*
X160628571Y-97454819D02*
X160533333Y-97597676D01*
X160533333Y-97597676D02*
X160438095Y-97692914D01*
X160438095Y-97692914D02*
X160342857Y-97740533D01*
D11*
X149016666Y-93877190D02*
X148992857Y-93901000D01*
X148992857Y-93901000D02*
X148921428Y-93924809D01*
X148921428Y-93924809D02*
X148873809Y-93924809D01*
X148873809Y-93924809D02*
X148802381Y-93901000D01*
X148802381Y-93901000D02*
X148754762Y-93853380D01*
X148754762Y-93853380D02*
X148730952Y-93805761D01*
X148730952Y-93805761D02*
X148707143Y-93710523D01*
X148707143Y-93710523D02*
X148707143Y-93639095D01*
X148707143Y-93639095D02*
X148730952Y-93543857D01*
X148730952Y-93543857D02*
X148754762Y-93496238D01*
X148754762Y-93496238D02*
X148802381Y-93448619D01*
X148802381Y-93448619D02*
X148873809Y-93424809D01*
X148873809Y-93424809D02*
X148921428Y-93424809D01*
X148921428Y-93424809D02*
X148992857Y-93448619D01*
X148992857Y-93448619D02*
X149016666Y-93472428D01*
X149254762Y-93924809D02*
X149350000Y-93924809D01*
X149350000Y-93924809D02*
X149397619Y-93901000D01*
X149397619Y-93901000D02*
X149421428Y-93877190D01*
X149421428Y-93877190D02*
X149469047Y-93805761D01*
X149469047Y-93805761D02*
X149492857Y-93710523D01*
X149492857Y-93710523D02*
X149492857Y-93520047D01*
X149492857Y-93520047D02*
X149469047Y-93472428D01*
X149469047Y-93472428D02*
X149445238Y-93448619D01*
X149445238Y-93448619D02*
X149397619Y-93424809D01*
X149397619Y-93424809D02*
X149302381Y-93424809D01*
X149302381Y-93424809D02*
X149254762Y-93448619D01*
X149254762Y-93448619D02*
X149230952Y-93472428D01*
X149230952Y-93472428D02*
X149207143Y-93520047D01*
X149207143Y-93520047D02*
X149207143Y-93639095D01*
X149207143Y-93639095D02*
X149230952Y-93686714D01*
X149230952Y-93686714D02*
X149254762Y-93710523D01*
X149254762Y-93710523D02*
X149302381Y-93734333D01*
X149302381Y-93734333D02*
X149397619Y-93734333D01*
X149397619Y-93734333D02*
X149445238Y-93710523D01*
X149445238Y-93710523D02*
X149469047Y-93686714D01*
X149469047Y-93686714D02*
X149492857Y-93639095D01*
X144716666Y-93877190D02*
X144692857Y-93901000D01*
X144692857Y-93901000D02*
X144621428Y-93924809D01*
X144621428Y-93924809D02*
X144573809Y-93924809D01*
X144573809Y-93924809D02*
X144502381Y-93901000D01*
X144502381Y-93901000D02*
X144454762Y-93853380D01*
X144454762Y-93853380D02*
X144430952Y-93805761D01*
X144430952Y-93805761D02*
X144407143Y-93710523D01*
X144407143Y-93710523D02*
X144407143Y-93639095D01*
X144407143Y-93639095D02*
X144430952Y-93543857D01*
X144430952Y-93543857D02*
X144454762Y-93496238D01*
X144454762Y-93496238D02*
X144502381Y-93448619D01*
X144502381Y-93448619D02*
X144573809Y-93424809D01*
X144573809Y-93424809D02*
X144621428Y-93424809D01*
X144621428Y-93424809D02*
X144692857Y-93448619D01*
X144692857Y-93448619D02*
X144716666Y-93472428D01*
X144883333Y-93424809D02*
X145216666Y-93424809D01*
X145216666Y-93424809D02*
X145002381Y-93924809D01*
X154066666Y-105239690D02*
X154042857Y-105263500D01*
X154042857Y-105263500D02*
X153971428Y-105287309D01*
X153971428Y-105287309D02*
X153923809Y-105287309D01*
X153923809Y-105287309D02*
X153852381Y-105263500D01*
X153852381Y-105263500D02*
X153804762Y-105215880D01*
X153804762Y-105215880D02*
X153780952Y-105168261D01*
X153780952Y-105168261D02*
X153757143Y-105073023D01*
X153757143Y-105073023D02*
X153757143Y-105001595D01*
X153757143Y-105001595D02*
X153780952Y-104906357D01*
X153780952Y-104906357D02*
X153804762Y-104858738D01*
X153804762Y-104858738D02*
X153852381Y-104811119D01*
X153852381Y-104811119D02*
X153923809Y-104787309D01*
X153923809Y-104787309D02*
X153971428Y-104787309D01*
X153971428Y-104787309D02*
X154042857Y-104811119D01*
X154042857Y-104811119D02*
X154066666Y-104834928D01*
X154352381Y-105001595D02*
X154304762Y-104977785D01*
X154304762Y-104977785D02*
X154280952Y-104953976D01*
X154280952Y-104953976D02*
X154257143Y-104906357D01*
X154257143Y-104906357D02*
X154257143Y-104882547D01*
X154257143Y-104882547D02*
X154280952Y-104834928D01*
X154280952Y-104834928D02*
X154304762Y-104811119D01*
X154304762Y-104811119D02*
X154352381Y-104787309D01*
X154352381Y-104787309D02*
X154447619Y-104787309D01*
X154447619Y-104787309D02*
X154495238Y-104811119D01*
X154495238Y-104811119D02*
X154519047Y-104834928D01*
X154519047Y-104834928D02*
X154542857Y-104882547D01*
X154542857Y-104882547D02*
X154542857Y-104906357D01*
X154542857Y-104906357D02*
X154519047Y-104953976D01*
X154519047Y-104953976D02*
X154495238Y-104977785D01*
X154495238Y-104977785D02*
X154447619Y-105001595D01*
X154447619Y-105001595D02*
X154352381Y-105001595D01*
X154352381Y-105001595D02*
X154304762Y-105025404D01*
X154304762Y-105025404D02*
X154280952Y-105049214D01*
X154280952Y-105049214D02*
X154257143Y-105096833D01*
X154257143Y-105096833D02*
X154257143Y-105192071D01*
X154257143Y-105192071D02*
X154280952Y-105239690D01*
X154280952Y-105239690D02*
X154304762Y-105263500D01*
X154304762Y-105263500D02*
X154352381Y-105287309D01*
X154352381Y-105287309D02*
X154447619Y-105287309D01*
X154447619Y-105287309D02*
X154495238Y-105263500D01*
X154495238Y-105263500D02*
X154519047Y-105239690D01*
X154519047Y-105239690D02*
X154542857Y-105192071D01*
X154542857Y-105192071D02*
X154542857Y-105096833D01*
X154542857Y-105096833D02*
X154519047Y-105049214D01*
X154519047Y-105049214D02*
X154495238Y-105025404D01*
X154495238Y-105025404D02*
X154447619Y-105001595D01*
X134916666Y-87977190D02*
X134892857Y-88001000D01*
X134892857Y-88001000D02*
X134821428Y-88024809D01*
X134821428Y-88024809D02*
X134773809Y-88024809D01*
X134773809Y-88024809D02*
X134702381Y-88001000D01*
X134702381Y-88001000D02*
X134654762Y-87953380D01*
X134654762Y-87953380D02*
X134630952Y-87905761D01*
X134630952Y-87905761D02*
X134607143Y-87810523D01*
X134607143Y-87810523D02*
X134607143Y-87739095D01*
X134607143Y-87739095D02*
X134630952Y-87643857D01*
X134630952Y-87643857D02*
X134654762Y-87596238D01*
X134654762Y-87596238D02*
X134702381Y-87548619D01*
X134702381Y-87548619D02*
X134773809Y-87524809D01*
X134773809Y-87524809D02*
X134821428Y-87524809D01*
X134821428Y-87524809D02*
X134892857Y-87548619D01*
X134892857Y-87548619D02*
X134916666Y-87572428D01*
X135345238Y-87691476D02*
X135345238Y-88024809D01*
X135226190Y-87501000D02*
X135107143Y-87858142D01*
X135107143Y-87858142D02*
X135416666Y-87858142D01*
X157016666Y-98677190D02*
X156992857Y-98701000D01*
X156992857Y-98701000D02*
X156921428Y-98724809D01*
X156921428Y-98724809D02*
X156873809Y-98724809D01*
X156873809Y-98724809D02*
X156802381Y-98701000D01*
X156802381Y-98701000D02*
X156754762Y-98653380D01*
X156754762Y-98653380D02*
X156730952Y-98605761D01*
X156730952Y-98605761D02*
X156707143Y-98510523D01*
X156707143Y-98510523D02*
X156707143Y-98439095D01*
X156707143Y-98439095D02*
X156730952Y-98343857D01*
X156730952Y-98343857D02*
X156754762Y-98296238D01*
X156754762Y-98296238D02*
X156802381Y-98248619D01*
X156802381Y-98248619D02*
X156873809Y-98224809D01*
X156873809Y-98224809D02*
X156921428Y-98224809D01*
X156921428Y-98224809D02*
X156992857Y-98248619D01*
X156992857Y-98248619D02*
X157016666Y-98272428D01*
X157469047Y-98224809D02*
X157230952Y-98224809D01*
X157230952Y-98224809D02*
X157207143Y-98462904D01*
X157207143Y-98462904D02*
X157230952Y-98439095D01*
X157230952Y-98439095D02*
X157278571Y-98415285D01*
X157278571Y-98415285D02*
X157397619Y-98415285D01*
X157397619Y-98415285D02*
X157445238Y-98439095D01*
X157445238Y-98439095D02*
X157469047Y-98462904D01*
X157469047Y-98462904D02*
X157492857Y-98510523D01*
X157492857Y-98510523D02*
X157492857Y-98629571D01*
X157492857Y-98629571D02*
X157469047Y-98677190D01*
X157469047Y-98677190D02*
X157445238Y-98701000D01*
X157445238Y-98701000D02*
X157397619Y-98724809D01*
X157397619Y-98724809D02*
X157278571Y-98724809D01*
X157278571Y-98724809D02*
X157230952Y-98701000D01*
X157230952Y-98701000D02*
X157207143Y-98677190D01*
X126216666Y-84777190D02*
X126192857Y-84801000D01*
X126192857Y-84801000D02*
X126121428Y-84824809D01*
X126121428Y-84824809D02*
X126073809Y-84824809D01*
X126073809Y-84824809D02*
X126002381Y-84801000D01*
X126002381Y-84801000D02*
X125954762Y-84753380D01*
X125954762Y-84753380D02*
X125930952Y-84705761D01*
X125930952Y-84705761D02*
X125907143Y-84610523D01*
X125907143Y-84610523D02*
X125907143Y-84539095D01*
X125907143Y-84539095D02*
X125930952Y-84443857D01*
X125930952Y-84443857D02*
X125954762Y-84396238D01*
X125954762Y-84396238D02*
X126002381Y-84348619D01*
X126002381Y-84348619D02*
X126073809Y-84324809D01*
X126073809Y-84324809D02*
X126121428Y-84324809D01*
X126121428Y-84324809D02*
X126192857Y-84348619D01*
X126192857Y-84348619D02*
X126216666Y-84372428D01*
X126383333Y-84324809D02*
X126692857Y-84324809D01*
X126692857Y-84324809D02*
X126526190Y-84515285D01*
X126526190Y-84515285D02*
X126597619Y-84515285D01*
X126597619Y-84515285D02*
X126645238Y-84539095D01*
X126645238Y-84539095D02*
X126669047Y-84562904D01*
X126669047Y-84562904D02*
X126692857Y-84610523D01*
X126692857Y-84610523D02*
X126692857Y-84729571D01*
X126692857Y-84729571D02*
X126669047Y-84777190D01*
X126669047Y-84777190D02*
X126645238Y-84801000D01*
X126645238Y-84801000D02*
X126597619Y-84824809D01*
X126597619Y-84824809D02*
X126454762Y-84824809D01*
X126454762Y-84824809D02*
X126407143Y-84801000D01*
X126407143Y-84801000D02*
X126383333Y-84777190D01*
D10*
X159311904Y-111567319D02*
X159311904Y-112281604D01*
X159311904Y-112281604D02*
X159264285Y-112424461D01*
X159264285Y-112424461D02*
X159169047Y-112519700D01*
X159169047Y-112519700D02*
X159026190Y-112567319D01*
X159026190Y-112567319D02*
X158930952Y-112567319D01*
X159550000Y-112662557D02*
X160311904Y-112662557D01*
X161121428Y-112472080D02*
X161073809Y-112519700D01*
X161073809Y-112519700D02*
X160930952Y-112567319D01*
X160930952Y-112567319D02*
X160835714Y-112567319D01*
X160835714Y-112567319D02*
X160692857Y-112519700D01*
X160692857Y-112519700D02*
X160597619Y-112424461D01*
X160597619Y-112424461D02*
X160550000Y-112329223D01*
X160550000Y-112329223D02*
X160502381Y-112138747D01*
X160502381Y-112138747D02*
X160502381Y-111995890D01*
X160502381Y-111995890D02*
X160550000Y-111805414D01*
X160550000Y-111805414D02*
X160597619Y-111710176D01*
X160597619Y-111710176D02*
X160692857Y-111614938D01*
X160692857Y-111614938D02*
X160835714Y-111567319D01*
X160835714Y-111567319D02*
X160930952Y-111567319D01*
X160930952Y-111567319D02*
X161073809Y-111614938D01*
X161073809Y-111614938D02*
X161121428Y-111662557D01*
X161550000Y-112567319D02*
X161550000Y-111567319D01*
X161550000Y-112043509D02*
X162121428Y-112043509D01*
X162121428Y-112567319D02*
X162121428Y-111567319D01*
X162550000Y-111662557D02*
X162597619Y-111614938D01*
X162597619Y-111614938D02*
X162692857Y-111567319D01*
X162692857Y-111567319D02*
X162930952Y-111567319D01*
X162930952Y-111567319D02*
X163026190Y-111614938D01*
X163026190Y-111614938D02*
X163073809Y-111662557D01*
X163073809Y-111662557D02*
X163121428Y-111757795D01*
X163121428Y-111757795D02*
X163121428Y-111853033D01*
X163121428Y-111853033D02*
X163073809Y-111995890D01*
X163073809Y-111995890D02*
X162502381Y-112567319D01*
X162502381Y-112567319D02*
X163121428Y-112567319D01*
D11*
X157016666Y-101677190D02*
X156992857Y-101701000D01*
X156992857Y-101701000D02*
X156921428Y-101724809D01*
X156921428Y-101724809D02*
X156873809Y-101724809D01*
X156873809Y-101724809D02*
X156802381Y-101701000D01*
X156802381Y-101701000D02*
X156754762Y-101653380D01*
X156754762Y-101653380D02*
X156730952Y-101605761D01*
X156730952Y-101605761D02*
X156707143Y-101510523D01*
X156707143Y-101510523D02*
X156707143Y-101439095D01*
X156707143Y-101439095D02*
X156730952Y-101343857D01*
X156730952Y-101343857D02*
X156754762Y-101296238D01*
X156754762Y-101296238D02*
X156802381Y-101248619D01*
X156802381Y-101248619D02*
X156873809Y-101224809D01*
X156873809Y-101224809D02*
X156921428Y-101224809D01*
X156921428Y-101224809D02*
X156992857Y-101248619D01*
X156992857Y-101248619D02*
X157016666Y-101272428D01*
X157207143Y-101272428D02*
X157230952Y-101248619D01*
X157230952Y-101248619D02*
X157278571Y-101224809D01*
X157278571Y-101224809D02*
X157397619Y-101224809D01*
X157397619Y-101224809D02*
X157445238Y-101248619D01*
X157445238Y-101248619D02*
X157469047Y-101272428D01*
X157469047Y-101272428D02*
X157492857Y-101320047D01*
X157492857Y-101320047D02*
X157492857Y-101367666D01*
X157492857Y-101367666D02*
X157469047Y-101439095D01*
X157469047Y-101439095D02*
X157183333Y-101724809D01*
X157183333Y-101724809D02*
X157492857Y-101724809D01*
X157016666Y-100177190D02*
X156992857Y-100201000D01*
X156992857Y-100201000D02*
X156921428Y-100224809D01*
X156921428Y-100224809D02*
X156873809Y-100224809D01*
X156873809Y-100224809D02*
X156802381Y-100201000D01*
X156802381Y-100201000D02*
X156754762Y-100153380D01*
X156754762Y-100153380D02*
X156730952Y-100105761D01*
X156730952Y-100105761D02*
X156707143Y-100010523D01*
X156707143Y-100010523D02*
X156707143Y-99939095D01*
X156707143Y-99939095D02*
X156730952Y-99843857D01*
X156730952Y-99843857D02*
X156754762Y-99796238D01*
X156754762Y-99796238D02*
X156802381Y-99748619D01*
X156802381Y-99748619D02*
X156873809Y-99724809D01*
X156873809Y-99724809D02*
X156921428Y-99724809D01*
X156921428Y-99724809D02*
X156992857Y-99748619D01*
X156992857Y-99748619D02*
X157016666Y-99772428D01*
X157492857Y-100224809D02*
X157207143Y-100224809D01*
X157350000Y-100224809D02*
X157350000Y-99724809D01*
X157350000Y-99724809D02*
X157302381Y-99796238D01*
X157302381Y-99796238D02*
X157254762Y-99843857D01*
X157254762Y-99843857D02*
X157207143Y-99867666D01*
D10*
X114933333Y-86554819D02*
X114600000Y-86078628D01*
X114361905Y-86554819D02*
X114361905Y-85554819D01*
X114361905Y-85554819D02*
X114742857Y-85554819D01*
X114742857Y-85554819D02*
X114838095Y-85602438D01*
X114838095Y-85602438D02*
X114885714Y-85650057D01*
X114885714Y-85650057D02*
X114933333Y-85745295D01*
X114933333Y-85745295D02*
X114933333Y-85888152D01*
X114933333Y-85888152D02*
X114885714Y-85983390D01*
X114885714Y-85983390D02*
X114838095Y-86031009D01*
X114838095Y-86031009D02*
X114742857Y-86078628D01*
X114742857Y-86078628D02*
X114361905Y-86078628D01*
X115314286Y-85650057D02*
X115361905Y-85602438D01*
X115361905Y-85602438D02*
X115457143Y-85554819D01*
X115457143Y-85554819D02*
X115695238Y-85554819D01*
X115695238Y-85554819D02*
X115790476Y-85602438D01*
X115790476Y-85602438D02*
X115838095Y-85650057D01*
X115838095Y-85650057D02*
X115885714Y-85745295D01*
X115885714Y-85745295D02*
X115885714Y-85840533D01*
X115885714Y-85840533D02*
X115838095Y-85983390D01*
X115838095Y-85983390D02*
X115266667Y-86554819D01*
X115266667Y-86554819D02*
X115885714Y-86554819D01*
D11*
X141716666Y-102339690D02*
X141692857Y-102363500D01*
X141692857Y-102363500D02*
X141621428Y-102387309D01*
X141621428Y-102387309D02*
X141573809Y-102387309D01*
X141573809Y-102387309D02*
X141502381Y-102363500D01*
X141502381Y-102363500D02*
X141454762Y-102315880D01*
X141454762Y-102315880D02*
X141430952Y-102268261D01*
X141430952Y-102268261D02*
X141407143Y-102173023D01*
X141407143Y-102173023D02*
X141407143Y-102101595D01*
X141407143Y-102101595D02*
X141430952Y-102006357D01*
X141430952Y-102006357D02*
X141454762Y-101958738D01*
X141454762Y-101958738D02*
X141502381Y-101911119D01*
X141502381Y-101911119D02*
X141573809Y-101887309D01*
X141573809Y-101887309D02*
X141621428Y-101887309D01*
X141621428Y-101887309D02*
X141692857Y-101911119D01*
X141692857Y-101911119D02*
X141716666Y-101934928D01*
X142145238Y-101887309D02*
X142050000Y-101887309D01*
X142050000Y-101887309D02*
X142002381Y-101911119D01*
X142002381Y-101911119D02*
X141978571Y-101934928D01*
X141978571Y-101934928D02*
X141930952Y-102006357D01*
X141930952Y-102006357D02*
X141907143Y-102101595D01*
X141907143Y-102101595D02*
X141907143Y-102292071D01*
X141907143Y-102292071D02*
X141930952Y-102339690D01*
X141930952Y-102339690D02*
X141954762Y-102363500D01*
X141954762Y-102363500D02*
X142002381Y-102387309D01*
X142002381Y-102387309D02*
X142097619Y-102387309D01*
X142097619Y-102387309D02*
X142145238Y-102363500D01*
X142145238Y-102363500D02*
X142169047Y-102339690D01*
X142169047Y-102339690D02*
X142192857Y-102292071D01*
X142192857Y-102292071D02*
X142192857Y-102173023D01*
X142192857Y-102173023D02*
X142169047Y-102125404D01*
X142169047Y-102125404D02*
X142145238Y-102101595D01*
X142145238Y-102101595D02*
X142097619Y-102077785D01*
X142097619Y-102077785D02*
X142002381Y-102077785D01*
X142002381Y-102077785D02*
X141954762Y-102101595D01*
X141954762Y-102101595D02*
X141930952Y-102125404D01*
X141930952Y-102125404D02*
X141907143Y-102173023D01*
D10*
X118716666Y-82502319D02*
X118716666Y-83216604D01*
X118716666Y-83216604D02*
X118669047Y-83359461D01*
X118669047Y-83359461D02*
X118573809Y-83454700D01*
X118573809Y-83454700D02*
X118430952Y-83502319D01*
X118430952Y-83502319D02*
X118335714Y-83502319D01*
X119716666Y-83502319D02*
X119145238Y-83502319D01*
X119430952Y-83502319D02*
X119430952Y-82502319D01*
X119430952Y-82502319D02*
X119335714Y-82645176D01*
X119335714Y-82645176D02*
X119240476Y-82740414D01*
X119240476Y-82740414D02*
X119145238Y-82788033D01*
X129108095Y-87894819D02*
X129108095Y-88704342D01*
X129108095Y-88704342D02*
X129155714Y-88799580D01*
X129155714Y-88799580D02*
X129203333Y-88847200D01*
X129203333Y-88847200D02*
X129298571Y-88894819D01*
X129298571Y-88894819D02*
X129489047Y-88894819D01*
X129489047Y-88894819D02*
X129584285Y-88847200D01*
X129584285Y-88847200D02*
X129631904Y-88799580D01*
X129631904Y-88799580D02*
X129679523Y-88704342D01*
X129679523Y-88704342D02*
X129679523Y-87894819D01*
X130108095Y-87990057D02*
X130155714Y-87942438D01*
X130155714Y-87942438D02*
X130250952Y-87894819D01*
X130250952Y-87894819D02*
X130489047Y-87894819D01*
X130489047Y-87894819D02*
X130584285Y-87942438D01*
X130584285Y-87942438D02*
X130631904Y-87990057D01*
X130631904Y-87990057D02*
X130679523Y-88085295D01*
X130679523Y-88085295D02*
X130679523Y-88180533D01*
X130679523Y-88180533D02*
X130631904Y-88323390D01*
X130631904Y-88323390D02*
X130060476Y-88894819D01*
X130060476Y-88894819D02*
X130679523Y-88894819D01*
X119833333Y-86554819D02*
X119500000Y-86078628D01*
X119261905Y-86554819D02*
X119261905Y-85554819D01*
X119261905Y-85554819D02*
X119642857Y-85554819D01*
X119642857Y-85554819D02*
X119738095Y-85602438D01*
X119738095Y-85602438D02*
X119785714Y-85650057D01*
X119785714Y-85650057D02*
X119833333Y-85745295D01*
X119833333Y-85745295D02*
X119833333Y-85888152D01*
X119833333Y-85888152D02*
X119785714Y-85983390D01*
X119785714Y-85983390D02*
X119738095Y-86031009D01*
X119738095Y-86031009D02*
X119642857Y-86078628D01*
X119642857Y-86078628D02*
X119261905Y-86078628D01*
X120785714Y-86554819D02*
X120214286Y-86554819D01*
X120500000Y-86554819D02*
X120500000Y-85554819D01*
X120500000Y-85554819D02*
X120404762Y-85697676D01*
X120404762Y-85697676D02*
X120309524Y-85792914D01*
X120309524Y-85792914D02*
X120214286Y-85840533D01*
D12*
%TO.C,J_CH4*%
X123900000Y-114512500D02*
X123900000Y-115852500D01*
X123900000Y-118572500D02*
X123900000Y-120312500D01*
X123900000Y-120312500D02*
X132200000Y-120312500D01*
X125390000Y-114512500D02*
X123900000Y-114512500D01*
X125390000Y-114512500D02*
X125390000Y-113312500D01*
X130710000Y-114512500D02*
X132200000Y-114512500D01*
X132200000Y-114512500D02*
X132200000Y-115852500D01*
X132200000Y-120312500D02*
X132200000Y-118572500D01*
%TO.C,R3*%
X149827500Y-106399758D02*
X149827500Y-105925242D01*
X150872500Y-106399758D02*
X150872500Y-105925242D01*
%TO.C,J_CH3*%
X139800000Y-114512500D02*
X139800000Y-115852500D01*
X139800000Y-118572500D02*
X139800000Y-120312500D01*
X139800000Y-120312500D02*
X148100000Y-120312500D01*
X141290000Y-114512500D02*
X139800000Y-114512500D01*
X141290000Y-114512500D02*
X141290000Y-113312500D01*
X146610000Y-114512500D02*
X148100000Y-114512500D01*
X148100000Y-114512500D02*
X148100000Y-115852500D01*
X148100000Y-120312500D02*
X148100000Y-118572500D01*
%TO.C,J2*%
X134420000Y-106472500D02*
X133090000Y-106472500D01*
X134420000Y-105142500D02*
X134420000Y-106472500D01*
X134420000Y-103872500D02*
X134420000Y-96192500D01*
X134420000Y-103872500D02*
X131760000Y-103872500D01*
X134420000Y-96192500D02*
X131760000Y-96192500D01*
X131760000Y-103872500D02*
X131760000Y-96192500D01*
%TO.C,U1*%
X153160000Y-102497500D02*
X153160000Y-102732500D01*
X153160000Y-95752500D02*
X153160000Y-96227500D01*
X152685000Y-102972500D02*
X152860000Y-102972500D01*
X152685000Y-95752500D02*
X153160000Y-95752500D01*
X146415000Y-102972500D02*
X145940000Y-102972500D01*
X146415000Y-95752500D02*
X145940000Y-95752500D01*
X145940000Y-102972500D02*
X145940000Y-102497500D01*
X145940000Y-95752500D02*
X145940000Y-96227500D01*
X153400000Y-103302500D02*
X152920000Y-103302500D01*
X153160000Y-102972500D01*
X153400000Y-103302500D01*
G36*
X153400000Y-103302500D02*
G01*
X152920000Y-103302500D01*
X153160000Y-102972500D01*
X153400000Y-103302500D01*
G37*
%TO.C,J_CH1*%
X172900000Y-114512500D02*
X172900000Y-115852500D01*
X172900000Y-118572500D02*
X172900000Y-120312500D01*
X172900000Y-120312500D02*
X181200000Y-120312500D01*
X174390000Y-114512500D02*
X172900000Y-114512500D01*
X174390000Y-114512500D02*
X174390000Y-113312500D01*
X179710000Y-114512500D02*
X181200000Y-114512500D01*
X181200000Y-114512500D02*
X181200000Y-115852500D01*
X181200000Y-120312500D02*
X181200000Y-118572500D01*
%TO.C,Y1*%
X157600000Y-102662500D02*
X160900000Y-102662500D01*
X160900000Y-102662500D02*
X160900000Y-98662500D01*
%TO.C,C9*%
X147340000Y-93803080D02*
X147340000Y-93521920D01*
X148360000Y-93803080D02*
X148360000Y-93521920D01*
%TO.C,C7*%
X145540000Y-93803080D02*
X145540000Y-93521920D01*
X146560000Y-93803080D02*
X146560000Y-93521920D01*
%TO.C,C8*%
X153060000Y-104921920D02*
X153060000Y-105203080D01*
X152040000Y-104921920D02*
X152040000Y-105203080D01*
%TO.C,C4*%
X134160000Y-87621920D02*
X134160000Y-87903080D01*
X133140000Y-87621920D02*
X133140000Y-87903080D01*
%TO.C,C5*%
X155109420Y-97952500D02*
X155390580Y-97952500D01*
X155109420Y-98972500D02*
X155390580Y-98972500D01*
%TO.C,C3*%
X125460000Y-84421920D02*
X125460000Y-84703080D01*
X124440000Y-84421920D02*
X124440000Y-84703080D01*
%TO.C,J_CH2*%
X156900000Y-114512500D02*
X156900000Y-115852500D01*
X156900000Y-118572500D02*
X156900000Y-120312500D01*
X156900000Y-120312500D02*
X165200000Y-120312500D01*
X158390000Y-114512500D02*
X156900000Y-114512500D01*
X158390000Y-114512500D02*
X158390000Y-113312500D01*
X163710000Y-114512500D02*
X165200000Y-114512500D01*
X165200000Y-114512500D02*
X165200000Y-115852500D01*
X165200000Y-120312500D02*
X165200000Y-118572500D01*
%TO.C,C2*%
X155390580Y-101972500D02*
X155109420Y-101972500D01*
X155390580Y-100952500D02*
X155109420Y-100952500D01*
%TO.C,C1*%
X155390580Y-100472500D02*
X155109420Y-100472500D01*
X155390580Y-99452500D02*
X155109420Y-99452500D01*
%TO.C,R2*%
X117437500Y-85865242D02*
X117437500Y-86339758D01*
X116392500Y-85865242D02*
X116392500Y-86339758D01*
%TO.C,C6*%
X143990580Y-102672500D02*
X143709420Y-102672500D01*
X143990580Y-101652500D02*
X143709420Y-101652500D01*
%TO.C,J1*%
X123750000Y-79302500D02*
X123750000Y-77302500D01*
X123750000Y-75402500D02*
X123750000Y-73502500D01*
X123750000Y-73502500D02*
X114350000Y-73502500D01*
X114350000Y-79302500D02*
X114350000Y-77302500D01*
X114350000Y-75402500D02*
X114350000Y-73502500D01*
%TO.C,U2*%
X131410000Y-85862500D02*
X131410000Y-85062500D01*
X131410000Y-85862500D02*
X131410000Y-86662500D01*
X128290000Y-85862500D02*
X128290000Y-85062500D01*
X128290000Y-85862500D02*
X128290000Y-86662500D01*
X131690000Y-84802500D02*
X131360000Y-84562500D01*
X131690000Y-84322500D01*
X131690000Y-84802500D01*
G36*
X131690000Y-84802500D02*
G01*
X131360000Y-84562500D01*
X131690000Y-84322500D01*
X131690000Y-84802500D01*
G37*
%TO.C,R1*%
X122182500Y-85865242D02*
X122182500Y-86339758D01*
X121137500Y-85865242D02*
X121137500Y-86339758D01*
%TD*%
M02*
