%TF.GenerationSoftware,KiCad,Pcbnew,7.0.11+dfsg-1build4*%
%TF.CreationDate,2026-04-16T21:05:03+02:00*%
%TF.ProjectId,Motherboard,4d6f7468-6572-4626-9f61-72642e6b6963,v1.0*%
%TF.SameCoordinates,Original*%
%TF.FileFunction,Legend,Bot*%
%TF.FilePolarity,Positive*%
%FSLAX46Y46*%
G04 Gerber Fmt 4.6, Leading zero omitted, Abs format (unit mm)*
G04 Created by KiCad (PCBNEW 7.0.11+dfsg-1build4) date 2026-04-16 21:05:03*
%MOMM*%
%LPD*%
G01*
G04 APERTURE LIST*
%ADD10C,0.125000*%
G04 APERTURE END LIST*
D10*
X138602287Y-115264452D02*
X138685621Y-115931119D01*
X138614192Y-115359690D02*
X138560621Y-115312071D01*
X138560621Y-115312071D02*
X138459430Y-115264452D01*
X138459430Y-115264452D02*
X138316573Y-115264452D01*
X138316573Y-115264452D02*
X138227287Y-115312071D01*
X138227287Y-115312071D02*
X138191573Y-115407309D01*
X138191573Y-115407309D02*
X138257049Y-115931119D01*
X137780859Y-115931119D02*
X137697525Y-115264452D01*
X137655859Y-114931119D02*
X137709430Y-114978738D01*
X137709430Y-114978738D02*
X137667763Y-115026357D01*
X137667763Y-115026357D02*
X137614192Y-114978738D01*
X137614192Y-114978738D02*
X137655859Y-114931119D01*
X137655859Y-114931119D02*
X137667763Y-115026357D01*
X137221335Y-115264452D02*
X137304669Y-115931119D01*
X137233240Y-115359690D02*
X137179669Y-115312071D01*
X137179669Y-115312071D02*
X137078478Y-115264452D01*
X137078478Y-115264452D02*
X136935621Y-115264452D01*
X136935621Y-115264452D02*
X136846335Y-115312071D01*
X136846335Y-115312071D02*
X136810621Y-115407309D01*
X136810621Y-115407309D02*
X136876097Y-115931119D01*
X137239192Y-115026357D02*
X137185621Y-114978738D01*
X137185621Y-114978738D02*
X137084431Y-114931119D01*
X137084431Y-114931119D02*
X136905859Y-115026357D01*
X136905859Y-115026357D02*
X136804669Y-114978738D01*
X136804669Y-114978738D02*
X136751097Y-114931119D01*
X136257050Y-115931119D02*
X136346335Y-115883500D01*
X136346335Y-115883500D02*
X136388002Y-115835880D01*
X136388002Y-115835880D02*
X136423716Y-115740642D01*
X136423716Y-115740642D02*
X136388002Y-115454928D01*
X136388002Y-115454928D02*
X136328478Y-115359690D01*
X136328478Y-115359690D02*
X136274907Y-115312071D01*
X136274907Y-115312071D02*
X136173716Y-115264452D01*
X136173716Y-115264452D02*
X136030859Y-115264452D01*
X136030859Y-115264452D02*
X135941573Y-115312071D01*
X135941573Y-115312071D02*
X135899907Y-115359690D01*
X135899907Y-115359690D02*
X135864192Y-115454928D01*
X135864192Y-115454928D02*
X135899907Y-115740642D01*
X135899907Y-115740642D02*
X135959430Y-115835880D01*
X135959430Y-115835880D02*
X136013002Y-115883500D01*
X136013002Y-115883500D02*
X136114192Y-115931119D01*
X136114192Y-115931119D02*
X136257050Y-115931119D01*
X135536811Y-115883500D02*
X135447526Y-115931119D01*
X135447526Y-115931119D02*
X135257049Y-115931119D01*
X135257049Y-115931119D02*
X135155859Y-115883500D01*
X135155859Y-115883500D02*
X135096335Y-115788261D01*
X135096335Y-115788261D02*
X135090383Y-115740642D01*
X135090383Y-115740642D02*
X135126097Y-115645404D01*
X135126097Y-115645404D02*
X135215383Y-115597785D01*
X135215383Y-115597785D02*
X135358240Y-115597785D01*
X135358240Y-115597785D02*
X135447526Y-115550166D01*
X135447526Y-115550166D02*
X135483240Y-115454928D01*
X135483240Y-115454928D02*
X135477288Y-115407309D01*
X135477288Y-115407309D02*
X135417764Y-115312071D01*
X135417764Y-115312071D02*
X135316573Y-115264452D01*
X135316573Y-115264452D02*
X135173716Y-115264452D01*
X135173716Y-115264452D02*
X135084430Y-115312071D01*
X133489192Y-115883500D02*
X133590382Y-115931119D01*
X133590382Y-115931119D02*
X133780859Y-115931119D01*
X133780859Y-115931119D02*
X133870144Y-115883500D01*
X133870144Y-115883500D02*
X133911811Y-115835880D01*
X133911811Y-115835880D02*
X133947525Y-115740642D01*
X133947525Y-115740642D02*
X133911811Y-115454928D01*
X133911811Y-115454928D02*
X133852287Y-115359690D01*
X133852287Y-115359690D02*
X133798716Y-115312071D01*
X133798716Y-115312071D02*
X133697525Y-115264452D01*
X133697525Y-115264452D02*
X133507049Y-115264452D01*
X133507049Y-115264452D02*
X133417763Y-115312071D01*
X132923716Y-115931119D02*
X133013001Y-115883500D01*
X133013001Y-115883500D02*
X133054668Y-115835880D01*
X133054668Y-115835880D02*
X133090382Y-115740642D01*
X133090382Y-115740642D02*
X133054668Y-115454928D01*
X133054668Y-115454928D02*
X132995144Y-115359690D01*
X132995144Y-115359690D02*
X132941573Y-115312071D01*
X132941573Y-115312071D02*
X132840382Y-115264452D01*
X132840382Y-115264452D02*
X132697525Y-115264452D01*
X132697525Y-115264452D02*
X132608239Y-115312071D01*
X132608239Y-115312071D02*
X132566573Y-115359690D01*
X132566573Y-115359690D02*
X132530858Y-115454928D01*
X132530858Y-115454928D02*
X132566573Y-115740642D01*
X132566573Y-115740642D02*
X132626096Y-115835880D01*
X132626096Y-115835880D02*
X132679668Y-115883500D01*
X132679668Y-115883500D02*
X132780858Y-115931119D01*
X132780858Y-115931119D02*
X132923716Y-115931119D01*
X132078477Y-115264452D02*
X132161811Y-115931119D01*
X132090382Y-115359690D02*
X132036811Y-115312071D01*
X132036811Y-115312071D02*
X131935620Y-115264452D01*
X131935620Y-115264452D02*
X131792763Y-115264452D01*
X131792763Y-115264452D02*
X131703477Y-115312071D01*
X131703477Y-115312071D02*
X131667763Y-115407309D01*
X131667763Y-115407309D02*
X131733239Y-115931119D01*
X130352287Y-115931119D02*
X130441572Y-115883500D01*
X130441572Y-115883500D02*
X130477287Y-115788261D01*
X130477287Y-115788261D02*
X130370144Y-114931119D01*
X129828477Y-115931119D02*
X129917762Y-115883500D01*
X129917762Y-115883500D02*
X129959429Y-115835880D01*
X129959429Y-115835880D02*
X129995143Y-115740642D01*
X129995143Y-115740642D02*
X129959429Y-115454928D01*
X129959429Y-115454928D02*
X129899905Y-115359690D01*
X129899905Y-115359690D02*
X129846334Y-115312071D01*
X129846334Y-115312071D02*
X129745143Y-115264452D01*
X129745143Y-115264452D02*
X129602286Y-115264452D01*
X129602286Y-115264452D02*
X129513000Y-115312071D01*
X129513000Y-115312071D02*
X129471334Y-115359690D01*
X129471334Y-115359690D02*
X129435619Y-115454928D01*
X129435619Y-115454928D02*
X129471334Y-115740642D01*
X129471334Y-115740642D02*
X129530857Y-115835880D01*
X129530857Y-115835880D02*
X129584429Y-115883500D01*
X129584429Y-115883500D02*
X129685619Y-115931119D01*
X129685619Y-115931119D02*
X129828477Y-115931119D01*
X129108238Y-115883500D02*
X129018953Y-115931119D01*
X129018953Y-115931119D02*
X128828476Y-115931119D01*
X128828476Y-115931119D02*
X128727286Y-115883500D01*
X128727286Y-115883500D02*
X128667762Y-115788261D01*
X128667762Y-115788261D02*
X128661810Y-115740642D01*
X128661810Y-115740642D02*
X128697524Y-115645404D01*
X128697524Y-115645404D02*
X128786810Y-115597785D01*
X128786810Y-115597785D02*
X128929667Y-115597785D01*
X128929667Y-115597785D02*
X129018953Y-115550166D01*
X129018953Y-115550166D02*
X129054667Y-115454928D01*
X129054667Y-115454928D02*
X129048715Y-115407309D01*
X129048715Y-115407309D02*
X128989191Y-115312071D01*
X128989191Y-115312071D02*
X128888000Y-115264452D01*
X128888000Y-115264452D02*
X128745143Y-115264452D01*
X128745143Y-115264452D02*
X128655857Y-115312071D01*
X127536809Y-115883500D02*
X127447524Y-115931119D01*
X127447524Y-115931119D02*
X127257047Y-115931119D01*
X127257047Y-115931119D02*
X127155857Y-115883500D01*
X127155857Y-115883500D02*
X127096333Y-115788261D01*
X127096333Y-115788261D02*
X127090381Y-115740642D01*
X127090381Y-115740642D02*
X127126095Y-115645404D01*
X127126095Y-115645404D02*
X127215381Y-115597785D01*
X127215381Y-115597785D02*
X127358238Y-115597785D01*
X127358238Y-115597785D02*
X127447524Y-115550166D01*
X127447524Y-115550166D02*
X127483238Y-115454928D01*
X127483238Y-115454928D02*
X127477286Y-115407309D01*
X127477286Y-115407309D02*
X127417762Y-115312071D01*
X127417762Y-115312071D02*
X127316571Y-115264452D01*
X127316571Y-115264452D02*
X127173714Y-115264452D01*
X127173714Y-115264452D02*
X127084428Y-115312071D01*
X126173714Y-115264452D02*
X126257047Y-115931119D01*
X126602285Y-115264452D02*
X126667762Y-115788261D01*
X126667762Y-115788261D02*
X126632047Y-115883500D01*
X126632047Y-115883500D02*
X126542762Y-115931119D01*
X126542762Y-115931119D02*
X126399904Y-115931119D01*
X126399904Y-115931119D02*
X126298714Y-115883500D01*
X126298714Y-115883500D02*
X126245142Y-115835880D01*
X125393952Y-115883500D02*
X125495142Y-115931119D01*
X125495142Y-115931119D02*
X125685619Y-115931119D01*
X125685619Y-115931119D02*
X125774904Y-115883500D01*
X125774904Y-115883500D02*
X125810619Y-115788261D01*
X125810619Y-115788261D02*
X125763000Y-115407309D01*
X125763000Y-115407309D02*
X125703476Y-115312071D01*
X125703476Y-115312071D02*
X125602285Y-115264452D01*
X125602285Y-115264452D02*
X125411809Y-115264452D01*
X125411809Y-115264452D02*
X125322523Y-115312071D01*
X125322523Y-115312071D02*
X125286809Y-115407309D01*
X125286809Y-115407309D02*
X125298714Y-115502547D01*
X125298714Y-115502547D02*
X125786809Y-115597785D01*
X124840380Y-115264452D02*
X124923714Y-115931119D01*
X124852285Y-115359690D02*
X124798714Y-115312071D01*
X124798714Y-115312071D02*
X124697523Y-115264452D01*
X124697523Y-115264452D02*
X124554666Y-115264452D01*
X124554666Y-115264452D02*
X124465380Y-115312071D01*
X124465380Y-115312071D02*
X124429666Y-115407309D01*
X124429666Y-115407309D02*
X124495142Y-115931119D01*
X124858237Y-115026357D02*
X124804666Y-114978738D01*
X124804666Y-114978738D02*
X124703476Y-114931119D01*
X124703476Y-114931119D02*
X124524904Y-115026357D01*
X124524904Y-115026357D02*
X124423714Y-114978738D01*
X124423714Y-114978738D02*
X124370142Y-114931119D01*
X123876095Y-115931119D02*
X123965380Y-115883500D01*
X123965380Y-115883500D02*
X124007047Y-115835880D01*
X124007047Y-115835880D02*
X124042761Y-115740642D01*
X124042761Y-115740642D02*
X124007047Y-115454928D01*
X124007047Y-115454928D02*
X123947523Y-115359690D01*
X123947523Y-115359690D02*
X123893952Y-115312071D01*
X123893952Y-115312071D02*
X123792761Y-115264452D01*
X123792761Y-115264452D02*
X123649904Y-115264452D01*
X123649904Y-115264452D02*
X123560618Y-115312071D01*
X123560618Y-115312071D02*
X123518952Y-115359690D01*
X123518952Y-115359690D02*
X123483237Y-115454928D01*
X123483237Y-115454928D02*
X123518952Y-115740642D01*
X123518952Y-115740642D02*
X123578475Y-115835880D01*
X123578475Y-115835880D02*
X123632047Y-115883500D01*
X123632047Y-115883500D02*
X123733237Y-115931119D01*
X123733237Y-115931119D02*
X123876095Y-115931119D01*
X123155856Y-115883500D02*
X123066571Y-115931119D01*
X123066571Y-115931119D02*
X122876094Y-115931119D01*
X122876094Y-115931119D02*
X122774904Y-115883500D01*
X122774904Y-115883500D02*
X122715380Y-115788261D01*
X122715380Y-115788261D02*
X122709428Y-115740642D01*
X122709428Y-115740642D02*
X122745142Y-115645404D01*
X122745142Y-115645404D02*
X122834428Y-115597785D01*
X122834428Y-115597785D02*
X122977285Y-115597785D01*
X122977285Y-115597785D02*
X123066571Y-115550166D01*
X123066571Y-115550166D02*
X123102285Y-115454928D01*
X123102285Y-115454928D02*
X123096333Y-115407309D01*
X123096333Y-115407309D02*
X123036809Y-115312071D01*
X123036809Y-115312071D02*
X122935618Y-115264452D01*
X122935618Y-115264452D02*
X122792761Y-115264452D01*
X122792761Y-115264452D02*
X122703475Y-115312071D01*
X121542761Y-115931119D02*
X121459427Y-115264452D01*
X121483237Y-115454928D02*
X121423713Y-115359690D01*
X121423713Y-115359690D02*
X121370142Y-115312071D01*
X121370142Y-115312071D02*
X121268951Y-115264452D01*
X121268951Y-115264452D02*
X121173713Y-115264452D01*
X120780856Y-115931119D02*
X120870141Y-115883500D01*
X120870141Y-115883500D02*
X120911808Y-115835880D01*
X120911808Y-115835880D02*
X120947522Y-115740642D01*
X120947522Y-115740642D02*
X120911808Y-115454928D01*
X120911808Y-115454928D02*
X120852284Y-115359690D01*
X120852284Y-115359690D02*
X120798713Y-115312071D01*
X120798713Y-115312071D02*
X120697522Y-115264452D01*
X120697522Y-115264452D02*
X120554665Y-115264452D01*
X120554665Y-115264452D02*
X120465379Y-115312071D01*
X120465379Y-115312071D02*
X120423713Y-115359690D01*
X120423713Y-115359690D02*
X120387998Y-115454928D01*
X120387998Y-115454928D02*
X120423713Y-115740642D01*
X120423713Y-115740642D02*
X120483236Y-115835880D01*
X120483236Y-115835880D02*
X120536808Y-115883500D01*
X120536808Y-115883500D02*
X120637998Y-115931119D01*
X120637998Y-115931119D02*
X120780856Y-115931119D01*
X120078474Y-115264452D02*
X119697522Y-115264452D01*
X119893951Y-114931119D02*
X120001094Y-115788261D01*
X120001094Y-115788261D02*
X119965379Y-115883500D01*
X119965379Y-115883500D02*
X119876094Y-115931119D01*
X119876094Y-115931119D02*
X119780855Y-115931119D01*
X119304665Y-115931119D02*
X119393950Y-115883500D01*
X119393950Y-115883500D02*
X119435617Y-115835880D01*
X119435617Y-115835880D02*
X119471331Y-115740642D01*
X119471331Y-115740642D02*
X119435617Y-115454928D01*
X119435617Y-115454928D02*
X119376093Y-115359690D01*
X119376093Y-115359690D02*
X119322522Y-115312071D01*
X119322522Y-115312071D02*
X119221331Y-115264452D01*
X119221331Y-115264452D02*
X119078474Y-115264452D01*
X119078474Y-115264452D02*
X118989188Y-115312071D01*
X118989188Y-115312071D02*
X118947522Y-115359690D01*
X118947522Y-115359690D02*
X118911807Y-115454928D01*
X118911807Y-115454928D02*
X118947522Y-115740642D01*
X118947522Y-115740642D02*
X119007045Y-115835880D01*
X119007045Y-115835880D02*
X119060617Y-115883500D01*
X119060617Y-115883500D02*
X119161807Y-115931119D01*
X119161807Y-115931119D02*
X119304665Y-115931119D01*
X118584426Y-115883500D02*
X118495141Y-115931119D01*
X118495141Y-115931119D02*
X118304664Y-115931119D01*
X118304664Y-115931119D02*
X118203474Y-115883500D01*
X118203474Y-115883500D02*
X118143950Y-115788261D01*
X118143950Y-115788261D02*
X118137998Y-115740642D01*
X118137998Y-115740642D02*
X118173712Y-115645404D01*
X118173712Y-115645404D02*
X118262998Y-115597785D01*
X118262998Y-115597785D02*
X118405855Y-115597785D01*
X118405855Y-115597785D02*
X118495141Y-115550166D01*
X118495141Y-115550166D02*
X118530855Y-115454928D01*
X118530855Y-115454928D02*
X118524903Y-115407309D01*
X118524903Y-115407309D02*
X118465379Y-115312071D01*
X118465379Y-115312071D02*
X118364188Y-115264452D01*
X118364188Y-115264452D02*
X118221331Y-115264452D01*
X118221331Y-115264452D02*
X118132045Y-115312071D01*
M02*
