M48
; DRILL file {KiCad 7.0.11+dfsg-1build4} date jue 16 abr 2026 21:05:00
; FORMAT={-:-/ absolute / inch / decimal}
; #@! TF.CreationDate,2026-04-16T21:05:00+02:00
; #@! TF.GenerationSoftware,Kicad,Pcbnew,7.0.11+dfsg-1build4
; #@! TF.FileFunction,Plated,1,2,PTH
FMAT,2
INCH
; #@! TA.AperFunction,Plated,PTH,ViaDrill
T1C0.0118
; #@! TA.AperFunction,Plated,PTH,ComponentDrill
T2C0.0157
; #@! TA.AperFunction,Plated,PTH,ComponentDrill
T3C0.0236
; #@! TA.AperFunction,Plated,PTH,ComponentDrill
T4C0.0394
; #@! TA.AperFunction,Plated,PTH,ComponentDrill
T5C0.0866
%
G90
G05
T1
X4.5398Y-3.2399
X4.5813Y-3.4393
X4.603Y-3.3574
X4.6398Y-3.2548
X4.6742Y-3.2899
X4.7398Y-3.2584
X4.7398Y-3.2899
X4.7866Y-3.4344
X4.7898Y-3.3399
X4.8398Y-3.2399
X4.9398Y-3.3899
X4.9898Y-4.5399
X5.0898Y-4.4399
X5.0898Y-4.5899
X5.0943Y-3.3834
X5.1398Y-4.4899
X5.2898Y-3.4899
X5.3898Y-3.9399
X5.3898Y-4.5399
X5.3898Y-4.5899
X5.3898Y-4.6399
X5.5398Y-4.0899
X5.5398Y-4.1399
X5.5398Y-4.4899
X5.5898Y-4.4399
X5.5898Y-4.7399
X5.6358Y-4.41
X5.6451Y-4.4401
X5.6558Y-4.0586
X5.6575Y-3.9857
X5.7087Y-3.8399
X5.7087Y-3.9188
X5.7089Y-3.873
X5.7099Y-3.7998
X5.7143Y-3.9838
X5.7398Y-3.7899
X5.7398Y-4.4218
X5.7398Y-4.5399
X5.7398Y-4.5899
X5.7398Y-4.6399
X5.7398Y-4.6899
X5.7582Y-4.0448
X5.8398Y-3.6511
X5.8707Y-4.083
X5.8898Y-4.7399
X5.9022Y-4.0833
X5.9558Y-4.1481
X5.9665Y-4.0833
X5.9898Y-3.7399
X5.9898Y-4.2399
X6.0398Y-3.7399
X6.0398Y-4.1899
X6.0898Y-3.7399
X6.0988Y-3.7989
X6.1898Y-3.8399
X6.1898Y-4.4899
X6.2398Y-4.0899
X6.2898Y-4.7399
X6.3398Y-4.4399
X6.3898Y-3.9399
X6.4398Y-3.7899
X6.4398Y-4.3399
X6.4398Y-4.4162
X6.4398Y-4.5399
X6.4398Y-4.5899
X6.4398Y-4.6399
X6.4398Y-4.6899
X6.4898Y-3.8899
X6.5398Y-4.7399
X6.8398Y-4.4899
X6.8898Y-4.7399
X6.9898Y-4.4399
X7.0398Y-4.5399
X7.0398Y-4.5899
X7.0398Y-4.6399
X7.0398Y-4.6899
X7.0898Y-4.4899
T2
X4.5591Y-3.6614
X4.5591Y-4.7111
X4.5781Y-3.6155
X4.5781Y-3.7074
X4.5781Y-4.6652
X4.5781Y-4.7571
X4.624Y-3.5965
X4.624Y-3.7264
X4.624Y-4.6462
X4.624Y-4.7761
X4.6699Y-3.6155
X4.6699Y-3.7074
X4.6699Y-4.6652
X4.6699Y-4.7571
X4.689Y-3.6614
X4.689Y-4.7111
X5.0138Y-3.1363
X5.0328Y-3.0904
X5.0328Y-3.1823
X5.0787Y-3.0714
X5.0787Y-3.2013
X5.1247Y-3.0904
X5.1247Y-3.1823
X5.1437Y-3.1363
X7.315Y-3.1363
X7.315Y-4.7111
X7.334Y-3.0904
X7.334Y-3.1823
X7.334Y-4.6652
X7.334Y-4.7571
X7.3799Y-3.0714
X7.3799Y-3.2013
X7.3799Y-4.6462
X7.3799Y-4.7761
X7.4259Y-3.0904
X7.4259Y-3.1823
X7.4259Y-4.6652
X7.4259Y-4.7571
X7.4449Y-3.1363
X7.4449Y-4.7111
T4
X5.2398Y-3.8395
X5.2398Y-3.9395
X5.2398Y-4.0395
X5.2398Y-4.1395
T5
X4.624Y-3.6614
X4.624Y-4.7111
X5.0787Y-3.1363
X7.3799Y-3.1363
X7.3799Y-4.7111
T3
G00X4.5169Y-3.0178
M15
G01X4.5169Y-2.9942
M16
G05
G00X4.5169Y-3.1922
M15
G01X4.5169Y-3.1489
M16
G05
G00X4.8571Y-3.0178
M15
G01X4.8571Y-2.9942
M16
G05
G00X4.8571Y-3.1922
M15
G01X4.8571Y-3.1489
M16
G05
M30
