%TF.GenerationSoftware,KiCad,Pcbnew,7.0.11+dfsg-1build4*%
%TF.CreationDate,2026-04-16T21:05:03+02:00*%
%TF.ProjectId,Motherboard,4d6f7468-6572-4626-9f61-72642e6b6963,v1.0*%
%TF.SameCoordinates,Original*%
%TF.FileFunction,Copper,L2,Bot*%
%TF.FilePolarity,Positive*%
%FSLAX46Y46*%
G04 Gerber Fmt 4.6, Leading zero omitted, Abs format (unit mm)*
G04 Created by KiCad (PCBNEW 7.0.11+dfsg-1build4) date 2026-04-16 21:05:03*
%MOMM*%
%LPD*%
G01*
G04 APERTURE LIST*
%TA.AperFunction,ComponentPad*%
%ADD10R,1.700000X1.700000*%
%TD*%
%TA.AperFunction,ComponentPad*%
%ADD11O,1.700000X1.700000*%
%TD*%
%TA.AperFunction,ComponentPad*%
%ADD12C,0.700000*%
%TD*%
%TA.AperFunction,ComponentPad*%
%ADD13C,4.400000*%
%TD*%
%TA.AperFunction,ComponentPad*%
%ADD14O,1.000000X2.100000*%
%TD*%
%TA.AperFunction,ComponentPad*%
%ADD15O,1.000000X1.600000*%
%TD*%
%TA.AperFunction,ViaPad*%
%ADD16C,0.600000*%
%TD*%
%TA.AperFunction,Conductor*%
%ADD17C,0.500000*%
%TD*%
%TA.AperFunction,Conductor*%
%ADD18C,0.200000*%
%TD*%
G04 APERTURE END LIST*
D10*
%TO.P,J2,1,Pin_1*%
%TO.N,+3V3*%
X133090000Y-105142500D03*
D11*
%TO.P,J2,2,Pin_2*%
%TO.N,GND*%
X133090000Y-102602500D03*
%TO.P,J2,3,Pin_3*%
%TO.N,/SWDIO*%
X133090000Y-100062500D03*
%TO.P,J2,4,Pin_4*%
%TO.N,/SWCLK*%
X133090000Y-97522500D03*
%TD*%
D12*
%TO.P,H2,1*%
%TO.N,N/C*%
X127350000Y-79662500D03*
X127833274Y-78495774D03*
X127833274Y-80829226D03*
X129000000Y-78012500D03*
D13*
X129000000Y-79662500D03*
D12*
X129000000Y-81312500D03*
X130166726Y-78495774D03*
X130166726Y-80829226D03*
X130650000Y-79662500D03*
%TD*%
%TO.P,H4,1*%
%TO.N,N/C*%
X185800000Y-119662500D03*
X186283274Y-118495774D03*
X186283274Y-120829226D03*
X187450000Y-118012500D03*
D13*
X187450000Y-119662500D03*
D12*
X187450000Y-121312500D03*
X188616726Y-118495774D03*
X188616726Y-120829226D03*
X189100000Y-119662500D03*
%TD*%
%TO.P,H1,1*%
%TO.N,N/C*%
X185800000Y-79662500D03*
X186283274Y-78495774D03*
X186283274Y-80829226D03*
X187450000Y-78012500D03*
D13*
X187450000Y-79662500D03*
D12*
X187450000Y-81312500D03*
X188616726Y-78495774D03*
X188616726Y-80829226D03*
X189100000Y-79662500D03*
%TD*%
%TO.P,H3,1*%
%TO.N,N/C*%
X115800000Y-119662500D03*
X116283274Y-118495774D03*
X116283274Y-120829226D03*
X117450000Y-118012500D03*
D13*
X117450000Y-119662500D03*
D12*
X117450000Y-121312500D03*
X118616726Y-118495774D03*
X118616726Y-120829226D03*
X119100000Y-119662500D03*
%TD*%
D14*
%TO.P,J1,S1,SHIELD*%
%TO.N,unconnected-(J1-SHIELD-PadS1)*%
X123370000Y-80532500D03*
D15*
X123370000Y-76352500D03*
D14*
X114730000Y-80532500D03*
D15*
X114730000Y-76352500D03*
%TD*%
D12*
%TO.P,H5,1*%
%TO.N,N/C*%
X115800000Y-93000000D03*
X116283274Y-91833274D03*
X116283274Y-94166726D03*
X117450000Y-91350000D03*
D13*
X117450000Y-93000000D03*
D12*
X117450000Y-94650000D03*
X118616726Y-91833274D03*
X118616726Y-94166726D03*
X119100000Y-93000000D03*
%TD*%
D16*
%TO.N,+5V*%
X120390000Y-83562500D03*
X118725000Y-83562500D03*
%TO.N,GND*%
X158490000Y-103882500D03*
X141980000Y-120392500D03*
X122930000Y-82292500D03*
X115310000Y-82292500D03*
X136900000Y-100072500D03*
X157220000Y-97532500D03*
X129396331Y-85937161D03*
X130550000Y-114042500D03*
X166110000Y-120392500D03*
X180080000Y-114042500D03*
X125470000Y-86102500D03*
X153410000Y-106422500D03*
X148330000Y-92737500D03*
X159760000Y-120392500D03*
X126740000Y-115312500D03*
X162300000Y-100072500D03*
X152140000Y-107692500D03*
X116365000Y-87357500D03*
X149600000Y-120392500D03*
X175000000Y-120392500D03*
X121580000Y-87232500D03*
X134360000Y-88642500D03*
%TO.N,+3V3*%
X143700000Y-101237500D03*
X140710000Y-114042500D03*
X173730000Y-114042500D03*
X157220000Y-114042500D03*
X140710000Y-105152500D03*
X145001684Y-99537500D03*
%TO.N,Net-(J1-CC1)*%
X121660000Y-84832500D03*
X120390000Y-82762497D03*
%TO.N,Net-(J1-CC2)*%
X116915000Y-85277500D03*
X117850000Y-82672502D03*
%TO.N,/SWDIO*%
X145142862Y-101187500D03*
X140710000Y-103882500D03*
%TO.N,/SWCLK*%
X146259530Y-102737499D03*
X143658171Y-103087406D03*
%TO.N,I2C_SCL*%
X149116597Y-103707169D03*
X143150312Y-112013659D03*
%TO.N,I2C_SDA*%
X149916545Y-103715172D03*
X143385630Y-112778270D03*
X177540000Y-112772500D03*
X161030000Y-112772500D03*
X141980000Y-112772500D03*
%TO.N,MUX_S0*%
X163570000Y-119122500D03*
X178810000Y-119122500D03*
X145790000Y-119122500D03*
X145790000Y-96262500D03*
X129280000Y-116582500D03*
%TO.N,MUX_S1*%
X163570000Y-117852500D03*
X136900000Y-117852500D03*
X145790000Y-117852500D03*
X178810000Y-117852500D03*
X145031204Y-96515940D03*
%TO.N,MUX_S2*%
X145790000Y-116582500D03*
X145000000Y-97532500D03*
X163570000Y-116582500D03*
X136900000Y-116582500D03*
X178810000Y-116582500D03*
%TO.N,MUX_S3*%
X178810000Y-115312500D03*
X145790000Y-115312500D03*
X136900000Y-115312500D03*
X163570000Y-115312500D03*
X145006610Y-98374420D03*
%TO.N,CH1_ANALOG*%
X154908958Y-96491458D03*
X164840000Y-98802500D03*
%TO.N,CH2_ANALOG*%
X163570000Y-110232500D03*
X163570000Y-96262500D03*
X163570000Y-112172500D03*
X154680000Y-94992500D03*
%TO.N,CH3_ANALOG*%
X153410000Y-94992500D03*
X145790000Y-112313350D03*
%TO.N,CH4_ANALOG*%
X129280000Y-112772500D03*
X152140000Y-94992500D03*
%TO.N,Net-(U1-BOOT0)*%
X151550000Y-103715172D03*
X151277646Y-105362500D03*
%TD*%
D17*
%TO.N,+5V*%
X120390000Y-83562500D02*
X118725000Y-83562500D01*
%TO.N,+3V3*%
X143700000Y-101237500D02*
X143700000Y-100839184D01*
X140710000Y-114042500D02*
X157220000Y-114042500D01*
X157220000Y-114042500D02*
X173730000Y-114042500D01*
X140710000Y-105152500D02*
X140710000Y-114042500D01*
X143700000Y-100839184D02*
X145001684Y-99537500D01*
D18*
%TO.N,Net-(J1-CC1)*%
X121660000Y-83983971D02*
X121660000Y-84832500D01*
X120438526Y-82762497D02*
X121660000Y-83983971D01*
X120390000Y-82762497D02*
X120438526Y-82762497D01*
%TO.N,Net-(J1-CC2)*%
X116915000Y-83607502D02*
X116915000Y-85277500D01*
X117850000Y-82672502D02*
X116915000Y-83607502D01*
%TO.N,/SWDIO*%
X145142862Y-101187500D02*
X144709547Y-101187500D01*
X144709547Y-101187500D02*
X142014547Y-103882500D01*
X142014547Y-103882500D02*
X140710000Y-103882500D01*
%TO.N,/SWCLK*%
X143658171Y-102804562D02*
X143658171Y-103087406D01*
X143725234Y-102737499D02*
X143658171Y-102804562D01*
X146259530Y-102737499D02*
X143725234Y-102737499D01*
%TO.N,I2C_SCL*%
X149116597Y-103707169D02*
X149116597Y-105635903D01*
X149116597Y-105635903D02*
X143150312Y-111602188D01*
X143150312Y-111602188D02*
X143150312Y-112013659D01*
%TO.N,I2C_SDA*%
X143385630Y-112778270D02*
X141985770Y-112778270D01*
X143385630Y-112626870D02*
X143385630Y-112778270D01*
X143520710Y-112913350D02*
X160889150Y-112913350D01*
X149916545Y-103715172D02*
X149916545Y-106095955D01*
X160889150Y-112913350D02*
X161030000Y-112772500D01*
X141985770Y-112778270D02*
X141980000Y-112772500D01*
X149916545Y-106095955D02*
X143385630Y-112626870D01*
X143385630Y-112778270D02*
X143520710Y-112913350D01*
X161030000Y-112772500D02*
X177540000Y-112772500D01*
%TO.N,MUX_S0*%
X163344310Y-119122500D02*
X163570000Y-119122500D01*
X135430000Y-105268615D02*
X144782675Y-95915940D01*
X144782675Y-95915940D02*
X145443440Y-95915940D01*
X145790000Y-119122500D02*
X163344310Y-119122500D01*
X135430000Y-119122500D02*
X145790000Y-119122500D01*
X131820000Y-119122500D02*
X135430000Y-119122500D01*
X163570000Y-119122500D02*
X178810000Y-119122500D01*
X135430000Y-119122500D02*
X135430000Y-105268615D01*
X145443440Y-95915940D02*
X145790000Y-96262500D01*
X129280000Y-116582500D02*
X131820000Y-119122500D01*
%TO.N,MUX_S1*%
X145790000Y-117852500D02*
X163570000Y-117852500D01*
X163570000Y-117852500D02*
X178810000Y-117852500D01*
X136900000Y-117852500D02*
X145790000Y-117852500D01*
X135830000Y-116782500D02*
X135830000Y-105717144D01*
X135830000Y-105717144D02*
X145031204Y-96515940D01*
X136900000Y-117852500D02*
X135830000Y-116782500D01*
%TO.N,MUX_S2*%
X145790000Y-116582500D02*
X136900000Y-116582500D01*
X136230000Y-106302500D02*
X145000000Y-97532500D01*
X163570000Y-116582500D02*
X178810000Y-116582500D01*
X145790000Y-116582500D02*
X163570000Y-116582500D01*
X136230000Y-115912500D02*
X136230000Y-106302500D01*
X136900000Y-116582500D02*
X136230000Y-115912500D01*
%TO.N,MUX_S3*%
X136900000Y-115312500D02*
X145790000Y-115312500D01*
X145006610Y-98374420D02*
X144723766Y-98374420D01*
X163570000Y-115312500D02*
X178810000Y-115312500D01*
X145790000Y-115312500D02*
X163570000Y-115312500D01*
X144723766Y-98374420D02*
X136630000Y-106468186D01*
X136630000Y-115042500D02*
X136900000Y-115312500D01*
X136630000Y-106468186D02*
X136630000Y-115042500D01*
%TO.N,CH1_ANALOG*%
X162528958Y-96491458D02*
X164840000Y-98802500D01*
X154908958Y-96491458D02*
X162528958Y-96491458D01*
%TO.N,CH2_ANALOG*%
X162300000Y-94992500D02*
X163570000Y-96262500D01*
X163570000Y-110232500D02*
X163570000Y-112172500D01*
X154680000Y-94992500D02*
X162300000Y-94992500D01*
%TO.N,CH3_ANALOG*%
X153410000Y-94992500D02*
X149600000Y-98802500D01*
X149600000Y-101342500D02*
X150677646Y-102420146D01*
X149600000Y-98802500D02*
X149600000Y-101342500D01*
X150677646Y-107425704D02*
X145790000Y-112313350D01*
X150677646Y-102420146D02*
X150677646Y-107425704D01*
%TO.N,CH4_ANALOG*%
X129280000Y-111532500D02*
X129280000Y-112772500D01*
X152140000Y-94992500D02*
X145140429Y-94992500D01*
X135030000Y-105102929D02*
X135030000Y-105782500D01*
X135030000Y-105782500D02*
X129280000Y-111532500D01*
X145140429Y-94992500D02*
X135030000Y-105102929D01*
%TO.N,Net-(U1-BOOT0)*%
X151250000Y-105362500D02*
X151277646Y-105362500D01*
X151250000Y-104015172D02*
X151250000Y-105362500D01*
X151550000Y-103715172D02*
X151250000Y-104015172D01*
%TD*%
%TA.AperFunction,Conductor*%
%TO.N,GND*%
G36*
X114001750Y-75152685D02*
G01*
X114047505Y-75205489D01*
X114057449Y-75274647D01*
X114028424Y-75338203D01*
X114020143Y-75346874D01*
X113966949Y-75397438D01*
X113966948Y-75397440D01*
X113850705Y-75564449D01*
X113770459Y-75751443D01*
X113729500Y-75950758D01*
X113729500Y-76703243D01*
X113744925Y-76854939D01*
X113805837Y-77049079D01*
X113805844Y-77049094D01*
X113904589Y-77226999D01*
X113904592Y-77227004D01*
X114037132Y-77381393D01*
X114037134Y-77381395D01*
X114198037Y-77505945D01*
X114198038Y-77505945D01*
X114198042Y-77505948D01*
X114380729Y-77595560D01*
X114577715Y-77646563D01*
X114780936Y-77656869D01*
X114982071Y-77626056D01*
X115172887Y-77555386D01*
X115345571Y-77447752D01*
X115493053Y-77307559D01*
X115609295Y-77140549D01*
X115689540Y-76953558D01*
X115730500Y-76754241D01*
X115730500Y-76001758D01*
X115715074Y-75850062D01*
X115715074Y-75850060D01*
X115654162Y-75655920D01*
X115654160Y-75655916D01*
X115654159Y-75655912D01*
X115555409Y-75477998D01*
X115555408Y-75477997D01*
X115555407Y-75477995D01*
X115435027Y-75337770D01*
X115406295Y-75274082D01*
X115416557Y-75204970D01*
X115462555Y-75152377D01*
X115529113Y-75133000D01*
X122574711Y-75133000D01*
X122641750Y-75152685D01*
X122687505Y-75205489D01*
X122697449Y-75274647D01*
X122668424Y-75338203D01*
X122660143Y-75346874D01*
X122606949Y-75397438D01*
X122606948Y-75397440D01*
X122490705Y-75564449D01*
X122410459Y-75751443D01*
X122369500Y-75950758D01*
X122369500Y-76703243D01*
X122384925Y-76854939D01*
X122445837Y-77049079D01*
X122445844Y-77049094D01*
X122544589Y-77226999D01*
X122544592Y-77227004D01*
X122677132Y-77381393D01*
X122677134Y-77381395D01*
X122838037Y-77505945D01*
X122838038Y-77505945D01*
X122838042Y-77505948D01*
X123020729Y-77595560D01*
X123217715Y-77646563D01*
X123420936Y-77656869D01*
X123622071Y-77626056D01*
X123812887Y-77555386D01*
X123985571Y-77447752D01*
X124133053Y-77307559D01*
X124249295Y-77140549D01*
X124329540Y-76953558D01*
X124370500Y-76754241D01*
X124370500Y-76001758D01*
X124355074Y-75850062D01*
X124355074Y-75850060D01*
X124294162Y-75655920D01*
X124294160Y-75655916D01*
X124294159Y-75655912D01*
X124195409Y-75477998D01*
X124195408Y-75477997D01*
X124195407Y-75477995D01*
X124075027Y-75337770D01*
X124046295Y-75274082D01*
X124056557Y-75204970D01*
X124102555Y-75152377D01*
X124169113Y-75133000D01*
X191825500Y-75133000D01*
X191892539Y-75152685D01*
X191938294Y-75205489D01*
X191949500Y-75257000D01*
X191949500Y-124038000D01*
X191929815Y-124105039D01*
X191877011Y-124150794D01*
X191825500Y-124162000D01*
X113074500Y-124162000D01*
X113007461Y-124142315D01*
X112961706Y-124089511D01*
X112950500Y-124038000D01*
X112950500Y-119662500D01*
X114744564Y-119662500D01*
X114764289Y-119988599D01*
X114823178Y-120309952D01*
X114920366Y-120621842D01*
X114920370Y-120621854D01*
X114920373Y-120621861D01*
X115054455Y-120919779D01*
X115218901Y-121191806D01*
X115223473Y-121199368D01*
X115424954Y-121456539D01*
X115655960Y-121687545D01*
X115913131Y-121889026D01*
X115913134Y-121889028D01*
X115913137Y-121889030D01*
X116192721Y-122058045D01*
X116490639Y-122192127D01*
X116490652Y-122192131D01*
X116490657Y-122192133D01*
X116802547Y-122289321D01*
X117123896Y-122348210D01*
X117450000Y-122367936D01*
X117776104Y-122348210D01*
X118097453Y-122289321D01*
X118409361Y-122192127D01*
X118707279Y-122058045D01*
X118986863Y-121889030D01*
X119244036Y-121687548D01*
X119475048Y-121456536D01*
X119676530Y-121199363D01*
X119845545Y-120919779D01*
X119979627Y-120621861D01*
X120076821Y-120309953D01*
X120135710Y-119988604D01*
X120155436Y-119662500D01*
X120135710Y-119336396D01*
X120076821Y-119015047D01*
X119979627Y-118703139D01*
X119845545Y-118405221D01*
X119676530Y-118125637D01*
X119676528Y-118125634D01*
X119676526Y-118125631D01*
X119475045Y-117868460D01*
X119244039Y-117637454D01*
X118986868Y-117435973D01*
X118935179Y-117404726D01*
X118707279Y-117266955D01*
X118409361Y-117132873D01*
X118409354Y-117132870D01*
X118409342Y-117132866D01*
X118097452Y-117035678D01*
X117776099Y-116976789D01*
X117450000Y-116957064D01*
X117123900Y-116976789D01*
X116802547Y-117035678D01*
X116490657Y-117132866D01*
X116490641Y-117132872D01*
X116490639Y-117132873D01*
X116314126Y-117212315D01*
X116192725Y-117266953D01*
X116192723Y-117266954D01*
X115913131Y-117435973D01*
X115655960Y-117637454D01*
X115424954Y-117868460D01*
X115223473Y-118125631D01*
X115054454Y-118405223D01*
X115054453Y-118405225D01*
X114920372Y-118703142D01*
X114920366Y-118703157D01*
X114823178Y-119015047D01*
X114764289Y-119336400D01*
X114744564Y-119662500D01*
X112950500Y-119662500D01*
X112950500Y-116582503D01*
X128474435Y-116582503D01*
X128494630Y-116761749D01*
X128494631Y-116761754D01*
X128554211Y-116932023D01*
X128619342Y-117035678D01*
X128650184Y-117084762D01*
X128777738Y-117212316D01*
X128930478Y-117308289D01*
X129100745Y-117367868D01*
X129187669Y-117377661D01*
X129252080Y-117404726D01*
X129261464Y-117413199D01*
X130313303Y-118465039D01*
X131361803Y-119513539D01*
X131372497Y-119525733D01*
X131391717Y-119550781D01*
X131419983Y-119572470D01*
X131420003Y-119572487D01*
X131517157Y-119647035D01*
X131517158Y-119647035D01*
X131517159Y-119647036D01*
X131663238Y-119707544D01*
X131741619Y-119717863D01*
X131819999Y-119728182D01*
X131820000Y-119728182D01*
X131851302Y-119724060D01*
X131867487Y-119723000D01*
X135382513Y-119723000D01*
X135398697Y-119724060D01*
X135430000Y-119728182D01*
X135461302Y-119724060D01*
X135477487Y-119723000D01*
X145207588Y-119723000D01*
X145274627Y-119742685D01*
X145284903Y-119750055D01*
X145287736Y-119752314D01*
X145287738Y-119752316D01*
X145440478Y-119848289D01*
X145610745Y-119907868D01*
X145610750Y-119907869D01*
X145789996Y-119928065D01*
X145790000Y-119928065D01*
X145790004Y-119928065D01*
X145969249Y-119907869D01*
X145969252Y-119907868D01*
X145969255Y-119907868D01*
X146139522Y-119848289D01*
X146292262Y-119752316D01*
X146292267Y-119752310D01*
X146295097Y-119750055D01*
X146297275Y-119749165D01*
X146298158Y-119748611D01*
X146298255Y-119748765D01*
X146359783Y-119723645D01*
X146372412Y-119723000D01*
X162987588Y-119723000D01*
X163054627Y-119742685D01*
X163064903Y-119750055D01*
X163067736Y-119752314D01*
X163067738Y-119752316D01*
X163220478Y-119848289D01*
X163390745Y-119907868D01*
X163390750Y-119907869D01*
X163569996Y-119928065D01*
X163570000Y-119928065D01*
X163570004Y-119928065D01*
X163749249Y-119907869D01*
X163749252Y-119907868D01*
X163749255Y-119907868D01*
X163919522Y-119848289D01*
X164072262Y-119752316D01*
X164072267Y-119752310D01*
X164075097Y-119750055D01*
X164077275Y-119749165D01*
X164078158Y-119748611D01*
X164078255Y-119748765D01*
X164139783Y-119723645D01*
X164152412Y-119723000D01*
X178227588Y-119723000D01*
X178294627Y-119742685D01*
X178304903Y-119750055D01*
X178307736Y-119752314D01*
X178307738Y-119752316D01*
X178460478Y-119848289D01*
X178630745Y-119907868D01*
X178630750Y-119907869D01*
X178809996Y-119928065D01*
X178810000Y-119928065D01*
X178810004Y-119928065D01*
X178989249Y-119907869D01*
X178989252Y-119907868D01*
X178989255Y-119907868D01*
X179159522Y-119848289D01*
X179312262Y-119752316D01*
X179402078Y-119662500D01*
X184744564Y-119662500D01*
X184764289Y-119988599D01*
X184823178Y-120309952D01*
X184920366Y-120621842D01*
X184920370Y-120621854D01*
X184920373Y-120621861D01*
X185054455Y-120919779D01*
X185218901Y-121191806D01*
X185223473Y-121199368D01*
X185424954Y-121456539D01*
X185655960Y-121687545D01*
X185913131Y-121889026D01*
X185913134Y-121889028D01*
X185913137Y-121889030D01*
X186192721Y-122058045D01*
X186490639Y-122192127D01*
X186490652Y-122192131D01*
X186490657Y-122192133D01*
X186802547Y-122289321D01*
X187123896Y-122348210D01*
X187450000Y-122367936D01*
X187776104Y-122348210D01*
X188097453Y-122289321D01*
X188409361Y-122192127D01*
X188707279Y-122058045D01*
X188986863Y-121889030D01*
X189244036Y-121687548D01*
X189475048Y-121456536D01*
X189676530Y-121199363D01*
X189845545Y-120919779D01*
X189979627Y-120621861D01*
X190076821Y-120309953D01*
X190135710Y-119988604D01*
X190155436Y-119662500D01*
X190135710Y-119336396D01*
X190076821Y-119015047D01*
X189979627Y-118703139D01*
X189845545Y-118405221D01*
X189676530Y-118125637D01*
X189676528Y-118125634D01*
X189676526Y-118125631D01*
X189475045Y-117868460D01*
X189244039Y-117637454D01*
X188986868Y-117435973D01*
X188935179Y-117404726D01*
X188707279Y-117266955D01*
X188409361Y-117132873D01*
X188409354Y-117132870D01*
X188409342Y-117132866D01*
X188097452Y-117035678D01*
X187776099Y-116976789D01*
X187450000Y-116957064D01*
X187123900Y-116976789D01*
X186802547Y-117035678D01*
X186490657Y-117132866D01*
X186490641Y-117132872D01*
X186490639Y-117132873D01*
X186314126Y-117212315D01*
X186192725Y-117266953D01*
X186192723Y-117266954D01*
X185913131Y-117435973D01*
X185655960Y-117637454D01*
X185424954Y-117868460D01*
X185223473Y-118125631D01*
X185054454Y-118405223D01*
X185054453Y-118405225D01*
X184920372Y-118703142D01*
X184920366Y-118703157D01*
X184823178Y-119015047D01*
X184764289Y-119336400D01*
X184744564Y-119662500D01*
X179402078Y-119662500D01*
X179439816Y-119624762D01*
X179535789Y-119472022D01*
X179595368Y-119301755D01*
X179615565Y-119122500D01*
X179603458Y-119015047D01*
X179595369Y-118943250D01*
X179595368Y-118943245D01*
X179535788Y-118772976D01*
X179496582Y-118710580D01*
X179439816Y-118620238D01*
X179394759Y-118575181D01*
X179361274Y-118513858D01*
X179366258Y-118444166D01*
X179394759Y-118399819D01*
X179396578Y-118398000D01*
X179439816Y-118354762D01*
X179535789Y-118202022D01*
X179595368Y-118031755D01*
X179610020Y-117901715D01*
X179615565Y-117852503D01*
X179615565Y-117852496D01*
X179595369Y-117673250D01*
X179595368Y-117673245D01*
X179535788Y-117502976D01*
X179474053Y-117404726D01*
X179439816Y-117350238D01*
X179394759Y-117305181D01*
X179361274Y-117243858D01*
X179366258Y-117174166D01*
X179394759Y-117129819D01*
X179439816Y-117084762D01*
X179535789Y-116932022D01*
X179595368Y-116761755D01*
X179615565Y-116582500D01*
X179606567Y-116502642D01*
X179595369Y-116403250D01*
X179595368Y-116403245D01*
X179535788Y-116232976D01*
X179439815Y-116080237D01*
X179394759Y-116035181D01*
X179361274Y-115973858D01*
X179366258Y-115904166D01*
X179394759Y-115859819D01*
X179397867Y-115856711D01*
X179439816Y-115814762D01*
X179535789Y-115662022D01*
X179595368Y-115491755D01*
X179615565Y-115312500D01*
X179595368Y-115133245D01*
X179535789Y-114962978D01*
X179439816Y-114810238D01*
X179312262Y-114682684D01*
X179159523Y-114586711D01*
X178989254Y-114527131D01*
X178989249Y-114527130D01*
X178810004Y-114506935D01*
X178809996Y-114506935D01*
X178630750Y-114527130D01*
X178630745Y-114527131D01*
X178460476Y-114586711D01*
X178307736Y-114682685D01*
X178304903Y-114684945D01*
X178302724Y-114685834D01*
X178301842Y-114686389D01*
X178301744Y-114686234D01*
X178240217Y-114711355D01*
X178227588Y-114712000D01*
X174479095Y-114712000D01*
X174412056Y-114692315D01*
X174366301Y-114639511D01*
X174356357Y-114570353D01*
X174374101Y-114522028D01*
X174455788Y-114392023D01*
X174455789Y-114392022D01*
X174515368Y-114221755D01*
X174535565Y-114042500D01*
X174515368Y-113863245D01*
X174455789Y-113692978D01*
X174455788Y-113692976D01*
X174374101Y-113562972D01*
X174355101Y-113495735D01*
X174375469Y-113428900D01*
X174428737Y-113383686D01*
X174479095Y-113373000D01*
X176957588Y-113373000D01*
X177024627Y-113392685D01*
X177034903Y-113400055D01*
X177037736Y-113402314D01*
X177037738Y-113402316D01*
X177190478Y-113498289D01*
X177360745Y-113557868D01*
X177360750Y-113557869D01*
X177539996Y-113578065D01*
X177540000Y-113578065D01*
X177540004Y-113578065D01*
X177719249Y-113557869D01*
X177719252Y-113557868D01*
X177719255Y-113557868D01*
X177889522Y-113498289D01*
X178042262Y-113402316D01*
X178169816Y-113274762D01*
X178265789Y-113122022D01*
X178325368Y-112951755D01*
X178345565Y-112772500D01*
X178325368Y-112593245D01*
X178265789Y-112422978D01*
X178169816Y-112270238D01*
X178042262Y-112142684D01*
X177986501Y-112107647D01*
X177889523Y-112046711D01*
X177719254Y-111987131D01*
X177719249Y-111987130D01*
X177540004Y-111966935D01*
X177539996Y-111966935D01*
X177360750Y-111987130D01*
X177360745Y-111987131D01*
X177190476Y-112046711D01*
X177037736Y-112142685D01*
X177034903Y-112144945D01*
X177032724Y-112145834D01*
X177031842Y-112146389D01*
X177031744Y-112146234D01*
X176970217Y-112171355D01*
X176957588Y-112172000D01*
X164486322Y-112172000D01*
X164419283Y-112152315D01*
X164373528Y-112099511D01*
X164363102Y-112061883D01*
X164355369Y-111993250D01*
X164355368Y-111993248D01*
X164355368Y-111993245D01*
X164295789Y-111822978D01*
X164199816Y-111670238D01*
X164199814Y-111670236D01*
X164199813Y-111670234D01*
X164197550Y-111667396D01*
X164196659Y-111665215D01*
X164196111Y-111664342D01*
X164196264Y-111664245D01*
X164171144Y-111602709D01*
X164170500Y-111590087D01*
X164170500Y-110814912D01*
X164190185Y-110747873D01*
X164197555Y-110737597D01*
X164199810Y-110734767D01*
X164199816Y-110734762D01*
X164295789Y-110582022D01*
X164355368Y-110411755D01*
X164375565Y-110232500D01*
X164355368Y-110053245D01*
X164295789Y-109882978D01*
X164199816Y-109730238D01*
X164072262Y-109602684D01*
X163919523Y-109506711D01*
X163749254Y-109447131D01*
X163749249Y-109447130D01*
X163570004Y-109426935D01*
X163569996Y-109426935D01*
X163390750Y-109447130D01*
X163390745Y-109447131D01*
X163220476Y-109506711D01*
X163067737Y-109602684D01*
X162940184Y-109730237D01*
X162844211Y-109882976D01*
X162784631Y-110053245D01*
X162784630Y-110053250D01*
X162764435Y-110232496D01*
X162764435Y-110232503D01*
X162784630Y-110411749D01*
X162784631Y-110411754D01*
X162844211Y-110582023D01*
X162940185Y-110734763D01*
X162942445Y-110737597D01*
X162943334Y-110739775D01*
X162943889Y-110740658D01*
X162943734Y-110740755D01*
X162968855Y-110802283D01*
X162969500Y-110814912D01*
X162969500Y-111590087D01*
X162949815Y-111657126D01*
X162942450Y-111667396D01*
X162940186Y-111670234D01*
X162844210Y-111822978D01*
X162784630Y-111993250D01*
X162776898Y-112061883D01*
X162749832Y-112126297D01*
X162692237Y-112165852D01*
X162653678Y-112172000D01*
X161612412Y-112172000D01*
X161545373Y-112152315D01*
X161535097Y-112144945D01*
X161532263Y-112142685D01*
X161532262Y-112142684D01*
X161463553Y-112099511D01*
X161379523Y-112046711D01*
X161209254Y-111987131D01*
X161209249Y-111987130D01*
X161030004Y-111966935D01*
X161029996Y-111966935D01*
X160850750Y-111987130D01*
X160850745Y-111987131D01*
X160680476Y-112046711D01*
X160527737Y-112142684D01*
X160395260Y-112275162D01*
X160393345Y-112273247D01*
X160346232Y-112306308D01*
X160306487Y-112312850D01*
X146939097Y-112312850D01*
X146872058Y-112293165D01*
X146826303Y-112240361D01*
X146816359Y-112171203D01*
X146845384Y-112107647D01*
X146851416Y-112101169D01*
X147878287Y-111074298D01*
X151068690Y-107883893D01*
X151080868Y-107873214D01*
X151105928Y-107853986D01*
X151202182Y-107728545D01*
X151262690Y-107582466D01*
X151278146Y-107465065D01*
X151283328Y-107425704D01*
X151279207Y-107394401D01*
X151278146Y-107378216D01*
X151278146Y-106278821D01*
X151297831Y-106211782D01*
X151350635Y-106166027D01*
X151388258Y-106155601D01*
X151456901Y-106147868D01*
X151627168Y-106088289D01*
X151779908Y-105992316D01*
X151907462Y-105864762D01*
X152003435Y-105712022D01*
X152063014Y-105541755D01*
X152077688Y-105411517D01*
X152083211Y-105362503D01*
X152083211Y-105362496D01*
X152063015Y-105183250D01*
X152063014Y-105183245D01*
X152003434Y-105012976D01*
X151907461Y-104860237D01*
X151886819Y-104839595D01*
X151853334Y-104778272D01*
X151850500Y-104751914D01*
X151850500Y-104540295D01*
X151870185Y-104473256D01*
X151908524Y-104435304D01*
X152052262Y-104344988D01*
X152179816Y-104217434D01*
X152275789Y-104064694D01*
X152335368Y-103894427D01*
X152336270Y-103886423D01*
X152355565Y-103715175D01*
X152355565Y-103715168D01*
X152335369Y-103535922D01*
X152335368Y-103535917D01*
X152300730Y-103436928D01*
X152275789Y-103365650D01*
X152270760Y-103357647D01*
X152204808Y-103252685D01*
X152179816Y-103212910D01*
X152052262Y-103085356D01*
X152039525Y-103077353D01*
X151899523Y-102989383D01*
X151729254Y-102929803D01*
X151729249Y-102929802D01*
X151550004Y-102909607D01*
X151549996Y-102909607D01*
X151416029Y-102924701D01*
X151347207Y-102912646D01*
X151295828Y-102865297D01*
X151278146Y-102801481D01*
X151278146Y-102467640D01*
X151279207Y-102451454D01*
X151283329Y-102420146D01*
X151283329Y-102420145D01*
X151274423Y-102352500D01*
X151262690Y-102263384D01*
X151210340Y-102136999D01*
X151202184Y-102117309D01*
X151202183Y-102117308D01*
X151202182Y-102117305D01*
X151178927Y-102086999D01*
X151105928Y-101991864D01*
X151081172Y-101972868D01*
X151080874Y-101972639D01*
X151068680Y-101961945D01*
X150236819Y-101130084D01*
X150203334Y-101068761D01*
X150200500Y-101042403D01*
X150200500Y-99102596D01*
X150220185Y-99035557D01*
X150236814Y-99014920D01*
X153428535Y-95823198D01*
X153489856Y-95789715D01*
X153502311Y-95787663D01*
X153589255Y-95777868D01*
X153759522Y-95718289D01*
X153912262Y-95622316D01*
X153957319Y-95577259D01*
X154018642Y-95543774D01*
X154088334Y-95548758D01*
X154132681Y-95577259D01*
X154177738Y-95622316D01*
X154330478Y-95718289D01*
X154333663Y-95720290D01*
X154379954Y-95772625D01*
X154390602Y-95841678D01*
X154362227Y-95905527D01*
X154355373Y-95912965D01*
X154279141Y-95989197D01*
X154183169Y-96141934D01*
X154123589Y-96312203D01*
X154123588Y-96312208D01*
X154103393Y-96491454D01*
X154103393Y-96491461D01*
X154123588Y-96670707D01*
X154123589Y-96670712D01*
X154183169Y-96840981D01*
X154215426Y-96892317D01*
X154279142Y-96993720D01*
X154406696Y-97121274D01*
X154559436Y-97217247D01*
X154729703Y-97276826D01*
X154729708Y-97276827D01*
X154908954Y-97297023D01*
X154908958Y-97297023D01*
X154908962Y-97297023D01*
X155088207Y-97276827D01*
X155088210Y-97276826D01*
X155088213Y-97276826D01*
X155258480Y-97217247D01*
X155411220Y-97121274D01*
X155411225Y-97121268D01*
X155414055Y-97119013D01*
X155416233Y-97118123D01*
X155417116Y-97117569D01*
X155417213Y-97117723D01*
X155478741Y-97092603D01*
X155491370Y-97091958D01*
X162228861Y-97091958D01*
X162295900Y-97111643D01*
X162316542Y-97128277D01*
X164009298Y-98821033D01*
X164042783Y-98882356D01*
X164044837Y-98894830D01*
X164054630Y-98981749D01*
X164114210Y-99152021D01*
X164210184Y-99304762D01*
X164337738Y-99432316D01*
X164490478Y-99528289D01*
X164660745Y-99587868D01*
X164660750Y-99587869D01*
X164839996Y-99608065D01*
X164840000Y-99608065D01*
X164840004Y-99608065D01*
X165019249Y-99587869D01*
X165019252Y-99587868D01*
X165019255Y-99587868D01*
X165189522Y-99528289D01*
X165342262Y-99432316D01*
X165469816Y-99304762D01*
X165565789Y-99152022D01*
X165625368Y-98981755D01*
X165627997Y-98958423D01*
X165645565Y-98802503D01*
X165645565Y-98802496D01*
X165625369Y-98623250D01*
X165625368Y-98623245D01*
X165582123Y-98499659D01*
X165565789Y-98452978D01*
X165469816Y-98300238D01*
X165342262Y-98172684D01*
X165189521Y-98076710D01*
X165019249Y-98017130D01*
X164932330Y-98007337D01*
X164867916Y-97980270D01*
X164858533Y-97971798D01*
X164002143Y-97115408D01*
X163968658Y-97054085D01*
X163973642Y-96984393D01*
X164015514Y-96928460D01*
X164023845Y-96922737D01*
X164072262Y-96892316D01*
X164199816Y-96764762D01*
X164295789Y-96612022D01*
X164355368Y-96441755D01*
X164365879Y-96348465D01*
X164375565Y-96262503D01*
X164375565Y-96262496D01*
X164355369Y-96083250D01*
X164355368Y-96083245D01*
X164295788Y-95912976D01*
X164231267Y-95810292D01*
X164199816Y-95760238D01*
X164072262Y-95632684D01*
X164062931Y-95626821D01*
X163919521Y-95536710D01*
X163749249Y-95477130D01*
X163662330Y-95467337D01*
X163597916Y-95440270D01*
X163588533Y-95431798D01*
X162758199Y-94601464D01*
X162747504Y-94589269D01*
X162728283Y-94564219D01*
X162728279Y-94564216D01*
X162602841Y-94467964D01*
X162538287Y-94441225D01*
X162456762Y-94407456D01*
X162456760Y-94407455D01*
X162339361Y-94392000D01*
X162300000Y-94386818D01*
X162268697Y-94390939D01*
X162252513Y-94392000D01*
X155262412Y-94392000D01*
X155195373Y-94372315D01*
X155185097Y-94364945D01*
X155182263Y-94362685D01*
X155182262Y-94362684D01*
X155125496Y-94327015D01*
X155029523Y-94266711D01*
X154859254Y-94207131D01*
X154859249Y-94207130D01*
X154680004Y-94186935D01*
X154679996Y-94186935D01*
X154500750Y-94207130D01*
X154500745Y-94207131D01*
X154330476Y-94266711D01*
X154177737Y-94362684D01*
X154132680Y-94407741D01*
X154071357Y-94441225D01*
X154001665Y-94436240D01*
X153957320Y-94407741D01*
X153912263Y-94362685D01*
X153912262Y-94362684D01*
X153759523Y-94266711D01*
X153589254Y-94207131D01*
X153589249Y-94207130D01*
X153410004Y-94186935D01*
X153409996Y-94186935D01*
X153230750Y-94207130D01*
X153230745Y-94207131D01*
X153060476Y-94266711D01*
X152907737Y-94362684D01*
X152862680Y-94407741D01*
X152801357Y-94441225D01*
X152731665Y-94436240D01*
X152687320Y-94407741D01*
X152642263Y-94362685D01*
X152642262Y-94362684D01*
X152489523Y-94266711D01*
X152319254Y-94207131D01*
X152319249Y-94207130D01*
X152140004Y-94186935D01*
X152139996Y-94186935D01*
X151960750Y-94207130D01*
X151960745Y-94207131D01*
X151790476Y-94266711D01*
X151637736Y-94362685D01*
X151634903Y-94364945D01*
X151632724Y-94365834D01*
X151631842Y-94366389D01*
X151631744Y-94366234D01*
X151570217Y-94391355D01*
X151557588Y-94392000D01*
X145187916Y-94392000D01*
X145171731Y-94390939D01*
X145140429Y-94386818D01*
X145101068Y-94392000D01*
X144983668Y-94407455D01*
X144983666Y-94407456D01*
X144837586Y-94467964D01*
X144712147Y-94564216D01*
X144692918Y-94589275D01*
X144682227Y-94601465D01*
X134652180Y-104631513D01*
X134590857Y-104664998D01*
X134521165Y-104660014D01*
X134465232Y-104618142D01*
X134440815Y-104552678D01*
X134440499Y-104543832D01*
X134440499Y-104244629D01*
X134440498Y-104244623D01*
X134440497Y-104244616D01*
X134435299Y-104196257D01*
X134434091Y-104185016D01*
X134383797Y-104050171D01*
X134383793Y-104050164D01*
X134297547Y-103934955D01*
X134297544Y-103934952D01*
X134182335Y-103848706D01*
X134182328Y-103848702D01*
X134050401Y-103799497D01*
X133994467Y-103757626D01*
X133970050Y-103692162D01*
X133984902Y-103623889D01*
X134006053Y-103595633D01*
X134128108Y-103473578D01*
X134263600Y-103280078D01*
X134363429Y-103065992D01*
X134363432Y-103065986D01*
X134420636Y-102852500D01*
X133523686Y-102852500D01*
X133549493Y-102812344D01*
X133590000Y-102674389D01*
X133590000Y-102530611D01*
X133549493Y-102392656D01*
X133523686Y-102352500D01*
X134420636Y-102352500D01*
X134420635Y-102352499D01*
X134363432Y-102139013D01*
X134363429Y-102139007D01*
X134263600Y-101924922D01*
X134263599Y-101924920D01*
X134128113Y-101731426D01*
X134128108Y-101731420D01*
X133961078Y-101564390D01*
X133775405Y-101434379D01*
X133731780Y-101379802D01*
X133724588Y-101310304D01*
X133756110Y-101247949D01*
X133775406Y-101231230D01*
X133783961Y-101225240D01*
X133961401Y-101100995D01*
X134128495Y-100933901D01*
X134264035Y-100740330D01*
X134363903Y-100526163D01*
X134425063Y-100297908D01*
X134445659Y-100062500D01*
X134425063Y-99827092D01*
X134363903Y-99598837D01*
X134264035Y-99384671D01*
X134245532Y-99358245D01*
X134128494Y-99191097D01*
X133961402Y-99024006D01*
X133961396Y-99024001D01*
X133775842Y-98894075D01*
X133732217Y-98839498D01*
X133725023Y-98770000D01*
X133756546Y-98707645D01*
X133775842Y-98690925D01*
X133840374Y-98645739D01*
X133961401Y-98560995D01*
X134128495Y-98393901D01*
X134264035Y-98200330D01*
X134363903Y-97986163D01*
X134425063Y-97757908D01*
X134445659Y-97522500D01*
X134425063Y-97287092D01*
X134373792Y-97095744D01*
X134363905Y-97058844D01*
X134363904Y-97058843D01*
X134363903Y-97058837D01*
X134264035Y-96844671D01*
X134261452Y-96840981D01*
X134128494Y-96651097D01*
X133961402Y-96484006D01*
X133961395Y-96484001D01*
X133767834Y-96348467D01*
X133767830Y-96348465D01*
X133767828Y-96348464D01*
X133553663Y-96248597D01*
X133553659Y-96248596D01*
X133553655Y-96248594D01*
X133325413Y-96187438D01*
X133325403Y-96187436D01*
X133090001Y-96166841D01*
X133089999Y-96166841D01*
X132854596Y-96187436D01*
X132854586Y-96187438D01*
X132626344Y-96248594D01*
X132626335Y-96248598D01*
X132412171Y-96348464D01*
X132412169Y-96348465D01*
X132218597Y-96484005D01*
X132051505Y-96651097D01*
X131915965Y-96844669D01*
X131915964Y-96844671D01*
X131816098Y-97058835D01*
X131816094Y-97058844D01*
X131754938Y-97287086D01*
X131754936Y-97287096D01*
X131734341Y-97522499D01*
X131734341Y-97522500D01*
X131754936Y-97757903D01*
X131754938Y-97757913D01*
X131816094Y-97986155D01*
X131816096Y-97986159D01*
X131816097Y-97986163D01*
X131903073Y-98172684D01*
X131915965Y-98200330D01*
X131915967Y-98200334D01*
X131985921Y-98300238D01*
X132037861Y-98374416D01*
X132051501Y-98393895D01*
X132051506Y-98393902D01*
X132218597Y-98560993D01*
X132218603Y-98560998D01*
X132404158Y-98690925D01*
X132447783Y-98745502D01*
X132454977Y-98815000D01*
X132423454Y-98877355D01*
X132404158Y-98894075D01*
X132218597Y-99024005D01*
X132051505Y-99191097D01*
X131915965Y-99384669D01*
X131915964Y-99384671D01*
X131816098Y-99598835D01*
X131816094Y-99598844D01*
X131754938Y-99827086D01*
X131754936Y-99827096D01*
X131734341Y-100062499D01*
X131734341Y-100062500D01*
X131754936Y-100297903D01*
X131754938Y-100297913D01*
X131816094Y-100526155D01*
X131816096Y-100526159D01*
X131816097Y-100526163D01*
X131830796Y-100557684D01*
X131915965Y-100740330D01*
X131915967Y-100740334D01*
X132051501Y-100933895D01*
X132051506Y-100933902D01*
X132218597Y-101100993D01*
X132218603Y-101100998D01*
X132404594Y-101231230D01*
X132448219Y-101285807D01*
X132455413Y-101355305D01*
X132423890Y-101417660D01*
X132404595Y-101434380D01*
X132218922Y-101564390D01*
X132218920Y-101564391D01*
X132051891Y-101731420D01*
X132051886Y-101731426D01*
X131916400Y-101924920D01*
X131916399Y-101924922D01*
X131816570Y-102139007D01*
X131816567Y-102139013D01*
X131759364Y-102352499D01*
X131759364Y-102352500D01*
X132656314Y-102352500D01*
X132630507Y-102392656D01*
X132590000Y-102530611D01*
X132590000Y-102674389D01*
X132630507Y-102812344D01*
X132656314Y-102852500D01*
X131759364Y-102852500D01*
X131816567Y-103065986D01*
X131816570Y-103065992D01*
X131916399Y-103280078D01*
X132051894Y-103473582D01*
X132173946Y-103595634D01*
X132207431Y-103656957D01*
X132202447Y-103726649D01*
X132160575Y-103782582D01*
X132129598Y-103799497D01*
X131997671Y-103848702D01*
X131997664Y-103848706D01*
X131882455Y-103934952D01*
X131882452Y-103934955D01*
X131796206Y-104050164D01*
X131796202Y-104050171D01*
X131745908Y-104185017D01*
X131742238Y-104219160D01*
X131739501Y-104244623D01*
X131739500Y-104244635D01*
X131739500Y-106040370D01*
X131739501Y-106040376D01*
X131745908Y-106099983D01*
X131796202Y-106234828D01*
X131796206Y-106234835D01*
X131882452Y-106350044D01*
X131882455Y-106350047D01*
X131997664Y-106436293D01*
X131997671Y-106436297D01*
X132132517Y-106486591D01*
X132132516Y-106486591D01*
X132139444Y-106487335D01*
X132192127Y-106493000D01*
X133170902Y-106492999D01*
X133237941Y-106512683D01*
X133283696Y-106565487D01*
X133293640Y-106634646D01*
X133264615Y-106698202D01*
X133258583Y-106704680D01*
X128888965Y-111074298D01*
X128876774Y-111084990D01*
X128851718Y-111104217D01*
X128827549Y-111135713D01*
X128827550Y-111135714D01*
X128755464Y-111229658D01*
X128755461Y-111229663D01*
X128694957Y-111375734D01*
X128694955Y-111375739D01*
X128674318Y-111532498D01*
X128674318Y-111532500D01*
X128678439Y-111563801D01*
X128679500Y-111579987D01*
X128679500Y-112190087D01*
X128659815Y-112257126D01*
X128652450Y-112267396D01*
X128650186Y-112270234D01*
X128554211Y-112422976D01*
X128494631Y-112593245D01*
X128494630Y-112593250D01*
X128474435Y-112772496D01*
X128474435Y-112772503D01*
X128494630Y-112951749D01*
X128494631Y-112951754D01*
X128554211Y-113122023D01*
X128650184Y-113274762D01*
X128777738Y-113402316D01*
X128930478Y-113498289D01*
X129100745Y-113557868D01*
X129100750Y-113557869D01*
X129279996Y-113578065D01*
X129280000Y-113578065D01*
X129280004Y-113578065D01*
X129459249Y-113557869D01*
X129459252Y-113557868D01*
X129459255Y-113557868D01*
X129629522Y-113498289D01*
X129782262Y-113402316D01*
X129909816Y-113274762D01*
X130005789Y-113122022D01*
X130065368Y-112951755D01*
X130085565Y-112772500D01*
X130065368Y-112593245D01*
X130005789Y-112422978D01*
X129909816Y-112270238D01*
X129909814Y-112270236D01*
X129909813Y-112270234D01*
X129907550Y-112267396D01*
X129906659Y-112265215D01*
X129906111Y-112264342D01*
X129906264Y-112264245D01*
X129881144Y-112202709D01*
X129880500Y-112190087D01*
X129880500Y-111832597D01*
X129900185Y-111765558D01*
X129916819Y-111744916D01*
X134617819Y-107043916D01*
X134679142Y-107010431D01*
X134748834Y-107015415D01*
X134804767Y-107057287D01*
X134829184Y-107122751D01*
X134829500Y-107131597D01*
X134829500Y-118398000D01*
X134809815Y-118465039D01*
X134757011Y-118510794D01*
X134705500Y-118522000D01*
X132120098Y-118522000D01*
X132053059Y-118502315D01*
X132032417Y-118485681D01*
X130110700Y-116563965D01*
X130077215Y-116502642D01*
X130075163Y-116490186D01*
X130065368Y-116403245D01*
X130005789Y-116232978D01*
X129909816Y-116080238D01*
X129782262Y-115952684D01*
X129774012Y-115947500D01*
X129629523Y-115856711D01*
X129459254Y-115797131D01*
X129459249Y-115797130D01*
X129280004Y-115776935D01*
X129279996Y-115776935D01*
X129100750Y-115797130D01*
X129100745Y-115797131D01*
X128930476Y-115856711D01*
X128777737Y-115952684D01*
X128650184Y-116080237D01*
X128554211Y-116232976D01*
X128494631Y-116403245D01*
X128494630Y-116403250D01*
X128474435Y-116582496D01*
X128474435Y-116582503D01*
X112950500Y-116582503D01*
X112950500Y-93000000D01*
X114744564Y-93000000D01*
X114764289Y-93326099D01*
X114823178Y-93647452D01*
X114920366Y-93959342D01*
X114920370Y-93959354D01*
X114920373Y-93959361D01*
X115054455Y-94257279D01*
X115218901Y-94529306D01*
X115223473Y-94536868D01*
X115424954Y-94794039D01*
X115655960Y-95025045D01*
X115913131Y-95226526D01*
X115913134Y-95226528D01*
X115913137Y-95226530D01*
X116192721Y-95395545D01*
X116490639Y-95529627D01*
X116490652Y-95529631D01*
X116490657Y-95529633D01*
X116643496Y-95577259D01*
X116802547Y-95626821D01*
X117123896Y-95685710D01*
X117450000Y-95705436D01*
X117776104Y-95685710D01*
X118097453Y-95626821D01*
X118347967Y-95548758D01*
X118409342Y-95529633D01*
X118409342Y-95529632D01*
X118409361Y-95529627D01*
X118707279Y-95395545D01*
X118986863Y-95226530D01*
X119244036Y-95025048D01*
X119475048Y-94794036D01*
X119676530Y-94536863D01*
X119845545Y-94257279D01*
X119979627Y-93959361D01*
X120076821Y-93647453D01*
X120135710Y-93326104D01*
X120155436Y-93000000D01*
X120135710Y-92673896D01*
X120076821Y-92352547D01*
X119979627Y-92040639D01*
X119845545Y-91742721D01*
X119676530Y-91463137D01*
X119676528Y-91463134D01*
X119676526Y-91463131D01*
X119475045Y-91205960D01*
X119244039Y-90974954D01*
X118986868Y-90773473D01*
X118979306Y-90768901D01*
X118707279Y-90604455D01*
X118409361Y-90470373D01*
X118409354Y-90470370D01*
X118409342Y-90470366D01*
X118097452Y-90373178D01*
X117776099Y-90314289D01*
X117450000Y-90294564D01*
X117123900Y-90314289D01*
X116802547Y-90373178D01*
X116490657Y-90470366D01*
X116490641Y-90470372D01*
X116490639Y-90470373D01*
X116300933Y-90555752D01*
X116192725Y-90604453D01*
X116192723Y-90604454D01*
X115913131Y-90773473D01*
X115655960Y-90974954D01*
X115424954Y-91205960D01*
X115223473Y-91463131D01*
X115054454Y-91742723D01*
X115054453Y-91742725D01*
X114920372Y-92040642D01*
X114920366Y-92040657D01*
X114823178Y-92352547D01*
X114764289Y-92673900D01*
X114744564Y-93000000D01*
X112950500Y-93000000D01*
X112950500Y-85277503D01*
X116109435Y-85277503D01*
X116129630Y-85456749D01*
X116129631Y-85456754D01*
X116189211Y-85627023D01*
X116285184Y-85779762D01*
X116412738Y-85907316D01*
X116565478Y-86003289D01*
X116735745Y-86062868D01*
X116735750Y-86062869D01*
X116914996Y-86083065D01*
X116915000Y-86083065D01*
X116915004Y-86083065D01*
X117094249Y-86062869D01*
X117094252Y-86062868D01*
X117094255Y-86062868D01*
X117264522Y-86003289D01*
X117417262Y-85907316D01*
X117544816Y-85779762D01*
X117640789Y-85627022D01*
X117700368Y-85456755D01*
X117700369Y-85456749D01*
X117720565Y-85277503D01*
X117720565Y-85277496D01*
X117700369Y-85098250D01*
X117700368Y-85098245D01*
X117640788Y-84927976D01*
X117580796Y-84832500D01*
X117544816Y-84775238D01*
X117544814Y-84775236D01*
X117544813Y-84775234D01*
X117542550Y-84772396D01*
X117541659Y-84770215D01*
X117541111Y-84769342D01*
X117541264Y-84769245D01*
X117516144Y-84707709D01*
X117515500Y-84695087D01*
X117515500Y-83907598D01*
X117535185Y-83840559D01*
X117551815Y-83819921D01*
X117726206Y-83645530D01*
X117787526Y-83612047D01*
X117857217Y-83617031D01*
X117913151Y-83658902D01*
X117937104Y-83719327D01*
X117939631Y-83741751D01*
X117939631Y-83741754D01*
X117999211Y-83912023D01*
X118064087Y-84015272D01*
X118095184Y-84064762D01*
X118222738Y-84192316D01*
X118375478Y-84288289D01*
X118545745Y-84347868D01*
X118545750Y-84347869D01*
X118724996Y-84368065D01*
X118725000Y-84368065D01*
X118725004Y-84368065D01*
X118904249Y-84347869D01*
X118904252Y-84347868D01*
X118904255Y-84347868D01*
X118984017Y-84319957D01*
X119024972Y-84313000D01*
X120090028Y-84313000D01*
X120130982Y-84319957D01*
X120160350Y-84330234D01*
X120210745Y-84347868D01*
X120210750Y-84347869D01*
X120389996Y-84368065D01*
X120390000Y-84368065D01*
X120390004Y-84368065D01*
X120569249Y-84347869D01*
X120569252Y-84347868D01*
X120569255Y-84347868D01*
X120739522Y-84288289D01*
X120803352Y-84248181D01*
X120870587Y-84229181D01*
X120937423Y-84249548D01*
X120982637Y-84302815D01*
X120991876Y-84372071D01*
X120974318Y-84419147D01*
X120934211Y-84482976D01*
X120874631Y-84653245D01*
X120874630Y-84653250D01*
X120854435Y-84832496D01*
X120854435Y-84832503D01*
X120874630Y-85011749D01*
X120874631Y-85011754D01*
X120934211Y-85182023D01*
X120994201Y-85277496D01*
X121030184Y-85334762D01*
X121157738Y-85462316D01*
X121310478Y-85558289D01*
X121480745Y-85617868D01*
X121480750Y-85617869D01*
X121659996Y-85638065D01*
X121660000Y-85638065D01*
X121660004Y-85638065D01*
X121839249Y-85617869D01*
X121839252Y-85617868D01*
X121839255Y-85617868D01*
X122009522Y-85558289D01*
X122162262Y-85462316D01*
X122289816Y-85334762D01*
X122385789Y-85182022D01*
X122445368Y-85011755D01*
X122445369Y-85011749D01*
X122465565Y-84832503D01*
X122465565Y-84832496D01*
X122445369Y-84653250D01*
X122445368Y-84653245D01*
X122385788Y-84482976D01*
X122300894Y-84347869D01*
X122289816Y-84330238D01*
X122289814Y-84330236D01*
X122289813Y-84330234D01*
X122287550Y-84327396D01*
X122286659Y-84325215D01*
X122286111Y-84324342D01*
X122286264Y-84324245D01*
X122261144Y-84262709D01*
X122260500Y-84250087D01*
X122260500Y-84031458D01*
X122261561Y-84015272D01*
X122265682Y-83983971D01*
X122265682Y-83983969D01*
X122248866Y-83856237D01*
X122245044Y-83827209D01*
X122184536Y-83681130D01*
X122167480Y-83658902D01*
X122128041Y-83607503D01*
X122128037Y-83607500D01*
X122088282Y-83555689D01*
X122063228Y-83536464D01*
X122051034Y-83525770D01*
X121214539Y-82689275D01*
X121181054Y-82627952D01*
X121179001Y-82615489D01*
X121175368Y-82583242D01*
X121115789Y-82412975D01*
X121087488Y-82367935D01*
X121019815Y-82260234D01*
X120892262Y-82132681D01*
X120739523Y-82036708D01*
X120569254Y-81977128D01*
X120569249Y-81977127D01*
X120390004Y-81956932D01*
X120389996Y-81956932D01*
X120210750Y-81977127D01*
X120210745Y-81977128D01*
X120040476Y-82036708D01*
X119887737Y-82132681D01*
X119760184Y-82260234D01*
X119664211Y-82412973D01*
X119604631Y-82583242D01*
X119604630Y-82583247D01*
X119591264Y-82701883D01*
X119564198Y-82766297D01*
X119506603Y-82805852D01*
X119468044Y-82812000D01*
X119024972Y-82812000D01*
X118984017Y-82805042D01*
X118904254Y-82777131D01*
X118904250Y-82777130D01*
X118762572Y-82761167D01*
X118698158Y-82734100D01*
X118658603Y-82676505D01*
X118653236Y-82651830D01*
X118635369Y-82493252D01*
X118635368Y-82493247D01*
X118575789Y-82322980D01*
X118479816Y-82170240D01*
X118352262Y-82042686D01*
X118261070Y-81985386D01*
X118199523Y-81946713D01*
X118029254Y-81887133D01*
X118029249Y-81887132D01*
X117850004Y-81866937D01*
X117849996Y-81866937D01*
X117670750Y-81887132D01*
X117670745Y-81887133D01*
X117500476Y-81946713D01*
X117347737Y-82042686D01*
X117220184Y-82170239D01*
X117124210Y-82322980D01*
X117064630Y-82493252D01*
X117054837Y-82580170D01*
X117027770Y-82644584D01*
X117019298Y-82653967D01*
X116523965Y-83149300D01*
X116511775Y-83159991D01*
X116486720Y-83179217D01*
X116486718Y-83179220D01*
X116403990Y-83287033D01*
X116393610Y-83300560D01*
X116390463Y-83304662D01*
X116329956Y-83450739D01*
X116329955Y-83450741D01*
X116309318Y-83607500D01*
X116309318Y-83607502D01*
X116310573Y-83617031D01*
X116313439Y-83638803D01*
X116314500Y-83654989D01*
X116314500Y-84695087D01*
X116294815Y-84762126D01*
X116287450Y-84772396D01*
X116285186Y-84775234D01*
X116189211Y-84927976D01*
X116129631Y-85098245D01*
X116129630Y-85098250D01*
X116109435Y-85277496D01*
X116109435Y-85277503D01*
X112950500Y-85277503D01*
X112950500Y-81133243D01*
X113729500Y-81133243D01*
X113744925Y-81284939D01*
X113805837Y-81479079D01*
X113805844Y-81479094D01*
X113904589Y-81656999D01*
X113904592Y-81657004D01*
X114037132Y-81811393D01*
X114037134Y-81811395D01*
X114198037Y-81935945D01*
X114198038Y-81935945D01*
X114198042Y-81935948D01*
X114380729Y-82025560D01*
X114577715Y-82076563D01*
X114780936Y-82086869D01*
X114982071Y-82056056D01*
X115172887Y-81985386D01*
X115345571Y-81877752D01*
X115493053Y-81737559D01*
X115609295Y-81570549D01*
X115689540Y-81383558D01*
X115730500Y-81184241D01*
X115730500Y-80633091D01*
X115750185Y-80566052D01*
X115802989Y-80520297D01*
X115872147Y-80510353D01*
X115901953Y-80518530D01*
X116009764Y-80563187D01*
X116122280Y-80578000D01*
X116122287Y-80578000D01*
X116197713Y-80578000D01*
X116197720Y-80578000D01*
X116310236Y-80563187D01*
X116450233Y-80505198D01*
X116570451Y-80412951D01*
X116662698Y-80292733D01*
X116720687Y-80152736D01*
X116740466Y-80002500D01*
X121359534Y-80002500D01*
X121379312Y-80152734D01*
X121379313Y-80152736D01*
X121437302Y-80292733D01*
X121529549Y-80412951D01*
X121649767Y-80505198D01*
X121789764Y-80563187D01*
X121902280Y-80578000D01*
X121902287Y-80578000D01*
X121977713Y-80578000D01*
X121977720Y-80578000D01*
X122090236Y-80563187D01*
X122198047Y-80518530D01*
X122267517Y-80511061D01*
X122329996Y-80542336D01*
X122365648Y-80602425D01*
X122369500Y-80633091D01*
X122369500Y-81133243D01*
X122384925Y-81284939D01*
X122445837Y-81479079D01*
X122445844Y-81479094D01*
X122544589Y-81656999D01*
X122544592Y-81657004D01*
X122677132Y-81811393D01*
X122677134Y-81811395D01*
X122838037Y-81935945D01*
X122838038Y-81935945D01*
X122838042Y-81935948D01*
X123020729Y-82025560D01*
X123217715Y-82076563D01*
X123420936Y-82086869D01*
X123622071Y-82056056D01*
X123812887Y-81985386D01*
X123985571Y-81877752D01*
X124133053Y-81737559D01*
X124249295Y-81570549D01*
X124329540Y-81383558D01*
X124370500Y-81184241D01*
X124370500Y-79931758D01*
X124362417Y-79852265D01*
X124355074Y-79780060D01*
X124318189Y-79662500D01*
X126294564Y-79662500D01*
X126314289Y-79988599D01*
X126373178Y-80309952D01*
X126470366Y-80621842D01*
X126470370Y-80621854D01*
X126470373Y-80621861D01*
X126604455Y-80919779D01*
X126733499Y-81133243D01*
X126773473Y-81199368D01*
X126974954Y-81456539D01*
X127205960Y-81687545D01*
X127463131Y-81889026D01*
X127463134Y-81889028D01*
X127463137Y-81889030D01*
X127742721Y-82058045D01*
X128040639Y-82192127D01*
X128040652Y-82192131D01*
X128040657Y-82192133D01*
X128259203Y-82260234D01*
X128352547Y-82289321D01*
X128673896Y-82348210D01*
X129000000Y-82367936D01*
X129326104Y-82348210D01*
X129647453Y-82289321D01*
X129959361Y-82192127D01*
X130257279Y-82058045D01*
X130536863Y-81889030D01*
X130794036Y-81687548D01*
X131025048Y-81456536D01*
X131226530Y-81199363D01*
X131395545Y-80919779D01*
X131529627Y-80621861D01*
X131535684Y-80602425D01*
X131561826Y-80518530D01*
X131626821Y-80309953D01*
X131685710Y-79988604D01*
X131705436Y-79662500D01*
X184744564Y-79662500D01*
X184764289Y-79988599D01*
X184823178Y-80309952D01*
X184920366Y-80621842D01*
X184920370Y-80621854D01*
X184920373Y-80621861D01*
X185054455Y-80919779D01*
X185183499Y-81133243D01*
X185223473Y-81199368D01*
X185424954Y-81456539D01*
X185655960Y-81687545D01*
X185913131Y-81889026D01*
X185913134Y-81889028D01*
X185913137Y-81889030D01*
X186192721Y-82058045D01*
X186490639Y-82192127D01*
X186490652Y-82192131D01*
X186490657Y-82192133D01*
X186709203Y-82260234D01*
X186802547Y-82289321D01*
X187123896Y-82348210D01*
X187450000Y-82367936D01*
X187776104Y-82348210D01*
X188097453Y-82289321D01*
X188409361Y-82192127D01*
X188707279Y-82058045D01*
X188986863Y-81889030D01*
X189244036Y-81687548D01*
X189475048Y-81456536D01*
X189676530Y-81199363D01*
X189845545Y-80919779D01*
X189979627Y-80621861D01*
X189985684Y-80602425D01*
X190011826Y-80518530D01*
X190076821Y-80309953D01*
X190135710Y-79988604D01*
X190155436Y-79662500D01*
X190135710Y-79336396D01*
X190076821Y-79015047D01*
X189979627Y-78703139D01*
X189845545Y-78405221D01*
X189676530Y-78125637D01*
X189676528Y-78125634D01*
X189676526Y-78125631D01*
X189475045Y-77868460D01*
X189244039Y-77637454D01*
X188986868Y-77435973D01*
X188896582Y-77381393D01*
X188707279Y-77266955D01*
X188409361Y-77132873D01*
X188409354Y-77132870D01*
X188409342Y-77132866D01*
X188097452Y-77035678D01*
X187776099Y-76976789D01*
X187450000Y-76957064D01*
X187123900Y-76976789D01*
X186802547Y-77035678D01*
X186490657Y-77132866D01*
X186490641Y-77132872D01*
X186490639Y-77132873D01*
X186300933Y-77218252D01*
X186192725Y-77266953D01*
X186192723Y-77266954D01*
X185913131Y-77435973D01*
X185655960Y-77637454D01*
X185424954Y-77868460D01*
X185223473Y-78125631D01*
X185054454Y-78405223D01*
X185054453Y-78405225D01*
X184920372Y-78703142D01*
X184920366Y-78703157D01*
X184823178Y-79015047D01*
X184764289Y-79336400D01*
X184744564Y-79662500D01*
X131705436Y-79662500D01*
X131685710Y-79336396D01*
X131626821Y-79015047D01*
X131529627Y-78703139D01*
X131395545Y-78405221D01*
X131226530Y-78125637D01*
X131226528Y-78125634D01*
X131226526Y-78125631D01*
X131025045Y-77868460D01*
X130794039Y-77637454D01*
X130536868Y-77435973D01*
X130446582Y-77381393D01*
X130257279Y-77266955D01*
X129959361Y-77132873D01*
X129959354Y-77132870D01*
X129959342Y-77132866D01*
X129647452Y-77035678D01*
X129326099Y-76976789D01*
X129000000Y-76957064D01*
X128673900Y-76976789D01*
X128352547Y-77035678D01*
X128040657Y-77132866D01*
X128040641Y-77132872D01*
X128040639Y-77132873D01*
X127850933Y-77218252D01*
X127742725Y-77266953D01*
X127742723Y-77266954D01*
X127463131Y-77435973D01*
X127205960Y-77637454D01*
X126974954Y-77868460D01*
X126773473Y-78125631D01*
X126604454Y-78405223D01*
X126604453Y-78405225D01*
X126470372Y-78703142D01*
X126470366Y-78703157D01*
X126373178Y-79015047D01*
X126314289Y-79336400D01*
X126294564Y-79662500D01*
X124318189Y-79662500D01*
X124294162Y-79585920D01*
X124294160Y-79585916D01*
X124294159Y-79585912D01*
X124195409Y-79407998D01*
X124195408Y-79407997D01*
X124195407Y-79407995D01*
X124062867Y-79253606D01*
X124062865Y-79253604D01*
X123901962Y-79129054D01*
X123901959Y-79129053D01*
X123901958Y-79129052D01*
X123719271Y-79039440D01*
X123522285Y-78988437D01*
X123522287Y-78988437D01*
X123386804Y-78981566D01*
X123319064Y-78978131D01*
X123319063Y-78978131D01*
X123319061Y-78978131D01*
X123117936Y-79008942D01*
X123117924Y-79008945D01*
X122927118Y-79079611D01*
X122927111Y-79079615D01*
X122754432Y-79187245D01*
X122754427Y-79187249D01*
X122606949Y-79327438D01*
X122606947Y-79327440D01*
X122606947Y-79327441D01*
X122568199Y-79383111D01*
X122490703Y-79494453D01*
X122487349Y-79502269D01*
X122442818Y-79556109D01*
X122376248Y-79577328D01*
X122308775Y-79559188D01*
X122297914Y-79551736D01*
X122230234Y-79499802D01*
X122230230Y-79499800D01*
X122139731Y-79462314D01*
X122090236Y-79441813D01*
X122076171Y-79439961D01*
X121977727Y-79427000D01*
X121977720Y-79427000D01*
X121902280Y-79427000D01*
X121902272Y-79427000D01*
X121789764Y-79441813D01*
X121789763Y-79441813D01*
X121649770Y-79499800D01*
X121649767Y-79499801D01*
X121649767Y-79499802D01*
X121529549Y-79592049D01*
X121466462Y-79674266D01*
X121437300Y-79712270D01*
X121379313Y-79852263D01*
X121379312Y-79852265D01*
X121359534Y-80002499D01*
X121359534Y-80002500D01*
X116740466Y-80002500D01*
X116720687Y-79852264D01*
X116662698Y-79712267D01*
X116570451Y-79592049D01*
X116450233Y-79499802D01*
X116450229Y-79499800D01*
X116386801Y-79473527D01*
X116310236Y-79441813D01*
X116296171Y-79439961D01*
X116197727Y-79427000D01*
X116197720Y-79427000D01*
X116122280Y-79427000D01*
X116122272Y-79427000D01*
X116009764Y-79441813D01*
X116009763Y-79441813D01*
X115869769Y-79499800D01*
X115869766Y-79499802D01*
X115799145Y-79553992D01*
X115733976Y-79579186D01*
X115665531Y-79565148D01*
X115615542Y-79516334D01*
X115615240Y-79515793D01*
X115555410Y-79408000D01*
X115555407Y-79407995D01*
X115422867Y-79253606D01*
X115422865Y-79253604D01*
X115261962Y-79129054D01*
X115261959Y-79129053D01*
X115261958Y-79129052D01*
X115079271Y-79039440D01*
X114882285Y-78988437D01*
X114882287Y-78988437D01*
X114746804Y-78981566D01*
X114679064Y-78978131D01*
X114679063Y-78978131D01*
X114679061Y-78978131D01*
X114477936Y-79008942D01*
X114477924Y-79008945D01*
X114287118Y-79079611D01*
X114287111Y-79079615D01*
X114114432Y-79187245D01*
X114114427Y-79187249D01*
X113966949Y-79327438D01*
X113966947Y-79327440D01*
X113966947Y-79327441D01*
X113946113Y-79357373D01*
X113850705Y-79494449D01*
X113770459Y-79681443D01*
X113729500Y-79880758D01*
X113729500Y-81133243D01*
X112950500Y-81133243D01*
X112950500Y-75257000D01*
X112970185Y-75189961D01*
X113022989Y-75144206D01*
X113074500Y-75133000D01*
X113934711Y-75133000D01*
X114001750Y-75152685D01*
G37*
%TD.AperFunction*%
%TD*%
M02*
