%TF.GenerationSoftware,KiCad,Pcbnew,7.0.11+dfsg-1build4*%
%TF.CreationDate,2026-04-16T21:05:03+02:00*%
%TF.ProjectId,Motherboard,4d6f7468-6572-4626-9f61-72642e6b6963,v1.0*%
%TF.SameCoordinates,Original*%
%TF.FileFunction,Soldermask,Bot*%
%TF.FilePolarity,Negative*%
%FSLAX46Y46*%
G04 Gerber Fmt 4.6, Leading zero omitted, Abs format (unit mm)*
G04 Created by KiCad (PCBNEW 7.0.11+dfsg-1build4) date 2026-04-16 21:05:03*
%MOMM*%
%LPD*%
G01*
G04 APERTURE LIST*
%ADD10R,1.700000X1.700000*%
%ADD11O,1.700000X1.700000*%
%ADD12C,0.700000*%
%ADD13C,4.400000*%
%ADD14C,0.650000*%
%ADD15O,1.000000X2.100000*%
%ADD16O,1.000000X1.600000*%
G04 APERTURE END LIST*
D10*
%TO.C,J2*%
X133090000Y-105142500D03*
D11*
X133090000Y-102602500D03*
X133090000Y-100062500D03*
X133090000Y-97522500D03*
%TD*%
D12*
%TO.C,H2*%
X127350000Y-79662500D03*
X127833274Y-78495774D03*
X127833274Y-80829226D03*
X129000000Y-78012500D03*
D13*
X129000000Y-79662500D03*
D12*
X129000000Y-81312500D03*
X130166726Y-78495774D03*
X130166726Y-80829226D03*
X130650000Y-79662500D03*
%TD*%
%TO.C,H4*%
X185800000Y-119662500D03*
X186283274Y-118495774D03*
X186283274Y-120829226D03*
X187450000Y-118012500D03*
D13*
X187450000Y-119662500D03*
D12*
X187450000Y-121312500D03*
X188616726Y-118495774D03*
X188616726Y-120829226D03*
X189100000Y-119662500D03*
%TD*%
%TO.C,H1*%
X185800000Y-79662500D03*
X186283274Y-78495774D03*
X186283274Y-80829226D03*
X187450000Y-78012500D03*
D13*
X187450000Y-79662500D03*
D12*
X187450000Y-81312500D03*
X188616726Y-78495774D03*
X188616726Y-80829226D03*
X189100000Y-79662500D03*
%TD*%
%TO.C,H3*%
X115800000Y-119662500D03*
X116283274Y-118495774D03*
X116283274Y-120829226D03*
X117450000Y-118012500D03*
D13*
X117450000Y-119662500D03*
D12*
X117450000Y-121312500D03*
X118616726Y-118495774D03*
X118616726Y-120829226D03*
X119100000Y-119662500D03*
%TD*%
D14*
%TO.C,J1*%
X121940000Y-80002500D03*
X116160000Y-80002500D03*
D15*
X123370000Y-80532500D03*
D16*
X123370000Y-76352500D03*
D15*
X114730000Y-80532500D03*
D16*
X114730000Y-76352500D03*
%TD*%
D12*
%TO.C,H5*%
X115800000Y-93000000D03*
X116283274Y-91833274D03*
X116283274Y-94166726D03*
X117450000Y-91350000D03*
D13*
X117450000Y-93000000D03*
D12*
X117450000Y-94650000D03*
X118616726Y-91833274D03*
X118616726Y-94166726D03*
X119100000Y-93000000D03*
%TD*%
M02*
